<svg xmlns="http://www.w3.org/2000/svg" xml:space="preserve" id="Layer_1" x="0" y="0" style="enable-background:new 0 0 106 85" version="1.1" viewBox="0 0 106 85"><style>.st0{fill:#57923f}.st2{fill:#603813}.st4{fill:#fff}.st6{fill:#ffa87f}.st7{fill:#ff3d7f}</style><path d="M31.81 76.34c.67 2.53 1.65 4.86 2.87 7.03-.58-2.32-.54-4.77-.2-7.06.38-2.4 1.21-4.55 2.11-6.62a50.78 50.78 0 0 1 3.19-5.72c.9-1.42 1.85-2.78 2.8-4.12 1.87.57 3.82.91 5.84 1.12.02-.42 2.74-.65 7.63-.88 2.44-.12 5.43-.25 8.87-.49 1.72-.13 3.55-.28 5.45-.52 1.93-.23 3.78-.61 5.82-1.23 4.02-1.2 8.28-3.12 12.09-6.14 1-.81 1.96-1.69 2.87-2.65-16.47 5.04-35.64.05-53.32.8-1.86.39-3.71 1.51-5.42 3.07.25.28.5.55.75.83-2.72 7.01-3.48 14.73-1.35 22.58z" class="st0"/><path d="M36.19 83.36c-.21-.37-.41-.93-.61-1.43-.18-.52-.44-1-.53-1.55l-.06-.25c-1.14-1.93-2.07-4-2.69-6.25-2-6.98-1.29-13.85 1.29-20.1-.24-.24-.47-.48-.71-.73 1.6-1.39 3.34-2.39 5.09-2.74 16.58-.66 34.57 3.78 50.03-.71.76-.76 1.48-1.57 2.14-2.45.52-.7 1.02-1.46 1.49-2.24-1.33.29-2.94.47-4.68.42-2.46-.08-4.64-.6-6.13-1.21-1.49-.61-2.29-1.25-2.18-1.59.26-.72 3.91.03 8.38.14 2.3.08 4.38-.01 5.9-.03.34-.64.68-1.28 1.01-1.95 1.19-2.37 2.31-4.8 3.17-7.32.86-2.51 1.45-5.16 1.55-7.74.04-1.27-.08-2.48-.42-3.55-.34-1.09-.94-2.18-1.72-3.26-1.6-2.17-3.69-4.24-5.98-5.95-4.62-3.45-10.05-5.47-15.52-5.93-2.77-.27-5.61-.27-8.44-.26-2.81.01-5.54.08-8.17.26-5.27.36-10.16 1.25-14.37 2.93-2.1.83-4.02 1.88-5.74 3.03a27.657 27.657 0 0 0-4.54 3.93c-2.66 2.83-4.47 5.88-5.86 8.74-1.38 2.84-2.28 5.41-2.76 7.56-.97 4.27-.43 6.78-.84 6.92l-.01.01c-.16.04-.53-.53-.85-1.75-.06-.24-.12-.51-.17-.79-.45.61-.9 1.23-1.35 1.84-2.05 2.79-3.89 5.58-5.5 8.51-3.23 5.82-5.5 11.98-6.79 18.19-.65 3.1-1.04 6.23-1.21 9.32-.02.22-.01.44-.03.65M66.12 42.1c-4.04.14-7.64-2.58-10.26-5.39-.1-.07-.25-.19-.42-.38-.62-.54-1.69-1.53-2.9-2.97-1.91-2.27-3.12-2.03-3.94-2-.81.03-4.54 1.17-6.14.56 0 0 5.09.03 6.85-2.06 1.76-2.09 5.53-12.53 15.89-13.09-1.04-.86-4.2-1.06-4.2-1.06s7.5-.86 14.87 6.1c-2.07-1.05-2.49-1.34-3.52-1.71 2.08 1.15 3.29 4.05 3.29 4.05s-.53-.52-1.14-1.04c2.55 3.55 2.86 8.24 2.86 8.24s-3 10.47-11.24 10.75zM53.18 14.06c-1.92.29-4 .57-5.44.97-.74.21-1.28.45-1.83.81-.55.36-1.1.84-1.64 1.39-1.07 1.1-2.2 2.48-3.24 3.62-1.05 1.17-2.04 2.25-2.96 3.22-3.69 3.88-6.26 6.05-6.84 5.6-.58-.46.95-3.45 3.88-7.93.73-1.12 1.55-2.33 2.45-3.62.93-1.29 1.79-2.62 3.05-4.16.63-.76 1.39-1.55 2.34-2.26.95-.72 2.14-1.3 3.23-1.64 1.11-.36 2.18-.57 3.17-.75 1-.18 2.02-.36 3.06-.5 8.3-1.21 15.94-.85 21.32.04 5.4.9 8.56 2.21 8.43 2.9-.25 1.51-13.3-.04-28.98 2.31zm41.66 14.07c-.19.71-1.53.97-3 .59-1.47-.39-2.5-1.27-2.32-1.98.19-.71 1.53-.97 3-.59s2.51 1.27 2.32 1.98z" style="fill:#8eba3f"/><path d="M42.09 83.36c-.39-.78-.79-1.56-1.18-2.34-.23-.42-.31-.72-.45-1.06-.1-.34-.31-.65-.35-1-.39-1.35-.35-2.78-.13-4.24.24-1.47.86-2.97 1.54-4.46.76-1.48 1.63-2.96 2.64-4.41 1.22-1.8 2.58-3.57 3.98-5.37.76.33 3.12.72 6.85 1.06 2.31.21 5.13.39 8.44.46 1.66.03 3.43.03 5.34-.06 1.89-.07 4.03-.34 6.1-.82 4.19-.92 8.73-2.57 13.03-5.51 2.12-1.49 4.18-3.29 5.94-5.48 1.76-2.18 3.16-4.6 4.47-7.02 1.31-2.43 2.59-5.03 3.61-7.85 1.03-2.83 1.79-5.87 1.96-9.17.07-1.66-.05-3.46-.6-5.26-.55-1.78-1.44-3.36-2.44-4.75-2.01-2.74-4.38-5.05-7.11-7.09-5.41-4.01-11.93-6.36-18.25-6.81-3.13-.26-6.11-.2-8.98-.15-2.88.06-5.73.19-8.52.46-5.57.52-10.95 1.64-15.67 3.73a33.545 33.545 0 0 0-6.44 3.75 30.697 30.697 0 0 0-4.95 4.74c-2.79 3.33-4.57 6.87-5.76 9.97-.54 1.41-.96 2.75-1.29 4.03-1.07 1.15-2.03 2.34-2.94 3.52-1.12 1.45-2.16 2.89-3.19 4.31-2.1 2.88-4.09 5.92-5.79 9.04-3.42 6.23-5.83 12.87-7.14 19.54-.67 3.33-1.05 6.67-1.19 9.97-.05.82-.07 1.65-.07 2.46m4.77.08c.01-.55.04-1.1.07-1.65.01-.22.01-.43.03-.65.17-3.07.56-6.18 1.21-9.26 1.28-6.17 3.56-12.29 6.79-18.07 1.61-2.91 3.45-5.68 5.5-8.45.45-.61.9-1.22 1.35-1.82.05.28.11.55.17.79.31 1.21.69 1.78.85 1.74l.01-.01c.41-.14-.14-2.64.84-6.88.48-2.13 1.37-4.69 2.76-7.51 1.38-2.84 3.2-5.87 5.86-8.68 1.31-1.4 2.83-2.73 4.54-3.9 1.72-1.15 3.64-2.19 5.74-3.01 4.21-1.68 9.1-2.55 14.36-2.92 2.63-.19 5.36-.25 8.17-.26 2.83-.01 5.67-.01 8.44.26 5.48.46 10.91 2.47 15.55 5.9 2.29 1.7 4.38 3.75 5.98 5.91.78 1.07 1.38 2.16 1.72 3.24.34 1.06.46 2.26.42 3.52-.1 2.57-.69 5.2-1.55 7.69-.86 2.51-1.98 4.92-3.17 7.28-.34.66-.67 1.31-1.01 1.94-1.52.02-3.6.11-5.9.03-4.47-.11-8.12-.85-8.38-.14-.12.34.68.98 2.18 1.58 1.48.6 3.67 1.12 6.13 1.2 1.74.05 3.34-.13 4.68-.42-.48.78-.97 1.53-1.49 2.22-.66.88-1.38 1.68-2.14 2.44-.85.85-1.76 1.63-2.69 2.35-3.58 2.67-7.58 4.37-11.35 5.43-1.92.55-3.66.88-5.47 1.09-1.79.21-3.51.35-5.12.46-3.23.21-6.03.32-8.33.43-4.59.21-7.15.41-7.16.78-1.9-.19-3.73-.49-5.48-.99-.9 1.19-1.78 2.39-2.63 3.65a44.153 44.153 0 0 0-2.99 5.05c-.84 1.82-1.62 3.73-1.98 5.85-.32 2.02-.35 4.18.19 6.24l.06.25c.09.55.35 1.03.53 1.54.2.5.4 1.05.61 1.42" class="st2"/><path d="M55.09 35.47c.12.19.24.35.35.47.11.1.21.18.29.24-.22-.23-.43-.47-.64-.71z" style="fill:#ffb621"/><path d="M73.03 21.77c2.11 2.05 2.27 3.87 2.27 3.87s-3.87-6.14-10.08-5.93c-2.47.08-4.33 1.55-6.21 3.04-2.83 2.25-5.12 5.14-5.02 8.06.08 2.47.61 3.87 1.1 4.66.21.24.42.48.64.72.18.15.28.22.28.22s-.06-.03-.16-.09c2.62 2.79 6.22 5.5 10.26 5.37 8.24-.28 11.24-10.7 11.24-10.7s-.32-4.68-2.86-8.21c-.51-.44-1.09-.88-1.46-1.01zm1.32 8.13c-.01.08-.01.15-.02.22s-.02.13-.03.18c-.04.22-.1.33-.16.33.02 0 .04.11.06.31 0 .05.01.11.02.17 0 .06.01.13.01.21.01.15.01.33 0 .53a10.809 10.809 0 0 1-.62 3.3c-.12.34-.27.68-.43 1.04-.18.35-.37.71-.6 1.06-.46.71-1.06 1.41-1.8 2.02-.75.6-1.65 1.11-2.68 1.38-.51.14-1.05.22-1.59.24-.55.01-1.1-.04-1.65-.16-.55-.12-1.07-.31-1.56-.54-.12-.06-.24-.12-.36-.19s-.24-.13-.35-.2c-.11-.07-.23-.14-.33-.22l-.16-.11-.18-.14-.29-.23c-.09-.08-.19-.16-.28-.23l-.14-.12-.02-.01s.01-.01.02-.01l.04-.02.08-.03.33-.12c.11-.04.25-.08.35-.13l.12-.05a.3.3 0 0 0 .08-.04c.1-.05.21-.1.3-.16.39-.23.72-.53.99-.87.53-.68.79-1.53.7-2.28-.01-.06-.03-.12-.04-.17-.25-.33-.44-.67-.59-1.01-.04-.03-.08-.08-.13-.11-.04-.02-.07-.04-.11-.06l-.05-.03-.06-.02c-.04-.01-.07-.03-.11-.04l-.12-.03c-.31-.08-.63-.1-.93-.07-.3.04-.57.11-.82.21-.49.21-.88.49-1.18.73-.3.25-.51.46-.66.61-.15.15-.23.22-.24.21-.1.04-.4-.32-.74-1.09-.33-.77-.69-1.95-.76-3.47-.04-.76.01-1.6.16-2.49.16-.89.43-1.83.87-2.76.44-.93 1.04-1.86 1.84-2.68.8-.82 1.81-1.53 2.98-1.96 1.17-.44 2.43-.55 3.6-.38 1.17.17 2.23.63 3.11 1.21.44.29.84.62 1.19.96.35.34.67.7.95 1.07.27.37.52.73.72 1.1.11.18.19.37.29.55.08.18.17.36.24.54.29.71.48 1.37.59 1.96.11.59.16 1.1.16 1.52v.3c0 .1 0 .19-.01.27z" class="st4"/><path d="M73.7 29.44c-.1-.38-.24-.84-.43-1.36-.19-.52-.43-1.09-.76-1.69-.08-.15-.17-.3-.26-.45-.01-.01-.01-.02-.02-.03-.05.88-.76 1.59-1.66 1.62-.95.03-1.75-.71-1.79-1.66-.03-.95.72-1.74 1.67-1.78.11 0 .22.01.33.02-.13-.13-.25-.27-.39-.39-.31-.27-.65-.52-1.02-.74-.74-.44-1.58-.77-2.48-.88-.9-.11-1.86-.02-2.77.32-.91.33-1.71.88-2.38 1.54-.67.65-1.2 1.42-1.62 2.2-.41.78-.7 1.58-.89 2.35-.19.77-.3 1.52-.34 2.2-.01.23-.01.44-.02.66 1.03-.54 2.45-1.12 4.25-1.48.06-.31.13-.58.2-.79.15-.43.3-.65.35-.63.06.02.02.27-.02.7-.02.18-.04.39-.05.63 1.48-.25 3.2-.35 5.14-.15-.04-.31-.08-.58-.13-.79-.08-.43-.14-.67-.09-.69.05-.02.22.18.41.59.11.24.22.57.32.96 1.5.19 3.11.55 4.85 1.15.01-.14.03-.23.04-.23-.12.01-.23-.44-.44-1.2z" style="fill:#d13d7f"/><path d="M68.28 35.1c-.21.25-.45.48-.76.66-.15.09-.31.17-.49.23-.17.06-.36.1-.55.11-.19.02-.38.01-.56-.03-.18-.03-.36-.09-.52-.16-.28-.12-.52-.29-.73-.48-.01.76-.27 1.54-.76 2.2-.3.39-.68.75-1.13 1.02-.11.07-.23.13-.35.19-.03.01-.06.03-.09.04l-.05.02h-.01c-.01 0 0 .01.01.01l.12.09.15.1c.1.07.21.14.31.2.1.07.21.12.32.19a6.46 6.46 0 0 0 3.28.82c.5-.01.99-.08 1.46-.21.94-.25 1.78-.7 2.49-1.25a8.7 8.7 0 0 0 1.74-1.87c.23-.33.42-.67.61-1 .08-.16.15-.32.22-.48-1.58-.46-3.06-.73-4.42-.85-.08.17-.18.31-.29.45z" class="st6"/><path d="M65.08 34.67c.02.02.03.05.06.06.36.33.82.55 1.28.51.44-.03.84-.29 1.16-.64-.88-.03-1.72 0-2.5.07z" class="st6"/><path d="M63.62 30.98c.07.76.23 1.66.66 2.55.2.41.47.81.8 1.14.78-.07 1.61-.1 2.5-.07l.05-.05c.33-.38.56-.84.74-1.29.17-.46.28-.92.34-1.36.07-.44.09-.86.09-1.24s-.03-.72-.06-1.02c-1.94-.2-3.65-.1-5.14.15-.02.35-.02.74.02 1.19zM59.92 34.28c.28-.28.67-.6 1.2-.86.27-.12.57-.23.9-.28.34-.05.7-.04 1.07.04l.14.03c.04.01.07.03.11.04a7.045 7.045 0 0 1-.22-3.37c-1.8.36-3.22.94-4.25 1.48-.01 1.07.1 1.97.2 2.62.09.58.16.97.15 1.16.03-.04.06-.09.1-.16.12-.17.31-.42.6-.7zM69.42 31.98c-.04.49-.13 1.01-.3 1.54-.13.38-.3.77-.53 1.15 1.36.12 2.84.39 4.42.85.08-.17.17-.33.23-.5.26-.64.43-1.24.55-1.78.12-.54.19-1.01.23-1.39.03-.19.04-.37.05-.52.01-.07.01-.14.02-.21 0-.06.01-.12.01-.17 0-.04.01-.06.01-.09-1.74-.6-3.36-.96-4.85-1.15.07.28.13.58.16.92.03.41.04.86 0 1.35z" class="st7"/><path d="M68.79 25.86c.03.95.83 1.69 1.79 1.66.9-.03 1.61-.74 1.66-1.62-.09-.14-.18-.29-.28-.43-.2-.31-.44-.61-.7-.9-.14-.16-.31-.31-.47-.46-.11-.02-.22-.03-.33-.02-.96.03-1.7.82-1.67 1.77z" class="st4"/><path d="M49.32 29.51c-1.76 2.08-6.85 2.05-6.85 2.05 1.6.6 5.33-.53 6.14-.56.81-.03 2.03-.27 3.94 1.99 1.21 1.43 2.28 2.42 2.9 2.96-.11-.12-.23-.28-.35-.47-.49-.79-1.02-2.19-1.1-4.66-.1-2.92 2.18-5.81 5.02-8.06 1.87-1.49 3.74-2.96 6.21-3.04 6.2-.21 10.08 5.93 10.08 5.93s-.16-1.82-2.27-3.87c.38.13.96.56 1.47 1 .61.52 1.14 1.03 1.14 1.03s-1.22-2.89-3.29-4.04c1.03.37 1.45.66 3.52 1.7C68.5 14.54 61 15.4 61 15.4s3.16.2 4.21 1.07c-10.36.55-14.13 10.95-15.89 13.04zM55.86 36.32c.1.07.16.09.16.09s-.1-.08-.28-.22c-.08-.07-.18-.15-.29-.24.16.19.31.3.41.37z" class="st2"/><path d="M74.33 30.12c.01-.07.01-.14.02-.22.01-.08.01-.17.02-.26v-.3c0-.42-.05-.93-.16-1.52s-.3-1.25-.59-1.96c-.07-.18-.16-.35-.24-.54-.09-.18-.18-.37-.29-.55-.2-.37-.45-.74-.72-1.1a8.48 8.48 0 0 0-.95-1.07 8.18 8.18 0 0 0-1.19-.96 7.563 7.563 0 0 0-3.11-1.21 7.199 7.199 0 0 0-3.6.38c-1.17.43-2.18 1.14-2.98 1.96-.81.82-1.4 1.75-1.84 2.68-.44.93-.71 1.87-.87 2.76-.15.89-.19 1.73-.16 2.49.07 1.52.43 2.71.76 3.47.34.77.64 1.13.74 1.09.02.01.1-.06.24-.21.15-.15.36-.36.66-.61.3-.25.68-.52 1.18-.73.25-.1.52-.18.82-.21.29-.03.61-.01.93.07l.12.03c.04.01.07.03.11.04l.06.02.05.03c.04.02.07.04.11.06.05.03.08.08.13.11.15.34.34.68.59 1.01.01.06.04.11.04.17.08.75-.18 1.59-.7 2.28-.27.34-.6.64-.99.87-.1.06-.2.11-.3.16-.03.01-.05.03-.08.04l-.14.05c-.1.05-.24.08-.35.13l-.33.12-.08.03-.04.02c-.01 0-.02 0-.02.01l.02.01.14.12c.09.08.19.16.28.23.1.08.18.16.29.23l.18.14.16.11c.11.08.22.15.33.22.11.07.23.14.35.2.12.06.24.13.36.19a7.025 7.025 0 0 0 3.21.7c.55-.02 1.08-.1 1.59-.24 1.02-.28 1.93-.78 2.68-1.38.75-.61 1.34-1.31 1.8-2.02.24-.35.43-.71.6-1.06.17-.35.32-.7.43-1.04a10.809 10.809 0 0 0 .62-3.3c.01-.2 0-.37 0-.53 0-.08-.01-.15-.01-.21-.01-.06-.01-.12-.02-.17-.02-.21-.04-.32-.06-.31-.02 0-.03.09-.04.23 0 .03-.01.05-.01.09 0 .05-.01.11-.01.17-.01.06-.01.13-.02.21-.01.15-.02.32-.05.52-.04.39-.11.86-.23 1.39-.12.54-.29 1.14-.55 1.78-.06.16-.15.33-.23.5-.07.16-.14.32-.22.48-.18.33-.37.67-.61 1a8.7 8.7 0 0 1-1.74 1.87c-.71.55-1.55 1.01-2.49 1.25-.47.12-.96.19-1.46.21a6.45 6.45 0 0 1-2.95-.65c-.11-.06-.22-.11-.33-.17-.11-.06-.22-.12-.32-.19s-.21-.13-.31-.2l-.15-.1-.12-.09s-.02-.01-.01-.01h.01l.05-.02c.03-.01.06-.03.09-.04a4.109 4.109 0 0 0 1.48-1.21c.49-.66.75-1.44.76-2.2.21.19.45.36.73.48.16.07.34.13.52.16s.37.04.56.03c.19-.01.37-.05.55-.11.17-.06.34-.14.49-.23.3-.18.55-.42.76-.66.11-.14.21-.28.31-.43.24-.38.41-.77.53-1.15.17-.53.26-1.05.3-1.54.04-.49.03-.94-.01-1.35-.03-.34-.09-.64-.16-.92a5.1 5.1 0 0 0-.32-.96c-.19-.42-.35-.62-.41-.59-.06.03 0 .27.09.69.04.22.09.48.13.79.04.3.06.64.06 1.02s-.02.8-.09 1.24c-.06.44-.17.9-.34 1.36-.17.46-.41.92-.74 1.29l-.05.05c-.32.35-.73.61-1.16.64-.46.04-.91-.18-1.28-.51l-.06-.06c-.34-.33-.6-.73-.8-1.14-.43-.88-.59-1.79-.66-2.55a9.743 9.743 0 0 1 .03-1.82c.04-.43.08-.68.02-.7-.05-.02-.2.19-.35.63-.07.21-.15.48-.2.79-.06.33-.1.7-.11 1.12-.01.66.07 1.43.33 2.25-.04-.01-.07-.03-.11-.04l-.14-.03c-.37-.08-.74-.09-1.07-.04-.33.05-.64.16-.9.28-.53.26-.91.58-1.2.86-.28.28-.48.53-.6.7-.05.07-.08.12-.1.16.02-.18-.06-.58-.15-1.16-.1-.65-.21-1.55-.2-2.62 0-.21 0-.43.02-.66.04-.69.15-1.43.34-2.2.2-.77.48-1.57.89-2.35.41-.78.94-1.54 1.62-2.2.67-.65 1.48-1.2 2.38-1.54.9-.34 1.86-.43 2.77-.32.9.11 1.75.44 2.48.88.37.22.71.47 1.02.74.14.12.26.26.39.39.16.15.33.3.47.46.26.3.5.6.7.9.1.14.19.29.28.43.01.01.01.02.02.03.09.15.18.3.26.45.33.6.57 1.18.76 1.69.19.52.33.98.43 1.36.21.76.32 1.21.44 1.2.06 0 .11-.12.16-.33l.03-.2zM94.84 27.77c.19-.71-.85-1.59-2.32-1.98-1.47-.38-2.81-.12-3 .59-.19.71.85 1.59 2.32 1.98 1.47.38 2.81.12 3-.59z" class="st2"/><path d="M31.23 29.56c.58.45 3.15-1.71 6.84-5.57.92-.97 1.91-2.04 2.96-3.2 1.04-1.14 2.17-2.5 3.24-3.6.54-.55 1.09-1.03 1.64-1.39.55-.36 1.09-.59 1.83-.8 1.43-.39 3.52-.67 5.44-.96 15.68-2.34 28.73-.8 28.99-2.31.12-.69-3.03-2-8.43-2.89-5.38-.89-13.02-1.25-21.32-.04-1.04.14-2.06.32-3.06.5-.99.18-2.06.39-3.17.75-1.09.34-2.28.92-3.23 1.64-.95.71-1.71 1.49-2.34 2.25-1.26 1.53-2.13 2.85-3.05 4.14-.9 1.28-1.72 2.49-2.45 3.6-2.94 4.44-4.46 7.43-3.89 7.88z" class="st0"/></svg>