<svg xmlns="http://www.w3.org/2000/svg" xml:space="preserve" id="Layer_1" x="0" y="0" style="enable-background:new 0 0 178 200" version="1.1" viewBox="0 0 178 200">
<style>.st0{fill:none}.st1{fill:#ff8400}.st2{fill:#fff}.st3{fill:#93278f}.st4{fill:#d13d7f}.st5{fill:#ff3d7f}.st7{fill:#950000}.st8{fill:#c00000}.st10{fill:#ff9c00}.st11{fill:#ffbe00}.st12{fill:#603813}</style>
<path d="M15.4 58.82zM150.19 142.07v.08c.02-.01.04-.03.06-.04-.02-.04-.03-.08-.05-.12 0-.01-.01-.04-.01-.02v.1zM52.27 137.49c1.64-2.13 3.07-4.4 3.89-7.04.05-.17.1-.33.14-.49-.05.16-.09.32-.14.49-.82 2.64-2.24 4.91-3.89 7.04zM42.49 110.59c-1.8-.93-3.6-1.83-5.27-2.76 1.67.93 3.47 1.83 5.27 2.76zM53.55 117.97c.81.88 1.51 1.82 2.05 2.83a13.69 13.69 0 0 0-2.05-2.83zM55.75 121.11c.02.05.05.09.07.13-.02-.04-.05-.09-.07-.13zM112.02 116.18c.14-.8.25-1.22.32-1.22.1.01.14.71.12 2.03-.02.89-.06 2.07-.18 3.52 1.09-.35 2.1-.68 2.99-1.05.95-.39 1.77-.84 2.49-1.34.73-.51 1.41-1.03 2.05-1.46.51-.35 1.01-.64 1.48-.86-.45-.19-.89-.39-1.31-.6-1.23-.6-2.39-1.23-3.52-1.84-1.41-.76-2.78-1.5-4.13-2.22.02.27.03.52.05.76.1 1.97.06 3.06-.03 3.06-.07 0-.17-.51-.3-1.44 0 .88-.01 1.77-.03 2.66zM47.66 142.98c.32-.38.64-.75.96-1.12-.32.37-.64.74-.96 1.12zM98.29 160.29c.02-.36.07-.56.16-.58-.1.02-.25-.16-.41-.54-.08-.2-.17-.45-.21-.79-.04-.34-.03-.75.12-1.21.07-.22.2-.44.37-.64.18-.2.4-.36.58-.48.19-.12.34-.22.49-.33.17-.12.35-.25.53-.38.72-.53 1.53-1.13 2.4-1.81.87-.68 1.8-1.44 2.78-2.29.44-.38.89-.78 1.35-1.19-1.09-1.89-1.99-3.81-2.79-5.71-.9 1.49-1.88 3.01-2.92 4.54-1.39 2.04-2.89 4.13-4.57 6.22-.62.77-1.27 1.55-1.95 2.32.03.1.06.2.09.31.51.29 1.01.59 1.5.9.86.54 1.67 1.1 2.48 1.66zM114.69 169.02c-.2-.42-.35-.75-.43-1.01-.18.21-.37.4-.6.57-.25.18-.5.32-.72.43-.24.11-.39.17-.58.25-.05.02-.09.04-.14.05 1.12.57 2.26 1.05 3.43 1.47-.42-.68-.72-1.28-.96-1.76zM134.93 173.19c-.13-.12-.26-.23-.38-.34-.48-.46-.82-.89-1.04-1.26-.14.34-.33.72-.6 1.06-.18.23-.37.43-.57.6h.15c.82-.02 1.63-.03 2.44-.06zM107.35 80.87c.05-.05.09-.09.13-.14-.07.01-.14.02-.21.04-1.59.24-3.13.38-4.59.56.74 1.09 1.41 2.2 2.02 3.32.42-.69.82-1.35 1.2-1.9.53-.78 1.02-1.41 1.45-1.88z" class="st0"/>
<path d="M56.48 48.34c-.01-.24-.03-.48-.03-.72-.05-1.97.07-3.89.04-5.73-.25.13-.51.26-.79.37-1.41.54-2.8.59-4.07.54-1.28-.06-2.46-.26-3.59-.48-1.13-.22-2.19-.48-3.2-.7-.83-.18-1.68-.32-2.53-.48-.18 2.04-.34 4.03-.46 5.94-.02.28-.03.56-.05.84 4.92.34 9.81.44 14.68.42zM41.22 35.92c-2.9-.58-5.63-1.82-8.48-2.68.25.63.61 1.29 1.11 1.93.73.94 1.85 1.76 3.29 2.33 1.44.58 3.17.94 5.09 1.21.96.14 1.98.25 3.08.44 1.04.19 2.1.38 3.2.58 1.07.18 2.15.32 3.21.35 1.06.02 2.11-.06 2.97-.42.81-.32 1.65-1 2.25-1.8.61-.81 1.02-1.82 1.32-2.98.31-1.15.54-2.41.81-3.64.1-.49.21-.97.31-1.45-5.2 4.6-11.48 7.91-18.16 6.13z" class="st1"/>
<path d="M49.48 13.07c-.42-.36-.94-.76-1.56-1.11-.31-.17-.65-.33-1.01-.46l-.27-.09c-.09-.03-.19-.05-.28-.08-.05-.01-.1-.02-.14-.03l-.07-.02c-.02 0-.05-.01-.07-.01-.1-.02-.19-.04-.29-.04a4.5 4.5 0 0 0-1.16.01c-.38.05-.74.13-1.08.24-.68.21-1.28.49-1.78.74-.49.25-.89.49-1.17.64-.27.15-.43.22-.48.19l-.01.01c-1.9 1.62-2.61 7.16 1.39 9.17.34.09.82.21 1.41.32.08.01.16.03.24.05.08.01.17.03.25.04.04.01.09.01.13.02.04.01.09.01.13.02l.27.03c.37.04.76.07 1.18.06.41 0 .85-.04 1.29-.13a.75.75 0 0 0 .16-.04c.05-.01.11-.03.16-.04.05-.02.11-.03.16-.05l.08-.02.08-.03c.05-.02.11-.04.16-.06.05-.02.11-.04.16-.06.05-.02.11-.04.16-.07.05-.02.11-.05.16-.07.42-.21.8-.47 1.12-.78.16-.15.31-.31.44-.48.07-.08.13-.17.19-.25.06-.09.12-.17.17-.26.06-.09.11-.17.16-.26s.1-.17.14-.26c.05-.09.09-.17.13-.26.04-.09.08-.17.11-.26.14-.34.25-.67.33-.97.17-.61.25-1.12.3-1.47.05-.35.07-.55.1-.55.02 0 .04.08.05.22.01-.01.03-.02.05-.04.03-.02.08-.04.12-.07.01 0 .01-.01.02-.01.07-.67.01-1.02.01-1.02s.01-.49-.37-1.22c-.07-.04-.18-.14-.33-.29-.21-.21-.52-.54-.94-.9zm.42 5.8c-.13.36-.3.73-.52 1.09-.22.36-.5.71-.83 1.02-.33.32-.71.6-1.13.84-.21.12-.44.22-.67.32-.12.04-.24.09-.36.12-.12.04-.25.07-.37.1-.25.06-.51.1-.77.12-.26.02-.53.03-.8.01-.27-.02-.54-.05-.81-.11s-.54-.14-.8-.24c-.26-.1-.52-.22-.77-.36l-.09-.05-.09-.06-.18-.12c-.06-.04-.12-.08-.18-.13l-.04-.03-.04-.03-.09-.07-.09-.07-.08-.07c-.05-.05-.11-.09-.16-.15-.05-.05-.1-.1-.16-.15-.05-.05-.1-.11-.15-.16-.2-.22-.38-.45-.54-.7-.16-.25-.3-.51-.42-.78-.03-.07-.06-.14-.08-.2-.02-.07-.05-.14-.07-.21-.03-.07-.04-.14-.07-.21l-.03-.1-.03-.11-.03-.11-.01-.05-.01-.05c-.01-.07-.03-.14-.04-.21l-.03-.21c-.01-.04-.01-.07-.01-.11l-.01-.11a6.03 6.03 0 0 1-.01-.85c.02-.28.06-.56.12-.82.06-.27.14-.53.23-.78.1-.25.21-.49.34-.72.13-.23.28-.45.43-.65.08-.1.16-.2.25-.29.08-.1.17-.19.26-.27.18-.17.37-.34.56-.48.39-.29.81-.52 1.23-.69.42-.17.85-.28 1.27-.33.42-.06.83-.06 1.21-.03a5.362 5.362 0 0 1 3.24 1.49c.15.15.28.29.38.42.05.06.1.12.14.18.04.06.07.11.1.16s.06.09.08.13c.02.04.04.07.05.09.01.02.01.02.02.03l.06.09c0 .01.01.01.01.01.02.02.04.05.06.09.03.03.05.07.08.12.03.05.06.1.1.16.03.06.07.13.11.2.07.15.15.32.23.52.07.2.15.43.2.68.06.25.1.53.11.84.03.61-.04 1.31-.3 2.04z" class="st2"/>
<path d="M42.92 19.13c1.01.22 1.92.28 2.73.24.7-.65 1.08-1.73 1.09-2.21v-.05c-1.13.2-2.49.19-4.09-.27-.03.11-.07.21-.09.3-.11.37-.14 1.31.36 1.99zM49.29 14.21l-.06-.09c.01.03.02.05.01.05 0-.01.02.01.05.04z" class="st3"/>
<path d="M49.17 14.1c-.02-.02-.04-.05-.07-.08-.03-.03-.06-.07-.09-.11-.04-.04-.08-.09-.12-.14-.04-.05-.1-.1-.15-.16-.11-.12-.24-.25-.39-.38-.16-.13-.33-.28-.54-.42-.21-.14-.44-.28-.71-.4a5.298 5.298 0 0 0-3.04-.44c-.39.06-.79.17-1.19.34a5.267 5.267 0 0 0-1.66 1.11c-.08.08-.16.17-.24.26-.08.09-.15.18-.22.28-.14.19-.28.39-.39.61-.12.22-.22.44-.31.67-.06.15-.09.31-.14.47.2.11.39.21.58.3.03-.14.06-.27.09-.39.37-.38.82-.56 1.23-.62a.51.51 0 0 1-.12-.23c-.21-.66.64-1.52 1.91-1.93 1.27-.41 2.46-.2 2.68.46.21.66-.64 1.52-1.91 1.93-.49.16-.97.22-1.39.2.01.35-.18.95-.33 1.43 1.6.46 2.96.48 4.09.27 0-.78-.19-2.34.69-2.44.19-.02.39.03.59.14v-.01c.04-.2.24-.33.45-.29.2.04.33.24.29.45-.02.11-.1.2-.19.25.36.34.66.74.78.92.18-.11.34-.23.49-.34-.03-.15-.07-.29-.11-.42-.06-.2-.12-.37-.19-.52-.03-.07-.06-.14-.09-.2a2.45 2.45 0 0 1-.08-.17c-.02-.05-.04-.09-.06-.13-.02-.04-.03-.07-.05-.1-.02-.05-.03-.08-.03-.08 0-.02-.02-.04-.06-.09zM44.08 19.85c.63.14 1.15-.1 1.57-.48-.8.04-1.71-.02-2.73-.24.25.33.62.6 1.16.72z" class="st3"/>
<path d="M40.5 16c-.19-.09-.39-.2-.58-.3-.02.09-.06.17-.07.26-.05.25-.09.5-.1.76-.02.26-.01.52.01.78l.01.1c0 .03.01.07.01.1l.03.2.03.16c.24.11.47.22.7.31-.18-.84-.17-1.68-.04-2.37z" class="st3"/>
<path d="M49.36 18.5c-.06.29-.25.52-.49.65-.91 1.98-2.89 3.07-5.16 2.58-1.94-.42-2.86-1.87-3.18-3.36-.23-.09-.46-.2-.7-.31 0 .01 0 .02.01.03l.01.05.01.05.02.1.02.1.03.1c.02.06.04.13.06.19.02.06.05.13.07.19.03.06.05.12.08.19.11.25.24.49.39.72.15.23.32.45.5.65.05.05.09.1.14.15.05.05.1.09.14.14.05.05.1.09.15.14l.08.07.08.06.08.06.04.03.04.03c.05.04.11.08.16.12l.17.11c.03.02.06.04.08.05l.09.05c.23.13.46.25.71.34.24.09.49.17.74.22.25.05.5.09.75.11.25.02.5.01.74 0 .24-.02.48-.06.72-.11.12-.03.23-.05.34-.09.11-.03.22-.07.33-.11.22-.08.43-.18.63-.29.4-.21.76-.48 1.07-.76.31-.29.58-.61.8-.94.22-.33.39-.67.52-1.02.12-.31.2-.62.25-.92-.14.11-.3.23-.49.35 0 .08-.01.18-.03.28z" class="st3"/>
<path d="M49.4 16.2c.03.59-.01 1.15-.11 1.67.05.1.08.22.09.33.19-.12.36-.24.49-.35.06-.36.09-.7.09-1.01 0-.29-.03-.56-.08-.81-.01-.09-.03-.17-.05-.25-.15.11-.31.22-.49.34.04.05.06.08.06.08z" class="st3"/>
<path d="M48.56 15.2c-.08.04-.16.06-.25.04a.375.375 0 0 1-.29-.44c-.19-.1-.39-.16-.59-.14-.89.11-.69 1.66-.69 2.44 1.09-.2 1.96-.6 2.6-1-.12-.16-.42-.56-.78-.9zM42.98 15.41c-.52-.02-.95-.17-1.16-.43-.41.06-.86.24-1.23.62-.03.12-.06.26-.09.39.76.37 1.48.65 2.15.84.15-.47.35-1.07.33-1.42z" class="st4"/>
<path d="M40.53 18.36c.85.36 1.65.6 2.39.77-.51-.68-.47-1.62-.36-1.99.03-.09.06-.19.09-.3-.68-.19-1.39-.47-2.15-.84-.13.69-.14 1.53.03 2.36zM45.65 19.37c.79-.04 1.49-.19 2.08-.38a.957.957 0 0 1-.27-.9c.11-.53.63-.86 1.16-.75.3.07.54.27.67.53.1-.52.15-1.08.11-1.67l-.06-.09c-.64.4-1.51.8-2.6 1v.05c-.01.48-.39 1.56-1.09 2.21z" class="st5"/>
<path d="M48.2 19.24a.874.874 0 0 1-.47-.26c-.59.2-1.29.34-2.08.38-.41.38-.94.61-1.57.48-.55-.12-.92-.39-1.16-.72-.74-.16-1.54-.41-2.39-.77.32 1.5 1.24 2.94 3.18 3.36 2.27.49 4.25-.6 5.16-2.58-.19.12-.43.17-.67.11zm-3.04 1.99a.34.34 0 0 1-.4.26.34.34 0 0 1-.26-.4c.04-.18.22-.3.4-.26.19.04.3.22.26.4zm1.9-.62a.68.68 0 0 1-.8.52.68.68 0 0 1-.52-.8c.08-.36.44-.6.8-.52s.6.44.52.8z" style="fill:#ffa87f"/>
<path d="M44.37 15.21c1.27-.41 2.12-1.27 1.91-1.93-.21-.66-1.41-.86-2.68-.46-1.27.41-2.12 1.27-1.91 1.93.03.08.07.16.12.23.22.26.64.41 1.16.43.43.02.91-.05 1.4-.2zM48.62 17.34a.974.974 0 0 0-.89 1.65c.13.12.29.22.47.26.24.05.47.01.67-.1.24-.13.43-.36.49-.65.02-.1.02-.2.01-.29a.897.897 0 0 0-.09-.33.928.928 0 0 0-.66-.54zM46.55 19.81a.672.672 0 0 0-.8.52c-.08.36.15.72.52.8.36.08.72-.15.8-.52a.688.688 0 0 0-.52-.8zM44.91 20.83a.34.34 0 0 0-.4.26c-.04.18.08.36.26.4.18.04.36-.08.4-.26a.348.348 0 0 0-.26-.4zM48.3 15.24c.09.02.18 0 .25-.04.09-.05.17-.14.19-.25.04-.2-.08-.4-.29-.45-.2-.04-.4.08-.45.29v.01c-.02.2.1.39.3.44z" class="st2"/>
<path d="M101.4 161.84c-1.01-1.26-1.76-2.77-2.2-4.4a.76.76 0 0 0-.2.2c-.31.48-.34 1.02-.37 1.42-.03.39-.07.63-.17.65.11-.02.27.2.47.66.06.14.13.31.19.5a79.753 79.753 0 0 0 2.54 1.72l.68.43a94.893 94.893 0 0 1 3.66 2.41c1.09.74 2.16 1.47 3.24 2.16.37-.13.73-.26 1.1-.41.32-.13.64-.26.96-.41.15-.07.35-.15.45-.2.11-.06.19-.11.24-.15.22-.2.33-.39.33-.92-.01-.92-.21-1.91-.5-2.96-3.32 2.22-7.03 2.97-10.42-.7z" class="st7"/>
<path d="M103.45 155.15c-.97.61-1.88 1.12-2.7 1.54-.21.1-.41.2-.6.3-.21.11-.43.2-.59.26a2.3 2.3 0 0 0-.35.17l-.01.01c.44 1.63 1.2 3.14 2.2 4.4 3.39 3.67 7.1 2.92 10.41.67-.11-.43-.24-.87-.38-1.32-.58-2.12-1.11-4.2-1.62-6.19l-.09-.35c-.6-.57-1.06-1.19-1.46-1.75-.18-.25-.35-.51-.52-.76a50.087 50.087 0 0 1-4.29 3.02zM129.72 167.91c.28-.2.54-.42.8-.64-.3-.66-.6-1.32-.9-1.99-.92-1.99-1.87-3.91-2.83-5.72-.48-.91-.96-1.79-1.44-2.65l-.15-.27-.01-.02-.02-.06c-.01-.06-.05-.03-.08-.02-1.79 1.47-3.44 2.83-4.91 4.05-1.45 1.17-2.74 2.2-3.86 3.06 2.59 5 8.62 8.24 13.4 4.26z" class="st8"/>
<path d="M114.8 167.14c-.07.16-.16.32-.25.46.22.17.52.47.9.9.69.75 1.6 1.94 2.88 3.14 2.92.82 5.88 1.28 8.79 1.48.12.01.23.01.35.02.39-.19.77-.4 1.15-.63.29-.18.58-.36.87-.56.14-.1.29-.2.43-.3l.22-.16.06-.05c.02-.01.03-.03.05-.04.2-.15.35-.3.44-.43.1-.13.18-.3.27-.58l.07-.21.05-.16c.02-.11.05-.22.05-.33.02-.22.01-.45-.03-.7-.09-.51-.29-1.05-.59-1.71 0-.01-.01-.01-.01-.02-.26.22-.52.43-.8.64-4.78 3.98-10.81.75-13.4-4.26-.14.11-.28.22-.42.32-.32.24-.59.44-.82.63.02.29.04.58.04.87.02.52-.05 1.1-.3 1.68z" class="st7"/>
<path d="M140.34 168.41c3.46-1.95 5.72-5.01 7.25-8.54-.09-.04-.17-.08-.26-.11-.52-.22-1.08-.44-1.65-.7-.28-.13-.57-.27-.86-.42-.28-.15-.53-.3-.8-.45-1.03-.62-1.99-1.29-2.88-1.98-.22-.17-.44-.35-.66-.52l-.32-.26c-.08-.06-.03-.03-.05-.04l-.01-.01-.1-.12c-.03.03-.06.08-.11.15-.24.56-.48 1.11-.72 1.65-.48 1.1-.94 2.15-1.38 3.14-.89 1.98-1.67 3.76-2.41 5.19a57.27 57.27 0 0 0-1.44 3.1c2.3.91 4.68 1.07 6.4-.08z" class="st8"/>
<path d="M142.57 172.1c.78-.22 1.55-.48 2.29-.77l1.11-.45c.36-.17.72-.33 1.07-.5 1-.48 1.95-1 2.86-1.57.21-.26.42-.52.62-.77.51-.69.88-1.45 1.05-2.25.1-.5.12-1.01.07-1.5 0-.01-.01-.01-.01-.02a3.6 3.6 0 0 1-.43-1.11c-.04-.18-.06-.35-.08-.51-.28-.48-.65-.93-1.12-1.35-.68-.62-1.47-1.04-2.41-1.44-1.53 3.54-3.78 6.6-7.25 8.54-1.72 1.15-4.1.99-6.38.08-.01.03-.03.06-.04.09a5.258 5.258 0 0 1-.12 2.15c-.01.05-.03.1-.05.16.33.26.81.65 1.49 1.08.53.34 1.18.69 1.95 1.08.17-.01.34-.02.5-.04 1.68-.16 3.32-.45 4.88-.9zM151.26 145.98c.56 1.77 1.29 4.35 1.96 7.62.17.82.32 1.68.47 2.59.06.46.14.92.19 1.41l.04.36c.01.11.02.31.03.46 0 .3-.02.59-.05.85-.08.73-.19 1.43-.25 2.06.2.37.38.75.51 1.15.08.25.15.5.2.76.24.04.59.02.96-.09.4-.1.76-.29 1.26-.56.66-.36 1.29-.76 1.9-1.21.59-.68 1.15-1.37 1.69-2.05.79-1.04 1.55-2.06 2.23-3.09.1-.14.19-.29.29-.43-1.8.26-3.68.11-5.65-.55-2.95-.84-3.79-7.65-3.99-13.7-.35.09-.68.18-.99.29-.74.25-1.34.57-1.84.84v.1c0 .32-.04.49-.12.51.18-.04.59.91 1.16 2.68zM150.2 142.21c.01.12.01.24.01.35l.11-.31a.645.645 0 0 1-.06-.14c-.02.01-.04.03-.06.04-.01.02-.01.04 0 .06z" class="st7"/>
<path d="M166.65 147.28c.07-.25.13-.49.19-.73-.01-.28-.02-.56-.05-.84-.08-.81-.24-1.61-.47-2.38-.1-.37-.25-.82-.34-1.04a2.83 2.83 0 0 0-.49-.73c-.22-.25-.54-.55-.86-.9l-.22-.25c-.05-.06-.1-.11-.14-.15a1.06 1.06 0 0 0-.19-.16c-.31-.17-.68-.19-1.35.02-.33.1-.71.23-1.13.33-.41.09-.77.16-1.14.22-.74.12-1.44.19-2.11.25-1.33.11-2.53.18-3.58.32-.63.08-1.21.19-1.74.33.2 6.05 1.04 12.85 3.99 13.7 1.98.66 3.86.81 5.65.55.58-.87 1.1-1.73 1.57-2.61 1.09-2.03 1.88-4.03 2.41-5.93z" class="st8"/>
<path d="M143.88 178.02c-18.46 7.1-33.38-2.64-48.48-13.45.01.31.01.63 0 .97-.04 1.25-.22 2.55-.46 3.92.54.43 1.08.86 1.62 1.3 1.69 1.38 3.34 2.76 5.04 3.99 1.7 1.23 3.52 2.31 5.34 3.3 3.66 1.96 7.49 3.46 11.37 4.44 3.88.99 7.77 1.51 11.62 1.69 1.92.11 3.82.19 5.66.09 1.84-.09 3.64-.37 5.36-.86.86-.23 1.7-.54 2.52-.86.81-.36 1.64-.67 2.43-1.07.4-.19.79-.38 1.18-.57.38-.21.77-.41 1.15-.61.77-.39 1.49-.86 2.22-1.29 2.87-1.81 5.43-3.91 7.68-6.11 2.24-2.23 4.19-4.57 5.91-6.92 1.7-2.35 3.22-4.68 4.45-6.98 1.23-2.31 2.21-4.58 2.96-6.76.75-2.18 1.28-4.27 1.62-6.21.35-1.94.43-3.74.2-5.33-.13-1.04-.4-1.96-.71-2.8-2.27 17.39-11.37 33.58-28.68 40.12zM55.16 159.85c.05.2.09.41.13.61.43 1.97.83 3.77.84 5.29v.08c3.59 2.08 6.83 4.01 6.83 6.13-.29 4.97-6 4.36-12.43 3.06-.04.08-.09.15-.13.23-.35.69-.57 1.53-.51 2.37.07.84.44 1.6 1.2 2.12.75.53 1.84.81 3.06 1 2.48.4 5.24.6 8.19.48.66-.03 1.34-.07 2.02-.14.48-.4.91-.87 1.28-1.37.8-1.07 1.34-2.3 1.66-3.52.32-1.25.45-2.52.48-3.74.01-.7-.01-1.39-.05-2.06-.93-.41-1.82-.92-2.64-1.48-3.66-2.49-6.98-5.58-9.93-9.06zM12.05 105.84c.09.21.18.41.28.62.69 1.44 1.41 2.96 2.36 4.08.48.56 1.01 1.01 1.6 1.27.57.26 1.25.35 2.04.32.79-.02 1.69-.18 2.56-.29.44-.07.87-.17 1.31-.26.44-.08.87-.2 1.31-.32.88-.21 1.74-.52 2.61-.81.86-.34 1.73-.67 2.59-1.07 1.71-.79 3.41-1.69 5.08-2.72.08-.05.15-.1.22-.14-.01-.31-.02-.62-.01-.93.02-1.38 0-2.74.08-4.08.01-.29.03-.58.05-.87-3.19 2.14-6.52 4.04-10.07 5.58-4.2 1.75-8.38 1.4-12.01-.38z" class="st1"/>
<path d="m77.69 61.58.06 1.46c.02.44.02.9.03 1.36 2.82 1.03 6.09 2.24 9.5 4.02 1.96 1 4 2.13 6.02 3.48 1.3.87 2.58 1.84 3.81 2.93 3.56-.8 7.03-1.91 10.37-3.51 0-7.93-.01-16.16-1.47-24.23-.86.24-1.71.48-2.55.72-3.11.86-6.02 1.66-8.67 2.39-10.61 2.88-17.23 4.47-17.34 4.1.01.37.06 1.8.15 4.73.03.77.06 1.62.09 2.55zm4.83-6.82c1.05-.34 2.32-.69 3.73-1.03.69-.17 1.42-.35 2.17-.54l1.11-.3c.39-.12.78-.24 1.18-.36.81-.25 1.59-.48 2.36-.69.81-.2 1.6-.34 2.33-.45 1.47-.22 2.74-.34 3.8-.47 2.11-.23 3.4-.54 3.6-.18.08.17-.14.5-.67.9s-1.37.84-2.45 1.24-2.38.73-3.76 1.08c-.69.18-1.4.36-2.11.57-.75.25-1.53.5-2.33.74-.4.12-.79.24-1.2.35-.42.11-.83.21-1.23.29-.8.17-1.57.29-2.3.4-1.44.21-2.75.35-3.85.43-2.21.16-3.61.07-3.69-.31-.06-.39 1.2-1 3.31-1.67z" class="st8"/>
<path d="M106.83 78a20.2 20.2 0 0 0 2.74-.61c.44-.14.87-.28 1.29-.46.44-.17.77-.35.91-.48.07-.07.09-.09.12-.16s.07-.19.09-.35c.03-.16.04-.37.05-.6l.02-.76c.03-1.02.03-2.05.03-3.09-.05-8.28-1-16.15-2.47-23.18-.15-.68-.29-1.34-.43-2-.01-.05-.06-.08-.1-.07l-.04.01c-.02.01.02-.01-.13.03l-.62.18c-.77.22-1.52.43-2.27.64 1.46 8.06 1.47 16.3 1.47 24.23-3.33 1.6-6.81 2.7-10.37 3.51.68.6 1.34 1.24 1.98 1.93l-.88-.08.34.46.44.6.09-.98c.49.53.97 1.08 1.44 1.65.12.14.22.29.33.43.07-.01.14-.03.21-.04 1.94-.34 3.88-.5 5.76-.81z" class="st7"/>
<path d="M135.55 87.2c-.63-.28-1.25-.57-1.86-.84-2.11-.94-4.14-1.8-6.06-2.59-3.84-1.58-7.26-2.87-10.09-3.92-1.42-.51-2.69-1.03-3.76-1.29-1.08-.27-2-.25-2.7-.03-.71.22-1.22.58-1.58.8-.35.23-.56.34-.61.29.1.1-.31.63-.95 1.69-.32.53-.7 1.19-1.11 1.99-.42.8-.83 1.7-1.37 2.79.97 1.89 1.8 3.78 2.52 5.6 1.67 4.13 2.7 8.05 3.32 11.42 3.88 1.31 7.67 2.81 11.33 4.64 4.38-6.93 8.74-13.59 12.92-20.55zm-20.47-4.35c-.45-.18-.89-.37-1.31-.58-.21-.1-.42-.21-.62-.33l-.15-.08c.01 0 0-.01 0-.01l-.02-.02c-.01-.01-.03-.03-.05-.03h-.05c-.01 0 0-.01-.05.03-.31.19-.6.39-.88.58-.55.4-1.05.8-1.49 1.19-1.77 1.56-2.68 2.84-3.05 2.65-.17-.09-.17-.53.06-1.24s.7-1.69 1.51-2.77c.4-.54.89-1.1 1.47-1.65.29-.27.6-.55.93-.81l.19-.15c.07-.06.15-.11.23-.16.16-.1.32-.19.5-.25.35-.13.74-.14 1.12-.06.19.04.38.11.56.19l.28.14.13.06c.17.08.35.16.54.24.36.16.75.3 1.14.44.8.27 1.65.52 2.55.76 1.79.47 3.63.92 5.23 1.49 1.61.56 3.01 1.16 4.16 1.74 2.29 1.16 3.54 2.19 3.37 2.53-.17.36-1.71 0-4.1-.65-1.2-.32-2.61-.71-4.18-1.1-1.57-.41-3.3-.75-5.21-1.25-.97-.25-1.91-.54-2.81-.9z" class="st8"/>
<path d="M121.18 112.68c.58.27 1.16.53 1.75.76.14.06.26.1.35.12.09.03.17.04.15.03l.02-.02c.09-.07.27-.27.49-.54l.65-.78c.44-.52.86-1.05 1.29-1.58.85-1.07 1.69-2.16 2.52-3.28 2.41-3.27 4.59-6.58 6.51-9.89.96-1.65 1.87-3.29 2.71-4.92.43-.81.82-1.63 1.22-2.43.17-.36.34-.71.51-1.06.02-.03.05-.07.03-.1-.02-.02-.04-.03-.07-.05-.25-.12-.5-.24-.74-.35-.56-.26-1.11-.52-1.66-.78-.46-.21-.91-.41-1.37-.62-4.18 6.96-8.54 13.61-12.91 20.53-3.66-1.83-7.45-3.33-11.33-4.64.03.17.07.35.1.51.29 1.61.49 3.09.64 4.4 1.84.95 3.74 1.92 5.69 2.93 1.15.61 2.3 1.22 3.45 1.76z" class="st7"/>
<path d="M123.27 115.79c-.72.22-1.67.79-2.79 1.75-.57.48-1.17 1.05-1.9 1.65-.74.62-1.64 1.21-2.64 1.71-1.18.62-2.52 1.09-3.88 1.62l-.03.27a40.24 40.24 0 0 1-.78 4.17c-.37 1.52-.9 3.12-1.51 4.81-.61 1.68-1.34 3.45-2.19 5.28 1.97 3.44 4.09 6.83 6.5 10.12 8.61-1.4 16.8-3.98 24.8-7.09-.43-.89-.86-1.77-1.27-2.63-1.37-2.86-2.64-5.53-3.8-7.96-1.15-2.44-2.19-4.65-3.18-6.52-.99-1.87-1.95-3.4-2.83-4.59-.86-1.2-1.66-1.97-2.3-2.35-.63-.4-1.05-.49-1.04-.6-.03.13-.45.13-1.16.36zm2.72 1.71c.16.2.32.41.48.61.13.21.25.42.38.62.07.12.08.15.12.22l.1.19c.07.13.12.25.18.38.12.25.22.5.32.74.39.97.61 1.88.72 2.64.22 1.53 0 2.46-.32 2.51-.35.06-.75-.74-1.39-1.97-.32-.61-.7-1.33-1.18-2.1-.12-.19-.24-.39-.37-.59-.07-.1-.13-.2-.2-.3l-.1-.15c-.03-.04-.08-.13-.08-.12l-.06-.06h-.02c-.01 0-.03.01-.03.02-.01.02-.01.03-.01.04l-.41.32c-.16.12-.33.24-.49.37-2.4 1.76-4.85 2.93-6.69 3.52-1.85.59-3.09.66-3.22.29-.27-.76 3.8-2.84 8.23-6.12.33-.24.65-.48.97-.72.31-.21.61-.41.91-.61.3-.25.58-.28.89-.29.24 0 .5.05.71.15.2.1.39.22.56.41z" class="st8"/>
<path d="M107.54 137.06a70.76 70.76 0 0 1-2.19 4.34c1.04 2.53 2.19 5.07 3.65 7.5.49.8.99 1.59 1.55 2.35.54.77 1.1 1.43 1.66 1.77.57.33.86.35 1.75.1.48-.15.96-.3 1.44-.46l1.5-.45c4-1.18 7.89-2.12 11.5-3.34 3.6-1.21 6.93-2.71 9.71-4.67.34-.25.69-.49 1.01-.76.17-.13.33-.26.49-.39l.4-.33c.04-.02.07-.07.06-.11l-.01-.03-.01-.02-.05-.11-.28-.57c-.29-.61-.58-1.2-.87-1.79-8 3.11-16.19 5.69-24.8 7.09-2.42-3.3-4.54-6.68-6.51-10.12z" class="st7"/>
<path d="M52.27 137.49c1.64-2.13 3.07-4.4 3.89-7.04.05-.17.1-.33.14-.49.97-3.46.67-6.31-.49-8.72-.02-.05-.05-.09-.07-.13-.05-.1-.1-.2-.15-.31-.54-1.02-1.24-1.96-2.05-2.83-2.78-3-6.93-5.25-11.05-7.38-1.81-.93-3.6-1.83-5.28-2.76-.24-.13-.48-.27-.72-.4 0 .05.01.1.01.14.04.68.05 1.37.12 2.05.06.69.12 1.38.19 2.08.06.7.17 1.39.25 2.09.22 1.39.46 2.8.8 4.21 1.27 5.67 3.52 11.4 6.14 17.25 1.15 2.57 2.35 5.16 3.65 7.73.32-.38.64-.75.96-1.12 1.25-1.45 2.51-2.88 3.66-4.37z" style="fill:#ffe900"/>
<path d="M93.31 154.82c.35-.4.7-.81 1.04-1.21 1.66-2 3.18-4.01 4.59-5.98 1.42-1.98 2.71-3.9 3.86-5.8 2.32-3.78 4.1-7.38 5.45-10.64.67-1.63 1.26-3.16 1.69-4.59.43-1.43.75-2.77 1-3.99.49-2.43.74-4.36.96-5.67.05-.29.09-.54.13-.77.03-.89.04-1.78.02-2.66l-.03-.2a73.548 73.548 0 0 0-3.52 7.56c-4.22 10.06-9.48 20.32-17.12 27.73.64 1.67 1.2 3.38 1.67 5.12.08.37.17.74.26 1.1zM50.51 148.22c.87 1.49 1.79 2.97 2.78 4.42 3.75 5.55 8.23 10.42 13.38 13.96.23.16.46.31.69.45-.07-.45-.14-.88-.2-1.31-.17-1-.33-1.93-.48-2.79-.15-.84-.32-1.61-.46-2.31-.46-2.06-.67-3.47-.67-4.09-4.12-2.17-7.92-5.64-12.19-7.35-.92-.4-1.87-.71-2.85-.98z" class="st1"/>
<path d="M82.42 78.01c-2.19-3.91-5.76-5.42-9.91-5.7-1.45-.1-2.73.29-3.61 1.38-.88 1.09-.76 2.57-.49 3.93.61 3.05.92 6.06 3.1 8.55 2.18 2.49 5.43 3.43 8.71 3.25 1.07-.06 2.25-.08 2.98-1.02 2.15-2.82.76-7.64-.78-10.39zM83.21 88.43c0 .02.01.02 0 0z" class="st10"/>
<path d="m83.21 88.43-.02-.04c.01.02.01.03.02.04zM96.89 94.12c-.93-.57-1.91-.52-2.92-.4-3.08.36-5.74 1.79-7.68 4.24-1.94 2.45-2.57 5.17-2.52 8.23.02.96.19 1.72.72 2.59 1.05 1.71 3.17 1.9 4.95 2.25 4.18.81 9.7-3.29 11.13-5.29 1.1-1.53.25-.36.25-.36 1.67-4.52-.18-8.94-3.93-11.26zM79.16 128.38v-.03.03zM78.65 127.01c-.44-.28-1.09-.35-1.68-.25-1.75.29-3.53.68-5.19 1.34-1.04.42-2.12.9-2.87 1.73-1.16 1.29-1.51 2.88-1.55 4.54-.03 1.31-.15 2.58.45 3.77 1.9 3.74 6.23 3.61 9.16 1.1 2.93-2.51 2.26-7.57 2.2-10.61-.01-.52-.08-1.33-.52-1.62zM79.16 128.29c0-.03 0-.04 0 0z" class="st10"/>
<path d="M79.17 128.45v-.07c-.01.02 0 .04 0 .07zM79.17 128.63v-.01.01zM79.16 128.35v-.06.06zM79.17 128.62v-.17.17zM103.14 130.17c.38-.41.08-.09.08-.09 1.38-2.38 1-5.17.31-7.55-.25-.88-.58-1.37-1.16-1.83-.58-.46-1.12-.63-1.85-.61-2.83.08-5.23 1.66-6.55 4.16-1.32 2.5-1.16 4.97-.55 7.61.12.52.33.95.83 1.22s1.17.06 1.7-.07c1.24-.31 2.71-.86 3.9-1.12 1.19-.25 2.77-1.15 3.29-1.72zM88.02 117.29c-.14.02-.25.03-.35.05-1.64.89-2.19 1.98-2.79 3.49v.03c-.22 1-.25 2.12.8 2.6.37.17.73.19 1.08.1 3.67-1 3.21-6.52 1.26-6.27zM87.67 117.34s-.94.12 0 0z" class="st10"/>
<path d="M38.45 99.08c2.63.87 5.59 1.14 8.15.07 1.43-.6 2.73-1.62 3.83-2.91-14.48-5.49-28.94-10.78-42.58-20.37-1.22-.95-2.21-2.08-3.02-3.33-.21 1.41-.14 2.88.36 4.23.57 1.55 1.72 3.05 3.12 4.44 1.38 1.41 2.89 2.63 4.44 3.71 1.56 1.07 3.16 2 4.71 2.84 3.12 1.68 6.07 3.04 8.51 4.28 2.45 1.23 4.4 2.35 5.68 3.21 1.27.86 1.93 1.42 1.84 1.6.28.15.56.29.84.43.73.37 1.47.73 2.22 1.06.62.28 1.25.52 1.9.74zM93.03 153.72c-.08.18-.15.36-.22.53-4.05 12.14-1.01 28.82-14.66 34.39-6.96 2.79-14.4 2.93-21.5 1.43.27.44.61.83 1.07 1.21 1.17.97 2.81 1.57 4.58 2.13 1.79.56 3.6 1.07 5.43 1.42 1.83.34 3.66.52 5.4.39.87-.06 1.72-.19 2.54-.41.82-.21 1.6-.49 2.36-.86 1.51-.73 2.99-1.75 4.41-2.74 1.4-1 2.69-2.04 3.79-3.18 1.1-1.14 1.99-2.37 2.63-3.69.64-1.33 1.08-2.76 1.47-4.18l2.06-8.1c.65-2.49 1.23-4.7 1.44-6.63.2-1.94.09-3.67-.01-5.08-.21-2.79-.42-4.36-.24-4.45-.08-.36-.16-.72-.25-1.07-.11-.37-.2-.74-.3-1.11z" class="st1"/>
<path d="M23.86 26.52c1.06.47 2.17.74 3.17 1 .99.25 1.88.48 2.58.74.71.25 1.23.52 1.58.74.39.25.44.53.37.59.02-.02.07-.01.13.02.77 0 3.69 1.1 7.34 1.52 1.03.12 1.97.14 2.83.03.87-.11 1.65-.3 2.32-.48 1.34-.36 2.21-.57 2.29-.38.07.17-.64.7-1.95 1.33-.66.31-1.47.63-2.45.83-.98.21-2.11.22-3.21.09-2.21-.26-4.13-.9-5.44-1.52-.62-.29-1.09-.57-1.42-.8.01.03.01.06.02.09.08.51.16 1.2.42 2.06.08.28.19.57.31.88 2.85.86 5.58 2.1 8.48 2.68 6.67 1.78 12.95-1.53 18.16-6.14.16-.73.31-1.46.46-2.18.26-1.19.51-2.35.76-3.5.25-1.14.51-2.27.71-3.31.2-1.04.31-2.02.26-2.93-.04-.9-.26-1.74-.62-2.55-.7-1.61-1.83-3.04-2.88-4.27-1.06-1.22-2.14-2.2-3.17-2.96-1.03-.75-2.01-1.29-2.84-1.71-1.66-.83-2.63-1.26-2.57-1.46-.06.2-.87.13-2.3-.03-1.43-.16-3.48-.41-6-.43-2.51-.02-5.5.21-8.58 1.2-3.06.96-6.2 2.78-8.65 5.51a16.08 16.08 0 0 0-2.83 4.43c-.66 1.57-1 3.17-.98 4.68.01 1.51.36 2.92 1.02 3.99.66 1.05 1.61 1.77 2.68 2.24zM45.8 10.35c.06-.07.12-.16.19-.25.24-.38.33-.79.46-.78.03 0 .05.03.07.08.01.03.02.06.02.09.01.04.01.08.01.13s0 .1-.01.15c-.01.05-.02.11-.03.17-.03.12-.08.25-.16.38-.03.05-.06.09-.1.13.02 0 .05.01.07.01l.08.02c.06.01.11.03.17.04.11.03.22.06.32.1.1.04.21.07.31.11.11-.06.22-.13.33-.22.18-.15.33-.32.43-.46.11-.13.19-.22.25-.2.05.02.07.15.02.34-.03.1-.07.21-.14.32-.07.11-.17.23-.29.33-.05.04-.09.07-.14.1.23.11.46.23.67.36.1.06.19.13.28.2.12-.03.26-.06.4-.11.22-.07.41-.16.55-.23.04-.02.07-.03.1-.04.03-.01.06-.02.08-.03.05-.01.09-.01.11.01.02.02.02.06 0 .11-.01.03-.02.06-.04.09s-.04.07-.07.1c-.03.03-.06.07-.1.11-.04.04-.09.07-.14.11-.05.03-.11.07-.17.1-.03.01-.06.03-.09.04-.02.01-.03.01-.05.02-.02.01-.03.01-.05.02l-.1.03h-.01c.2.16.39.33.55.49a3.028 3.028 0 0 0 .93-.01c.12-.02.23-.04.32-.06.19-.04.32-.07.35-.02.03.05-.05.17-.23.29-.09.06-.21.12-.35.17-.14.05-.3.08-.47.08-.05 0-.09 0-.14-.01.13.15.24.3.34.44.2.08.46.17.76.23.16.03.31.05.45.05.14.01.27 0 .37 0 .22-.01.37-.02.39.04.02.05-.09.16-.33.25-.12.04-.26.08-.43.1-.16.02-.35.01-.54-.03-.12-.02-.23-.06-.34-.1.01.02.02.03.03.05.15.29.19.48.14.51-.02.01-.05 0-.08-.02.38.72.37 1.22.37 1.22s.06.35-.01 1.02c.04-.03.09-.05.15-.08.24-.13.57-.31.93-.53.72-.44 1.3-.83 1.37-.74.04.04-.06.2-.26.41-.2.21-.51.46-.89.7-.34.21-.68.35-.95.43-.35.33-.67.77-.23 1.03-.48.83-.81 1.46-.3 1.39-.28.29-.51.63-.65.91-.01.03-.02.05-.03.08-.11.25-.15.45-.08.5.08-.01.14.01.15.04.02.06-.14.15-.34.22-.07.02-.13.03-.18.04-.01.02-.02.03-.03.05-.07.09-.13.18-.2.27a4.84 4.84 0 0 1-1.69 1.37c-.06.03-.12.05-.17.08-.06.03-.12.05-.17.07-.06.02-.12.05-.18.07l-.18.06-.09.03-.09.02c-.06.02-.12.03-.18.05-.06.01-.12.03-.18.04-.06.01-.12.03-.18.04-.47.09-.93.12-1.36.11-.43-.01-.84-.05-1.22-.1-.09-.01-.19-.03-.28-.05-.05-.01-.09-.02-.14-.02l-.13-.03c-.09-.02-.17-.04-.26-.05l-.24-.06c-.63-.16-1.12-.34-1.46-.47-.33-.14-.51-.23-.5-.26.01-.03.21.01.55.1.02 0 .05.01.07.02-4-2.01-3.29-7.56-1.39-9.17l.01-.01h-.01c-.04-.04.06-.21.28-.45.22-.24.58-.56 1.06-.89.48-.33 1.09-.69 1.84-.97.37-.14.78-.25 1.21-.32.4-.06.83-.08 1.26-.03.02-.05.04-.06.05-.07zm-22.33 3.39c.17-.69.65-1.65 1.49-2.57.83-.94 1.94-1.83 3.25-2.71 1.31-.87 2.86-1.69 4.56-2.34 3.41-1.32 6.75-1.66 9.11-1.53 2.37.14 3.77.68 3.73 1.05-.03.41-1.45.6-3.62.96-2.17.38-5.12.99-8.2 2.18a38.97 38.97 0 0 0-4.23 1.93c-1.26.68-2.4 1.34-3.24 1.94-.86.6-1.45 1.17-1.87 1.61-.42.43-.68.71-.88.65-.18-.05-.27-.46-.1-1.17zM172.02 136.63c-.54-1.12-1.12-2.02-1.59-2.73-.23-.36-.46-.67-.64-.94-.18-.28-.34-.47-.53-.57-.37-.2-.62-.1-.62-.14.02.04-.24.06-.52.37-.13.16-.24.4-.28.71-.05.31-.04.69-.05 1.12-.01.86.02 1.92.08 3.18.06 1.26.16 2.71.14 4.36-.02 1.65-.19 3.51-.71 5.46-.5 1.96-1.28 4.02-2.35 6.12a30.05 30.05 0 0 1-1.86 3.14c-.68 1.05-1.43 2.1-2.22 3.17-1.62 2.11-3.46 4.26-5.67 6.24-2.2 1.99-4.76 3.82-7.68 5.25-.37.17-.74.35-1.11.52-.38.16-.76.32-1.14.47-.77.31-1.56.59-2.38.82-1.63.49-3.34.8-5.08.99-1.74.18-3.51.24-5.29.28-1.79.04-3.62.03-5.47-.09-3.7-.22-7.52-.87-11.25-2.14-1.86-.62-3.73-1.43-5.48-2.44-1.76-1-3.43-2.14-5.11-3.27-.84-.57-1.68-1.13-2.53-1.68l-.64-.41-.32-.2-.21-.13s0-.01-.01-.01c0 0-.01 0-.01-.01-.07.09-.12.13-.02-.01-.02-.01-.05-.03-.05-.03l-.17-.1-.33-.21c-.22-.14-.44-.28-.66-.43-1.75-1.15-3.42-2.39-5.18-3.5-.1-.06-.19-.12-.29-.18.04.18.08.37.12.57.23 1.2.47 2.66.5 4.37 15.1 10.81 30.02 20.55 48.48 13.45 17.31-6.54 26.41-22.73 28.67-40.12-.18-.43-.35-.86-.54-1.25z" class="st11"/>
<path d="M101.39 163.98s0-.01-.01-.01c.05-.11-.07.06.01.01zM101.49 164.1l-.02-.02s0 .01-.01.01c.01 0 .02 0 .03.01zM51.75 173.53c-.25.24-.5.5-.73.78a4.6 4.6 0 0 0-.47.71c6.42 1.3 12.13 1.91 12.43-3.06 0-2.11-3.25-4.05-6.83-6.13.03 1.48-.28 2.64-.66 3.34-.1.18-.19.33-.27.46-.09.12-.18.22-.25.29-.14.15-.23.21-.27.18.08.04-.04.47-.53 1.1-.48.64-1.4 1.39-2.42 2.33zM33.49 96.86c-.09.17-.93-.05-2.35-.61-1.44-.56-3.48-1.37-5.99-2.36-.85-.34-1.77-.7-2.73-1.08-.05.03-.11.06-.17.09-.35.19-.79.4-1.35.6a7.3 7.3 0 0 1-2.04.43c-.8.06-1.77-.1-2.66-.52-.88-.4-1.72-.97-2.57-1.4-.43-.21-.86-.37-1.25-.4-.4-.03-.77.04-1.11.25-.35.22-.69.57-.97 1.01-.3.44-.52.93-.67 1.47-.3 1.08-.29 2.35-.1 3.66.19 1.32.6 2.7 1.07 4.14.41 1.22.89 2.46 1.44 3.71 3.64 1.78 7.81 2.13 11.98.37 3.55-1.54 6.88-3.44 10.07-5.58.06-1.13.13-2.25.22-3.34-.26-.16-.54-.3-.82-.44 0-.01 0 0 0 0zm-10.9-.22c-.58.31-1.25.68-1.98 1.1-.36.21-.74.44-1.13.68-.2.13-.4.26-.61.39-.42.27-.92.46-1.44.46-.25 0-.49-.04-.73-.12a4.26 4.26 0 0 1-.38-.14l-.22-.1a7.99 7.99 0 0 1-.42-.2 9.016 9.016 0 0 1-2.11-1.53 6.97 6.97 0 0 1-.53-.58c-.13-.16-.26-.32-.38-.48-.22-.27-.34-.41-.47-.52-.13-.1-.22-.17-.37-.19a.561.561 0 0 0-.38.1c-.22.14-.23.32-.36.3a.537.537 0 0 1-.34-.25c-.11-.15-.18-.41-.12-.71s.26-.67.64-.92c.19-.12.42-.22.69-.26.27-.05.56-.04.83.01.28.05.55.15.81.28.25.13.48.28.68.44.2.15.38.31.55.44.16.13.31.24.48.36a10.283 10.283 0 0 0 1.66.98l.31.14.15.06c.01 0 0 0 0 0s0 .01.01.01c.19-.1.46-.26.69-.37.47-.24.94-.45 1.4-.62a11.8 11.8 0 0 1 2.48-.64c1.45-.19 2.36.04 2.43.41.06.38-.7.84-1.84 1.47z" class="st11"/>
<path d="M108.48 120.88c1.02-2.54 2.19-5.08 3.52-7.56-.06-.39-.12-.85-.19-1.37-.28-1.94-.66-4.74-1.4-8.15-.74-3.4-1.86-7.4-3.65-11.63-1.77-4.24-4.02-8.8-7.36-12.87-.45-.55-.91-1.07-1.38-1.59-3.38-3.65-7.54-6.11-11.36-8.16-3.8-2.08-7.46-3.46-10.51-4.71-3.07-1.21-5.46-2.41-7.1-3.22-1.65-.82-2.53-1.3-2.49-1.39h.02c-.2-.09-.39-.18-.59-.26-1.76-.8-3.53-1.56-5.33-2.18-.4-.14-.8-.26-1.2-.37-.42-.6-.8-1.23-1.14-1.89-.62-1.2-1.11-2.49-1.41-3.84-.26-1.11-.39-2.24-.44-3.35-4.87.01-9.76-.08-14.68-.43-.21 3.7-.28 7.17-.17 10.34.03 1 .08 1.95.15 2.88.1-.25.2-.5.3-.7.61-1.21 1.04-1.76 1.11-1.72.05.02.01.18-.08.45-.1.32-.28.82-.5 1.48-.2.62-.38 1.38-.53 2.33-.17.95-.38 2.05-.6 3.28-.48 2.46-1.06 5.48-1.74 8.97l-.12.61c1.05.14 2.06.28 2.98.43 2 .32 3.63.76 4.7 1.2 1.08.45 1.59.86 1.53 1.04-.07.19-.7.14-1.79.04-1.1-.1-2.66-.21-4.64-.27-1-.04-2.09-.07-3.26-.12-.59-.03-1.21-.06-1.86-.12-.64-.06-1.37-.16-2.01-.28a51.524 51.524 0 0 1-13.42-4.41c-.56-.27-1.17-.58-1.76-1.03-.3-.22-.58-.48-.84-.78-.22-.32-.48-.61-.63-.95-.08-.17-.16-.34-.24-.5-.08-.17-.11-.34-.16-.5-.11-.34-.16-.66-.2-.98-.09-.63-.08-1.21-.06-1.76.05-1.09.18-2.03.24-2.87.06-.84.05-1.56-.08-2.16-.22-1.21-.98-1.92-1.62-2.29-.64-.38-1.09-.53-1.08-.7-.01.22-.89.24-2.13.86-.61.33-1.31.83-2.02 1.55-.71.72-1.43 1.65-2.22 2.74-.79 1.09-1.63 2.28-2.38 3.6-.74 1.33-1.39 2.79-1.71 4.38-.04.2-.07.39-.1.59.81 1.25 1.8 2.38 3.02 3.33 13.65 9.59 28.1 14.87 42.57 20.37-1.1 1.28-2.4 2.31-3.83 2.91-2.56 1.07-5.51.8-8.15-.07-.64-.21-1.27-.46-1.9-.73-.06 1.06-.1 2.13-.13 3.23-.05 1.3-.01 2.62 0 3.97 0 .62.05 1.25.08 1.88.24.14.48.27.72.41 1.67.93 3.47 1.83 5.27 2.76 4.12 2.12 8.27 4.38 11.05 7.38.81.88 1.51 1.82 2.05 2.83.05.1.1.2.15.31.02.05.05.09.07.13 1.16 2.41 1.46 5.26.49 8.72-.05.16-.09.33-.14.49-.82 2.64-2.25 4.91-3.89 7.04-1.15 1.49-2.42 2.92-3.66 4.37-.32.37-.64.75-.96 1.13.89 1.76 1.84 3.52 2.85 5.24.98.26 1.94.58 2.85.97 4.27 1.71 8.06 5.18 12.19 7.35 0-.23.03-.35.08-.36.19-.03.71 1.45 1.66 4.16.23.68.49 1.45.72 2.31.23.85.47 1.76.71 2.77.47 2 .99 4.32 1.08 7.01.04 1.34-.04 2.77-.35 4.25-.32 1.49-.92 3.01-1.88 4.4-.95 1.38-2.29 2.65-4.04 3.41-.87.38-1.82.58-2.67.7-.86.13-1.67.21-2.39.37-.72.16-1.31.4-1.71.76-.4.36-.63.83-.7 1.43-.07.6.06 1.29.34 1.91.07.15.14.28.22.42 7.1 1.5 14.54 1.35 21.5-1.43 13.65-5.56 10.62-22.25 14.66-34.39.07-.18.15-.36.22-.53-.47-1.73-1.02-3.44-1.67-5.12 7.67-7.43 12.93-17.69 17.15-27.75zM12.64 65.8c-.86.96-1.69 1.81-2.39 2.37-.35.28-.6.42-.82.53-.22.11-.41.21-.61.2-.19-.01-.38-.19-.44-.56-.07-.36.05-.86.21-1.31.31-.91.96-2.06 1.92-3.13.96-1.07 2.02-1.86 2.89-2.27.87-.41 1.54-.47 1.78-.16.47.65-.84 2.41-2.54 4.33zm31.15 15.68c-.23.77-6.22-.37-13.56-1.84-1.83-.37-3.58-.73-5.17-1.07-1.55-.33-3.17-.67-4.41-1.4-1.27-.72-2-1.74-2.25-2.51-.26-.78-.1-1.24.08-1.28.2-.04.43.29.88.71.44.42 1.14.93 2.14 1.24 1.01.34 2.34.44 4 .64 1.64.2 3.43.49 5.29.86 7.49 1.51 13.23 3.9 13 4.65zm59.74 41.05c.69 2.39 1.07 5.18-.31 7.55 0 0 .29-.31-.08.09-.52.56-2.11 1.46-3.29 1.72-1.18.26-2.66.81-3.9 1.12-.53.13-1.21.34-1.7.07s-.71-.7-.83-1.22c-.61-2.64-.77-5.11.55-7.61s3.71-4.08 6.55-4.16c.72-.02 1.26.14 1.85.61.59.46.91.95 1.16 1.83zm-2.95-16.79c-1.44 2-6.96 6.1-11.13 5.29-1.78-.35-3.89-.54-4.95-2.25-.54-.87-.71-1.63-.72-2.59-.06-3.06.58-5.78 2.52-8.23s4.59-3.88 7.68-4.24c1.01-.12 1.99-.17 2.92.4 3.76 2.32 5.6 6.75 3.95 11.26-.02 0 .83-1.17-.27.36zm-13.82 17.81c-.35.09-.71.07-1.08-.1-1.05-.48-1.02-1.6-.8-2.6v-.03c.6-1.51 1.15-2.6 2.79-3.49-.93.12 0 0 0 0 .1-.01.21-.03.35-.05 1.95-.24 2.41 5.28-1.26 6.27zm-19.41 10.83c.04-1.66.39-3.25 1.55-4.54.75-.84 1.83-1.31 2.87-1.73 1.66-.67 3.44-1.05 5.19-1.34.6-.1 1.24-.03 1.68.25.44.28.51 1.09.52 1.62.06 3.05.73 8.11-2.2 10.61-2.93 2.51-7.27 2.64-9.16-1.1-.6-1.19-.48-2.46-.45-3.77zm11.82-5.93v.17-.17zM71.5 86.17c-2.18-2.49-2.49-5.5-3.1-8.55-.27-1.36-.39-2.84.49-3.93.88-1.09 2.16-1.48 3.61-1.38 4.15.29 7.72 1.79 9.91 5.7 1.54 2.75 2.93 7.57.77 10.38-.72.94-1.91.97-2.98 1.02-3.26.18-6.52-.75-8.7-3.24zM59.84 59.99c.15-.14.72.24 1.74.8 1.02.57 2.55 1.24 4.57 1.83 1.01.3 2.14.59 3.37.92 1.24.33 2.57.72 3.95 1.17a77.01 77.01 0 0 1 13.15 5.76c1.38.77 2.7 1.54 3.94 2.37 1.24.82 2.38 1.74 3.33 2.68.96.94 1.75 1.89 2.42 2.79 1.34 1.79 2.21 3.34 2.77 4.44.55 1.1.77 1.76.61 1.87-.16.11-.69-.34-1.52-1.24-.83-.89-1.95-2.24-3.4-3.77-.73-.76-1.54-1.57-2.47-2.34-.93-.78-1.97-1.51-3.15-2.22-1.18-.71-2.49-1.41-3.85-2.13-1.36-.71-2.78-1.43-4.25-2.12-2.94-1.4-5.81-2.6-8.44-3.62-1.32-.51-2.58-.97-3.77-1.39-1.2-.43-2.34-.84-3.36-1.29-2.06-.88-3.64-1.93-4.54-2.84-.93-.89-1.23-1.55-1.1-1.67z" class="st11"/>
<path d="M31.19 29c-.35-.22-.87-.49-1.58-.74-.71-.26-1.59-.49-2.58-.74s-2.1-.52-3.17-1c-1.07-.47-2.02-1.19-2.68-2.27-.66-1.07-1.02-2.48-1.02-3.99-.02-1.51.33-3.11.98-4.68.66-1.56 1.6-3.08 2.83-4.43 2.44-2.73 5.59-4.55 8.65-5.51 3.08-.99 6.08-1.22 8.58-1.2 2.51.02 4.57.27 6 .43 1.43.17 2.25.23 2.3.03.05-.18-.66-.61-2.05-1.12-1.39-.5-3.47-1.07-6.13-1.37-2.65-.29-5.93-.27-9.44.69-3.51.94-7.18 2.95-10.03 6.13-2.84 3.18-4.51 7.23-4.31 11.1.09 1.91.64 3.76 1.69 5.22 1.04 1.48 2.57 2.41 3.92 2.83 1.37.45 2.58.57 3.61.68 1.03.1 1.9.17 2.61.25.69.08 1.23.15 1.62.2.34.02.52.12.58.05.06-.04.01-.32-.38-.56z" class="st12"/>
<path d="M39.35 17.64c0 .04.01.07.01.11l.03.21c.01.07.03.14.04.21l.01.05.01.05.03.11.03.11.03.1c.02.07.04.14.07.21.02.07.05.14.07.21.03.07.06.14.08.2.12.27.26.53.42.78.16.25.34.48.54.7.05.05.1.11.15.16.05.05.1.1.16.15.05.05.11.1.16.15l.08.07.09.07.09.07.04.03.04.03c.06.04.12.08.18.13l.18.12.09.06.09.05c.25.14.5.26.77.36.26.1.53.18.8.24s.54.09.81.11c.27.02.54.01.8-.01s.52-.07.77-.12c.12-.03.25-.06.37-.1l.36-.12c.23-.09.46-.19.67-.32.43-.23.81-.52 1.13-.84a5.302 5.302 0 0 0 1.35-2.11c.25-.73.32-1.44.29-2.04a5.026 5.026 0 0 0-.54-2.04c-.04-.07-.07-.14-.11-.2-.04-.06-.07-.11-.1-.16s-.06-.09-.08-.12c-.02-.03-.05-.06-.06-.09l-.01-.01c-.03-.03-.04-.05-.05-.05-.01 0 0 .03.03.08.01.03.03.06.05.1.02.04.04.08.06.13.02.05.05.11.08.17.03.06.06.13.09.2.06.15.12.32.19.52.04.13.07.27.11.42.02.08.04.16.05.25.04.25.07.52.08.81 0 .32-.02.66-.09 1.01-.05.3-.13.61-.25.92-.13.34-.3.68-.52 1.02-.22.33-.48.65-.8.94-.31.29-.67.55-1.07.76-.2.11-.41.2-.63.29-.11.04-.22.08-.33.11-.11.04-.23.06-.34.09-.23.05-.47.09-.72.11-.24.02-.49.02-.74 0s-.5-.05-.75-.11-.5-.13-.74-.22a5.12 5.12 0 0 1-.71-.34l-.09-.05c-.03-.02-.06-.03-.08-.05l-.17-.11c-.05-.04-.11-.08-.16-.12l-.04-.03-.04-.03-.08-.06-.08-.06-.08-.07c-.05-.05-.1-.09-.15-.14-.05-.05-.1-.09-.14-.14-.05-.05-.09-.1-.14-.15-.18-.2-.35-.42-.5-.65-.15-.23-.28-.47-.39-.72-.03-.06-.05-.13-.08-.19-.02-.06-.05-.13-.07-.19-.02-.06-.04-.13-.06-.19l-.03-.1-.02-.1-.02-.1-.01-.05-.01-.05c0-.01 0-.02-.01-.03l-.03-.16-.03-.2c-.01-.03-.01-.07-.01-.1l-.01-.1c-.02-.26-.03-.52-.01-.78.02-.26.05-.51.1-.76.02-.09.05-.17.07-.26.04-.16.08-.32.14-.47.09-.23.19-.46.31-.67.12-.21.25-.42.39-.61l.22-.28c.08-.09.16-.17.24-.26a5.267 5.267 0 0 1 1.66-1.11c.39-.17.79-.27 1.19-.34.39-.06.78-.08 1.14-.05.73.05 1.37.25 1.9.49.26.12.5.26.71.4.21.14.39.28.54.42.15.14.29.27.39.38.05.06.1.11.15.16.04.05.08.1.12.14.04.04.07.08.09.11.03.03.05.06.07.08.04.04.06.06.07.06 0 0 0-.02-.01-.05 0-.01-.01-.02-.02-.03-.01-.03-.03-.06-.05-.09-.02-.04-.05-.08-.08-.13s-.07-.1-.1-.16c-.04-.06-.09-.11-.14-.18-.1-.13-.23-.27-.38-.42-.15-.15-.33-.31-.54-.46a5.362 5.362 0 0 0-2.7-1.03c-.38-.04-.79-.03-1.21.03-.42.06-.85.16-1.27.33-.42.17-.84.4-1.23.69-.2.14-.38.31-.56.48-.09.09-.18.18-.26.27-.09.09-.16.19-.25.29-.15.21-.3.42-.43.65-.13.23-.24.47-.34.72-.09.25-.17.51-.23.78s-.1.54-.12.82c-.02.28-.01.56.01.85l.01.15z" class="st12"/>
<path d="M40.11 13.04c.05.04.21-.04.48-.19.28-.15.67-.38 1.17-.64.49-.25 1.09-.53 1.78-.74.34-.1.7-.19 1.08-.24a4.5 4.5 0 0 1 1.16-.01c.1.01.19.03.29.04.02 0 .05.01.07.01l.07.02a3.253 3.253 0 0 1 .42.11l.27.09c.36.13.7.29 1.01.46.63.34 1.14.74 1.56 1.11.42.36.73.69.96.91.15.15.26.25.33.29.04.02.07.03.08.02.05-.03.01-.21-.14-.51-.01-.02-.02-.03-.03-.05.11.04.22.08.34.1.19.04.37.04.54.03.17-.02.31-.05.43-.1.23-.09.35-.2.33-.25-.02-.06-.17-.05-.39-.04-.11 0-.24.01-.37 0-.14-.01-.29-.02-.45-.05-.3-.06-.56-.15-.76-.23-.1-.14-.21-.28-.34-.44.05 0 .09.01.14.01.17-.01.33-.04.47-.08.14-.05.26-.11.35-.17.18-.12.26-.24.23-.29-.03-.05-.16-.03-.35.02-.09.02-.2.05-.32.06-.12.02-.25.03-.39.04-.2.01-.38-.01-.54-.03-.16-.16-.35-.33-.55-.49h.01l.1-.03c.02-.01.03-.01.05-.02.02-.01.03-.01.05-.02.03-.01.06-.03.09-.04.06-.03.12-.07.17-.1.05-.04.1-.07.14-.11.04-.04.07-.08.1-.11s.06-.07.07-.1c.02-.03.03-.06.04-.09.02-.05.02-.09 0-.11-.02-.02-.06-.02-.11-.01-.03.01-.05.02-.08.03-.03.01-.07.03-.1.04-.15.07-.34.16-.55.23-.14.05-.28.08-.4.11-.09-.07-.18-.13-.28-.2-.21-.13-.43-.25-.67-.36.05-.03.1-.06.14-.1.12-.1.22-.22.29-.33.07-.11.12-.23.14-.32.05-.19.03-.32-.02-.34-.06-.02-.14.07-.25.2-.11.13-.25.31-.43.46-.11.09-.22.16-.33.22-.1-.04-.2-.07-.31-.11-.11-.03-.21-.07-.32-.1-.06-.01-.11-.03-.17-.04l-.08-.02c-.02 0-.05-.01-.07-.01l.1-.13c.08-.13.13-.26.16-.38.01-.06.03-.12.03-.17 0-.05.01-.11.01-.15 0-.05 0-.09-.01-.13-.01-.04-.01-.07-.02-.09-.02-.05-.04-.08-.07-.08-.13-.01-.22.4-.46.78-.06.09-.12.18-.19.25-.01.01-.02.02-.03.04-.44-.04-.86-.03-1.26.03-.44.07-.84.18-1.21.32-.75.28-1.36.63-1.84.97-.48.34-.83.65-1.06.89-.25.26-.34.42-.3.46zM51.27 16.43c-.05.03-.1.05-.15.08-.01 0-.01.01-.02.01-.05.03-.09.05-.12.07-.02.01-.03.02-.05.04-.01-.14-.03-.22-.05-.22-.03 0-.05.2-.1.55-.05.35-.13.86-.3 1.47-.09.3-.19.63-.33.97-.03.09-.07.17-.11.26-.04.09-.08.17-.13.26-.04.09-.09.17-.14.26-.05.09-.1.17-.16.26-.05.09-.11.17-.17.26l-.19.25c-.14.17-.28.33-.44.48-.32.3-.7.57-1.12.78-.05.03-.11.05-.16.07-.05.02-.11.05-.16.07-.05.02-.11.04-.16.06-.05.02-.11.04-.16.06l-.08.03-.08.02c-.05.02-.11.03-.16.05-.06.01-.11.03-.16.04-.05.01-.11.03-.16.04-.44.09-.87.12-1.29.13-.41 0-.81-.02-1.18-.06l-.27-.03c-.04-.01-.09-.01-.13-.02-.04-.01-.09-.01-.13-.02-.09-.01-.17-.03-.25-.04-.08-.02-.16-.03-.24-.05-.59-.11-1.06-.23-1.41-.32-.02-.01-.05-.01-.07-.02-.35-.09-.54-.13-.55-.1-.01.03.17.12.5.26.34.13.83.31 1.46.47l.24.06c.08.02.17.04.26.05l.13.03c.02 0 .07.01.11.01.09.02.18.03.28.05.38.06.79.1 1.22.1.43.01.89-.02 1.36-.11.06-.01.12-.02.18-.04.06-.01.12-.03.18-.04.06-.02.12-.03.18-.05l.09-.02.09-.03.18-.06c.06-.02.12-.05.18-.07.06-.02.12-.05.17-.07.06-.03.12-.05.17-.08.46-.23.87-.52 1.22-.85.18-.17.33-.34.47-.52.07-.09.14-.18.2-.27.01-.02.02-.03.03-.05.06-.01.12-.02.18-.04.21-.06.36-.16.34-.22-.01-.03-.07-.04-.15-.04-.07-.06-.04-.25.08-.5.01-.03.02-.05.03-.08.14-.28.37-.62.65-.91-.5.07-.18-.56.3-1.39-.44-.25-.12-.69.23-1.03.28-.08.61-.22.95-.43.38-.23.69-.49.89-.7.2-.21.3-.37.26-.41-.08-.09-.66.3-1.37.74-.33.24-.66.42-.91.55zM149.45 142.47s.01.04.01.03l-.01-.03v-.07c-.01-.05-.01-.09-.02-.14 0-.03-.01-.06-.01-.09l-.12.11.15.19zM149.42 142.02l-.01-.06v.04c0 .05.01.11.02.17l.03-.03-.04-.12z" class="st12"/>
<path d="M173.82 140.62c-.26-1.66-.83-3.05-1.41-4.18-.59-1.13-1.22-2.01-1.73-2.71-.26-.35-.5-.64-.7-.9-.19-.25-.41-.48-.63-.57a.873.873 0 0 0-.52-.07c-.11.02-.17.05-.16.06 0 .04.25-.06.62.14.19.1.34.29.53.57.19.27.41.58.64.94.47.71 1.05 1.61 1.59 2.73.18.39.36.82.53 1.27.31.84.58 1.76.71 2.8.23 1.59.14 3.39-.2 5.33-.35 1.94-.87 4.03-1.62 6.21-.75 2.18-1.73 4.45-2.96 6.76-1.23 2.3-2.75 4.63-4.45 6.98a56.569 56.569 0 0 1-5.91 6.92c-2.26 2.21-4.81 4.3-7.68 6.11-.73.43-1.45.9-2.22 1.29-.38.2-.76.41-1.15.61-.39.19-.79.38-1.18.57-.78.39-1.61.71-2.43 1.07-.83.31-1.66.63-2.52.86-1.72.49-3.51.77-5.36.86-1.84.09-3.73.01-5.66-.09-3.85-.18-7.74-.7-11.62-1.69-3.88-.98-7.71-2.48-11.37-4.44-1.82-.99-3.64-2.07-5.34-3.3-1.71-1.23-3.36-2.61-5.04-3.99-.53-.43-1.07-.87-1.62-1.3.24-1.37.42-2.68.46-3.92.01-.33.01-.65 0-.97-.03-1.71-.28-3.17-.5-4.37-.04-.2-.08-.38-.12-.57.1.06.2.12.29.18 1.75 1.1 3.43 2.35 5.18 3.5.22.14.44.29.66.43l.33.21.17.1c.01 0 .03.02.05.03 0 0 0-.01.01-.01l.02.02s.01 0 .01.01c0 0 0 .01.01.01l.21.13.32.2.64.41c.85.55 1.69 1.11 2.53 1.68 1.68 1.13 3.35 2.28 5.11 3.27 1.74 1.01 3.62 1.82 5.48 2.44 3.73 1.27 7.55 1.92 11.25 2.14 1.85.12 3.68.13 5.47.09 1.78-.04 3.55-.1 5.29-.28 1.74-.19 3.45-.5 5.08-.99.81-.24 1.61-.51 2.38-.82.38-.16.76-.32 1.14-.47.37-.18.74-.35 1.11-.52 2.92-1.43 5.48-3.26 7.68-5.25 2.21-1.98 4.06-4.13 5.67-6.24.79-1.07 1.54-2.12 2.22-3.17a30.358 30.358 0 0 0 4.21-9.26c.52-1.95.69-3.82.71-5.46.01-1.65-.08-3.11-.14-4.36-.06-1.26-.09-2.32-.08-3.18.01-.43 0-.81.05-1.12.05-.31.15-.55.28-.71.28-.31.54-.33.52-.37 0-.01-.06-.01-.17.02-.11.03-.28.09-.45.26-.17.16-.31.44-.39.77-.08.34-.09.72-.13 1.15-.06.86-.08 1.94-.06 3.2.01.72.03 1.51.03 2.34-.05-.05-.1-.11-.15-.16-.35-.36-.65-.61-.9-.86l-.19-.2c-.09-.09-.18-.19-.28-.28-.21-.19-.48-.4-.78-.54-.3-.15-.58-.23-.87-.28-.29-.05-.59-.08-.87-.05-.57.04-1.04.19-1.43.33-.39.14-.71.27-.99.36-.3.08-.65.18-.97.25-.65.15-1.31.27-1.95.38-1.28.21-2.52.4-3.64.67s-2.12.64-2.94 1.07c-.82.42-1.44.93-1.91 1.35l-.16.14c.03.07.05.14.07.21.09.22.16.4.24.54.14.29.25.43.33.41.08-.02.12-.19.12-.51v-.1c.5-.27 1.09-.59 1.84-.84.31-.11.64-.2.99-.29.53-.13 1.11-.24 1.74-.33 1.05-.14 2.25-.21 3.58-.32.67-.06 1.37-.13 2.11-.25.37-.06.73-.13 1.14-.22.42-.1.8-.23 1.13-.33.67-.21 1.03-.18 1.35-.02.06.04.11.08.19.16.04.04.09.09.14.15l.22.25c.31.35.63.64.86.9.23.26.37.47.49.73.1.22.24.67.34 1.04.22.77.38 1.57.47 2.38.03.28.05.56.05.84-.06.24-.12.49-.19.73-.53 1.89-1.32 3.9-2.4 5.92-.47.87-.99 1.74-1.57 2.61-.1.14-.19.29-.29.43-.69 1.03-1.44 2.05-2.23 3.09-.54.68-1.1 1.37-1.69 2.05-.61.45-1.24.85-1.9 1.21-.5.27-.86.45-1.26.56-.37.11-.72.13-.96.09-.05-.25-.11-.51-.2-.76-.13-.4-.31-.79-.51-1.15.06-.63.18-1.33.25-2.06.03-.26.05-.55.05-.85 0-.15-.01-.35-.03-.46l-.04-.36a30 30 0 0 0-.19-1.41c-.14-.91-.3-1.77-.47-2.59-.67-3.27-1.4-5.85-1.96-7.62-.57-1.77-.98-2.72-1.17-2.68-.19.04-.15 1.08.08 2.91.22 1.83.65 4.47 1.05 7.71.1.81.19 1.65.27 2.53.03.44.07.88.09 1.33l.02.34c.01.13 0 .16 0 .26-.01.15-.03.32-.06.5-.99-.8-2.14-1.37-3.15-1.76-.57-.23-1.1-.43-1.58-.64-.24-.11-.47-.21-.7-.33-.23-.12-.47-.25-.7-.38-.93-.53-1.81-1.12-2.66-1.73-.21-.16-.42-.31-.63-.47l-.31-.24-.56-.44c-.79-.64-1.57-1.27-2.33-1.9-.45 1.15-.89 2.28-1.32 3.39-.22.6-.44 1.18-.65 1.75-.41 1.12-.8 2.19-1.17 3.21-.72 2.04-1.36 3.86-1.9 5.4-.22.64-.41 1.24-.57 1.79-.06-.14-.12-.28-.17-.41-.3-.69-.61-1.37-.93-2.06-.95-2.05-1.94-4-2.97-5.85a76.05 76.05 0 0 0-1.56-2.69c-.2-.33-.4-.66-.6-.98-.12-.22-.26-.34-.39-.5-.14-.15-.28-.29-.42-.42-.15-.13-.27-.28-.43-.3-.17-.05-.39-.06-.53-.04-.29.04-.66.16-1 .47-.39.35-.78.71-1.16 1.05-.23.21-.45.42-.68.63l-1.31 1.22c-.85.8-1.65 1.57-2.41 2.29-1.51 1.45-2.82 2.74-3.88 3.83-.02.02-.03.04-.05.05-.18-.85-.42-1.68-.65-2.47-.4-1.45-.79-2.86-1.17-4.25.68.01 1.27-.13 1.76-.27.49-.16.99-.31 1.48-.47.48-.15.97-.29 1.45-.44 3.91-1.15 7.84-2.12 11.59-3.43 3.75-1.3 7.31-2.95 10.34-5.18.37-.28.75-.56 1.1-.86.18-.15.36-.29.53-.45l.59-.52c.3-.28.55-.61.69-.98.14-.37.17-.78.09-1.16-.04-.19-.1-.39-.17-.57-.04-.09-.08-.18-.12-.28l-.09-.17-.29-.57-2.28-4.38c-1.48-2.81-2.87-5.44-4.13-7.83-1.26-2.39-2.43-4.54-3.6-6.39-1.15-1.85-2.3-3.37-3.36-4.5-1.03-1.15-2.09-1.91-2.91-2.16-.05-.02-.1-.03-.14-.04.23-.23.4-.44.55-.6l.67-.79a110.759 110.759 0 0 0 3.93-4.98c2.47-3.36 4.7-6.78 6.63-10.19.97-1.7 1.88-3.4 2.71-5.09.43-.84.82-1.68 1.21-2.52.21-.47.42-.93.63-1.39.39-.78.49-1.59.07-2.26-.15-.23-.33-.41-.57-.57-.23-.16-.52-.27-.79-.4-.32-.14-.64-.29-.96-.43a221.3 221.3 0 0 0-5.01-2.13c-2.17-.88-4.25-1.68-6.22-2.39A159.12 159.12 0 0 0 118 78.37c-1.28-.35-2.43-.7-3.54-.9.17-.38.26-.75.31-1.08.05-.34.07-.66.08-.94l.02-.79c.03-1.05.03-2.1.03-3.17-.05-8.5-1.1-16.57-2.76-23.73-.11-.45-.21-.89-.32-1.33l-.16-.68c-.09-.4-.23-.81-.44-1.15-.21-.34-.5-.61-.85-.79-.35-.18-.74-.24-1.13-.2-.2.02-.39.06-.59.12l-.5.15-.62.19c-1.64.51-3.24 1.01-4.78 1.49-3.08.98-5.95 1.89-8.57 2.73-10.46 3.38-16.88 5.65-16.77 6.03s6.73-1.21 17.34-4.1l8.67-2.39c.83-.23 1.69-.47 2.55-.72.75-.21 1.5-.42 2.27-.64l.62-.18c.15-.04.1-.03.13-.03l.04-.01c.05-.01.09.02.1.07.14.66.29 1.33.43 2 1.48 7.03 2.43 14.9 2.47 23.18 0 1.03 0 2.06-.03 3.09l-.02.76c-.01.23-.02.44-.05.6-.02.16-.06.28-.09.35-.04.07-.05.1-.12.16-.13.13-.46.31-.91.48-.42.18-.85.32-1.29.46-.88.27-1.8.45-2.74.61-1.88.31-3.82.47-5.77.79-.07.01-.14.03-.21.04-.11-.14-.22-.29-.33-.43-.47-.57-.95-1.11-1.44-1.65l-.09.98-.44-.6-.34-.46.88.08c-.63-.68-1.3-1.32-1.98-1.93a36.532 36.532 0 0 0-3.81-2.93c-2.02-1.35-4.06-2.48-6.02-3.48-3.4-1.78-6.68-2.99-9.5-4.02 0-.46-.01-.92-.03-1.36l-.06-1.46c-.04-.93-.07-1.78-.1-2.55-.1-2.93-.14-4.36-.15-4.73.01-.03-.06-.04-.12.01s-.11.12-.16.23c-.1.21-.18.51-.27.92-.16.81-.3 2.01-.42 3.55-.06.77-.11 1.63-.15 2.57l-.06 1.47c-.01.26-.02.52-.04.79-2.96-1.05-5.3-2.05-6.95-2.69-1.63-.63-2.57-.95-2.69-.9h-.02c-.04.09.84.57 2.49 1.39 1.65.81 4.04 2 7.1 3.22 3.05 1.26 6.71 2.63 10.51 4.71 3.82 2.05 7.98 4.51 11.36 8.16.47.51.93 1.04 1.38 1.59 3.34 4.06 5.59 8.63 7.36 12.87 1.79 4.23 2.91 8.23 3.65 11.63.74 3.4 1.12 6.21 1.4 8.15.07.52.13.98.19 1.37l.03.2c.14.94.23 1.45.3 1.44.09-.01.13-1.1.03-3.06-.01-.24-.03-.5-.05-.76 1.35.73 2.73 1.47 4.13 2.22 1.13.6 2.29 1.24 3.52 1.84.43.21.87.41 1.31.6-.47.22-.97.51-1.48.86-.64.43-1.32.95-2.05 1.46-.72.5-1.54.95-2.49 1.34-.9.38-1.9.71-2.99 1.05.12-1.44.17-2.62.18-3.52.02-1.33-.03-2.03-.12-2.03-.08-.01-.18.41-.32 1.22-.04.23-.08.48-.13.77-.21 1.3-.46 3.23-.96 5.67-.25 1.22-.57 2.56-1 3.99-.43 1.43-1.02 2.96-1.69 4.59a76.488 76.488 0 0 1-5.45 10.64 92.483 92.483 0 0 1-3.86 5.8c-1.41 1.97-2.93 3.99-4.59 5.98-.34.41-.69.81-1.04 1.21.09.36.17.71.25 1.07-.19.09.02 1.66.24 4.45.1 1.41.21 3.15.01 5.08-.21 1.93-.79 4.15-1.44 6.63l-2.06 8.1c-.39 1.43-.83 2.86-1.47 4.18-.64 1.32-1.53 2.54-2.63 3.69-1.09 1.14-2.39 2.19-3.79 3.18-1.41.99-2.89 2-4.41 2.74-.76.37-1.54.65-2.36.86-.81.22-1.67.35-2.54.41-1.74.13-3.56-.05-5.4-.39-1.84-.34-3.65-.86-5.43-1.42-1.77-.56-3.42-1.17-4.58-2.13-.46-.38-.81-.76-1.07-1.21a2.78 2.78 0 0 1-.22-.42c-.28-.62-.41-1.31-.34-1.91.06-.61.29-1.08.7-1.43.4-.37.99-.61 1.71-.76.72-.16 1.53-.24 2.39-.37.85-.12 1.8-.32 2.67-.7 1.75-.75 3.08-2.03 4.04-3.41.96-1.38 1.55-2.9 1.88-4.4.31-1.48.39-2.91.35-4.25-.09-2.69-.61-5.01-1.08-7.01-.24-1-.48-1.91-.71-2.77-.24-.87-.49-1.63-.72-2.31-.95-2.71-1.47-4.19-1.66-4.16-.05.01-.08.13-.08.36 0 .62.21 2.04.67 4.09.15.7.32 1.47.46 2.31.15.86.3 1.79.48 2.79.07.42.14.86.2 1.31-.23-.14-.47-.29-.69-.45-5.16-3.54-9.63-8.4-13.38-13.96-.98-1.45-1.9-2.92-2.78-4.42a106.9 106.9 0 0 1-2.85-5.24c-1.3-2.57-2.51-5.16-3.65-7.73-2.62-5.85-4.87-11.59-6.14-17.25-.33-1.41-.58-2.82-.8-4.21-.08-.7-.19-1.39-.25-2.09s-.12-1.39-.19-2.08c-.08-.69-.09-1.37-.12-2.05 0-.05-.01-.1-.01-.14.24.14.48.27.72.4-.24-.13-.48-.27-.72-.41-.03-.63-.07-1.26-.08-1.88-.01-1.34-.05-2.67 0-3.97.02-1.09.07-2.17.13-3.23-.75-.33-1.49-.69-2.22-1.06-.09 1.09-.17 2.21-.22 3.34-.01.29-.03.58-.05.87-.08 1.33-.06 2.7-.08 4.08 0 .31.01.62.01.93-.08.05-.15.1-.22.14a44.545 44.545 0 0 1-5.08 2.72c-.85.4-1.72.73-2.59 1.07-.87.29-1.74.6-2.61.81-.44.12-.87.24-1.31.32-.44.08-.87.19-1.31.26-.86.11-1.77.28-2.56.29-.8.02-1.48-.06-2.04-.32-.58-.26-1.12-.71-1.6-1.27-.95-1.12-1.67-2.64-2.36-4.08-.1-.21-.18-.41-.28-.62-.55-1.24-1.03-2.48-1.44-3.71-.47-1.44-.88-2.82-1.07-4.14-.2-1.32-.21-2.58.1-3.66.15-.54.37-1.03.65-1.46.28-.45.62-.79.97-1.01.34-.21.71-.28 1.11-.25.4.03.83.19 1.25.4.85.43 1.69 1 2.57 1.4.89.42 1.87.58 2.66.52a7.3 7.3 0 0 0 2.04-.43c.56-.2 1-.41 1.35-.6.06-.03.11-.06.17-.09.96.39 1.88.75 2.73 1.08 2.52.99 4.56 1.79 5.99 2.36 1.43.56 2.26.78 2.35.61.09-.18-.57-.73-1.84-1.6-1.28-.86-3.23-1.98-5.68-3.21-2.44-1.24-5.39-2.6-8.51-4.28-1.55-.85-3.15-1.77-4.71-2.84-1.55-1.08-3.06-2.3-4.44-3.71-1.41-1.39-2.55-2.89-3.12-4.44-.5-1.35-.57-2.82-.36-4.23.03-.2.06-.4.1-.59.31-1.59.97-3.05 1.71-4.38.75-1.32 1.59-2.52 2.38-3.6.79-1.09 1.51-2.03 2.22-2.74.71-.72 1.41-1.22 2.02-1.55 1.24-.63 2.12-.65 2.13-.86.01-.09-.2-.22-.63-.29-.43-.07-1.08-.09-1.9.12-.82.22-1.75.67-2.68 1.38-.93.7-1.84 1.65-2.75 2.68-.92 1.04-1.9 2.23-2.83 3.64-.91 1.41-1.78 3.08-2.25 5.03-.47 1.92-.57 4.16.19 6.34.76 2.17 2.18 3.97 3.72 5.5 1.54 1.57 3.22 2.9 4.92 4.03 1.7 1.12 3.42 2.05 5.07 2.86 1.88.92 3.68 1.69 5.35 2.37-.28.07-.58.14-.93.2-.53.1-1.15.18-1.82.14-.67-.04-1.35-.22-2.05-.62-.72-.4-1.45-1-2.43-1.59-.49-.28-1.07-.57-1.78-.69s-1.54-.01-2.23.36c-.68.37-1.23.9-1.65 1.49-.44.59-.78 1.27-1.02 1.99-.48 1.45-.51 3-.35 4.53.17 1.54.55 3.05 1 4.57.45 1.53 1.01 3.08 1.68 4.64.34.78.69 1.55 1.1 2.35.41.8.9 1.61 1.53 2.39.64.77 1.44 1.53 2.49 2.02 1.05.51 2.21.63 3.23.61 1.04-.01 1.95-.17 2.93-.29.48-.07.96-.18 1.44-.27.49-.08.96-.21 1.44-.33.97-.23 1.91-.55 2.86-.86.94-.35 1.88-.71 2.8-1.14 1.45-.65 2.87-1.39 4.26-2.2v.02c.05.71.11 1.43.16 2.15s.16 1.46.23 2.19c.21 1.46.45 2.95.78 4.43 1.26 5.94 3.54 11.88 6.15 17.82 2.6 5.93 5.55 12.07 9.47 17.85.37.54.74 1.08 1.12 1.61.63 1.87 1.3 3.49 1.7 4.99.59 1.99 1.11 3.62 1.29 5 .2 1.36.09 2.43-.09 3.13-.05.17-.09.33-.12.47-.04.13-.08.24-.11.34-.05.19-.06.3-.02.33.04.03.13-.03.27-.18.07-.08.16-.17.25-.29.08-.13.17-.28.27-.46.38-.69.69-1.86.66-3.34v-.08c-.02-1.52-.42-3.32-.84-5.29-.04-.2-.08-.4-.13-.61 2.95 3.48 6.27 6.58 9.93 9.06.83.56 1.71 1.06 2.64 1.48.04.67.07 1.36.05 2.06-.03 1.22-.16 2.48-.48 3.74-.32 1.22-.86 2.45-1.66 3.52-.37.5-.8.96-1.28 1.37-.68.06-1.35.11-2.02.14-2.94.12-5.7-.08-8.19-.48-1.22-.19-2.31-.47-3.06-1-.76-.52-1.14-1.28-1.2-2.12-.06-.84.16-1.68.51-2.37.04-.08.09-.15.13-.23.15-.25.3-.5.47-.71.23-.28.48-.54.73-.78 1.02-.94 1.94-1.69 2.41-2.34.49-.63.6-1.05.53-1.1-.09-.06-.36.24-.94.69-.57.48-1.5 1.01-2.72 1.89-1.21.84-2.69 2.54-2.72 4.98 0 .61.12 1.26.41 1.88.29.62.74 1.2 1.3 1.63 1.12.88 2.48 1.26 3.78 1.54 1 .21 2.05.39 3.13.53-.65.21-1.33.54-1.92 1.05-.93.77-1.52 1.99-1.64 3.14-.14 1.17.08 2.3.52 3.34s1.21 1.99 2.04 2.66c1.69 1.41 3.67 2.09 5.51 2.69 1.85.59 3.76 1.14 5.77 1.52 2.01.37 4.07.58 6.13.42 2.05-.13 4.12-.69 5.92-1.59.9-.45 1.73-.95 2.51-1.46.78-.52 1.53-1.04 2.27-1.58 1.47-1.09 2.88-2.26 4.1-3.59 1.22-1.33 2.27-2.83 2.99-4.42.72-1.59 1.14-3.17 1.49-4.66.67-2.97 1.21-5.72 1.74-8.24.1-.5.2-.98.3-1.47.34.27.68.55 1.02.82 1.68 1.37 3.35 2.77 5.12 4.04 1.78 1.28 3.62 2.37 5.5 3.39a51.67 51.67 0 0 0 11.69 4.53c3.98 1 8 1.52 11.88 1.68 1.94.1 3.88.17 5.8.07s3.83-.41 5.63-.94c.91-.25 1.78-.58 2.64-.92.84-.37 1.69-.7 2.49-1.11.4-.2.81-.4 1.21-.59.39-.21.78-.43 1.17-.64.79-.41 1.52-.9 2.27-1.35 2.94-1.89 5.54-4.05 7.83-6.33 2.27-2.3 4.23-4.71 5.95-7.11 1.7-2.41 3.21-4.78 4.44-7.15 1.22-2.37 2.18-4.69 2.91-6.92.73-2.23 1.23-4.37 1.54-6.35.44-2.01.48-3.89.21-5.54zm-23.61 1.94c0-.11-.01-.22-.01-.35V141.97c0-.01.01.02.01.02.02.03.03.08.05.12.02.06.05.11.06.14l-.11.31zm-48.82 21.41s0 .01.01.01c-.09.05.03-.12-.01-.01zm32.57 4.52c.36-.83.83-1.87 1.44-3.1.74-1.44 1.52-3.22 2.41-5.19.44-.99.9-2.04 1.38-3.14.23-.54.47-1.09.72-1.65.04-.07.08-.12.11-.15l.1.12.01.01c.02.01-.03-.02.05.04l.32.26c.22.17.44.34.66.52.89.69 1.84 1.36 2.88 1.98.26.16.51.3.8.45.28.15.57.29.86.42.57.26 1.13.48 1.65.7.09.04.17.08.26.11.94.4 1.72.82 2.41 1.44.47.42.84.87 1.12 1.35a3.987 3.987 0 0 0 .51 1.62c0 .01.01.01.01.02.05.49.03 1.01-.07 1.5-.17.8-.54 1.56-1.05 2.25-.2.26-.4.52-.62.77-.91.56-1.87 1.09-2.86 1.57-.36.16-.71.33-1.07.5l-1.11.45c-.74.29-1.51.55-2.29.77-1.56.45-3.2.74-4.88.91-.17.02-.34.03-.5.04-.77-.39-1.42-.74-1.95-1.08-.68-.42-1.16-.81-1.49-1.08.02-.05.03-.1.05-.16.06-.24.11-.48.14-.72.06-.48.04-.97-.02-1.43-.01-.03 0-.06.02-.1zm-1.05 4.16c.27-.35.46-.72.6-1.06.23.36.57.8 1.04 1.26.12.11.25.23.38.34-.8.03-1.61.05-2.43.06h-.15c.19-.18.38-.37.56-.6zm-17.01-8.69c.13-.1.28-.21.42-.32 1.12-.86 2.41-1.88 3.86-3.06 1.47-1.21 3.12-2.57 4.91-4.05.03-.02.07-.05.08.02l.02.06.01.02.15.27a122.033 122.033 0 0 1 4.27 8.37c.3.67.6 1.33.9 1.99 0 .01.01.01.01.02.3.66.51 1.2.59 1.71.04.25.05.48.03.7-.01.11-.03.22-.05.33l-.05.16-.07.21c-.1.28-.18.45-.27.58-.09.13-.24.28-.44.43-.01.01-.03.02-.05.04l-.06.05-.22.16c-.14.11-.29.2-.43.3-.29.2-.58.38-.87.56-.38.24-.77.44-1.15.63-.12-.01-.23-.01-.35-.02-2.91-.19-5.87-.65-8.79-1.48-1.28-1.21-2.19-2.39-2.88-3.14-.38-.43-.69-.73-.9-.9.09-.15.17-.3.25-.46.25-.58.32-1.17.33-1.68 0-.29-.02-.58-.04-.87.2-.19.48-.39.79-.63zm-2.24 4.62c.23-.17.42-.36.6-.57.09.26.23.59.43 1.01.24.48.55 1.08.96 1.77-1.17-.42-2.31-.9-3.43-1.47.05-.02.09-.04.14-.05.18-.08.34-.14.58-.25.22-.11.47-.25.72-.44zm-10.98-87.26c1.46-.18 3-.32 4.59-.56.07-.01.14-.02.21-.04-.04.05-.09.09-.13.14-.43.48-.92 1.1-1.44 1.87-.38.56-.78 1.21-1.2 1.9-.62-1.1-1.29-2.21-2.03-3.31zm18.5 31.36c-1.15-.54-2.3-1.15-3.45-1.75-1.95-1-3.84-1.98-5.69-2.93-.15-1.32-.35-2.79-.64-4.4-.03-.17-.07-.34-.1-.51-.63-3.36-1.65-7.28-3.32-11.42a69.45 69.45 0 0 0-2.52-5.6c.54-1.08.95-1.99 1.37-2.79.41-.8.79-1.46 1.11-1.99.64-1.05 1.05-1.59.95-1.69.05.05.25-.06.61-.29.35-.22.87-.57 1.58-.8.7-.22 1.62-.24 2.7.03 1.07.26 2.33.78 3.76 1.29 2.84 1.05 6.25 2.34 10.09 3.92 1.92.79 3.95 1.65 6.06 2.59.61.28 1.24.56 1.86.84.45.2.91.41 1.37.62.55.26 1.1.51 1.66.78.25.12.49.24.74.35.02.02.05.03.07.05.02.04-.01.07-.03.1-.17.35-.34.71-.51 1.06-.4.8-.79 1.62-1.22 2.43-.84 1.63-1.75 3.27-2.71 4.92a109.806 109.806 0 0 1-9.03 13.17c-.43.53-.85 1.07-1.29 1.58l-.65.78c-.22.27-.41.47-.49.54-.03.02-.01.01-.02.02.02 0-.06 0-.15-.03s-.21-.07-.35-.12c-.6-.22-1.18-.48-1.76-.75zm-13.64 24.38c.85-1.84 1.58-3.61 2.19-5.28.61-1.69 1.15-3.29 1.51-4.81.37-1.51.62-2.91.78-4.17l.03-.27c1.36-.53 2.7-1.01 3.88-1.62 1-.5 1.9-1.09 2.64-1.71.73-.61 1.33-1.18 1.9-1.65 1.12-.96 2.07-1.53 2.79-1.75.71-.23 1.14-.23 1.15-.35-.01.11.4.2 1.04.6.64.39 1.44 1.15 2.3 2.35.88 1.19 1.84 2.72 2.83 4.59.99 1.86 2.04 4.07 3.18 6.52 1.16 2.43 2.44 5.1 3.8 7.96.41.86.84 1.74 1.27 2.63.29.59.57 1.19.87 1.79l.28.57.05.11.01.02.01.03c.01.05-.02.09-.06.11l-.4.33c-.16.14-.32.26-.49.39-.33.26-.67.51-1.01.76-2.78 1.96-6.11 3.46-9.71 4.67-3.6 1.22-7.5 2.16-11.5 3.34l-1.5.45c-.48.15-.96.3-1.44.46-.9.25-1.18.23-1.75-.1-.55-.35-1.12-1-1.66-1.77-.56-.76-1.06-1.56-1.55-2.35-1.46-2.43-2.61-4.98-3.65-7.5a63.86 63.86 0 0 0 2.21-4.35zm-13.31 20.37c.67-.77 1.33-1.54 1.95-2.32 1.67-2.09 3.18-4.18 4.57-6.22 1.04-1.53 2.02-3.04 2.92-4.54.8 1.9 1.7 3.81 2.79 5.71-.46.41-.92.8-1.35 1.19-.98.84-1.91 1.6-2.78 2.29-.87.68-1.68 1.28-2.4 1.81-.18.13-.36.26-.53.38-.15.11-.3.21-.49.33-.18.12-.4.27-.58.48-.17.2-.3.41-.37.64-.15.46-.17.87-.12 1.21.05.34.13.59.21.79.17.39.32.56.41.54.1-.02.15-.25.17-.65.03-.39.05-.94.37-1.42.05-.08.12-.15.2-.2l.01-.01c.08-.05.18-.1.35-.17.16-.07.37-.15.59-.26.19-.1.39-.2.6-.3.82-.42 1.73-.94 2.7-1.54a50.087 50.087 0 0 0 4.29-3.02c.17.26.34.51.52.76.4.57.86 1.18 1.46 1.75l.09.35c.51 1.99 1.04 4.07 1.62 6.19.14.45.26.89.38 1.32.28 1.05.48 2.04.5 2.96 0 .53-.11.72-.33.92-.05.04-.13.1-.24.15-.1.05-.29.13-.45.2-.32.14-.64.28-.96.41-.37.15-.74.28-1.1.41-1.08-.69-2.15-1.42-3.24-2.16-.84-.57-1.69-1.15-2.56-1.71-.37-.23-.73-.46-1.1-.7l-.68-.43c-.21-.13-.43-.27-.64-.42-.63-.42-1.26-.85-1.9-1.3-.07-.18-.13-.35-.19-.5-.2-.46-.36-.69-.47-.66-.09.02-.14.23-.16.58-.8-.56-1.62-1.12-2.47-1.66-.49-.31-.99-.61-1.5-.9-.03-.08-.06-.19-.09-.28z" class="st12"/>
<path d="M101.49 164.1c-.01 0-.02-.01-.02-.01-.1.14-.06.1.02.01zM16.48 59.52c.64.37 1.4 1.07 1.62 2.29.13.6.14 1.32.08 2.16-.06.84-.19 1.78-.24 2.87-.02.55-.02 1.13.06 1.76.05.32.09.64.2.98.05.17.09.34.16.5.08.17.16.33.24.5.15.34.41.64.63.95.26.3.55.56.84.78.59.45 1.2.75 1.76 1.03 1.55.75 3.21 1.47 4.95 2.11 2.93 1.07 5.82 1.83 8.47 2.3.64.13 1.38.22 2.01.28.65.06 1.27.1 1.86.12 1.17.04 2.26.08 3.26.12 1.97.06 3.54.18 4.64.27 1.09.1 1.72.15 1.79-.04.07-.17-.45-.59-1.53-1.04-1.07-.44-2.7-.88-4.7-1.2-.92-.15-1.92-.29-2.98-.43l.12-.61c.68-3.5 1.26-6.51 1.74-8.97.23-1.23.43-2.33.6-3.28.15-.95.33-1.71.53-2.33.22-.66.4-1.15.5-1.48.09-.28.12-.43.08-.45-.08-.04-.51.51-1.11 1.72-.1.21-.2.45-.3.7-.07-.92-.12-1.88-.15-2.88-.1-3.17-.04-6.63.17-10.34.02-.28.03-.56.05-.84.12-1.92.28-3.9.46-5.94.85.16 1.7.3 2.53.48 1.01.22 2.07.48 3.2.7 1.13.22 2.31.42 3.59.48 1.27.05 2.66 0 4.07-.54.27-.11.53-.23.79-.37.02 1.85-.09 3.76-.04 5.73l.03.72c.06 1.11.19 2.24.44 3.35.31 1.35.8 2.64 1.41 3.84.34.66.72 1.29 1.14 1.89.4.11.8.24 1.2.37 1.8.62 3.56 1.38 5.33 2.18-.32-.2-.64-.41-.94-.64-1.74-1.3-3.22-3.05-4.24-5.07-.51-1.01-.91-2.09-1.16-3.2-.25-1.11-.36-2.28-.39-3.51-.07-2.45.2-5.08-.05-7.89 0-.04-.01-.08-.01-.12.91-1.2 1.45-2.6 1.8-3.92.36-1.34.58-2.59.83-3.81.25-1.23.49-2.44.73-3.63.23-1.19.46-2.36.69-3.51.22-1.15.45-2.25.63-3.42.18-1.16.28-2.36.17-3.56a9.58 9.58 0 0 0-.97-3.36c-.49-.99-1.09-1.85-1.7-2.61-.61-.76-1.23-1.43-1.86-2.05-1.22-1.24-2.51-2.21-3.74-2.91-1.23-.7-2.36-1.12-3.29-1.4-1.86-.55-2.93-.61-2.98-.43-.06.2.91.63 2.57 1.46.82.42 1.81.96 2.84 1.71 1.03.76 2.11 1.74 3.17 2.96 1.05 1.23 2.17 2.66 2.88 4.27.35.81.57 1.65.62 2.55.05.91-.06 1.89-.26 2.93-.2 1.04-.46 2.17-.71 3.31-.25 1.14-.5 2.31-.76 3.5-.15.72-.31 1.44-.46 2.18-.1.48-.2.96-.31 1.45-.26 1.23-.5 2.49-.81 3.64-.31 1.16-.72 2.17-1.32 2.98-.59.8-1.44 1.49-2.25 1.8-.86.36-1.91.44-2.97.42-1.06-.03-2.14-.17-3.21-.35-1.09-.2-2.16-.39-3.2-.58-1.1-.19-2.12-.3-3.08-.44-1.92-.27-3.65-.62-5.09-1.21-1.44-.58-2.56-1.39-3.29-2.33-.5-.64-.85-1.3-1.11-1.93-.12-.3-.23-.6-.31-.88-.26-.86-.34-1.55-.42-2.06 0-.03-.01-.06-.02-.09.33.23.81.51 1.42.8 1.31.62 3.23 1.26 5.44 1.52 1.11.13 2.23.12 3.21-.09.98-.2 1.8-.52 2.45-.83 1.31-.62 2.02-1.15 1.95-1.33-.08-.19-.95.02-2.29.38-.67.17-1.46.37-2.32.48-.86.11-1.8.09-2.83-.03-3.65-.42-6.57-1.52-7.34-1.52-.06-.03-.1-.04-.13-.02-.01.01-.01.03-.02.05-.02.01-.04.02-.05.04-.01.03 0 .07.03.11-.01.12-.01.28-.08.52-.1.48-.21 1.28-.1 2.27.11 1 .42 2.24 1.2 3.51.77 1.28 2.12 2.46 3.77 3.26 1.08.54 2.27.94 3.53 1.26v.04c-.15 2.17-.27 4.27-.35 6.32-.16 4.09-.12 7.91.13 11.4.12 1.74.28 3.41.58 5 .11.62.26 1.21.43 1.79-.07.28-.15.57-.23.86-.63 2.43-1.39 5.41-2.22 8.88-.06.23-.11.48-.17.72l-.42-.06c-.6-.1-1.14-.21-1.79-.37-2.51-.6-5.24-1.39-8.03-2.41-1.66-.61-3.25-1.26-4.75-1.94-.53-.24-.99-.46-1.34-.7-.18-.12-.32-.24-.45-.37-.05-.07-.11-.15-.17-.22-.06-.07-.12-.14-.16-.23-.38-.63-.53-1.53-.56-2.47-.06-1.88.12-3.88-.54-5.57a2.91 2.91 0 0 0-.28-.59c-.11-.18-.2-.37-.33-.53-.26-.31-.5-.61-.8-.82-.57-.43-1.14-.63-1.59-.71-.92-.15-1.39.05-1.4.2-.01.19.44.33 1.08.71z" class="st12"/>
<path d="M41.98 6.6c2.17-.36 3.59-.55 3.62-.96.04-.37-1.36-.91-3.73-1.05-2.36-.13-5.7.21-9.11 1.53-1.7.65-3.25 1.47-4.56 2.34-1.31.88-2.41 1.77-3.25 2.71-.83.93-1.32 1.88-1.49 2.57-.17.7-.07 1.11.11 1.17.19.06.46-.22.88-.65.42-.43 1.01-1 1.87-1.61.84-.6 1.97-1.26 3.24-1.94 1.26-.67 2.69-1.34 4.23-1.93 3.07-1.19 6.02-1.8 8.19-2.18zM73.48 64.72c-1.38-.46-2.71-.84-3.95-1.17-1.23-.33-2.36-.62-3.37-.92-2.02-.59-3.55-1.26-4.57-1.83-1.02-.56-1.59-.95-1.74-.8-.13.12.16.78 1.08 1.69.9.91 2.48 1.96 4.54 2.84 1.03.44 2.16.86 3.36 1.29 1.2.43 2.45.88 3.77 1.39a121.608 121.608 0 0 1 12.69 5.74c1.36.72 2.67 1.42 3.85 2.13 1.19.71 2.23 1.44 3.15 2.22.93.77 1.74 1.58 2.47 2.34 1.45 1.53 2.57 2.88 3.4 3.77.83.9 1.36 1.35 1.52 1.24.16-.11-.06-.77-.61-1.87-.56-1.09-1.44-2.64-2.77-4.44-.67-.89-1.46-1.85-2.42-2.79-.96-.95-2.1-1.86-3.33-2.68-1.24-.83-2.55-1.6-3.94-2.37-1.38-.77-2.84-1.52-4.36-2.24a69.128 69.128 0 0 0-8.77-3.54zM8.82 68.91c.2.01.39-.09.61-.2.22-.12.47-.25.82-.53.7-.57 1.52-1.41 2.39-2.37 1.7-1.93 3.01-3.68 2.54-4.33-.24-.31-.91-.25-1.78.16-.87.41-1.93 1.19-2.89 2.27-.96 1.07-1.61 2.22-1.92 3.13-.16.45-.27.95-.21 1.31.05.37.25.54.44.56zM20.65 77.17c1.25.73 2.86 1.07 4.41 1.4 1.59.34 3.33.7 5.17 1.07 7.33 1.46 13.33 2.6 13.56 1.84.23-.74-5.51-3.14-12.99-4.63a73.98 73.98 0 0 0-5.29-.86c-1.67-.2-3-.3-4-.64-1-.31-1.7-.83-2.14-1.24-.45-.42-.68-.75-.88-.71-.18.03-.33.49-.08 1.28.24.76.98 1.77 2.24 2.49zM21.99 94.76c-.72.09-1.57.29-2.48.64-.45.17-.92.38-1.4.62-.23.11-.5.27-.69.37-.01 0-.01-.01-.01-.01l-.15-.06-.31-.14c-.2-.1-.4-.2-.59-.3-.38-.21-.74-.44-1.07-.68-.17-.12-.32-.24-.48-.36-.16-.13-.34-.28-.55-.44-.2-.15-.43-.31-.68-.44a2.69 2.69 0 0 0-.81-.28 2.32 2.32 0 0 0-.83-.01c-.26.04-.5.14-.69.26-.38.25-.58.62-.64.92-.06.31.01.56.12.71.11.16.24.23.34.25.13.03.14-.15.36-.3.1-.07.24-.11.38-.1.15.02.25.09.37.19.13.11.25.25.47.52.12.16.25.32.38.48.16.19.34.39.53.58.39.38.83.75 1.33 1.07.25.16.51.32.78.46.14.07.28.14.42.2l.22.1c.12.05.25.1.38.14.24.08.49.12.73.12.52 0 1.02-.19 1.44-.46.21-.13.41-.26.61-.39.39-.24.76-.47 1.13-.68.73-.42 1.4-.79 1.98-1.1 1.15-.63 1.9-1.09 1.83-1.47-.06-.37-.97-.6-2.42-.41zM82.91 56.74c1.1-.08 2.41-.23 3.85-.43.72-.1 1.49-.23 2.3-.4.4-.08.81-.18 1.23-.29.41-.11.79-.23 1.2-.35.8-.24 1.58-.49 2.33-.74.71-.22 1.42-.4 2.11-.57 1.38-.35 2.69-.69 3.76-1.08 1.08-.39 1.92-.84 2.45-1.24.53-.39.75-.73.67-.9-.19-.36-1.49-.06-3.6.18-1.06.13-2.34.25-3.8.47-.73.11-1.52.25-2.33.45-.76.21-1.55.44-2.36.69-.4.12-.79.24-1.18.36-.37.11-.74.21-1.11.3-.75.19-1.47.37-2.17.54-1.41.35-2.68.7-3.73 1.03-2.11.67-3.38 1.28-3.3 1.67.07.38 1.47.47 3.68.31zM127.27 86.11c2.39.65 3.93 1.02 4.1.65.17-.35-1.08-1.37-3.37-2.53-1.14-.58-2.55-1.19-4.16-1.74-1.6-.57-3.44-1.02-5.23-1.49-.9-.24-1.75-.49-2.55-.76-.4-.14-.78-.28-1.14-.44-.18-.07-.36-.16-.54-.24l-.13-.06-.28-.14c-.18-.08-.37-.15-.56-.19-.38-.08-.77-.07-1.12.06-.18.06-.34.15-.5.25-.08.05-.15.11-.23.16l-.19.15c-.34.26-.64.54-.93.81-.58.55-1.06 1.11-1.47 1.65-.81 1.08-1.28 2.06-1.51 2.77-.23.71-.23 1.15-.06 1.24.37.19 1.29-1.08 3.05-2.65.44-.39.94-.79 1.49-1.19.28-.2.57-.4.88-.58.05-.03.04-.02.05-.03h.05c.02 0 .04.01.05.03l.02.02s.01.01 0 .01l.15.08c.2.11.41.22.62.33.42.21.86.4 1.31.58.9.35 1.84.65 2.79.9 1.91.5 3.64.84 5.21 1.25 1.59.39 3 .78 4.2 1.1zM123.81 117.24c-.3.2-.6.41-.91.61-.32.24-.64.47-.97.72-4.43 3.28-8.51 5.36-8.23 6.12.14.36 1.37.3 3.22-.29s4.3-1.76 6.69-3.52l.49-.37c.14-.11.28-.22.41-.32 0-.01 0-.02.01-.04.01-.01.02-.02.03-.02h.02l.06.06c0-.01.06.08.08.12l.1.15c.07.1.13.2.2.3a31.517 31.517 0 0 1 1.55 2.69c.64 1.23 1.04 2.03 1.39 1.97.32-.05.54-.98.32-2.51-.11-.76-.33-1.66-.72-2.64-.1-.24-.2-.49-.32-.74-.06-.12-.12-.25-.18-.38l-.1-.19c-.04-.07-.05-.1-.12-.22-.13-.21-.25-.41-.38-.62-.16-.2-.32-.4-.48-.61-.17-.19-.36-.31-.58-.4-.21-.1-.47-.15-.71-.15-.28 0-.56.03-.87.28z" class="st2"/>
</svg>