<svg xmlns="http://www.w3.org/2000/svg" xml:space="preserve" id="Layer_1" x="0" y="0" style="enable-background:new 0 0 200 259" version="1.1" viewBox="0 0 200 259"><style>.st1{fill:#8d500f}.st2{fill:#75b844}</style><path d="M115.5 69c-.08.66-.16 1.33-.24 2.01-.34 2.99-.66 6.14-.95 9.43-.2 2.4-.39 4.89-.55 7.45-.14 2.34-.26 4.75-.36 7.22-.05 1.22-.09 2.46-.12 3.71-.11 3.86-.14 7.86-.09 11.99.08 6.91.39 14.18 1 21.77-2.56.97-5.11 1.94-7.66 2.91 2.58-.7 5.15-1.4 7.72-2.11.7 8.43 1.78 17.25 3.35 26.4-2.94 1.12-5.87 2.24-8.82 3.36 2.99-.81 5.98-1.63 8.97-2.44.94 5.44 2.05 11 3.35 16.64.66 2.87 1.35 5.7 2.07 8.48-5.43 2.08-10.87 4.14-16.3 6.22 5.58-1.52 11.17-3.05 16.74-4.57a311.24 311.24 0 0 0 10.3 31.71c-5.86 2.23-11.72 4.46-17.58 6.7l18.26-4.98a314.09 314.09 0 0 0 12.77 28.35c-11.17 3.22-22.32 6.43-33.49 9.64-.94-3.62-1.88-7.46-2.8-11.49 7.06-1.53 14.1-3.06 21.15-4.59-7.2.83-14.38 1.68-21.6 2.51a364.312 364.312 0 0 1-6.44-39.27c6.36-1.37 12.72-2.76 19.07-4.14-6.42.75-12.84 1.49-19.26 2.24a355.36 355.36 0 0 1-1.8-28.24c4.87-1.05 9.74-2.12 14.62-3.17-4.88.57-9.76 1.14-14.65 1.7-.13-5.28-.12-10.69.01-16.21.08-3.29.21-6.53.37-9.71 3.98-.86 7.97-1.73 11.94-2.59-3.96.46-7.91.93-11.88 1.38a363.285 363.285 0 0 1 5.14-44.4c.33-1.85.67-3.66 1.02-5.45.09-.44.17-.88.26-1.31.53-2.69 1.09-5.32 1.65-7.89.1-.47.2-.93.31-1.39.49-2.17.99-4.3 1.5-6.38.8-3.27 1.61-6.41 2.44-9.43.2-.7.39-1.38.58-2.06z" style="fill:#6e4a2a"/><circle cx="103.95" cy="94.53" r="9.2" class="st1" transform="rotate(-1.146 104.039 94.587)"/><circle cx="113.61" cy="89.62" r="9.2" class="st1" transform="rotate(-89.06 113.605 89.617)"/><circle cx="112.94" cy="102.95" r="7.86" class="st1" transform="rotate(-1.261 112.837 102.86)"/><path d="M101.23 71.6c-.47-4.55-2.17-25.56 12.39-42.27C132.11 8.1 163.35 9.3 180.56 17.45c.55.26 11.72 5.63 10.88 8.88-.9 3.49-15.21 2.86-27.88 1.67 0 0 7.89 15.17-16.34 12.33 0 0 7.99 9.87-14.67 10.67 0 0 6.31 9.92-10.63 12.84 0 0 8.98 8.5-20.69 7.76z" class="st2"/><path d="M107.96 72.2c-2.53-3.82-14.57-21.12-36.42-24.78-27.77-4.65-51.14 16.11-59.25 33.34-.26.55-5.47 11.79-2.76 13.77 2.91 2.12 13.56-7.45 22.59-16.42 0 0 3.54 16.73 20.45-.85 0 0 .1 12.7 18.1-1.07 0 0 1.43 11.66 16.37 3.16 0 0-1.53 12.26 20.92-7.15z" class="st2"/><path d="M107.56 70.55c-4.55-.5-25.55-2.32-42.35 12.13-21.34 18.36-20.33 49.61-12.28 66.86.26.55 5.56 11.75 8.81 10.93 3.49-.88 2.95-15.19 1.84-27.86 0 0 15.13 7.98 12.43-16.26 0 0 9.83 8.05 10.76-14.6 0 0 9.88 6.37 12.9-10.55 0 0 8.45 9.03 7.89-20.65z" class="st2"/><path d="M100.86 70.16c3.8-2.54 22.07-11.94 43.65-6.88 27.41 6.44 40.94 34.62 41.77 53.64.03.6.49 12.99-2.77 13.76-3.5.83-9.63-12.11-14.49-23.87 0 0-9.73 14.07-18.54-8.69 0 0-5 11.67-16.28-7.98 0 0-5.82 10.21-16.32-3.4 0 .01-8.57 7.81-17.02-16.58z" class="st2"/></svg>