<svg xmlns="http://www.w3.org/2000/svg" xml:space="preserve" style="enable-background:new 0 0 313 178" viewBox="0 0 313 178">
<path d="M302.35 178H0s34.51-48.84 64.61-92.94c15.75-23.08 30.3-44.87 38.05-57.65 22.56-37.23 24.26-2.26 35.54 0 11.28 2.25 15.51-12.13 21.72-11.28 6.21.85 7.62 13.82 15.51 13.82 7.9 0 9.32-17.15 14.95-17.49 12.23-.72 46.96 53.27 74.53 99.78 20.74 35 37.44 65.76 37.44 65.76z" style="fill:#543217"/><path d="M264.9 112.24c-30.04-3.56-45.74-54.84-66.91-53.37-22.56 1.57-26.23 48.91-36.95 47.5-10.72-1.41 2.54-49.63-11-47.5-13.54 2.13-17.21 62.17-26.79 58.22-9.59-3.95 8.74-67.97-14.1-48.23-12.22 10.56-30.34 14.67-44.54 16.2 15.75-23.08 30.3-44.87 38.05-57.65 22.56-37.23 24.26-2.26 35.54 0 11.28 2.25 15.51-12.13 21.72-11.28 6.21.85 7.62 13.82 15.51 13.82 7.9 0 9.32-17.15 14.95-17.49 12.23-.73 46.95 53.27 74.52 99.78z" style="fill:#c82127"/><path d="M121.77 13.38c-1.24-.77-1.62-2.69-7.26 1.06-5.02 3.34-46.73 66.55-39.96 66.27 6.77-.28 19.65-4.7 28.02-9.96 8.37-5.26 12.13-7.84 14.85-6.93 2.73.91 5.83 1.2 5.73 12.95-.09 11.75 2.16 13.44 5.83 13.54 3.67.09 11.85-34.31 20.97-32.62 9.12 1.69 8.09 13.72 8.18 25 .09 11.28 10.15 11.75 13.35 5.45 3.2-6.3 12.5-30.27 25.76-31.02 13.26-.75 23.32 13.63 27.55 19.18 4.23 5.55 26.7 30.65 33.75 32.62 7.05 1.97-54.06-91.3-65.97-91.86-11.92-.56-2.75 13.11-16.92 14.52-14.17 1.41-9.8-9.45-16.43-10.58-6.63-1.13-14.67 11.7-21.29 8.39-6.64-3.32-11.26-12.96-16.16-16.01z" style="fill:#ef8623"/></svg>