<svg xmlns="http://www.w3.org/2000/svg" xml:space="preserve" id="Layer_1" x="0" y="0" style="enable-background:new 0 0 192 151" version="1.1" viewBox="0 0 192 151">
    <style>.st0{fill:none}.st1{fill:#ffffac}.st2{fill:#ffbdac}.st3{fill:#ff7bac}.st4{fill:#fff}.st6{fill:#ffa87f}.st7{fill:#ff3d7f}.st8{fill:#603813}.st9{fill:#b168ac}</style>
    <path d="M53.89 32.63zM54.67 33.5c.04.05.09.1.13.15-.04-.05-.09-.1-.13-.15zM55.4 34.44l.15.21c-.04-.07-.1-.14-.15-.21zM50.59 29.97l-.09-.06c.02.02.06.04.09.06zM48.49 28.86c.06.03.13.06.19.09-.07-.03-.13-.06-.19-.09z" class="st0"/>
    <path d="M47.19 82.77c.03.47.06 1.04.09 1.68 0 .08.01.16.01.24v.13c0 .02.01.03.01.04.01.01.01.01.02 0l.01-.05c.16-.41.32-.81.47-1.2.17-.42.33-.82.49-1.21.16-.4.31-.71.28-1.01-.01-.32-.1-.65-.22-.85-.07-.1-.13-.15-.19-.16a.402.402 0 0 0-.25.06c-.18.1-.31.26-.42.39-.21.27-.3.44-.35.42.07.04-.03.57.05 1.52zM49.42 82.91c.03.47.06 1.04.09 1.68 0 .08.01.16.01.24v.13c0 .02.01.03.01.04.01.02.01.01.02 0l.01-.05c.16-.41.32-.81.47-1.2.17-.42.33-.83.49-1.21.16-.4.31-.71.28-1.01-.01-.32-.1-.65-.22-.85-.07-.1-.13-.15-.19-.16a.402.402 0 0 0-.25.06c-.18.1-.31.26-.42.39-.21.27-.3.44-.35.42.08.05-.03.57.05 1.52zM52.51 82.83c.03.47.06 1.04.09 1.68 0 .08.01.16.01.24v.13c0 .02.01.03.01.04.01.02.01.01.02 0l.01-.05c.16-.41.32-.81.47-1.2.17-.42.33-.82.49-1.21.16-.4.31-.71.28-1.01-.01-.32-.1-.65-.22-.85-.07-.1-.13-.15-.19-.16a.402.402 0 0 0-.25.06c-.18.1-.31.26-.42.39-.21.27-.3.44-.35.42.07.04-.03.57.05 1.52zM94.32 136.35c-.42.22-.97.62-1.49 1.29-.26.33-.51.73-.73 1.18-.22.45-.4.96-.56 1.52-.16.56-.31 1.16-.47 1.81-.07.27-.14.55-.21.83 0 .01 0 .01.01.01s.01-.01.01-.01c.13-.07.25-.13.38-.2l.48-.27c.32-.18.62-.38.92-.57.59-.39 1.13-.81 1.63-1.23.5-.42.95-.84 1.28-1.27.34-.43.55-.86.65-1.3.1-.44.09-.86 0-1.18-.09-.33-.26-.55-.45-.68-.2-.13-.4-.18-.54-.21s-.22-.06-.23-.1c0 .08-.26.16-.68.38zM98.72 138.01c-.28.08-.59.22-.86.48-.28.26-.51.65-.7 1.13-.38.99-.75 2.25-.99 3.64-.12.7-.21 1.44-.26 2.22-.01.18 0 .13 0 .14v-.01c.65-.5 1.29-.99 1.91-1.46.62-.48 1.2-.95 1.69-1.44 1-.97 1.63-2.06 1.85-3.06.05-.24.09-.49.09-.7.01-.2-.03-.37-.1-.49-.14-.25-.5-.36-.78-.43-.58-.13-.94-.19-.93-.27 0 .08-.36.1-.92.25zM105.08 138.3c-.14.05-.36.1-.58.23-.22.13-.41.35-.6.7-.18.35-.39.78-.6 1.25-.42.95-.86 2.1-1.2 3.43-.17.67-.32 1.37-.43 2.12-.02.19-.05.37-.07.56-.02.18-.05.46-.04.38 0 .01.01.01.01 0l.17-.12c1.47-.97 2.65-2.13 3.55-3.34a14.45 14.45 0 0 0 1.94-3.5c.09-.25.17-.48.16-.67 0-.19-.06-.34-.17-.46-.23-.25-.63-.36-.92-.44-.62-.13-1-.17-1-.25 0 .02-.08.06-.22.11z" class="st1"/>
    <path d="M125.37 87.66c-.37-.62-.69-1.26-.97-1.93-1.18-2.77-1.6-5.86-1.19-8.84.06-.46.15-.93.27-1.38-10.6-5.93-22.56-9.61-35.33-10.32-5.55-.48-10.81.65-15.38 3.03 3.69 6.82 7.81 13.35 13.1 19.26 13.19 14.99 35.25 15.43 52.38 5.98-.71-.06-1.36-.14-1.94-.23-2.65-.42-4.06-.85-4.04-.98-1.04-.17-2.09-.35-3.05-.79-1.66-.75-2.91-2.22-3.85-3.8zM83.6 56.44c-1.7 2.14-.21 5.3 2.29 5.99 1.87.51 3.31-1.45 3.48-3.13.34-3.46-3.36-5.9-5.77-2.86zM96.24 57.84c-.7-.39-1.93-.23-2.54.29-.64.55-.68 1.82-.49 2.57.22.85.83 1.61 1.65 1.94.48.19 1 .24 1.52.26.2.01.41.01.61-.04.79-.18 1.24-1.08 1.18-1.88-.06-.8-.51-1.52-.97-2.18-.28-.36-.56-.74-.96-.96zM104.91 59.38c-.94.31-1.98 1.5-2.5 2.27-.19.28-.37.6-.39.94-.03.42.17.82.39 1.18.49.8 1.15 1.54 2.03 1.86 1.09.39 2.34.03 3.29-.64.41-.29.78-.64 1.03-1.07.63-1.09.34-2.56-.53-3.47-.75-.79-2.23-1.43-3.32-1.07zM114.94 64.1c-.33-1.14-.88-1.84-1.93-.91-.73.65-1.37 1.79-1.32 2.8.03.63.35 1.04.92 1.3.62.28 1.39.29 1.93-.13.24-.19.41-.44.52-.72.09-.23.14-.48.15-.73.03-.54-.11-1.08-.27-1.61zM102.62 57.29c.78-.18 1.49-.84 1.55-1.64.05-.6-.26-1.17-.57-1.69-.38-.63-.8-1.24-1.24-1.83-.2-.26-.4-.52-.69-.68-.81-.43-2.15.23-2.63.93-.53.77-.55 2.57-.11 3.38.28.53.81.89 1.35 1.15.73.36 1.56.56 2.34.38z" class="st2"/>
    <path d="M172.46 91.15c.29.37.79.84 1.54 1.23.37.19.81.36 1.29.49s1.01.21 1.59.27c.58.06 1.2.09 1.86.12l.85.06c.01 0 .01-.01 0-.01h-.01c-.09-.11-.18-.22-.27-.34-.12-.14-.24-.28-.35-.42-.24-.28-.48-.54-.73-.79-.5-.51-1-.96-1.51-1.37-.51-.41-1-.77-1.48-1.02-.49-.25-.95-.38-1.4-.4-.45-.01-.86.07-1.16.22-.3.15-.5.36-.58.57-.09.22-.1.42-.11.57 0 .14-.02.23-.05.24.09-.03.22.21.52.58zM173.27 86.52c.13.26.32.54.63.76.31.22.73.38 1.24.48 1.04.19 2.35.32 3.76.3.71-.01 1.46-.06 2.23-.15.18-.03.13-.02.13-.03h-.01c-.61-.55-1.21-1.09-1.79-1.61-.59-.52-1.16-1-1.73-1.4-1.14-.8-2.33-1.22-3.35-1.25-.25-.01-.5.01-.71.04-.2.03-.36.1-.46.19-.22.19-.26.56-.28.84-.02.59-.01.96-.1.97.1-.02.19.33.44.86zM172.37 80.22c.07.13.17.33.34.53.16.19.42.34.8.46.38.12.84.24 1.34.36 1.01.24 2.23.46 3.6.54.69.05 1.41.06 2.16.03l.57-.03c.18-.01.46-.04.38-.03.01 0 .01-.01 0-.01h-.01l-.15-.15a14.23 14.23 0 0 0-3.95-2.87c-1.35-.67-2.67-1.05-3.8-1.26-.26-.04-.5-.07-.69-.03-.19.04-.32.12-.42.25-.2.27-.24.68-.26.99-.02.64.02 1.01-.06 1.03.03-.02.08.06.15.19zM102.4 38.6c-.12.12-.26.27-.35.46-.04.09-.06.19-.04.26.02.07.07.12.18.17.21.1.54.15.87.13.3 0 .59-.19.97-.39.37-.2.76-.4 1.15-.61.37-.19.75-.39 1.14-.59l.05-.01c.01-.01.02-.01 0-.02-.01 0-.02-.01-.04-.01h-.02l-.12.01c-.08.01-.16.01-.24.02-.64.04-1.21.07-1.68.09-.95.02-1.46.18-1.5.11.03.03-.13.14-.37.38zM102.78 40.8c-.12.12-.26.27-.35.46-.04.09-.06.19-.04.26.02.07.07.12.18.17.21.1.54.15.87.13.3 0 .59-.19.97-.39.37-.2.76-.4 1.15-.61.37-.19.75-.39 1.14-.59l.05-.01c.01-.01.02-.01 0-.02-.01 0-.02-.01-.04-.01h-.02l-.12.01c-.08.01-.16.01-.24.02-.64.04-1.21.07-1.68.09-.95.02-1.46.18-1.5.11.03.04-.13.14-.37.38zM102.7 43.65c-.12.12-.26.27-.35.46-.04.09-.06.19-.04.26.02.07.07.12.18.17.21.1.54.15.87.13.3 0 .59-.19.97-.39.37-.2.76-.4 1.15-.61.37-.19.75-.39 1.14-.59l.05-.01c.01-.01.02-.01 0-.02-.01 0-.02-.01-.04-.01h-.02l-.12.01c-.08.01-.16.01-.24.02-.64.04-1.21.07-1.68.09-.95.02-1.46.18-1.5.11.04.04-.12.15-.37.38z" class="st1"/>
    <path d="M54.89 62.31c-.93 1.19-1.89 2.61-2.76 4.3-.88 1.68-1.67 3.61-2.37 5.74-.35 1.06-.68 2.18-.99 3.33-.27 1.02-.56 2.08-.74 3.14 1.97.74 4.05.77 6.06.26.01-.08.03-.15.04-.23.11-.71.22-1.44.35-2.16.5-2.91 1.12-5.72 1.85-8.4.24-.91.5-1.79.77-2.67-.5-1.42-.94-2.88-1.3-4.37-.3.33-.6.68-.91 1.06zM99.38 113.85c.34 3.94.59 7.14.71 9.41.06 1.22-.01 2.18-.15 2.82-.13.64-.29.95-.36.93.14.02.19.79-.25 2.08-.22.64-.57 1.39-1.04 2.21-.47.82-1.05 1.7-1.65 2.67-.35.57-.7 1.18-1.04 1.84.11.01.22.03.35.07.32.11.66.42.85.86.05.13.1.26.13.4.52.16 1.05.32 1.59.46.04-.01.09-.01.13-.02.67-.03 1 .1 1 .17.01-.07.34-.15.99-.16.16.01.35.02.56.08.21.06.46.17.66.41.08.09.13.2.18.31.53.09 1.06.18 1.6.25.22-.23.46-.41.7-.48.32-.1.57-.09.73-.07.16.02.24.06.24.09 0-.07.36-.18 1.05-.18.17.01.37.02.59.07.22.05.47.14.7.33.17.13.31.34.39.57 3.38.07 6.71-.35 9.77-1.32-.01-.1-.03-.21-.04-.31-.19-1.04-.54-2.03-.79-2.93-.25-.9-.42-1.74-.43-2.44-.01-.7.12-1.25.28-1.58.16-.34.31-.47.37-.44-.07-.03-.02-.37.2-.98.21-.61.64-1.46 1.16-2.52.25-.53.52-1.12.73-1.78.23-.69.47-1.44.73-2.25.53-1.62 1.15-3.46 1.84-5.49.03-.08.05-.16.08-.23-7.68.63-15.46-.27-22.56-2.85zM69.77 80.28c1.27 3.16 2.63 6.28 4.51 9.09a34.44 34.44 0 0 0 3.12 4.03c1.15 1.27 2.39 2.47 3.7 3.6 2.63 2.25 5.55 4.22 8.66 5.93 3.11 1.7 6.38 3.18 9.77 4.35 3.39 1.19 6.91 2.04 10.5 2.51 3.59.44 7.2.48 10.72-.01 3.53-.48 6.97-1.42 10.26-2.7 3.29-1.28 6.43-2.9 9.4-4.72a76.15 76.15 0 0 0 8.09-5.74c-.99-1.21-2.01-2.4-3.06-3.56-.38.08-.75.15-1.12.22-1.08.19-2.13.27-3.09.3-1.08.03-2.07-.02-2.97-.1-17.14 9.45-39.19 9.01-52.38-5.98-5.29-5.91-9.42-12.44-13.1-19.26a28.781 28.781 0 0 0-6.14 4.31c1.09 2.53 2.11 5.14 3.13 7.73z" class="st3"/>
    <path d="M143.51 65.76c1.33.09 2.96.26 4.84.51 1.87.25 3.99.55 6.34.9.59.09 1.19.18 1.81.27.67.1 1.33.26 1.97.46.64.19 1.27.41 1.9.61.31.1.63.19.94.27l.47.12c.15.03.33.08.44.08.06.01.13.01.19.01 4.6-6.01 9.12-11.94 14.05-18.28 7.19-8.93 8.01-19.72 7.62-30.62-.08.18-.17.37-.25.55-.28.59-.56 1.18-.84 1.76-.29.58-.58 1.16-.87 1.73a82.408 82.408 0 0 1-3.73 6.54c-5.21 8.31-11.64 14.77-18.25 18.94a49.05 49.05 0 0 1-4.92 2.77c-1.62.81-3.25 1.46-4.82 2.03-3.16 1.11-6.16 1.77-8.88 2.09-.68.1-1.35.14-1.99.18-.65.05-1.27.08-1.88.09-1.21.02-2.35-.01-3.4-.08-2.1-.13-3.86-.37-5.28-.59-1.42-.23-2.49-.44-3.2-.61-.72-.16-1.08-.27-1.07-.3-.01.04-.38 0-1.11-.1-.36-.05-.82-.12-1.35-.2-.54-.1-1.16-.21-1.86-.34-2.81-.54-6.95-1.45-12.15-3.07a126.14 126.14 0 0 1-15.2-5.82c-.08 0-.16.01-.23.01-4.85.26-9.24.24-12.76 1.07-.88.2-1.7.46-2.45.74-.75.3-1.44.62-2.05.99-1.22.73-2.13 1.56-2.81 2.32-.68.76-1.19 1.38-1.56 1.77-.37.4-.59.59-.62.56v-.01c-.01.01-.02.02-.03.04-.17-2.41 1.52-4.22 3.5-5.21 9.74-4.87 20.31-5.42 30.84-5.53.01-.03.02-.05.02-.08.02-.15.04-.3.04-.46-.08.04-.15.08-.23.11-.19.09-.36.18-.57.27-.2.08-.45.14-.66.13-.41-.01-.79-.07-1.13-.28-.16-.1-.33-.29-.35-.51-.03-.21.05-.39.13-.51.17-.25.36-.38.51-.48.32-.19.53-.22.54-.18-.02-.03.1-.14.35-.24.22-.09.55-.18.94-.26-.03-.05-.06-.11-.09-.16-.01.01-.03.01-.05.02-.19.09-.36.18-.57.27-.2.08-.45.14-.66.13-.41-.01-.79-.07-1.13-.28-.16-.1-.33-.29-.35-.51-.02-.16.02-.3.08-.42-.49.07-1.01.17-1.5.24-.66.11-1.32.22-1.97.32-2.6.43-5.1.88-7.46 1.4-4.72 1.02-8.87 2.36-12.16 3.91-3.31 1.51-5.75 3.2-7.29 4.53-1.52 1.3-2.22 2.2-2.32 2.17h-.01c-.03-.02.11-.27.44-.71.33-.44.84-1.06 1.59-1.78 1.48-1.45 3.91-3.29 7.24-4.92 1.9-.96 4.11-1.84 6.53-2.63-1.91-1.05-3.86-2.18-5.84-3.4-.94-.57-1.87-1.19-2.82-1.8-.94-.64-1.9-1.26-2.84-1.94-1.9-1.33-3.81-2.78-5.7-4.33-.95-.77-1.88-1.59-2.83-2.4-.93-.84-1.87-1.69-2.79-2.59-1.84-1.79-3.66-3.68-5.39-5.72-.23-.26-.42-.48-.63-.71l-.32-.32-.34-.3a2.56 2.56 0 0 0-.26-.2c-.09.36-.19.72-.27 1.07-.1.7-.26 1.39-.48 2.07-.79 3.61-1.29 7.25-1.22 10.87.3.27.58.55.86.83.02.02.04.04.06.07.25.26.49.53.72.81.04.05.09.1.13.15.21.26.41.52.6.79l.15.21c.23.33.45.67.66 1.02 6.24 10.8 10.88 22.03 16.56 32.55 4.57-2.38 9.84-3.51 15.38-3.03 12.77.71 24.73 4.4 35.33 10.32-.12.45-.21.92-.27 1.38-.41 2.98.01 6.07 1.19 8.84 11.69 4.74 23.75-.67 35.04-3.78 3.56-1.19 7.51-1.58 11.47-.4 1.35.31 2.63.75 3.85 1.28.29.01.59.04.9.1-.02-.11-.03-.23-.05-.34-.35-.09-.67-.19-.98-.3a17.4 17.4 0 0 1-1.35-.53c-.4-.18-.76-.47-.91-.77-.16-.3-.19-.54-.2-.7-.01-.16.01-.25.05-.26-.07.01-.25-.32-.37-1-.03-.17-.05-.37-.04-.59.01-.22.05-.48.2-.75.14-.27.44-.51.77-.61.33-.11.66-.09.99-.07.3.03.61.07.93.13-.18-.93-.37-1.85-.57-2.76-.18-.83-.36-1.66-.53-2.48-.18-.83-.34-1.6-.59-2.24-.12-.32-.27-.61-.44-.84-.18-.24-.34-.4-.61-.59-.5-.34-.99-.48-1.56-.41-.57.05-1.21.31-1.83.63-.63.32-1.27.71-1.93 1.08-.67.37-1.36.75-2.14 1.02-.77.27-1.67.43-2.56.27-.24-.03-.39-.08-.58-.13-.18-.05-.36-.09-.53-.15-.35-.1-.68-.22-1.01-.33-.65-.23-1.26-.46-1.85-.66-.59-.2-1.16-.36-1.72-.47-.61-.12-1.21-.23-1.79-.34-2.33-.44-4.44-.85-6.29-1.22-1.84-.37-3.43-.66-4.73-.88-2.6-.44-4.06-.6-4.06-.76-.03-.17 1.45-.3 4.12-.13zm-83.1-37.89c-1.4-1.94-2.12-3.24-1.88-3.44.24-.2 1.39.75 3.08 2.41 1.7 1.65 3.93 4 6.57 6.32 2.64 2.33 5.27 4.1 7.28 5.22 2 1.13 3.36 1.71 3.27 2.02-.07.28-1.61.24-3.93-.59-2.32-.81-5.31-2.52-8.1-4.98-2.79-2.44-4.89-5.03-6.29-6.96zM89.37 59.3c-.17 1.68-1.6 3.65-3.48 3.13-2.5-.69-3.99-3.85-2.29-5.99 2.41-3.04 6.11-.6 5.77 2.86zm7.61 3.58c-.2.05-.41.04-.61.04-.52-.02-1.04-.07-1.52-.26-.82-.33-1.43-1.09-1.65-1.94-.19-.75-.15-2.02.49-2.57.61-.52 1.85-.68 2.54-.29.4.22.68.6.95.97.47.66.91 1.38.97 2.18.07.79-.38 1.69-1.17 1.87zm1.95-7.1c-.44-.81-.42-2.61.11-3.38.48-.71 1.82-1.36 2.63-.93.29.15.5.42.69.68.44.59.85 1.2 1.24 1.83.31.52.62 1.09.57 1.69-.06.8-.77 1.45-1.55 1.64-.78.19-1.61-.02-2.34-.37-.54-.28-1.06-.63-1.35-1.16zm9.83 8.13c-.25.43-.62.78-1.03 1.07-.95.67-2.2 1.03-3.29.64-.88-.31-1.54-1.06-2.03-1.86-.22-.36-.42-.76-.39-1.18.02-.34.19-.66.39-.94.52-.77 1.56-1.97 2.5-2.27 1.09-.36 2.57.29 3.32 1.07.87.91 1.16 2.38.53 3.47zm6.3 2.54c-.11.28-.28.54-.52.72-.53.41-1.31.41-1.93.13-.57-.26-.89-.67-.92-1.3-.05-1 .59-2.14 1.32-2.8 1.05-.94 1.6-.24 1.93.91.15.53.29 1.07.27 1.62-.01.24-.06.49-.15.72zm19.36-6.92c-4.01.11-7.87-.1-11.33-.7-3.46-.56-6.51-1.53-8.94-2.46-2.44-.92-4.37-1.66-5.74-2.13-1.36-.47-2.13-.71-2.11-.87.02-.15.85-.19 2.31.03 1.46.21 3.54.74 6.03 1.47s5.4 1.5 8.75 1.93c3.33.46 7.05.6 10.96.5 3.91-.11 7.64-.46 11.03-.82 3.38-.37 6.37-.9 8.81-1.59 2.44-.69 4.33-1.5 5.61-2.15.63-.32 1.13-.57 1.48-.75.35-.17.56-.23.6-.16.05.06-.07.24-.34.53-.14.14-.3.32-.52.51-.22.18-.47.39-.77.62-1.18.9-3.07 1.99-5.58 2.91-2.5.92-5.6 1.63-9.03 2.12-3.42.48-7.2.9-11.22 1.01zM124.7 55.17zM38.21 26.39c-.22.88-.54 1.84-1 2.82-.26.55-.55 1.1-.88 1.65 6.12-4.92 12.08-10.06 18.04-15.16-.22-.77-.58-1.75-1.22-2.86-.79-1.38-2.02-2.93-3.59-4.62-.78-.84-1.64-1.7-2.65-2.44-1-.75-2.16-1.31-3.52-1.74-.67-.22-1.39-.42-2.13-.62s-1.47-.4-2.21-.53-1.47-.19-2.19-.11c-.73.08-1.47.28-2.21.58-1.48.59-3 1.55-4.56 2.47-1.55.94-3.12 1.96-4.71 3.05-6.34 4.34-12.79 9.88-19.3 15.96-.39.37-.74.73-1.02 1.09-.28.37-.48.72-.61 1.13-.15.45-.22.96-.23 1.48 3.65 5.92 7.66 11.53 12.44 16.63.15-.1.3-.19.45-.29a1.42 1.42 0 0 1-.52-.65c-.23-.55-.26-1.02-.3-1.47-.03-.44-.02-.85 0-1.21.04-.73.09-1.3.13-1.69.04-.4.07-.62.15-.63-.04.01-.09-.04-.13-.16a.68.68 0 0 1-.04-.23c.01-.09.01-.22.14-.37a.54.54 0 0 1 .27-.14.5.5 0 0 1 .32.06c.18.09.28.22.38.31.21.2.43.43.68.69a64.408 64.408 0 0 1 2.19 2.41c.16.19.33.39.5.58 4.41-2.99 8.68-6.17 12.86-9.46.31-.44.62-.88.91-1.31.66-.96 1.24-1.89 1.71-2.8.47-.9.81-1.79 1.07-2.63.53-1.67.78-3.09 1-4.06.21-.97.35-1.51.43-1.5.08.01.08.57 0 1.56-.06 1-.2 2.45-.65 4.21zM19.4 17.37a36.983 36.983 0 0 1-4.67 4.72c-.99.84-1.99 1.6-2.94 2.23-.94.63-1.85 1.13-2.6 1.51-1.5.74-2.4 1.19-2.62.97-.1-.11-.01-.4.29-.81.29-.41.8-.92 1.45-1.47.65-.56 1.41-1.16 2.25-1.85.84-.69 1.76-1.46 2.72-2.27 1.92-1.63 3.66-3.14 5.01-4.15 1.34-1.02 2.28-1.55 2.5-1.33.23.2-.32 1.13-1.39 2.45zm13.27-4.39c-.26.22-.71.48-.68 1.72.02.79-.04 1.4-.09 1.74 0 .11-.01.18-.03.23-.05 1.61-.42 3.46-1.73 4.54-2.67 2.19-6.51-.27-6.51-.27s-1.2-1.57-1.39-3.39c-.05.33-.07.65-.07.65s-.42-1.25-.09-2.19c-.22.4-.27.61-.63 1.51.38-4.23 2.98-6.03 2.98-6.03s-.94.94-1.02 1.5c3.41-2.69 7.49-.45 8.62-.28 1.13.17 2.72-1.25 2.72-1.25-.33.63-1.81 1.3-2.08 1.52zm4.71-7.3c-.78.13-1.52.29-2.23.49-1.41.39-2.63.88-3.66 1.35-1.04.48-1.95.88-2.63 1.03-.68.16-1.08.11-1.12-.03-.04-.14.26-.38.77-.75.52-.37 1.23-.93 2.21-1.61.99-.69 2.29-1.4 3.81-1.94.76-.27 1.59-.51 2.46-.68.87-.17 1.88-.31 2.99-.1 1.1.22 1.95.71 2.69 1.1.74.4 1.46.81 2.13 1.22 1.35.83 2.51 1.72 3.37 2.6.87.88 1.42 1.73 1.71 2.36.15.31.23.57.25.76.03.19.01.3-.05.34-.29.16-1.14-.99-2.94-2.26-.9-.64-2.04-1.32-3.36-2.01-.66-.35-1.37-.7-2.12-1.07-.75-.38-1.45-.72-2.1-.85-.66-.14-1.41-.08-2.18.05z" class="st3"/>
    <path d="M31.88 16.59c.01-.04.02-.1.02-.16 0-.07-.01-.15-.02-.25v.41z" class="st3"/>
    <path d="M31.88 16.59v-.4c-.06-.38-.29-.97-.95-1.78-.78-.95-2.3-1.23-3.82-1.16-1 .05-2 .1-2.8.76-2.01 1.65-1.52 4.66-1.52 4.66s-.45-.62-.36-1.85c-.08.14-.14.44-.18.72.18 1.82 1.39 3.39 1.39 3.39s3.84 2.46 6.51.27c1.31-1.08 1.69-2.93 1.73-4.54-.01.05-.02.07-.02.07s0-.04.02-.14zm-1 2.32-.01.08c-.01.05-.02.1-.02.15-.01.05-.01.1-.03.15l-.02.09-.02.08c-.01.05-.03.11-.04.16-.01.05-.03.11-.05.16-.02.05-.04.11-.06.16a2.902 2.902 0 0 1-2.62 1.78c-.4.01-.79-.04-1.13-.14-.17-.05-.33-.11-.49-.17-.15-.07-.29-.13-.42-.21-.26-.15-.49-.3-.67-.45-.18-.15-.33-.29-.44-.42-.06-.06-.1-.12-.15-.17-.02-.02-.04-.05-.06-.07-.02-.02-.03-.04-.04-.06a.414.414 0 0 1-.07-.12c-.02.02-.07-.01-.14-.06a.265.265 0 0 1-.06-.05.435.435 0 0 0-.07-.06l-.08-.08c-.03-.03-.05-.06-.08-.09-.12-.13-.24-.31-.37-.53-.13-.22-.26-.48-.36-.78-.03-.08-.05-.16-.07-.24-.02-.08-.05-.17-.06-.25-.04-.17-.06-.36-.08-.55-.02-.19-.02-.39 0-.6.02-.21.05-.42.11-.63a3.089 3.089 0 0 1 1.88-2.12c.49-.19 1-.24 1.48-.21.48.04.93.16 1.32.34a4.698 4.698 0 0 1 1.78 1.37c.4.5.62.97.73 1.31.11.34.11.53.07.55 0 .01-.05.01-.13 0-.09-.01-.21-.01-.38-.01-.16 0-.36.02-.57.09-.11.04-.21.09-.32.16-.1.07-.2.17-.27.28-.01.01-.02.03-.03.04-.01.01-.02.03-.02.04l-.01.02-.01.05c-.01.02-.01.03-.02.05-.01.02-.01.04-.01.06v.01c.05.15.08.31.1.48.01.02.02.05.04.07.18.26.5.45.86.52.18.03.37.04.55 0l.14-.03c.01 0 .02-.01.03-.01l.05-.02c.05-.01.1-.04.15-.06.05-.02.09-.04.14-.05l.03-.01h.02c-.01-.01 0-.01 0 0z" class="st4"/>
    <path d="M25.83 18.28c-.08-.15-.13-.28-.17-.39-.06-.18-.06-.29-.04-.3.02-.01.07.09.17.24.05.08.11.18.18.29.55-.6 1.12-1.04 1.66-1.37l-.19-.19c-.13-.12-.21-.19-.2-.22.01-.02.12.01.28.1.08.05.18.11.28.19a6.82 6.82 0 0 1 1.75-.71c-.06-.07-.12-.13-.19-.2a4.917 4.917 0 0 0-1.66-1.1c-.35-.13-.73-.23-1.12-.25-.39-.02-.8.03-1.18.17-.38.14-.71.38-.96.66a2.74 2.74 0 0 0-.65 1.49c-.01.08-.01.15-.02.23.03-.03.06-.07.1-.1.31-.25.77-.21 1.02.1s.21.77-.1 1.02c-.29.24-.71.21-.97-.05v.01c.01.07.03.15.04.22.06.28.15.53.23.75.08.22.17.4.24.55.15.3.24.47.2.5.01 0 .03.02.08.06.39-.66.8-1.22 1.22-1.7z" style="fill:#d13d7f"/>
    <path d="M28.64 19.38c-.05.06-.1.12-.17.16a.817.817 0 0 1-.42.18c-.15.03-.29.02-.42 0-.07-.01-.14-.04-.21-.06-.4.42-.79.91-1.16 1.5.07.03.13.06.2.09.15.05.3.11.47.15.33.08.69.13 1.07.11.38-.02.77-.11 1.13-.29.18-.09.36-.2.52-.34.16-.14.31-.29.44-.46.13-.17.23-.36.31-.56l.06-.15c.02-.05.04-.1.05-.15.01-.05.03-.1.04-.15l.02-.08.01-.06s0-.01 0 0l-.02.01c-.01 0-.03.01-.04.01-.05.01-.11.03-.16.04-.22.04-.43.03-.64-.01a1.6 1.6 0 0 1-.85-.48c-.02.12-.04.24-.1.35-.04.06-.08.13-.13.19z" class="st6"/>
    <path d="M28.26 19.25c.16-.12.24-.31.26-.52v-.04c-.27.19-.53.41-.8.67.19.03.39 0 .54-.11z" class="st6"/>
    <path d="M26.93 19.45c-.2-.12-.38-.26-.52-.4a2.832 2.832 0 0 1-.57-.76c-.42.47-.82 1.03-1.2 1.71.01.01.02.01.03.03l.05.05.06.06c.05.04.1.09.16.15.12.11.27.24.46.38s.41.28.67.41l.21.09c.37-.59.76-1.08 1.16-1.5-.2-.06-.36-.13-.51-.22zM29.55 15.93c-.47.11-1.08.32-1.75.71.11.09.23.19.35.33.19.21.38.47.52.8.01-.01.02-.03.02-.04.01-.02.02-.03.04-.05.1-.13.21-.23.33-.31.12-.08.24-.13.36-.16.24-.06.45-.07.62-.06.17.01.3.03.38.06.03.01.06.02.08.02-.06-.05-.14-.2-.28-.41a6.85 6.85 0 0 0-.67-.89zM26.61 18.83c.14.12.3.24.49.34.18.1.38.18.59.21h.03c.27-.26.54-.48.8-.67.01-.2-.01-.4-.06-.58-.11-.4-.31-.73-.5-.99a3.34 3.34 0 0 0-.32-.38c-.54.33-1.1.77-1.66 1.37a3.2 3.2 0 0 0 .63.7z" class="st7"/>
    <path d="m23.8 17.69.03.21a.722.722 0 0 0 1.07-.97.727.727 0 0 0-1.12 0c-.01.09-.02.19-.02.28.01.17.02.33.04.48zM16.86 39.82c.1.4.16 1 .22 1.7.03.35.07.74.13 1.13.06.38.15.82.31 1.14.07.15.15.19.22.22.07.02.22.03.41-.04.38-.12.82-.38 1.26-.67l.34-.22.18-.11c.04-.02.01-.01.02-.01 0 0 .01 0 .01-.01-.29-.37-.57-.72-.84-1.06-.58-.74-1.1-1.43-1.52-2.01-.39-.55-.84-1.2-.77-1.1-.02-.01-.07.05-.1.1-.03.06-.05.11-.07.16-.03.1-.06.16-.1.16.09 0 .2.21.3.62zM25.56 47.3c-.13-.39-.24-.98-.36-1.68-.06-.35-.13-.73-.22-1.12-.09-.38-.22-.8-.41-1.11-.08-.15-.16-.18-.23-.2-.07-.02-.22-.01-.41.07-.37.15-.78.45-1.2.77-.11.08-.22.17-.32.25l-.17.13c-.04.03-.01.01-.02.01 0 0-.01 0-.01.01l.93.99c.64.69 1.21 1.33 1.68 1.87.44.52.94 1.13.86 1.03.02.01.07-.05.09-.11.02-.06.04-.12.05-.17.03-.1.05-.16.08-.17-.08.03-.22-.17-.34-.57z" class="st4"/>
    <path d="M116.82 130.39c-.16.33-.3.88-.28 1.58.01.7.17 1.53.43 2.44.25.9.6 1.9.79 2.93.02.1.03.21.04.31.05.41.06.82-.01 1.19-.04.24-.13.45-.23.66-.12.2-.25.4-.44.59-.09.09-.2.18-.3.27-.1.07-.2.14-.31.2-.22.12-.47.22-.76.29-.57.14-1.24.18-1.98.2-1.92.03-3.97.07-6.09.08.11-.31.21-.6.3-.89.08-.31.16-.64.12-.98-.01-.1-.03-.2-.07-.29a1.24 1.24 0 0 0-.39-.57c-.24-.19-.49-.29-.7-.33-.22-.05-.42-.07-.59-.07-.7-.01-1.05.11-1.05.18 0 .08.38.12 1 .25.3.07.69.19.92.44.11.12.17.27.17.46.01.19-.07.42-.16.67-.41 1.07-1.04 2.3-1.94 3.5-.9 1.21-2.09 2.37-3.55 3.34l-.17.12h-.01c-.01.08.02-.2.04-.38.03-.19.05-.38.07-.56.11-.74.26-1.45.43-2.12.34-1.33.78-2.49 1.2-3.43.21-.47.42-.9.6-1.25s.38-.57.6-.7c.22-.13.44-.19.58-.23.15-.05.23-.08.22-.12 0-.04-.08-.07-.24-.09-.16-.02-.41-.03-.73.07-.24.07-.49.25-.7.48-.08.09-.16.18-.23.28a13.985 13.985 0 0 0-1.25 2.14c-.12-.01-.23-.01-.35-.02.17-.42.28-.85.33-1.25.04-.3.05-.58.02-.87-.01-.18-.06-.36-.13-.53-.05-.11-.1-.21-.18-.31-.2-.23-.45-.35-.66-.41-.21-.06-.4-.07-.56-.08-.65 0-.98.09-.99.16-.01.08.35.15.93.27.28.07.63.18.78.43.07.12.11.28.1.49 0 .21-.04.46-.09.7-.22.99-.85 2.09-1.85 3.06-.49.49-1.07.96-1.69 1.44-.62.47-1.26.96-1.91 1.46v.01c0-.01-.01.04 0-.14.05-.77.14-1.51.26-2.22.24-1.4.61-2.66.99-3.64.19-.48.43-.87.7-1.13.27-.26.58-.39.86-.48.56-.16.92-.18.92-.26 0-.07-.33-.2-1-.17-.04 0-.09.01-.13.02-.31.04-.69.14-1.05.4-.19.14-.36.31-.52.51.02-.08.04-.17.05-.25.05-.4.02-.78-.06-1.12-.03-.14-.07-.28-.13-.4-.19-.43-.53-.75-.85-.86-.13-.04-.24-.06-.35-.07.34-.65.69-1.27 1.04-1.84.6-.96 1.18-1.85 1.65-2.67.47-.82.82-1.57 1.04-2.21.44-1.29.38-2.06.25-2.08-.16-.03-.4.65-1.04 1.72-.32.54-.75 1.17-1.29 1.89s-1.2 1.52-1.91 2.47c-.7.94-1.4 2.02-2.04 3.25-.33.19-.69.46-1.03.81-.33.34-.66.76-.94 1.25-.29.49-.52 1.04-.73 1.63-.21.59-.38 1.21-.56 1.84-.04.16-.09.32-.13.48-.06.21-.13.42-.19.64-.2.64-.48 1.37-.73 2.05.7-.3 1.41-.59 2.15-.95l.38-.19.26-.14a17.972 17.972 0 0 0 1.48-.91c.41-.29.79-.59 1.16-.9.3.15.6.29.91.4-.06.24-.13.48-.18.73-.16.73-.27 1.52-.34 2.34-.05.62-.06 1.44-.07 2.25V147.88c0 .02.04-.02.05-.03l.24-.18.48-.35c.33-.25.66-.51.99-.76.68-.53 1.35-1.05 1.99-1.55.63-.5 1.23-1.03 1.76-1.59.08-.08.15-.16.22-.24l.8.06c-.04.14-.09.27-.13.41-.21.69-.39 1.43-.53 2.22l-.09.59-.04.3c-.01.06-.04.32-.05.5-.03.39-.05.78-.08 1.17-.02.39-.04.78-.07 1.17.39-.37.78-.75 1.17-1.12.18-.17.36-.3.55-.44l.38-.27c1.54-1.02 2.84-2.33 3.75-3.66.17-.25.33-.5.48-.74 2.56-.02 4.99-.14 7.25-.25.78-.04 1.61-.11 2.44-.36.41-.13.83-.3 1.21-.54.19-.12.37-.26.54-.41.15-.15.3-.29.44-.45.28-.32.51-.68.69-1.07.16-.39.28-.79.32-1.18.09-.79-.04-1.49-.2-2.1-.34-1.22-.81-2.16-1.15-3-.35-.83-.61-1.54-.74-2.12-.27-1.17-.04-1.86-.21-1.93-.06-.04-.22.1-.37.43zM94.28 140.7c-.5.42-1.04.84-1.63 1.23-.3.2-.6.39-.92.57l-.48.27c-.13.07-.25.13-.38.2l-.01.01-.01-.01c.07-.28.14-.56.21-.83.16-.64.3-1.25.47-1.81.16-.56.35-1.07.56-1.52.22-.45.47-.84.73-1.18.52-.67 1.07-1.07 1.49-1.29.42-.22.68-.31.67-.39.01.04.09.07.23.1s.34.08.54.21.36.35.45.68c.09.33.09.75 0 1.18-.09.44-.31.87-.65 1.3-.32.44-.77.86-1.27 1.28z" class="st8"/>
    <path d="M187.39 24.34c-.08-.7-.25-1.38-.37-2.06-.07-.34-.13-.68-.2-1.02-.08-.34-.17-.67-.25-1-.09-.38-.19-.75-.28-1.13-.14-.57-.33-1.12-.5-1.69-.17-.56-.34-1.12-.52-1.67l-.26-.83-.13-.41-.06-.21-.03-.1c-.01-.06-.02-.02-.04.02-.83 1.92-1.66 3.82-2.47 5.7l-.81 1.74c-.28.57-.56 1.14-.83 1.71a86.17 86.17 0 0 1-3.59 6.45c-5.03 8.2-11.21 14.56-17.59 18.73-1.59 1.04-3.18 1.99-4.76 2.78-1.57.82-3.14 1.48-4.66 2.07-3.06 1.14-5.97 1.85-8.63 2.23-.66.12-1.31.17-1.94.23-.63.07-1.24.11-1.84.14-1.19.05-2.31.05-3.35.03-2.08-.06-3.83-.23-5.25-.38-2.83-.32-4.32-.55-4.34-.47-.01.04.36.14 1.07.3.72.16 1.79.38 3.2.61 1.42.22 3.18.46 5.28.59a46 46 0 0 0 3.4.08c.61-.01 1.23-.03 1.88-.09.65-.05 1.31-.08 1.99-.18 2.73-.32 5.73-.99 8.88-2.09 1.57-.57 3.19-1.22 4.82-2.03 1.64-.78 3.28-1.72 4.92-2.77 6.6-4.17 13.03-10.63 18.25-18.94 1.31-2.07 2.55-4.25 3.73-6.54.29-.57.58-1.15.87-1.73.28-.59.56-1.17.84-1.76.08-.18.17-.37.25-.55.14-.3.27-.6.41-.9.05.12.09.29.13.43.02.07.04.14.06.22.07.28.13.56.2.84.08.32.16.64.23.97.06.33.12.66.18.98.11.66.27 1.32.34 1.99.42 2.67.56 5.44.52 8.24-.05 2.81-.31 5.66-.78 8.52-.48 2.86-1.19 5.74-2.1 8.59-1.81 5.71-4.49 11.33-7.84 16.72-.28.45-.57.9-.86 1.35-.09-.16-.2-.32-.31-.47-.15-.21-.34-.41-.53-.59-.2-.19-.41-.33-.61-.48a4.246 4.246 0 0 0-2.96-.71c-1 .12-1.81.51-2.53.89-.72.39-1.37.8-1.99 1.17-1.15.7-2.28 1.23-3.23 1.17-.06 0-.13 0-.19-.01-.11-.01-.29-.05-.44-.08-.16-.04-.31-.07-.47-.12-.31-.08-.62-.18-.94-.27-.63-.2-1.26-.42-1.9-.61-.64-.19-1.3-.36-1.97-.46-.62-.09-1.22-.18-1.81-.27-2.35-.34-4.47-.64-6.34-.9-1.88-.25-3.5-.42-4.84-.51-2.67-.17-4.16-.04-4.16.11-.01.16 1.45.32 4.06.76 1.3.22 2.89.51 4.73.88 1.85.37 3.96.78 6.29 1.22.58.11 1.18.22 1.79.34.56.11 1.13.27 1.72.47.59.2 1.2.43 1.85.66.33.11.66.23 1.01.33.17.05.35.1.53.15.19.04.34.09.58.13.88.16 1.79 0 2.56-.27.78-.27 1.47-.64 2.14-1.02.66-.38 1.3-.76 1.93-1.08.63-.32 1.26-.57 1.83-.63.57-.06 1.06.07 1.56.41.27.18.43.34.61.59.17.23.32.52.44.84.25.64.4 1.41.59 2.24.18.82.35 1.64.53 2.48.19.91.38 1.83.57 2.76-.32-.06-.63-.1-.93-.13-.32-.02-.66-.04-.99.07-.33.1-.62.34-.77.61-.14.27-.19.53-.2.75-.01.23.01.42.04.59.12.68.3 1.02.37 1 .08-.02.05-.39.06-1.03.01-.31.06-.72.26-.99.1-.13.23-.21.42-.25.19-.04.43-.01.69.03 1.13.21 2.45.59 3.8 1.26 1.36.66 2.72 1.61 3.95 2.87l.15.15h.01v.01c.08 0-.2.02-.38.03l-.57.03c-.75.03-1.47.02-2.16-.03a22.95 22.95 0 0 1-3.6-.54c-.5-.12-.96-.25-1.34-.36-.38-.12-.63-.26-.8-.46-.17-.19-.26-.39-.34-.53-.07-.13-.12-.21-.16-.2-.03.01-.06.09-.05.26.01.16.04.4.2.7.16.3.51.59.91.77.4.18.84.36 1.35.53.3.1.63.2.98.3.02.11.03.23.05.34-.31-.06-.61-.09-.9-.1-.13 0-.26 0-.39.01-.3.02-.58.06-.86.14-.28.08-.57.23-.76.46-.19.23-.26.5-.28.72-.02.22.01.41.03.57.12.64.27.95.34.94.08-.01.08-.37.1-.97.02-.29.06-.66.28-.84.1-.1.26-.16.46-.19.21-.03.46-.05.71-.04 1.02.03 2.21.45 3.35 1.25.57.39 1.15.87 1.73 1.4.58.52 1.18 1.06 1.79 1.61h.01s.05 0-.13.03c-.77.09-1.51.15-2.23.15-1.42.02-2.73-.11-3.76-.3-.51-.1-.93-.26-1.24-.48-.31-.22-.5-.5-.63-.76-.26-.52-.34-.87-.43-.86-.06.01-.13.36.02 1.01.08.32.26.73.63 1.08.17.16.37.3.59.42-.08 0-.17-.01-.25 0-.57.04-1.07.2-1.46.47-.39.26-.64.66-.68.99-.01.05-.01.09-.01.13-.31-.1-.61-.21-.92-.32-.75-.28-1.48-.62-2.23-.95-1.5-.67-3.06-1.38-4.79-1.66-.86-.14-1.76-.17-2.6-.06-.84.1-1.63.29-2.37.5-.74.22-1.44.45-2.12.66-.69.22-1.36.44-2.03.65-2.65.86-5.12 1.66-7.37 2.4-1.12.35-2.18.66-3.2.88-1.01.23-1.98.36-2.89.45-1.83.16-3.44.11-4.75.06-2.63-.14-4.1-.28-4.13-.12-.02.14 1.39.57 4.04.98.59.08 1.24.17 1.94.23.9.08 1.88.12 2.97.1.97-.03 2.01-.11 3.09-.3.37-.06.74-.14 1.12-.22.73-.15 1.49-.34 2.25-.54 2.31-.64 4.79-1.36 7.48-2.14.21-.06.43-.13.65-.19-2.22 2.11-4.52 4.17-6.92 6.12-.13.1-.26.21-.39.31-2.56 2.06-5.25 4-8.09 5.74-2.98 1.83-6.12 3.44-9.4 4.72-3.29 1.28-6.73 2.22-10.26 2.7-3.53.49-7.14.45-10.72.01-3.59-.47-7.11-1.32-10.5-2.51a64.402 64.402 0 0 1-9.77-4.35c-3.11-1.7-6.03-3.67-8.66-5.93a41.958 41.958 0 0 1-3.7-3.6 34.44 34.44 0 0 1-3.12-4.03c-1.88-2.81-3.24-5.93-4.51-9.09-1.02-2.58-2.05-5.19-3.13-7.75-.24-.57-.49-1.14-.74-1.71-2.72-6.19-5.75-12.09-9.03-17.65-1.64-2.78-3.35-5.48-5.1-8.09-.88-1.3-1.77-2.59-2.68-3.85-.9-1.27-1.81-2.49-2.67-3.72-.85-1.23-1.68-2.46-2.31-3.73-.13-.26-.25-.52-.37-.78.53-.5.8-.78.75-.84h-.01c-.16-.07-1.67.91-4.29 2.76a127.7 127.7 0 0 1-4.93 3.35c-1.94 1.27-4.19 2.69-6.65 4.31l-1.88 1.26c-.29.2-.57.41-.85.62 0-.04-.01-.07-.01-.11-.07-.44-.15-.91-.42-1.44-.12-.27-.41-.57-.79-.7.87-.49 1.78-1 2.72-1.56 1.11-.66 2.26-1.42 3.3-2.37 2.09-1.9 3.54-4.12 4.84-6.09.28-.44.55-.87.81-1.31.32-.55.62-1.1.88-1.65.46-.98.78-1.94 1-2.82.45-1.76.59-3.21.67-4.21.08-1 .07-1.55 0-1.56-.08-.01-.22.53-.43 1.5-.22.97-.48 2.39-1 4.06-.26.83-.6 1.72-1.07 2.63-.47.91-1.05 1.84-1.71 2.8-.3.43-.6.87-.91 1.31-1.09 1.55-2.31 3.14-3.82 4.52-.97.89-2.04 1.6-3.12 2.27-1.1.65-2.16 1.29-3.17 1.89-.86.51-1.68 1-2.46 1.47a.891.891 0 0 0-.21-.59c-.03-.03-.05-.06-.08-.09-.17-.2-.34-.39-.5-.58-.16-.19-.32-.37-.48-.55-.63-.71-1.21-1.34-1.71-1.86-.25-.26-.48-.49-.68-.69-.1-.09-.2-.21-.38-.31a.678.678 0 0 0-.32-.06c-.1.01-.21.07-.27.14-.13.14-.13.27-.14.37 0 .1.02.17.04.23.04.11.09.16.13.16.04-.01.06-.07.1-.16.02-.05.04-.11.07-.16.03-.05.07-.11.1-.1-.07-.1.37.55.77 1.1.42.58.93 1.26 1.52 2.01.27.34.55.69.84 1.06 0 .01-.01.01-.01.01-.01 0 .02-.01-.02.01l-.18.11-.34.22c-.45.29-.88.55-1.26.67-.19.06-.34.06-.41.04a.382.382 0 0 1-.22-.22c-.16-.32-.25-.75-.31-1.14-.06-.39-.1-.78-.13-1.13-.06-.71-.13-1.3-.22-1.7-.09-.41-.21-.62-.28-.61-.08.01-.11.24-.15.63-.04.4-.09.97-.13 1.69-.02.36-.03.77 0 1.21.04.45.07.92.3 1.47.08.22.26.47.52.65.08.05.16.1.25.14.17.06.33.09.49.09-1.31.81-2.39 1.44-3.18 1.86-.22.12-.42.22-.59.31-.43-.56-.86-1.13-1.29-1.71-1.14-1.55-2.26-3.16-3.36-4.85-1.09-1.68-2.2-3.44-3.16-5.23-.96-1.8-1.74-3.69-1.98-5.66-.06-.44-.08-.87-.07-1.29.01-.52.08-1.03.23-1.48.14-.41.33-.76.61-1.13.28-.36.63-.72 1.02-1.09 6.51-6.08 12.96-11.61 19.3-15.96 1.58-1.09 3.16-2.1 4.71-3.05 1.56-.92 3.08-1.87 4.56-2.47.74-.3 1.48-.5 2.21-.58.72-.08 1.46-.02 2.19.11.74.13 1.47.33 2.21.53.74.21 1.45.4 2.13.62 1.36.43 2.52.99 3.52 1.74 1.01.74 1.87 1.6 2.65 2.44 1.56 1.69 2.8 3.23 3.59 4.62.64 1.1 1.01 2.09 1.22 2.86.05.19.1.37.14.54.18.81.23 1.26.31 1.28v.13c.06.04.12.09.18.13l.26.2.34.3.32.32c.21.23.4.44.63.71 1.73 2.04 3.55 3.94 5.39 5.72.91.9 1.86 1.75 2.79 2.59.95.82 1.88 1.64 2.83 2.4 1.89 1.55 3.8 3 5.7 4.33.94.68 1.9 1.31 2.84 1.94.95.61 1.88 1.23 2.82 1.8 1.98 1.23 3.93 2.36 5.84 3.4-2.43.78-4.63 1.67-6.53 2.63-3.33 1.63-5.76 3.46-7.24 4.92-.75.72-1.26 1.34-1.59 1.78-.33.44-.47.69-.44.71h.01c.09.03.79-.86 2.32-2.17 1.54-1.33 3.98-3.02 7.29-4.53 3.29-1.55 7.44-2.89 12.16-3.91 2.36-.52 4.86-.97 7.46-1.4.65-.11 1.31-.21 1.97-.32.49-.08 1.01-.17 1.5-.24-.06.11-.1.25-.08.42.02.22.19.41.35.51.34.21.71.27 1.13.28.21.01.46-.05.66-.13.21-.08.39-.18.57-.27.01-.01.03-.01.05-.02.03.05.06.11.09.16-.39.07-.72.16-.94.26-.25.11-.36.21-.35.24.04.06.55-.09 1.5-.11.47-.02 1.04-.05 1.68-.09.08-.01.16-.01.24-.02l.12-.01h.02c.02 0 .03.01.04.01.02.01.01.01 0 .02-.04.02-.05.01-.05.01-.39.2-.77.4-1.14.59-.4.21-.78.42-1.15.61-.38.2-.67.39-.97.39-.32.02-.66-.02-.87-.13-.1-.06-.16-.11-.18-.17a.359.359 0 0 1 .04-.26c.08-.19.23-.34.35-.46.24-.24.4-.34.38-.39-.02-.04-.23-.01-.54.18-.16.1-.35.23-.51.48-.08.12-.15.3-.13.51.02.22.19.41.35.51.34.21.71.27 1.13.28.21.01.46-.05.66-.13.21-.08.39-.18.57-.27.07-.04.15-.08.23-.11 0 .16-.02.31-.04.46 0 .03-.02.05-.02.08-.02.1-.04.2-.08.29-.08.01-.17.03-.24.04-.47.07-.85.18-1.1.28-.25.11-.36.21-.35.24.04.06.55-.09 1.5-.11.47-.02 1.04-.05 1.68-.09.08-.01.16-.01.24-.02l.12-.01h.02c.02 0 .03.01.04.01.02.01.01.01 0 .02-.04.02-.05.01-.05.01-.39.2-.77.4-1.14.59-.4.21-.78.42-1.15.61-.38.2-.67.39-.97.39-.32.02-.66-.02-.87-.13-.1-.06-.16-.11-.18-.17a.359.359 0 0 1 .04-.26c.08-.19.23-.34.35-.46.24-.24.4-.34.38-.39-.02-.04-.23-.01-.54.18-.16.1-.35.23-.51.48-.03.05-.06.11-.09.18-.52.04-1.06.07-1.6.1-2.64.15-5.18.29-7.61.43-2.43.14-4.72.26-6.89.42-2.17.17-4.19.44-6 .91-.91.23-1.75.53-2.53.85-.77.34-1.49.7-2.11 1.12-1.25.82-2.17 1.75-2.81 2.57-.64.82-1.09 1.47-1.4 1.91-.3.42-.45.65-.44.69v.01c.03.02.25-.16.62-.56s.88-1.02 1.56-1.77c.68-.76 1.59-1.59 2.81-2.32.6-.37 1.3-.69 2.05-.99.76-.28 1.57-.54 2.45-.74 3.52-.83 7.91-.81 12.76-1.07.08 0 .16-.01.23-.01 5.67 2.6 10.82 4.46 15.2 5.82 5.21 1.62 9.34 2.52 12.15 3.07.7.13 1.33.24 1.86.34.54.08.99.15 1.35.2.73.1 1.1.13 1.11.1.01-.04-.35-.15-1.07-.32-.36-.08-.8-.19-1.33-.31l-1.83-.45c-2.77-.68-6.85-1.72-11.98-3.45a133.25 133.25 0 0 1-12.92-5.12c1.57-.07 3.18-.15 4.83-.23.66-.04 1.32-.05 2.03-.13.09-.01.18-.02.28-.04.21.06.44.09.68.09.21.01.46-.05.66-.13.21-.08.39-.18.57-.27.38-.18.77-.38 1.17-.58.44-.22.89-.45 1.36-.69.99-.51 1.95-1 2.87-1.48-.76.08-1.49.16-2.2.23-.34.04-.67.07-1 .11-.21.02-.41.05-.61.07l-.24.03v-.01c.07-.4.07-.79.04-1.18v-.02c.39-.2.79-.4 1.2-.61.99-.51 1.95-1 2.87-1.48-.76.08-1.49.16-2.2.23-.34.04-.67.07-1 .11-.21.02-.41.05-.61.07-.23.03-.46.06-.67.09-.07-.16-.16-.32-.25-.48l.12-.06c.44-.22.89-.45 1.36-.69.99-.51 1.95-1 2.87-1.48-.76.08-1.49.16-2.2.23-.34.04-.67.07-1 .11-.21.02-.41.05-.61.07-.64.08-1.21.16-1.68.24-.29.05-.54.1-.75.17-.1-.02-.19-.04-.29-.05-.41-.05-.8-.03-1.16 0-.73.09-1.36.22-2.03.32-.66.11-1.32.22-1.97.33-2.61.45-5.12.93-7.5 1.48-1.38.31-2.71.66-3.98 1.03a136.29 136.29 0 0 1-6.85-4.07c-.92-.57-1.83-1.2-2.77-1.81-.92-.64-1.86-1.27-2.78-1.95-1.86-1.34-3.72-2.78-5.57-4.32-.93-.76-1.84-1.58-2.76-2.39-.9-.84-1.82-1.68-2.71-2.57a81.096 81.096 0 0 1-5.23-5.65c-.77-.94-1.74-1.91-2.96-2.54-.11-.85-.39-1.96-.99-3.21-.74-1.54-1.93-3.23-3.44-5.04-.76-.91-1.63-1.86-2.72-2.74-.54-.43-1.15-.85-1.8-1.2-.66-.35-1.35-.65-2.06-.91s-1.44-.49-2.17-.72c-.74-.23-1.51-.47-2.35-.64-.83-.17-1.74-.28-2.68-.2-.94.08-1.85.32-2.72.64-.87.33-1.69.73-2.5 1.16-.8.43-1.59.88-2.4 1.34-1.61.94-3.23 1.95-4.86 3.03-6.53 4.34-13.11 9.9-19.68 16.04-.42.4-.86.83-1.26 1.35-.4.51-.75 1.14-.96 1.78-.42 1.29-.4 2.58-.25 3.75.3 2.37 1.22 4.51 2.25 6.42 1.05 1.92 2.18 3.66 3.31 5.37 1.14 1.71 2.31 3.34 3.49 4.9.59.78 1.19 1.54 1.78 2.29.3.37.65.81 1.18 1.2.26.19.58.35.92.45.34.1.67.12.96.12.6-.01 1.05-.11 1.52-.19.47-.09.93-.19 1.39-.31.91-.24 1.78-.54 2.61-.9.84-.36 1.62-.74 2.39-1.25.14-.09.27-.19.41-.28.24.21.46.4.66.57.11.08.22.2.41.27.09.04.21.06.32.03.1-.02.2-.08.26-.16.12-.15.11-.28.11-.38a.799.799 0 0 0-.05-.22c-.05-.11-.1-.16-.14-.15-.04.01-.06.07-.08.17-.01.05-.03.11-.05.17-.02.06-.06.11-.09.11.08.1-.42-.52-.86-1.03-.47-.55-1.04-1.18-1.68-1.87-.3-.31-.61-.64-.93-.99 0-.01 0-.01.01-.01.01-.01-.02.01.02-.01l.17-.13c.11-.08.21-.17.32-.25.42-.32.83-.62 1.2-.77.19-.08.33-.09.41-.07.07.02.15.05.23.2.19.3.31.73.41 1.11.09.39.16.77.22 1.12.12.7.23 1.29.36 1.68.13.4.26.6.33.58.08-.02.09-.25.1-.64 0-.19.01-.41.01-.67.59-.51 1.13-.98 1.7-1.4.62-.45 1.23-.88 1.82-1.31 2.38-1.69 4.57-3.2 6.46-4.58 1.89-1.38 3.49-2.61 4.74-3.68.57-.47 1.07-.9 1.51-1.28.05.11.1.21.15.32.7 1.41 1.56 2.7 2.43 3.97.87 1.27 1.78 2.51 2.66 3.76.89 1.25 1.76 2.52 2.62 3.82 1.72 2.59 3.39 5.26 5 8.01.86 1.47 1.7 2.97 2.53 4.49-.15.13-.29.26-.45.4-.8.73-1.76 1.64-2.76 2.82-1 1.18-2.04 2.61-2.97 4.32-.95 1.7-1.8 3.66-2.55 5.81-.37 1.08-.73 2.2-1.06 3.36-.32 1.17-.69 2.35-.89 3.67-.09.66-.13 1.36-.03 2.06.02.13.04.25.07.38-.01.04-.03.07-.04.11-.08.26-.14.65-.17 1.12-.02.48-.04 1.05-.06 1.69 0 .2 0 .4-.01.61v1c0 .71 0 1.45.01 2.21.37-.97.76-1.98 1.16-3.02.16-.43.32-.85.47-1.26.18.17.38.32.6.45v.14c0 .2 0 .4-.01.61v1c0 .71 0 1.45.01 2.21.37-.97.76-1.98 1.16-3.02.06-.17.13-.34.19-.5.52.05 1.05-.03 1.52-.22.07-.03.14-.07.21-.1 0 .18 0 .36-.01.54v1c0 .71 0 1.45.01 2.21.37-.97.76-1.98 1.16-3.02.18-.49.36-.96.54-1.42.16-.42.31-.83.45-1.23.04-.12.09-.24.13-.37.18-.36.32-.73.44-1.1.23-.73.36-1.46.47-2.18.11-.72.22-1.43.35-2.15.49-2.87 1.1-5.65 1.8-8.31.35-1.33.72-2.63 1.12-3.89.28-.9.56-1.77.94-2.54 1.59 3.1 3.1 6.28 4.52 9.55 1.35 3.06 2.55 6.19 3.81 9.41 1.28 3.2 2.69 6.47 4.69 9.49 1 1.5 2.1 2.94 3.31 4.29s2.52 2.61 3.89 3.81c2.76 2.37 5.81 4.43 9.03 6.2 2.76 1.52 5.63 2.85 8.61 3.97.06 1.6.26 3.09.44 4.47.57 4.25 1.09 7.69 1.47 10.05.4 2.34.2 3.63.36 3.67.07.02.23-.29.36-.93.14-.64.2-1.6.15-2.82-.12-2.27-.37-5.47-.71-9.41l-.06-.72c-.1-1.17-.2-2.4-.24-3.66a54.02 54.02 0 0 0 10.67 2.53c3.76.46 7.58.5 11.3-.02.84-.11 1.68-.26 2.51-.42-.51 1.83-1.08 3.54-1.62 5.14-.03.08-.05.16-.08.23-.69 2.03-1.31 3.87-1.84 5.49-.26.81-.51 1.56-.73 2.25-.21.66-.48 1.25-.73 1.78-.52 1.06-.94 1.91-1.16 2.52-.22.61-.27.95-.2.98.07.03.26-.25.6-.77.34-.53.87-1.28 1.52-2.31.32-.52.67-1.12.97-1.82.28-.68.58-1.41.91-2.2.64-1.58 1.37-3.38 2.15-5.37.75-1.91 1.55-4.03 2.25-6.36a48.38 48.38 0 0 0 6.22-1.97c3.43-1.34 6.68-3.02 9.76-4.91a79.19 79.19 0 0 0 8.7-6.23c3.5-2.86 6.77-5.89 9.85-9.02.41-.09.82-.16 1.23-.2a6.94 6.94 0 0 1 2.03.09c1.38.24 2.78.88 4.26 1.57.74.34 1.52.71 2.34 1.03.81.32 1.65.6 2.51.84.11.03.23.06.35.09.22.22.47.43.78.63.4.26.87.5 1.4.69.53.19 1.12.32 1.74.41.61.09 1.26.15 1.91.21.16.01.33.03.49.04.22.02.44.05.66.07.67.08 1.44.22 2.15.33-.43-.64-.85-1.28-1.33-1.94l-.26-.34-.19-.23c-.12-.15-.25-.3-.38-.45a14.586 14.586 0 0 0-1.83-1.75c.1-.34.17-.68.22-1.02.23.01.46.03.7.04.75.02 1.54-.01 2.36-.1.62-.07 1.43-.21 2.22-.35l.15-.03.07-.01c.01-.01-.03-.03-.04-.05l-.22-.2-.44-.41c-.31-.28-.62-.55-.93-.83-.65-.57-1.28-1.13-1.9-1.67-.61-.53-1.24-1.02-1.89-1.43-.09-.06-.18-.11-.27-.16-.03-.27-.06-.54-.1-.8.14.02.28.04.42.05.72.08 1.48.12 2.27.11.2-.01.4-.01.6-.02l.3-.02c.06 0 .32-.02.5-.04.39-.05.77-.09 1.17-.14l1.16-.15c-.44-.31-.88-.62-1.32-.94-.2-.15-.37-.3-.53-.45l-.33-.32a13.977 13.977 0 0 0-4.29-3.01c-.28-.12-.55-.23-.82-.33-.26-1.32-.53-2.61-.81-3.88-.19-.83-.38-1.66-.56-2.48-.07-.32-.15-.65-.23-.98.59-.89 1.17-1.78 1.72-2.68 3.4-5.53 6.13-11.31 7.96-17.21.92-2.95 1.63-5.91 2.11-8.87.47-2.96.72-5.91.75-8.81.09-2.89-.08-5.75-.54-8.52zm-83.11 13.75c.47-.02 1.04-.05 1.68-.09.08-.01.16-.01.24-.02l.12-.01h.02c.02 0 .03.01.04.01.02.01.01.01 0 .02-.04.02-.05.01-.05.01-.39.2-.77.4-1.14.59-.4.21-.78.42-1.15.61-.38.2-.67.39-.97.39-.32.02-.66-.02-.87-.13-.1-.06-.16-.11-.18-.17a.359.359 0 0 1 .04-.26c.08-.19.23-.34.35-.46.24-.24.4-.34.38-.39.03.08.54-.08 1.49-.1zm-81.89 8.05.58.55c-.01 0-.01.01-.02.01-.63.39-1.38.74-2.14 1.04a16.8 16.8 0 0 1-3.62 1.01c-.42.07-.87.14-1.19.13-.34-.01-.49-.06-.72-.22-.23-.17-.48-.47-.76-.83-.07-.09-.14-.19-.22-.28.17-.05.35-.12.55-.2.94-.35 2.26-.98 3.83-1.84.71-.38 1.48-.81 2.29-1.26-.01.04-.02.08-.02.12-.01.24.09.45.27.63.22.21.43.42.64.63.18.18.36.35.53.51zm25.9 36.26c-.16.39-.32.79-.49 1.21-.15.39-.31.79-.47 1.2l-.01.05c0 .01-.01.02-.02 0 0-.01-.01-.02-.01-.04v-.13c0-.08-.01-.16-.01-.24-.03-.64-.06-1.21-.09-1.68-.08-.95.02-1.47-.05-1.5.05.02.14-.16.35-.42.1-.13.24-.29.42-.39.09-.05.18-.08.25-.06.07.01.13.06.19.16.13.2.21.53.22.85.03.28-.12.58-.28.99zm9.18-18.05c-.13.41-.26.84-.39 1.26-.27.88-.52 1.76-.77 2.67-.72 2.68-1.35 5.5-1.85 8.4-.12.72-.24 1.46-.35 2.16-.01.08-.03.16-.04.23-.06.37-.13.73-.2 1.07a.656.656 0 0 0-.38-.14.78.78 0 0 0-.49.18c-.23.19-.34.4-.42.56-.16.34-.17.55-.12.56.05.02.14-.16.35-.42.1-.13.24-.29.42-.39.09-.05.18-.08.25-.06.07.01.13.06.19.16.13.2.21.53.22.85.03.3-.12.6-.28 1.01-.16.39-.32.79-.49 1.21-.15.39-.31.79-.47 1.2l-.01.05c0 .01-.01.02-.02 0 0-.01-.01-.02-.01-.04v-.13c0-.08-.01-.16-.01-.24-.03-.64-.06-1.21-.09-1.68-.08-.95.02-1.47-.05-1.5-.04-.01-.12.11-.2.37-.08.26-.14.65-.17 1.12-.01.15-.01.32-.02.49-.2.14-.42.27-.64.36-.24.09-.48.14-.72.16.13-.37.26-.72.39-1.06.07-.2.14-.38.2-.6.06-.21.09-.47.06-.67-.05-.41-.16-.77-.4-1.09-.12-.15-.32-.3-.55-.3a.78.78 0 0 0-.49.18c-.23.19-.34.4-.42.56-.16.34-.17.55-.12.56.05.02.14-.16.35-.42.1-.13.24-.29.42-.39.09-.05.18-.08.25-.06.07.01.13.06.19.16.13.2.21.53.22.85.03.3-.12.6-.28 1.01-.16.39-.32.79-.49 1.21-.15.39-.31.79-.47 1.2l-.01.05c0 .01-.01.02-.02 0 0-.01-.01-.02-.01-.04v-.13c0-.08-.01-.16-.01-.24-.03-.64-.06-1.21-.09-1.68-.08-.95.02-1.47-.05-1.5-.04-.01-.12.11-.2.37-.08.26-.14.65-.17 1.12 0 .07-.01.15-.01.23-.08-.08-.16-.16-.23-.24.03-.09.07-.18.1-.27.07-.2.14-.38.2-.6.06-.21.09-.47.06-.67-.05-.41-.16-.77-.4-1.09-.12-.15-.32-.3-.55-.3-.11 0-.2.02-.29.06.01-.26.03-.53.06-.79.02-.14.05-.27.07-.41.18-1.06.48-2.12.74-3.14.31-1.15.64-2.27.99-3.33.7-2.13 1.49-4.06 2.37-5.74.87-1.69 1.83-3.11 2.76-4.3.31-.38.6-.74.9-1.07.61-.7 1.18-1.31 1.69-1.83.12-.12.23-.23.34-.35.35.65.7 1.3 1.04 1.96-.64 1.03-1.02 2.2-1.38 3.32zm120.78 27.41c.25.25.49.52.73.79.12.14.24.28.35.42.09.11.18.22.27.34h.01v.01l-.85-.06c-.66-.04-1.28-.07-1.86-.12-.58-.06-1.11-.14-1.59-.27s-.91-.3-1.29-.49c-.75-.38-1.25-.86-1.54-1.23-.3-.37-.43-.61-.5-.59.04-.01.05-.1.05-.24 0-.14.02-.35.11-.57.09-.22.28-.42.58-.57.3-.15.72-.23 1.16-.22.45.01.91.14 1.4.4.48.25.97.61 1.48 1.02.48.41.99.87 1.49 1.38z" class="st8"/>
    <path d="M32.03 12.71c-1.13-.17-5.21-2.42-8.62.28.09-.57 1.02-1.5 1.02-1.5s-2.6 1.8-2.98 6.03c.36-.9.41-1.11.63-1.51-.33.94.09 2.19.09 2.19s.02-.31.07-.65c.04-.28.1-.58.18-.72-.09 1.23.36 1.85.36 1.85s-.49-3.01 1.52-4.66c.8-.66 1.79-.71 2.8-.76 1.52-.07 3.04.21 3.82 1.16.66.8.89 1.39.95 1.78.02.09.02.18.02.25.05-.34.11-.95.09-1.74-.03-1.24.42-1.5.68-1.72.26-.22 1.75-.89 2.09-1.52.01-.01-1.58 1.41-2.72 1.24zM31.85 16.74s.01-.02.02-.07.03-.13.03-.23c-.01.06-.02.11-.02.16l-.03.14z" class="st8"/>
    <path d="m30.85 18.91-.03.01c-.05.02-.09.04-.14.05l-.15.06-.05.02c-.01 0-.02.01-.03.01-.05.01-.09.03-.14.03a1.453 1.453 0 0 1-1.41-.52c-.02-.02-.02-.04-.04-.07a1.86 1.86 0 0 0-.1-.48v-.01c0-.02.01-.04.01-.06.01-.02.01-.03.02-.05l.01-.02.01-.02c.01-.02.02-.03.02-.04.01-.01.02-.03.03-.04.08-.11.17-.21.27-.28.1-.07.21-.12.32-.16.21-.07.41-.09.57-.09.16 0 .29 0 .38.01.09.01.13.01.13 0 .04-.01.04-.21-.07-.55-.11-.33-.33-.81-.73-1.31-.2-.25-.45-.5-.74-.74a4.43 4.43 0 0 0-2.36-.97c-.48-.04-.99.02-1.48.21s-.92.5-1.24.88c-.32.38-.53.82-.64 1.24a3.623 3.623 0 0 0-.11 1.23c.02.19.04.38.08.55.02.09.04.17.06.25.02.08.05.16.07.24.11.3.23.57.36.78.13.22.26.39.37.53.03.03.06.06.08.09l.08.08c.02.02.05.05.07.06.02.02.04.04.06.05.07.06.12.08.14.06.04-.03-.05-.2-.2-.5-.07-.15-.16-.33-.24-.55a5.58 5.58 0 0 1-.23-.75c-.02-.07-.03-.14-.04-.22v-.01l-.03-.21c-.02-.15-.03-.31-.03-.48 0-.09.01-.18.02-.28.01-.08 0-.15.02-.23.02-.17.06-.35.11-.52.11-.34.28-.68.54-.97.25-.29.58-.52.96-.66.38-.15.78-.2 1.18-.17.39.02.77.11 1.12.25.35.13.66.31.94.5.28.19.52.4.72.6.07.07.13.14.19.2.3.34.52.65.67.88.13.21.22.35.28.41-.02-.01-.04-.01-.08-.02-.09-.02-.21-.04-.38-.06-.17-.01-.38-.01-.62.06-.12.03-.24.08-.36.16s-.23.18-.33.31c-.01.02-.02.03-.04.05-.01.01-.02.03-.02.04-.15-.33-.34-.6-.52-.8-.12-.13-.24-.24-.35-.33-.1-.08-.2-.15-.28-.19-.17-.1-.27-.12-.28-.1-.01.02.07.09.2.22.06.05.12.11.19.19.1.1.21.23.32.38.19.26.39.59.5.99.05.19.08.39.06.58v.04c-.02.21-.1.4-.26.52-.15.11-.35.14-.54.12h-.03c-.21-.03-.41-.11-.59-.21-.18-.1-.34-.21-.49-.34-.14-.12-.27-.25-.37-.37-.1-.12-.19-.23-.26-.34-.07-.11-.13-.21-.18-.29-.09-.16-.14-.25-.17-.24-.02.01-.02.12.04.3.03.11.09.24.17.39a2.904 2.904 0 0 0 .57.76c.15.14.32.28.52.4.15.09.32.15.49.21.07.02.13.05.21.06.13.02.28.03.42 0a.817.817 0 0 0 .42-.18c.06-.05.12-.1.17-.16.05-.06.09-.13.12-.19.06-.12.08-.24.1-.35.21.24.51.41.85.48.2.04.42.05.64.01.05-.01.11-.02.16-.04.01 0 .03-.01.04-.01l.02-.01-.01.06-.02.08c-.01.05-.03.1-.04.15-.01.05-.03.1-.05.15l-.06.15c-.08.19-.19.38-.31.56-.13.17-.27.33-.44.46-.16.13-.34.25-.52.34-.36.18-.76.27-1.13.29-.38.02-.74-.03-1.07-.11-.16-.04-.32-.09-.47-.15-.07-.03-.14-.06-.2-.09-.07-.03-.15-.06-.21-.09a4.56 4.56 0 0 1-.67-.41c-.19-.14-.34-.27-.46-.38-.06-.05-.11-.11-.16-.15l-.06-.06-.05-.05-.03-.03c-.04-.04-.07-.06-.08-.06-.01.01.02.05.07.12.01.02.03.04.04.06.02.02.04.04.06.07a4.6 4.6 0 0 0 .59.59c.18.15.41.31.67.45.13.07.27.14.42.21.15.06.31.12.49.17.34.1.72.15 1.13.14.4-.02.83-.11 1.23-.3a2.923 2.923 0 0 0 1.05-.88c.14-.19.25-.39.34-.6.02-.05.04-.11.06-.16.02-.05.04-.11.05-.16.02-.05.03-.11.04-.16l.02-.08.02-.09.03-.15c.01-.05.02-.1.02-.15l.01-.08v-.01h-.01l-.01-.01z" class="st8"/>
    <path d="M28.87 8.56c.68-.15 1.59-.55 2.63-1.03 1.03-.47 2.25-.97 3.66-1.35.7-.19 1.45-.36 2.23-.49.77-.13 1.52-.19 2.17-.06.65.12 1.35.47 2.1.85.75.37 1.46.72 2.12 1.07 1.33.69 2.46 1.37 3.36 2.01 1.8 1.28 2.65 2.43 2.94 2.26.07-.04.08-.15.05-.34-.03-.19-.11-.45-.25-.76-.29-.63-.84-1.48-1.71-2.36-.86-.88-2.03-1.77-3.37-2.6-.67-.42-1.39-.82-2.13-1.22-.73-.39-1.59-.88-2.69-1.1-1.1-.21-2.12-.07-2.99.1-.87.18-1.69.41-2.46.68-1.53.53-2.82 1.24-3.82 1.93-.98.68-1.69 1.24-2.21 1.61-.5.38-.8.62-.76.77.05.14.45.19 1.13.03zM19.4 17.37c1.07-1.32 1.61-2.25 1.4-2.47-.22-.22-1.15.31-2.5 1.33s-3.09 2.52-5.01 4.15c-.96.82-1.88 1.58-2.72 2.27-.84.7-1.6 1.3-2.25 1.85-.65.55-1.16 1.07-1.45 1.47-.3.41-.39.7-.29.81.22.22 1.12-.23 2.62-.97.75-.37 1.66-.88 2.6-1.51.95-.63 1.95-1.38 2.94-2.23 1.99-1.67 3.59-3.39 4.66-4.7zM74.8 39.82c2.32.83 3.86.87 3.93.59.08-.32-1.27-.89-3.27-2.02-2.01-1.12-4.64-2.89-7.28-5.22-2.64-2.33-4.87-4.67-6.57-6.32-1.69-1.66-2.84-2.61-3.08-2.41-.23.2.48 1.5 1.88 3.44 1.4 1.93 3.51 4.52 6.29 6.97 2.79 2.45 5.78 4.16 8.1 4.97zM114.65 54.87c-2.49-.73-4.56-1.26-6.03-1.47-1.46-.22-2.29-.17-2.31-.03-.02.16.75.41 2.11.87 1.37.46 3.3 1.2 5.74 2.13 2.43.93 5.48 1.91 8.94 2.46 3.46.6 7.31.8 11.33.7 4.02-.11 7.8-.53 11.23-1.02 3.43-.5 6.53-1.2 9.03-2.12 2.5-.92 4.39-2.01 5.58-2.91.29-.23.55-.44.77-.62.22-.19.38-.37.52-.51.27-.29.38-.47.34-.53-.05-.06-.26 0-.6.16-.35.18-.85.43-1.48.75-1.27.64-3.16 1.46-5.61 2.15-2.44.69-5.43 1.21-8.81 1.59-3.38.37-7.12.72-11.03.82-3.91.1-7.62-.04-10.96-.5-3.36-.42-6.27-1.18-8.76-1.92z" class="st4"/>
    <path d="M48.03 78.82c-.02.14-.05.27-.07.41-.03.26-.05.53-.06.79.08-.04.18-.06.29-.06.22 0 .43.15.55.3.24.32.35.68.4 1.09.03.21 0 .46-.06.67-.06.22-.13.4-.2.6-.03.09-.07.18-.1.27.07.09.15.17.23.24 0-.08.01-.16.01-.23.02-.47.08-.87.17-1.12.08-.26.17-.38.2-.37-.04-.01-.03-.22.12-.56.08-.17.19-.37.42-.56.12-.09.28-.18.49-.18.22 0 .43.15.55.3.24.32.35.68.4 1.09.03.21 0 .46-.06.67-.06.22-.13.4-.2.6-.12.34-.26.7-.39 1.06.24-.01.48-.06.72-.16.22-.09.44-.21.64-.36.01-.17.01-.34.02-.49.02-.47.08-.87.17-1.12.08-.26.17-.38.2-.37-.04-.01-.03-.22.12-.56.08-.17.19-.37.42-.56.12-.09.28-.18.49-.18.14 0 .27.06.38.14.08-.35.15-.71.2-1.07-2 .48-4.08.45-6.05-.28zM57.48 59.41c-.5.52-1.08 1.13-1.69 1.83.36 1.49.79 2.95 1.3 4.37.13-.42.25-.84.39-1.26.36-1.12.74-2.29 1.39-3.33-.34-.66-.69-1.31-1.04-1.96l-.35.35zM109.75 111.99a54.02 54.02 0 0 1-10.67-2.53c.03 1.26.14 2.49.24 3.66l.06.72c7.1 2.58 14.88 3.48 22.56 2.84.54-1.6 1.1-3.31 1.62-5.14-.83.16-1.67.31-2.51.42-3.72.54-7.54.49-11.3.03zM108.03 138.98c.03.09.06.19.07.29.05.34-.03.67-.12.98-.08.29-.18.58-.3.89 2.12-.01 4.17-.06 6.09-.08.74-.01 1.42-.05 1.98-.2.28-.07.54-.17.76-.29.11-.06.21-.13.31-.2.1-.09.21-.17.3-.27.19-.18.32-.38.44-.59.1-.21.19-.42.23-.66.07-.37.06-.78.01-1.19-3.05.98-6.38 1.39-9.77 1.32zM102.16 138.91c.03.29.01.57-.02.87-.05.41-.17.83-.33 1.25.12.01.23.01.35.02.16-.32.32-.63.47-.91.27-.47.52-.87.78-1.23.07-.1.15-.19.23-.28-.53-.07-1.07-.16-1.6-.25.07.17.11.36.12.53zM96.99 138.27c-.01.08-.03.16-.05.25.16-.2.33-.37.52-.51.36-.26.74-.37 1.05-.4-.53-.14-1.06-.3-1.59-.46.09.34.11.72.07 1.12z" class="st9"/>
    <path d="m55.56 34.65-.15-.21c-.19-.27-.39-.53-.6-.79-.04-.05-.09-.1-.13-.15-.23-.28-.47-.55-.72-.81a.435.435 0 0 1-.06-.07c-.28-.29-.57-.57-.86-.83-.06-3.62.43-7.26 1.22-10.87.22-.68.39-1.37.48-2.07.09-.36.18-.72.27-1.07-.06-.05-.12-.09-.18-.13v-.13c-.08-.01-.13-.47-.31-1.28-.04-.16-.08-.35-.14-.54-5.97 5.1-11.92 10.24-18.04 15.16-.25.43-.52.87-.81 1.31-1.3 1.97-2.75 4.19-4.84 6.09-1.04.95-2.19 1.71-3.3 2.37-.94.56-1.84 1.07-2.72 1.56.38.13.67.43.79.7.27.53.35 1 .42 1.44.01.04.01.07.01.11.28-.22.56-.43.85-.62l1.88-1.26c2.46-1.62 4.7-3.03 6.65-4.31a127.7 127.7 0 0 0 4.93-3.35c2.62-1.85 4.14-2.83 4.29-2.76h.01c.04.06-.22.34-.75.84.12.26.24.52.37.78.64 1.27 1.46 2.5 2.31 3.73.85 1.23 1.77 2.46 2.67 3.72.91 1.26 1.79 2.55 2.68 3.85 1.76 2.61 3.46 5.31 5.1 8.09 3.28 5.56 6.31 11.46 9.03 17.65.25.56.49 1.14.74 1.71 1.85-1.7 3.91-3.15 6.14-4.31-5.69-10.5-10.33-21.73-16.57-32.53-.21-.35-.43-.69-.66-1.02zM147.7 92.5c-.77.21-1.52.39-2.25.54 1.05 1.16 2.07 2.34 3.06 3.56.13-.1.26-.2.39-.31 2.41-1.96 4.71-4.01 6.92-6.12-.22.06-.44.13-.65.19-2.68.78-5.16 1.51-7.47 2.14zM185.63 24.61c-.07-.67-.23-1.33-.34-1.99-.06-.33-.12-.66-.18-.98-.08-.32-.16-.65-.23-.97-.07-.28-.13-.56-.2-.84-.02-.08-.03-.15-.06-.22-.04-.14-.08-.31-.13-.43-.14.3-.27.6-.41.9.39 10.9-.42 21.7-7.62 30.62-4.94 6.35-9.46 12.28-14.05 18.28.96.07 2.08-.47 3.23-1.17.62-.37 1.27-.78 1.99-1.17.73-.38 1.54-.76 2.53-.89.49-.06 1.03-.05 1.54.08.52.13.99.36 1.42.63.2.14.41.29.61.48.19.19.38.38.53.59.12.15.22.31.31.47.29-.45.58-.9.86-1.35 3.35-5.39 6.03-11.01 7.84-16.72.91-2.85 1.61-5.73 2.1-8.59.47-2.86.74-5.72.78-8.52.04-2.78-.11-5.54-.52-8.21z" class="st9"/>
    <path d="M159.45 81.95c-11.29 3.12-23.35 8.52-35.04 3.78.28.66.6 1.31.97 1.93.93 1.58 2.19 3.05 3.86 3.81.96.44 2.01.62 3.05.79.02-.17 1.5-.02 4.13.12 1.31.06 2.92.11 4.75-.06.92-.08 1.88-.22 2.89-.45 1.02-.22 2.08-.53 3.2-.88 2.25-.73 4.72-1.53 7.37-2.4.66-.21 1.34-.43 2.03-.65.69-.22 1.38-.45 2.12-.66.74-.21 1.53-.41 2.37-.5.84-.1 1.74-.08 2.6.06 1.73.28 3.29.99 4.79 1.66.75.34 1.49.67 2.23.95.3.11.61.22.92.32 0-.04 0-.08.01-.13.05-.34.29-.73.68-.99.39-.27.9-.43 1.46-.47.08-.01.17 0 .25 0-.22-.12-.43-.26-.59-.42-.37-.35-.55-.76-.63-1.08-.16-.65-.09-1-.02-1.01-.07.01-.21-.3-.34-.94-.02-.16-.05-.35-.03-.57.02-.22.09-.48.28-.72.19-.24.48-.39.76-.46.28-.08.55-.12.86-.14.13-.01.26-.01.39-.01-1.22-.53-2.5-.97-3.85-1.28-3.96-1.19-7.91-.79-11.47.4zM101.94 44.1c.02-.07.05-.13.09-.18.17-.25.36-.38.51-.48.32-.19.53-.22.54-.18-.02-.03.1-.14.35-.24.25-.11.63-.21 1.1-.28.08-.01.16-.02.24-.04.03-.09.06-.19.08-.29-10.54.11-21.1.66-30.84 5.53-1.98.99-3.67 2.8-3.5 5.21.01-.01.02-.02.03-.04-.01-.04.14-.27.44-.69.32-.44.76-1.1 1.4-1.91.64-.82 1.56-1.75 2.81-2.57.62-.42 1.34-.78 2.11-1.12.78-.32 1.63-.62 2.53-.85 1.81-.47 3.84-.74 6-.91 2.17-.16 4.46-.28 6.89-.42 2.42-.14 4.97-.28 7.61-.43.55-.04 1.09-.06 1.61-.11zM21.86 45.64c-.21-.21-.42-.41-.64-.63-.18-.19-.27-.39-.27-.63 0-.04.01-.08.02-.12-.82.45-1.58.87-2.29 1.26-1.57.86-2.89 1.49-3.83 1.84-.21.08-.39.14-.55.2.07.09.14.19.22.28.28.36.53.66.76.83.23.17.38.21.72.22.32.01.77-.06 1.19-.13a16.8 16.8 0 0 0 3.62-1.01c.75-.3 1.51-.66 2.14-1.04.01 0 .01-.01.02-.01l-.58-.55c-.17-.17-.35-.34-.53-.51zM17.86 45.1c-.16 0-.33-.03-.49-.09a.887.887 0 0 1-.25-.14c-.15.1-.3.19-.45.29-4.78-5.1-8.78-10.71-12.44-16.63-.01.42.02.85.07 1.29.24 1.97 1.02 3.87 1.98 5.66s2.08 3.55 3.16 5.23c1.1 1.68 2.22 3.3 3.36 4.85.43.58.86 1.15 1.29 1.71.17-.09.37-.2.59-.31.78-.42 1.87-1.05 3.18-1.86zM29.94 37.43c1.51-1.38 2.73-2.97 3.82-4.52-4.18 3.29-8.45 6.47-12.86 9.46.03.03.05.06.08.09.15.18.22.38.21.59.78-.47 1.6-.96 2.46-1.47 1.01-.6 2.07-1.23 3.17-1.89 1.08-.65 2.15-1.37 3.12-2.26z" class="st9"/>
</svg>