<svg xmlns="http://www.w3.org/2000/svg" xml:space="preserve" id="Layer_1" x="0" y="0" style="enable-background:new 0 0 168 129" version="1.1" viewBox="0 0 168 129"><style>.st0{fill:#603813}.st3{fill:#656ae2}.st4{fill:#6595e2}</style><path d="M44.89 25.74c.3.22 2.34-2.17 5.72-5.9 1.69-1.87 3.72-4.07 6.05-6.43 1.16-1.18 2.4-2.41 3.7-3.66.06-.06.04-.04.05-.04h.02l.16.25.1.15.37.52c.28.39.56.79.84 1.19 4.59 6.34 9.58 11.42 13.46 14.75 3.89 3.33 6.59 4.99 6.8 4.73.04-.05 0-.17-.12-.34-.52-.78-2.57-2.76-5.43-5.71-2.67-2.76-6.03-6.43-9.46-10.77-.62-.78-1.24-1.59-1.87-2.42-.43-.57-.86-1.15-1.29-1.75l-.83-1.16-.47-.65c-.23-.34-.47-.68-.7-1.02-.23-.34-.46-.68-.7-1.01l-.35-.5-.09-.13-.04-.06-.06.06-.25.24c-.65.63-1.29 1.25-1.92 1.87-1.3 1.3-2.53 2.58-3.66 3.83a96.56 96.56 0 0 0-5.72 6.9c-2.64 3.53-4.14 6.08-4.32 6.84-.03.12-.03.19.01.22z" class="st0"/><path d="M148.88 18.47a59.63 59.63 0 0 1-2.33-1.93c-.44-.38-.9-.79-1.39-1.22-.12-.11-.24-.22-.37-.33l-.09-.08a.768.768 0 0 0-.07-.06l-.03-.01a.23.23 0 0 0-.09-.03l-.1.15-.04.06-.02.03-.12.14c-.37.43-.76.87-1.13 1.32-.77.9-1.56 1.86-2.36 2.84-5.75 7.06-9.59 13.45-10.25 13.11-.29.18-1.92-1.84-4.05-5.43a79.093 79.093 0 0 1-3.42-6.48c-.3-.62-.59-1.27-.88-1.93-.14-.33-.29-.67-.44-1l-.01-.03v-.01l-.01-.01-.02-.02c-.01-.02-.02 0-.02.01-.05.08.19-.28-.43.65-6.83 10.41-10.35 20.01-11.06 19.76-.41.55-8.87-5.11-17.89-13.79-1.13-1.08-2.21-2.16-3.24-3.21l-1.44-1.5-.06-.09-.04-.05c-.01-.02-.03-.04-.03-.03l-.05.05c-.04.06.01-.07-.18.33-.27.57-.53 1.12-.79 1.65-.5 1.07-.95 2.08-1.36 3-1.62 3.69-2.57 6.04-2.92 5.93-.21.26-2.91-1.4-6.8-4.73-3.87-3.33-8.87-8.41-13.46-14.75-.28-.4-.56-.8-.84-1.19l-.38-.49-.1-.15-.16-.25h-.02s.01-.01-.05.04c-1.3 1.25-2.54 2.48-3.7 3.66-2.33 2.37-4.36 4.57-6.05 6.43-3.37 3.74-5.42 6.12-5.72 5.9-.21.27-2.14-.92-4.87-3.32s-6.22-6.08-9.42-10.64c-.2-.29-.4-.57-.59-.85v-.01c0-.01 0-.01-.02-.01l-.01.01-.08.08-.16.16c-.11.11-.22.21-.32.33-.21.22-.41.44-.62.66-.2.22-.39.44-.59.66-.19.22-.37.45-.55.66a32.886 32.886 0 0 0-3.38 5.05c-.84 1.53-1.43 2.83-1.85 3.73-.43.9-.71 1.41-.89 1.36-.03.03-.27-.17-.64-.62-.38-.45-.89-1.15-1.53-2.08-.65-.93-1.43-2.09-2.39-3.42-.48-.67-1.01-1.37-1.6-2.09-.3-.36-.62-.72-.96-1.06-.16-.16-.33-.31-.5-.45-.14 14.91 4.23 29.38 11.35 42.83 1.83 3.2 5.02 5.94 7.76 9.59 1.66 2.59 3.31 5.17 5.02 7.69 3.62-1.96 9.08-1.16 12.51.58 6.27 3.17 4.94 10.03 1.07 14.94-.03.03-.05.07-.08.1 2.43 1.97 5.06 3.66 7.96 5 .33.16.65.32.98.47 1.39-3.15 4.35-5.55 8.14-5.73 6.8-.32 12.3 4.35 12.49 10.5 3.52.08 7.06-.15 10.62-.66-.59-4.54.98-10.25 4.36-13.24 2.97-2.63 10.1-1.8 12.81.78 1.58 1.5 2 3.85 2.01 6.02 0 .34-.01.68-.02 1.02 4.37-1.96 8.47-4.37 12.28-7.15-2.56-1.04-5.01-2.46-7.37-3.91-2.17-1.33-4.45-2.87-5.36-5.25-1.13-2.97-.28-7.47 1.08-10.28 4.46-9.21 21.2-1.02 24 5.83.22.53.39 1.07.52 1.62 13.17-15.42 20.77-36.1 21.67-56.54-.14-.35-.29-.7-.42-1.05-.2-.55-.49-1.05-.72-1.56-.24-.5-.48-.99-.71-1.47-.37-.65-.72-1.29-1.07-1.89-.14.26-.28.52-.41.78-.13.26-.26.52-.41.85-.68 1.49-1.18 2.79-1.56 3.84-.75 2.12-1.05 3.27-1.15 3.25-.18.18-1.04-.33-2.37-1.37zM91.85 73.01c-.51 2.17-1.08 4.43-2.53 6.13-2.19 2.56-5.87 3.24-9.23 3.2-4.54-.06-9.16-1.22-12.82-3.9-3.66-2.68-6.25-7-6.22-11.54.06-10.3 12.2-16.53 21.15-14.99 2.9.5 5.83 1.54 7.87 3.66 2.12 2.2 3.03 5.34 3.1 8.4.07 3.06-.62 6.07-1.32 9.04z" style="fill:#91d6e2"/><path d="M136.03 73.63c.6 2.48.41 5.13-.12 7.65-.46 2.16-1.35 4.49-3.34 5.45-1.12.54-2.43.55-3.66.41-1.99-.22-3.9-.77-5.75-1.52a68.144 68.144 0 0 1-12.28 7.15v.01c-.12 3.31-.97 6.6-2.49 9.55-.66 1.29-1.47 2.54-2.59 3.46-2.31 1.91-5.78 2.11-8.47.8-2.69-1.31-4.6-3.98-5.34-6.88-.12-.48-.21-.99-.28-1.5-3.56.51-7.1.75-10.62.66.04 1.31-.15 2.69-.64 4.1-.41 1.21-.94 2.41-1.79 3.37-1.74 1.99-4.58 2.67-7.23 2.58-4.56-.15-9.18-2.46-11.04-6.81-1.15-2.68-1.01-5.58.06-8.02-.33-.15-.65-.31-.98-.47-2.91-1.34-5.54-3.04-7.96-5-1.09 1.35-2.57 2.58-4.3 2.56-.72-.01-1.41-.24-2.07-.52-.09-.04-.18-.08-.26-.12-4.19-1.93-7.53-5.63-9.03-9.99-.91-2.66-1.11-5.27 1.36-7.05.25-.18.52-.34.8-.49-1.71-2.52-3.37-5.1-5.02-7.69-2.74-3.65-5.94-6.39-7.76-9.59-7.12-13.45-11.49-27.92-11.35-42.83-.2-.16-.4-.31-.61-.41-.1-.06-.19-.08-.27-.11-.08-.01-.16-.03-.27-.02-.21 0-.41.05-.62.13-.4.18-.78.51-1.1.94-.65.86-1.12 1.99-1.51 3.19-.39 1.21-.71 2.51-.98 3.89-.14.7-.28 1.41-.42 2.13-.13.71-.3 1.44-.41 2.18-1.02 5.93-1.17 12.86-.04 20.36.56 3.75 1.46 7.63 2.67 11.59s2.72 8.01 4.53 12.11c1.79 4.1 3.87 8.25 6.14 12.46 1.14 2.1 2.32 4.22 3.55 6.36 1.23 2.14 2.48 4.29 3.84 6.38 1.36 2.09 2.83 4.14 4.5 6.02 1.66 1.89 3.55 3.59 5.62 5.15 4.13 3.11 8.91 5.63 13.84 7.94a96.59 96.59 0 0 0 15.64 5.55c5.44 1.41 11.1 2.29 16.85 2.62 5.75.29 11.47-.03 16.99-.96 5.51-.98 10.84-2.56 15.84-4.66 4.99-2.13 9.64-4.8 13.84-7.87l.79-.57.76-.61c.51-.4 1.01-.81 1.51-1.21.99-.83 1.93-1.7 2.88-2.54.45-.45.9-.9 1.35-1.34.44-.45.91-.88 1.32-1.35.42-.47.84-.93 1.26-1.4l.63-.7.59-.73c1.59-1.91 3.03-3.91 4.35-5.95 1.29-2.06 2.51-4.13 3.55-6.25.56-1.04 1.02-2.13 1.52-3.18.45-1.08.94-2.13 1.35-3.21.21-.54.42-1.07.63-1.6.19-.54.39-1.07.58-1.61.4-1.06.73-2.14 1.08-3.2 1.35-4.26 2.38-8.46 3.22-12.53.84-4.08 1.48-8.02 1.89-11.8.42-3.78.6-7.4.57-10.82-.04-3.42-.27-6.64-.77-9.61-.49-2.97-1.12-5.71-1.97-8.14-.25-.85-.57-1.64-.88-2.41-.91 20.42-8.5 41.1-21.68 56.52z" style="fill:#63a6e2"/><path d="M21.51 22.59c.18.04.46-.46.89-1.36.43-.9 1.01-2.2 1.85-3.73.84-1.53 1.94-3.28 3.38-5.05.18-.22.37-.44.55-.66.19-.22.39-.44.59-.66.2-.22.41-.43.62-.66.1-.11.21-.22.32-.33l.16-.16.08-.08c.01-.01.01 0 .01-.01.02 0 .02 0 .02.01v.01c.2.28.39.57.59.85 3.2 4.56 6.69 8.24 9.42 10.64 2.73 2.41 4.66 3.59 4.89 3.33-.04-.03-.04-.11-.01-.23-.48-1.27-6.47-7.05-12.19-15.24-.18-.26-.38-.53-.57-.8-.38-.55-.75-1.1-1.13-1.64-.18-.28-.37-.55-.55-.82-.02-.06-.06.02-.08.03l-.09.08-.18.17-.36.34c-.47.45-.95.88-1.39 1.34l-.42.44c-.12.12-.23.24-.34.37-.22.25-.44.49-.65.74-.2.25-.41.5-.61.75-.19.25-.38.5-.56.75-1.45 2-2.48 3.99-3.15 5.72-.68 1.73-1.02 3.19-1.16 4.22-.09.63-.1 1.09-.06 1.36.1.16.15.26.13.28z" class="st0"/><path d="M161.97 27.39c-.57-3.03-1.29-5.83-2.23-8.3-.41-1.26-.97-2.4-1.44-3.51-.22-.56-.53-1.07-.79-1.58-.27-.51-.53-1-.78-1.48-.73-1.16-1.43-2.3-2.05-3.24-.28.59-.55 1.14-.79 1.68a36.921 36.921 0 0 0-1.99 5.48c-.43 1.58-.61 2.63-.66 3.11.05.14.06.24.01.29.1.02.4-1.13 1.15-3.25a44 44 0 0 1 1.56-3.84c.15-.33.28-.59.41-.85.13-.26.27-.52.41-.78.35.61.71 1.24 1.07 1.89.23.48.47.97.71 1.47.23.51.52 1.01.72 1.56l.42 1.05c.31.77.63 1.56.88 2.41.85 2.43 1.48 5.17 1.97 8.14.5 2.97.73 6.19.77 9.61.04 3.42-.15 7.04-.57 10.82-.42 3.78-1.06 7.72-1.89 11.8-.84 4.07-1.87 8.28-3.22 12.53-.35 1.06-.68 2.13-1.08 3.2-.19.53-.39 1.07-.58 1.61-.21.53-.42 1.07-.63 1.6-.41 1.08-.9 2.13-1.35 3.21-.51 1.05-.97 2.14-1.52 3.18-1.04 2.13-2.26 4.19-3.55 6.25-1.32 2.04-2.75 4.04-4.35 5.95l-.58.71-.63.7c-.42.46-.84.93-1.26 1.4-.41.48-.88.9-1.32 1.35-.45.45-.9.89-1.35 1.34-.95.85-1.89 1.72-2.88 2.54l-1.51 1.21-.76.61-.79.57c-4.2 3.08-8.85 5.75-13.84 7.87-5 2.1-10.32 3.68-15.84 4.66-5.52.93-11.24 1.25-16.99.96-5.75-.34-11.41-1.21-16.85-2.62a96.59 96.59 0 0 1-15.64-5.55c-4.93-2.31-9.7-4.83-13.84-7.94-2.07-1.55-3.96-3.26-5.62-5.15-1.67-1.89-3.14-3.93-4.5-6.02-1.36-2.1-2.61-4.24-3.84-6.38-1.23-2.13-2.41-4.25-3.55-6.36-2.27-4.21-4.35-8.35-6.14-12.46-1.81-4.09-3.32-8.14-4.53-12.11-1.21-3.96-2.11-7.84-2.67-11.59-1.13-7.5-.98-14.43.04-20.36.11-.74.28-1.46.41-2.18.14-.72.28-1.43.42-2.13.28-1.37.59-2.68.98-3.89.39-1.2.86-2.33 1.51-3.19.32-.43.7-.76 1.1-.94.2-.08.41-.14.62-.13.11-.01.19.01.27.02.09.03.18.06.27.11.21.1.41.25.61.41.17.14.34.3.5.45.34.34.66.7.96 1.06.6.72 1.12 1.42 1.6 2.09.96 1.33 1.74 2.49 2.39 3.42.65.93 1.16 1.63 1.53 2.08.37.45.61.64.64.62.02-.02-.03-.12-.14-.29-.07-.12-.17-.27-.29-.48-.3-.5-.74-1.24-1.31-2.2-.58-.97-1.29-2.18-2.19-3.57-.45-.7-.96-1.44-1.55-2.21-.3-.38-.61-.78-.97-1.16-.37-.38-.76-.78-1.32-1.09-.13-.08-.3-.14-.47-.21-.19-.05-.38-.08-.54-.07-.34-.01-.69.06-1.02.18-.65.26-1.17.73-1.57 1.23-.82 1.03-1.34 2.23-1.8 3.49-.45 1.26-.81 2.6-1.13 4-.14.7-.3 1.4-.45 2.12-.15.73-.34 1.47-.47 2.23-1.19 6.05-1.48 13.17-.43 20.87.52 3.85 1.38 7.84 2.57 11.9 1.18 4.06 2.68 8.21 4.47 12.39 1.78 4.19 3.85 8.41 6.11 12.68 1.13 2.13 2.31 4.28 3.53 6.44 1.22 2.16 2.47 4.35 3.86 6.52 1.39 2.17 2.91 4.32 4.68 6.34 1.76 2.02 3.78 3.87 5.95 5.51 4.36 3.3 9.22 5.89 14.27 8.27a97.916 97.916 0 0 0 16.05 5.74c5.59 1.46 11.42 2.37 17.36 2.71 5.94.3 11.84-.04 17.56-1.01a76.077 76.077 0 0 0 16.39-4.87c5.16-2.22 9.97-5 14.31-8.22l.82-.6.79-.64c.52-.42 1.04-.84 1.56-1.27 1.02-.86 2-1.77 2.98-2.66.47-.47.93-.94 1.4-1.4.46-.47.94-.92 1.37-1.42.44-.49.87-.97 1.3-1.46l.65-.73.61-.76c1.65-2 3.12-4.09 4.47-6.21 1.32-2.14 2.56-4.29 3.62-6.49.56-1.08 1.03-2.2 1.54-3.29.45-1.11.95-2.2 1.35-3.3l.63-1.65c.19-.55.39-1.1.58-1.65.4-1.09.72-2.19 1.07-3.28 1.34-4.36 2.33-8.64 3.13-12.78.8-4.14 1.39-8.15 1.76-12 .7-7.68.52-14.76-.62-20.84z" class="st0"/><path d="M130.48 32.47c.66.34 4.5-6.04 10.25-13.11.8-.99 1.59-1.94 2.36-2.84.38-.46.77-.89 1.13-1.32l.12-.14.02-.03.04-.06.1-.15c.02.01.05.02.09.03l.03.01c-.01-.01.05.04.07.06l.09.08c.12.11.25.22.37.33.49.43.95.83 1.39 1.22.88.76 1.67 1.41 2.33 1.93 1.34 1.04 2.2 1.55 2.38 1.37.05-.05.04-.15-.01-.29-.14-.39-.62-1.1-1.39-2.07-.53-.66-1.19-1.44-1.95-2.31-.39-.43-.8-.89-1.23-1.37l-.33-.36-.19-.21-.33-.34c-.45-.46-.91-.94-1.38-1.42-.65.67-1.32 1.37-2.01 2.08-.4.42-.82.85-1.23 1.31-.83.9-1.65 1.87-2.48 2.88-2.95 3.64-5.2 7.27-6.58 10-.96 1.89-1.53 3.34-1.69 4.12.1.34.12.55.03.6z" class="st0"/><path d="M110.14 37.99c.71.25 4.23-9.35 11.06-19.76.62-.93.37-.57.43-.65 0-.01 0-.03.02-.01l.02.02.01.01v.01l.01.03c.15.34.29.67.44 1 .29.66.59 1.3.88 1.93 1.18 2.5 2.35 4.69 3.42 6.48 2.13 3.59 3.76 5.6 4.05 5.43.09-.05.07-.26-.03-.61-.27-.94-1.17-2.92-2.4-5.66-.84-1.87-1.83-4.1-2.86-6.6-.26-.63-.52-1.27-.78-1.92-.38-.97-.77-1.97-1.17-2.98-.27-.68-.54-1.36-.82-2.05l-.1-.26-.05-.13-.03-.07c-.01-.01-.03.03-.04.04l-.32.46c-.21.31-.43.62-.65.93-.43.62-.87 1.25-1.31 1.89-.29.44-.58.87-.87 1.31-3.5 5.36-5.93 10.64-7.35 14.57-1.14 3.17-1.66 5.44-1.66 6.26.1.16.14.27.1.33z" class="st0"/><path d="M90.25 18.68c-.36-.35-.72-.7-1.06-1.04l-1.4-1.4-.68-.68-.33-.33c-.01-.01-.03-.05-.04-.02l-.03.06-.05.11-.1.22c-.27.59-.53 1.17-.79 1.75-.13.28-.25.57-.38.85l-.16.36-.09.23c-.25.6-.47 1.18-.69 1.75-.43 1.14-.79 2.2-1.1 3.19-.98 3.15-1.38 5.41-1.33 6.23.12.17.16.29.12.34.36.1 1.3-2.24 2.92-5.93.41-.92.86-1.93 1.36-3 .25-.53.52-1.09.79-1.65.19-.4.14-.27.18-.33l.05-.05c0-.01.02 0 .03.03l.04.05.06.09 1.44 1.5c1.03 1.05 2.11 2.13 3.24 3.21 9.02 8.68 17.49 14.34 17.89 13.79.04-.06.01-.17-.1-.34-.96-1.53-7.98-7.58-16.01-15.31-.55-.53-1.08-1.05-1.61-1.56-.55-.53-1.09-1.06-1.63-1.57-.19-.2-.36-.37-.54-.55z" class="st0"/><path d="M38.02 72.99c-.28.15-.54.31-.8.49-2.48 1.78-2.28 4.39-1.36 7.05 1.49 4.36 4.84 8.06 9.03 9.99.09.04.17.08.26.12.66.29 1.35.51 2.07.52 1.73.02 3.21-1.21 4.3-2.56-5.24-4.24-9.52-9.74-13.5-15.61z" class="st3"/><path d="M51.52 88.6c.03-.03.05-.06.08-.1 3.87-4.92 5.2-11.77-1.07-14.94-3.43-1.73-8.89-2.54-12.51-.58 3.98 5.88 8.26 11.38 13.5 15.62zM90.07 55.57c-2.04-2.12-4.97-3.16-7.87-3.66-8.95-1.55-21.1 4.69-21.16 14.98-.03 4.54 2.56 8.86 6.22 11.54 3.66 2.68 8.28 3.83 12.82 3.9 3.37.05 7.04-.64 9.23-3.2 1.45-1.7 2.02-3.96 2.53-6.13.7-2.97 1.39-5.99 1.32-9.04-.06-3.04-.97-6.18-3.09-8.39z" class="st4"/><path d="M60.4 102.1c1.86 4.35 6.48 6.66 11.04 6.81 2.64.09 5.48-.6 7.23-2.58.84-.96 1.37-2.16 1.79-3.37.48-1.41.68-2.79.64-4.1-7.05-.17-13.98-1.63-20.63-4.77a10.039 10.039 0 0 0-.07 8.01z" class="st3"/><path d="M68.61 88.36c-3.8.18-6.76 2.57-8.14 5.73 6.65 3.15 13.58 4.6 20.63 4.77-.2-6.16-5.69-10.82-12.49-10.5z" class="st4"/><path d="M97.33 106.57c2.69 1.31 6.16 1.11 8.47-.8 1.12-.92 1.93-2.17 2.59-3.46 1.52-2.95 2.36-6.23 2.49-9.55a66.13 66.13 0 0 1-13.95 4.49c-1.74.37-3.48.68-5.22.93.07.52.15 1.02.28 1.5.75 2.92 2.65 5.58 5.34 6.89z" class="st3"/><path d="M110.88 92.77c.01-.34.03-.68.02-1.02-.02-2.18-.44-4.52-2.01-6.02-2.71-2.58-9.84-3.41-12.81-.78-3.38 2.99-4.95 8.7-4.36 13.24 1.74-.25 3.48-.56 5.22-.93 4.9-1 9.56-2.52 13.94-4.49zM136.03 73.63c-.13-.55-.3-1.09-.52-1.62-2.8-6.85-19.54-15.04-24-5.83-1.36 2.8-2.21 7.31-1.08 10.28.91 2.38 3.19 3.92 5.36 5.25 2.36 1.45 4.81 2.87 7.37 3.91 4.75-3.46 9.05-7.5 12.87-11.99z" class="st4"/><path d="M123.17 85.62c1.85.75 3.76 1.3 5.75 1.52 1.24.14 2.54.13 3.66-.41 1.99-.96 2.88-3.29 3.34-5.45.53-2.51.72-5.17.12-7.65-3.83 4.49-8.13 8.53-12.87 11.99z" class="st3"/></svg>