<svg xmlns="http://www.w3.org/2000/svg" xml:space="preserve" id="Layer_1" x="0" y="0" style="enable-background:new 0 0 154 83" version="1.1" viewBox="0 0 154 83"><style>.st1{fill:#603813}</style><path d="M112.05 45.28c.69.79 1.69 1.98 2.87 3.66 1.18 1.68 2.55 3.83 3.94 6.52.7 1.34 1.39 2.82 2.07 4.44.15.37.3.74.46 1.11.1.24.19.49.29.74.16.42.31.83.44 1.23.68-2.4 1.42-5.02 2.21-7.82 1.12-3.9 2.31-8.06 3.57-12.47l.39-1.33c0-.09.07 0 .11.01l.13.08.27.16.54.33c.64.39 1.28.79 1.92 1.18.86.53 1.73 1.09 2.59 1.67 1.74 1.15 3.5 2.38 5.26 3.69 2.16 1.61 4.34 3.35 6.52 5.22-1.85-4.1-3.99-8.18-6.53-12.12-.88-1.43-1.86-2.79-2.82-4.19-1.02-1.35-2.01-2.74-3.11-4.05-1.06-1.35-2.21-2.62-3.35-3.92-1.19-1.25-2.36-2.53-3.63-3.72-1.23-1.23-2.55-2.36-3.86-3.53-1.35-1.1-2.7-2.23-4.13-3.26-2.84-2.08-5.8-4.04-8.95-5.69a76.292 76.292 0 0 0-9.8-4.37c-3.39-1.22-6.9-2.16-10.47-2.86-4.94-.95-9.91-1.37-14.81-1.25-1.22.07-2.45.09-3.66.2l-1.82.18-.91.08-.9.13c-1.2.18-2.39.33-3.58.57-1.18.23-2.36.48-3.53.76-4.67 1.13-9.2 2.67-13.57 4.42-4.37 1.75-8.57 3.67-12.38 6.09-1.9 1.21-3.71 2.53-5.37 4.02-.85.71-1.63 1.52-2.43 2.29-.75.83-1.54 1.6-2.24 2.47-2.89 3.36-5.31 7.07-7.48 10.78-2.16 3.72-4.04 7.49-5.8 11.15-.87 1.84-1.73 3.64-2.56 5.41-.84 1.78-1.69 3.49-2.43 5.17-.74 1.67-1.37 3.33-1.74 4.97-.37 1.64-.47 3.27-.29 4.84.03.39.11.78.18 1.16l.12.57.16.56.15.54c.03.11.05.16.07.24.05.15.11.31.16.46 0 .03.02.02.04 0l.05-.03.11-.07.22-.13.22-.13.11-.07.22-.15c.59-.4 1.18-.78 1.74-1.18 4.54-3.18 8.26-6.33 11.32-8.86 3.06-2.54 5.45-4.51 7.11-5.78 1.66-1.27 2.57-1.87 2.62-1.79.34-.09 1.16 2.53 2.24 6.94.54 2.21 1.14 4.86 1.79 7.86.31 1.5.65 3.08.99 4.73.08.41.17.83.25 1.25.04.21.09.42.13.63l.02.08.01.04v.01l.01.01c.02.02.03.03.03.02.01-.03.02-.04.02-.05.45-.6.9-1.2 1.36-1.81C45 60.06 53.64 49.77 54.23 50.34c.21-.12 1.19 1.53 2.77 4.56.79 1.52 1.72 3.38 2.78 5.54.53 1.08 1.09 2.24 1.68 3.46.07.15.15.31.22.46l.1.21.03.06.13.21c.08.13.15.25.21.33.05-.22.11-.45.16-.68-.03.06.11-.35.19-.6.09-.28.18-.56.28-.84.19-.56.38-1.13.57-1.7.78-2.29 1.65-4.67 2.59-7.12.24-.61.48-1.23.72-1.85.12-.31.25-.62.37-.93.18-.45.37-.9.55-1.36l.38-.92.19-.46.1-.23c.04-.06.04-.21.13-.14.56.21 1.13.42 1.7.63.4.15.79.29 1.19.44.29.11.59.22.88.34 2.35.9 4.75 1.91 7.16 3.01 5.86 2.67 11.27 5.67 16.02 8.71 1.18.75 2.35 1.54 3.42 2.26.48.33.94.52 1.14.52.1 0 .14-.01.21-.05.07-.05.19-.18.31-.38.13-.21.26-.48.41-.78.15-.3.29-.59.44-.89.29-.59.57-1.16.85-1.72.56-1.12 1.09-2.2 1.61-3.23 4.11-8.22 6.83-13.21 7.18-13.01.05-.05.44.32 1.15 1.09zm-2.26-23.04c-1.21-.62-2.48-1.26-3.81-1.93-1.33-.66-2.72-1.35-4.15-2.07-1.42-.69-2.86-1.35-4.34-1.87-1.47-.52-3.01-.89-4.68-1.15-1.66-.27-3.42-.43-5.26-.57-1.85-.14-3.75-.28-5.66-.39-3.83-.22-7.78-.33-11.77-.13-3.99.2-7.85.71-11.47 1.67-3.63.93-7.06 2.25-10.22 3.8-.78.41-1.57.77-2.33 1.21-.75.43-1.49.86-2.22 1.28-1.42.92-2.83 1.79-4.11 2.77-1.32.91-2.51 1.95-3.69 2.88-.57.5-1.12 1-1.66 1.48-.27.24-.55.47-.8.72-.26.25-.51.5-.76.74-4.03 3.9-6.9 7.6-8.84 10.21-1 1.29-1.73 2.34-2.29 3.01-.56.67-.94.99-1.11.88-.17-.1-.11-.61.15-1.51.26-.89.71-2.18 1.47-3.73 1.46-3.13 4-7.48 7.97-12.08.25-.29.5-.58.75-.88.25-.29.53-.57.8-.86.55-.57 1.11-1.15 1.68-1.75 1.2-1.11 2.42-2.32 3.79-3.41 1.33-1.15 2.8-2.2 4.31-3.28.78-.5 1.56-1.01 2.36-1.53.8-.51 1.65-.95 2.49-1.44 3.4-1.85 7.14-3.43 11.14-4.55 4-1.14 8.22-1.74 12.49-1.95 4.28-.21 8.41-.04 12.35.27 1.97.16 3.89.35 5.77.55 1.89.21 3.78.45 5.64.84 1.86.38 3.71.92 5.43 1.64 1.71.72 3.26 1.55 4.7 2.38 1.44.83 2.77 1.64 4.07 2.43 1.3.79 2.54 1.57 3.72 2.34 4.74 3.05 8.34 6.11 10.54 8.55 2.21 2.45 3.08 4.15 2.82 4.43-.29.33-1.67-.74-4.18-2.49-2.55-1.73-6.25-4.05-11.09-6.51z" style="fill:#91d6e2"/><path d="M54.23 50.36c-.59-.57-9.23 9.72-19.3 22.98-.46.61-.91 1.21-1.36 1.81 0 .01 0 .02-.02.05-.01 0-.02 0-.03-.02l-.01-.01v-.01l-.01-.04-.02-.08c-.04-.21-.09-.42-.13-.63-.09-.42-.17-.84-.25-1.25-.35-1.65-.68-3.23-.99-4.73-.64-2.99-1.25-5.65-1.79-7.86-1.08-4.41-1.9-7.03-2.24-6.94.01.02-.02.09-.11.19-.17.7.04 3.3.55 7.22.3 2.27.69 4.98 1.18 8.02.25 1.52.51 3.11.78 4.78l.21 1.26c.1.59.21 1.19.32 1.79.31 1.71.63 3.46.95 5.23 1.66-2.18 3.37-4.42 5.12-6.71 9.26-12.2 16.5-22.67 17.13-24.71-.03-.2-.03-.32.02-.34z" class="st1"/><path d="M60.2 66.39c.21.5.43 1 .65 1.5.01.02.02.05.03.08.51 1.17 1.03 2.37 1.56 3.6.63-1.84 1.29-3.73 1.96-5.67.12-.34.25-.69.37-1.03l.3-.81a448.626 448.626 0 0 1 1.79-4.7c.5-1.28 1.01-2.57 1.55-3.9.11-.27.22-.54.33-.8.14-.33.27-.67.41-1.01.13-.3.25-.61.38-.91l.19-.46.02-.04c.01-.02.02-.02.04 0 .44.17.88.35 1.33.53.02.01.05.02.07.03.84.34 1.7.69 2.55 1.05 1.48.62 2.96 1.26 4.46 1.94 5.2 2.37 10.05 4.93 14.44 7.51.47.27.94.55 1.39.82 1.19.72 2.31 1.41 3.47 2.13.63.36 1.36.81 2.43.79.53-.02 1.11-.24 1.55-.61.05-.04.09-.09.14-.13.36-.34.6-.71.78-1.03.21-.38.35-.72.48-1.02.13-.31.27-.61.4-.91.26-.6.52-1.19.77-1.77.5-1.16.98-2.27 1.44-3.32.44-1.02.85-1.99 1.25-2.92.44-1.03.85-2.01 1.22-2.92 1.88-4.53 2.95-7.41 2.96-8.06-.04-.08-.05-.13-.03-.14-.35-.2-3.07 4.78-7.18 13.01-.51 1.03-1.05 2.11-1.61 3.23-.28.56-.56 1.14-.85 1.72-.14.29-.29.59-.44.89-.15.31-.28.58-.41.78-.12.21-.24.34-.31.38-.07.05-.11.05-.21.05-.2.01-.66-.18-1.14-.52-1.07-.72-2.24-1.51-3.42-2.26-4.75-3.04-10.16-6.04-16.02-8.71-2.41-1.1-4.81-2.1-7.16-3.01-.29-.11-.59-.23-.88-.34-.4-.15-.79-.29-1.19-.44-.57-.21-1.14-.42-1.7-.63-.09-.07-.09.08-.13.14l-.1.23-.19.46-.38.92c-.19.45-.37.91-.55 1.36-.12.31-.25.62-.37.93-.24.62-.48 1.24-.72 1.85-.94 2.45-1.81 4.83-2.59 7.12-.19.57-.39 1.14-.57 1.7-.09.28-.18.56-.28.84-.08.25-.22.65-.19.6-.06.23-.11.46-.16.68-.06-.08-.13-.2-.21-.33l-.13-.21-.03-.06-.1-.21c-.07-.15-.15-.31-.22-.46-.59-1.22-1.15-2.37-1.68-3.46-1.06-2.16-2-4.02-2.78-5.54-1.58-3.04-2.56-4.69-2.77-4.56-.05.03-.05.15-.02.34.11.69.68 2.38 1.64 4.9.62 1.62 1.39 3.58 2.3 5.83.46 1.12.95 2.32 1.47 3.58.03.07.06.13.08.2.13.32.27.64.41.96.05.07.08.15.11.22z" class="st1"/><path d="M28.08 53.63c-.05-.08-.97.51-2.62 1.79-1.66 1.27-4.05 3.23-7.11 5.78-3.06 2.53-6.78 5.67-11.32 8.86-.56.41-1.15.78-1.74 1.18l-.22.15-.11.07-.22.13-.22.13-.11.07-.05.03c-.02.01-.04.03-.04 0-.05-.15-.1-.3-.16-.46-.03-.08-.05-.13-.07-.24l-.15-.54-.16-.58-.11-.57c-.07-.38-.16-.77-.18-1.16-.18-1.57-.09-3.2.29-4.84.37-1.64 1-3.3 1.74-4.97.74-1.68 1.59-3.38 2.43-5.17.84-1.77 1.69-3.57 2.56-5.41 1.77-3.66 3.64-7.43 5.8-11.15 2.16-3.72 4.59-7.42 7.48-10.78.7-.87 1.48-1.64 2.24-2.47.8-.76 1.57-1.58 2.43-2.29 1.66-1.49 3.47-2.81 5.37-4.02 3.81-2.42 8.01-4.34 12.38-6.09 4.37-1.75 8.9-3.29 13.57-4.42 1.17-.28 2.34-.53 3.53-.76 1.18-.23 2.38-.39 3.58-.57l.9-.13.91-.09 1.82-.18c1.21-.11 2.44-.13 3.66-.2 4.9-.12 9.87.3 14.81 1.25 3.58.7 7.08 1.64 10.47 2.86 3.39 1.23 6.66 2.7 9.8 4.37 3.15 1.66 6.12 3.61 8.95 5.69 1.43 1.03 2.78 2.16 4.13 3.26 1.31 1.17 2.63 2.3 3.86 3.53 1.27 1.18 2.44 2.47 3.63 3.72 1.14 1.3 2.29 2.57 3.35 3.92 1.1 1.31 2.09 2.7 3.11 4.05.96 1.4 1.94 2.76 2.82 4.19 2.54 3.93 4.69 8.01 6.53 12.12a114.58 114.58 0 0 0-6.52-5.22 120.972 120.972 0 0 0-7.85-5.36c-.65-.4-1.29-.79-1.92-1.18l-.54-.33-.27-.16-.13-.08c-.04-.01-.1-.1-.11-.01-.13.45-.26.89-.39 1.33-1.26 4.41-2.46 8.57-3.57 12.47-.79 2.8-1.53 5.42-2.21 7.82-.13-.4-.28-.81-.44-1.23-.1-.25-.2-.49-.29-.74-.15-.38-.31-.75-.46-1.11a62.45 62.45 0 0 0-2.07-4.44 56.006 56.006 0 0 0-3.94-6.52 42.957 42.957 0 0 0-2.87-3.66c-.7-.77-1.1-1.14-1.15-1.09-.02.02 0 .07.03.14.23.48 1.49 2.16 3.34 5.15 1.06 1.74 2.3 3.93 3.56 6.63a71.94 71.94 0 0 1 1.87 4.42c.02.06.05.12.07.18.05.14.11.28.16.43l.12.31.15.44c.21.61.42 1.18.63 1.85.22.7.44 1.42.67 2.14.22.73.44 1.47.67 2.22.28-.89.56-1.81.85-2.74 1.86-6.03 3.98-12.9 6.33-20.51l.07-.22c.05.02.12.08.18.11.2.13.41.27.61.41.84.54 1.68 1.11 2.52 1.69 1.69 1.16 3.4 2.41 5.11 3.73 3.43 2.64 6.89 5.61 10.32 8.92l3.9 3.77-2.01-5.37c-2.27-6.07-5.15-12.21-8.85-18.05-.89-1.48-1.9-2.9-2.88-4.35-1.04-1.4-2.05-2.85-3.18-4.21-1.08-1.4-2.26-2.72-3.43-4.07-1.22-1.3-2.42-2.63-3.72-3.87-1.27-1.28-2.63-2.46-3.98-3.68-1.39-1.15-2.79-2.33-4.26-3.4-2.93-2.17-6-4.21-9.26-5.94a77.617 77.617 0 0 0-10.14-4.55 72.425 72.425 0 0 0-10.85-2.97 70.738 70.738 0 0 0-15.36-1.28c-1.27.08-2.54.1-3.8.22-.63.06-1.26.13-1.88.19l-.94.09-.93.15c-1.24.19-2.49.36-3.71.6-1.23.24-2.44.51-3.65.81-4.82 1.19-9.46 2.8-13.9 4.61-4.44 1.82-8.78 3.83-12.78 6.42-1.99 1.3-3.92 2.72-5.67 4.33-.9.77-1.72 1.64-2.56 2.46-.79.88-1.61 1.72-2.34 2.63-3.01 3.58-5.48 7.46-7.66 11.31-2.18 3.86-4.03 7.71-5.76 11.43-.85 1.86-1.68 3.69-2.49 5.48-.8 1.76-1.63 3.49-2.38 5.26-.74 1.76-1.4 3.58-1.79 5.47-.39 1.88-.47 3.83-.22 5.64.04.46.14.89.24 1.33l.14.65.19.62.19.63c.07.28.21.6.32.89.23.59.45 1.18.68 1.76l.02.05c.01.02.01.04.03.02l.09-.06.18-.12.36-.24.71-.47.7-.46.35-.23.23-.16c.57-.42 1.17-.82 1.73-1.25 4.55-3.39 8.19-6.7 11.15-9.38l6.78-6.25c1.17-1.09 1.91-1.79 2.18-2.11.09-.11.13-.18.12-.2z" class="st1"/><path d="M125.02 31.26c.26-.29-.62-1.99-2.82-4.43-2.19-2.45-5.8-5.51-10.54-8.55-1.18-.77-2.42-1.55-3.72-2.34-1.3-.79-2.63-1.6-4.07-2.43-1.44-.83-2.99-1.66-4.7-2.38-1.72-.72-3.57-1.26-5.43-1.64-1.86-.38-3.75-.63-5.64-.84-1.88-.2-3.8-.4-5.77-.55-3.94-.31-8.07-.48-12.35-.27-4.27.22-8.49.81-12.49 1.95-4 1.11-7.74 2.69-11.14 4.55-.84.49-1.69.93-2.49 1.44-.8.52-1.59 1.03-2.36 1.53-1.51 1.09-2.98 2.13-4.31 3.28-1.37 1.09-2.59 2.3-3.79 3.41-.57.6-1.13 1.18-1.68 1.75-.27.29-.55.56-.8.86-.25.3-.5.59-.75.88-3.97 4.6-6.51 8.95-7.97 12.08-.76 1.55-1.21 2.84-1.47 3.73-.26.89-.31 1.4-.15 1.51.17.1.55-.21 1.11-.88s1.29-1.73 2.29-3.01c1.94-2.61 4.81-6.31 8.84-10.21.25-.25.5-.49.76-.74s.53-.48.8-.72c.54-.48 1.1-.98 1.66-1.48 1.18-.93 2.37-1.97 3.69-2.88 1.28-.98 2.69-1.85 4.11-2.77.73-.42 1.47-.85 2.22-1.28.75-.43 1.54-.79 2.33-1.21 3.16-1.55 6.59-2.88 10.22-3.8 3.62-.95 7.48-1.46 11.47-1.67 4-.2 7.94-.08 11.77.13 1.92.11 3.81.25 5.66.39 1.84.14 3.6.3 5.26.57 1.67.27 3.21.63 4.68 1.15 1.48.52 2.93 1.18 4.34 1.87 1.44.71 2.82 1.4 4.15 2.07 1.34.67 2.61 1.31 3.81 1.93 4.84 2.46 8.54 4.78 11.05 6.53 2.55 1.73 3.93 2.8 4.22 2.47z" style="fill:#d5fff1"/></svg>