<svg xmlns="http://www.w3.org/2000/svg" xml:space="preserve" id="Layer_1" x="0" y="0" style="enable-background:new 0 0 192 206" version="1.1" viewBox="0 0 192 206">
    <style>.st0{fill:none}.st1{fill:#dd2d27}.st3{fill:#fcca8d}.st5{fill:#8eba3f}.st6{fill:#ea5b27}.st7{fill:#fff}.st9{fill:#ffa87f}.st10{fill:#ff3d7f}.st11{fill:#603813}</style>
    <path d="M34.39 150.29c-.27.2-.54.41-.81.62.27-.21.54-.41.81-.62zM35.43 149.53l.33-.24-.33.24zM32.39 151.87c-.21.18-.43.35-.64.53.21-.18.43-.35.64-.53z" class="st0"/>
    <path d="M72.58 184.05c.11.24.23.47.48.65.26.18.53.22 1.04.25 1.05.05 2.38.09 3.88.08.76-.01 1.56-.03 2.42-.07.43-.03.87-.05 1.32-.08l.68-.06.17-.02.05-.01.1-.02c.07-.02.13-.04.18-.1.04-.06.05-.13.05-.2l.01-.11.06-.37.12-.76c.15-1.03.3-2.1.42-3.22l.06-.62c-.29-.14-.59-.27-.88-.41-3.52-1.69-6.76-3.53-9.88-5.34-.02.79-.03 1.54-.04 2.24-.02.83-.04 1.59-.07 2.29 1.72 1.35 3.39 2.9 5.95 2.9h-6.11c-.12 1.39-.27 2.15-.45 2.16.14.01.24.33.44.82zM119.52 184.05c.11.24.23.47.48.65.26.18.53.22 1.04.25 1.05.05 2.38.09 3.88.08.76-.01 1.56-.03 2.42-.07.43-.03.87-.05 1.32-.08l.68-.06.17-.02.05-.01.1-.02c.07-.02.13-.04.18-.1.04-.06.05-.13.05-.2l.01-.11.06-.37.12-.76c.15-1.03.3-2.1.42-3.22 0-.02 0-.05.01-.07-1.18.42-2.37.82-3.57 1.19a80.03 80.03 0 0 1-7.72 1.95c-.04.1-.09.17-.14.17.14-.01.25.31.44.8z" class="st1"/>
    <path d="M130.08 169.19c-12.7 5.15-25.82 7.09-39.33 2.27-4.15-1.47-8.13-3.31-12.01-5.36a98.278 98.278 0 0 0-6.8 3.99c.2.12.4.23.61.35 3.63 2.03 7.4 4.16 11.4 6.01 2 .92 4.07 1.77 6.21 2.47 2.15.67 4.37 1.24 6.66 1.63 2.29.37 4.64.63 7.04.71 2.4.07 4.83.01 7.29-.2 2.46-.23 4.93-.59 7.41-1.09 2.48-.51 4.96-1.16 7.43-1.93 2.38-.74 4.74-1.62 7.1-2.59-.02-1.19-.03-2.35-.03-3.47 0-.41.01-.82.01-1.22-.99-.53-1.99-1.05-2.99-1.57z" style="fill:#fc9c45"/>
    <path d="M90.75 171.46c13.51 4.83 26.63 2.88 39.33-2.27-5.17-2.69-10.4-5.29-15.86-7.36-12.56-4.86-24.57-1.54-35.49 4.27 3.89 2.05 7.87 3.89 12.02 5.36z" class="st3"/>
    <path d="M41.79 145.48c-1.56.89-3.08 1.82-4.57 2.81 1.49-.99 3.01-1.93 4.57-2.81zM53.9 151.17c-1.93-1.14-3.88-2.25-5.85-3.3-.34.17-.74.37-1.23.61-1.34.66-3.24 1.59-5.56 2.9 1.1.7 2.26 1.41 3.44 2.16 2.12 1.33 4.36 2.73 6.71 4.2 0-.16-.01-.33-.01-.49-.03-2.1.26-3.28.49-3.26.06-1.81.76-2.53 2.01-2.82zM41.88 145.43c.2-.12.41-.23.61-.34 0 0-.01 0-.01-.01-.2.11-.4.23-.6.35zM78.74 166.1c-2.8-1.48-5.55-3.08-8.28-4.72.05 1.08.09 2.24.11 3.49.03 1.39.04 2.87.02 4.45.44.25.89.51 1.34.76 2.22-1.4 4.49-2.75 6.81-3.98zM166.94 149.69l.08-.08c.02-.02.02-.02 0 0l-.08.08-.04.04c-2.08 2.63-2.67 3.69-5.72 3.88-.87.05-1.44-.31-1.99-.75-2.35 1.56-4.73 3.11-7.12 4.62.07.73.12 1.52.17 2.39.08 1.47.15 3.14.19 5 0 .12 0 .24.01.36.86-.54 1.72-1.08 2.58-1.63 2.37-1.53 4.73-3.12 7.1-4.74 2.34-1.61 4.61-3.26 6.44-5.24 1.82-1.95 3.18-4.28 3.63-6.72.19-.95.2-1.9.08-2.83l-1.9 1.27c-.4.49-.67.78-.8.87-.86 1.17-1.74 2.34-2.67 3.52l.04-.04zM130.08 169.19c1 .52 2 1.04 2.99 1.57.01-.99.03-1.94.04-2.86-1 .44-2.01.88-3.03 1.29z" class="st1"/>
    <path d="M92.06 114.93c-2.73-1.14-5.27-1.79-7.79.35a6.653 6.653 0 0 0-2.31 5.1c.02.92.23 1.83.44 2.73.05.21.1.43.24.61.15.21.39.33.62.44.97.48 1.97.96 3.05 1.07 1.09.11 2.19-.17 3.25-.45l5.24-1.38c.26-.07.53-.14.72-.32.36-.34.35-.9.31-1.39-.23-2.98-.81-5.52-3.77-6.76zM120.2 139.24c1.63-4.63-2.52-10.04-7.46-9.64-5.2.43-7.78 6.6-9.2 10.83-.23.69-.44 1.45-.19 2.14.3.8 1.13 1.25 1.9 1.61 2.92 1.34 6 2.33 9.16 2.96.33.06.68.12.97-.04.22-.12.37-.34.5-.56.93-1.47 1.85-2.94 2.78-4.42.59-.91 1.18-1.85 1.54-2.88zM88.39 133.91c-4.46-1.13-8.97-3.45-11.87 1.65-1.18 2.07-1.28 4.72-.26 6.87 1.17 2.47 3.66 4.14 6.3 4.87 2.64.73 5.43.62 8.15.33.3-.03.63-.08.84-.29.23-.23.26-.59.28-.92l.42-7.3c.07-1.2.11-2.5-.58-3.48-.73-1.04-2.06-1.42-3.28-1.73zM141.47 131.34c-2.31-.09-6.94-.94-8.94.58-2.19 1.67-2.02 6.15-1.55 8.5.29 1.46.95 3.01 2.3 3.63.77.35 1.64.36 2.48.35 1.3-.01 2.61-.01 3.91-.02.44 0 .89-.01 1.3-.17.52-.21.91-.66 1.28-1.09 1.89-2.21 3.87-4.65 4.03-7.56.05-.94-.11-1.93-.68-2.68-.91-1.2-2.6-1.48-4.13-1.54zM106.42 121.95c-.02.34-.02.71.19.97.18.23.49.32.78.38 1.65.3 3.32-.29 5-.45 2.65-.26 5.31.57 7.96.34.43-.04.88-.11 1.24-.37.54-.39.74-1.1.86-1.75.22-1.21.33-2.44.31-3.68-.01-.45-.03-.91-.2-1.32-.22-.52-.65-.92-1.12-1.23-.92-.61-2.01-.91-3.1-1.14-2.7-.57-7.55-1.51-10.1.11-2.38 1.52-1.7 5.75-1.82 8.14z" class="st3"/>
    <path d="M54.54 181.11c.02.47.05.94.07 1.42l.09 1.93c.02.66.1 1.17.18 1.27.02.03.01.01.03.02.03.02.18.08.41.12.22.04.56.08.89.12.33.04.66.07.99.11 1.32.13 2.67.22 4.03.26 1.36.04 2.71.03 4.04-.03.48-.02.3-.01.34-.01h.01c-.05.28.15-.72.27-1.29.31-1.57.57-3.11.8-4.63-4.27.97-8.54 1.78-12.15.71zM136.5 183.2l.06 1.25c.02.66.1 1.17.18 1.27.02.03.01.01.03.02.03.02.18.08.41.12.22.04.56.08.89.12.33.04.66.07.99.11 1.32.13 2.67.22 4.03.26 1.36.04 2.71.03 4.04-.03.48-.02.3-.01.34-.01h.01c-.05.28.15-.72.27-1.29.13-.63.25-1.27.36-1.89-3.97.55-7.96.86-11.61.07zM43.69 144.43c-.4.22-.79.44-1.19.66-.2.11-.41.22-.61.34-.03.02-.06.04-.09.05-1.56.89-3.08 1.82-4.57 2.81-.28.19-.57.38-.85.57-.2.14-.4.29-.6.43l-.33.24c-.35.25-.7.51-1.04.77-.27.2-.54.41-.81.62-.4.31-.8.63-1.19.96-.21.18-.43.35-.64.53-.6.52-1.2 1.05-1.79 1.6-4.04 4.45-6.99 10.25-7.22 16.32l.07-.2.09-.24c.02-.06.05-.13.08-.22.21-.67.46-1.36.72-2.02a33.31 33.31 0 0 1 1.79-3.75c1.31-2.35 2.83-4.39 4.43-6.13.81-.86 1.63-1.66 2.47-2.37.85-.71 1.7-1.34 2.54-1.89 1.67-1.12 3.27-1.98 4.73-2.72 2.92-1.46 5.28-2.37 6.89-2.93.27-.09.52-.17.75-.25-1.32-.91-2.54-1.98-3.63-3.18z" class="st1"/>
    <path d="M23.94 192.52C11.19 186.15 7.4 171.5 8.66 157.71c-.3.59-.59 1.19-.86 1.8-1.22 2.79-1.97 5.88-1.98 9.12-.02 3.24.68 6.6 1.86 9.92.33.82.65 1.65.98 2.49.37.82.77 1.64 1.16 2.47a33.6 33.6 0 0 0 2.73 4.77c1.04 1.5 2.21 2.91 3.6 4.13 1.38 1.23 2.93 2.32 4.63 3.31.84.5 1.71.98 2.6 1.45.45.25.88.45 1.3.66.43.21.88.39 1.32.58 1.81.71 3.73 1.24 5.71 1.62 7.98 1.55 16.59.58 25.16-1.35.78-.18 1.56-.36 2.34-.55-12.1 1.44-24.26.06-35.27-5.61z" class="st1"/>
    <path d="m166.94 149.69-.04.04" style="fill:none;stroke:#8eba3f;stroke-width:0;stroke-linecap:round;stroke-linejoin:round"/>
    <path d="M149.39 140.68c9.45-11.04 16.52-23.74 19.61-38.44 4.65-22.84.38-46.56-9.25-67.41-1.88 1.46-4.1 2.23-6.51 2.75 1.98 3.75 3.92 7.48 5.47 11.33 1.63 4.06 2.63 8.11 3.51 12.07.84 3.96 1.43 7.85 1.87 11.6.43 3.76.73 7.39.93 10.89.2 3.48.38 6.86.29 10.1a73.1 73.1 0 0 1-.77 9.2 89.83 89.83 0 0 1-.73 4.17c-.27 1.33-.56 2.66-.96 3.91-.77 2.5-1.79 4.68-2.72 6.65-.47.98-.92 1.91-1.35 2.8-.1.22-.21.44-.31.66l-.15.32c-.03.08-.14.29-.19.38-.24.41-.47.8-.7 1.19-3.64 6.13-5.9 9.39-6.12 9.27-1.35 2.71-2.35 5.54-1.92 8.56z" class="st1"/>
    <path d="m166.94 149.69.08-.08-.08.08zM167.02 149.61c.01-.02.02-.02 0 0z" class="st5"/>
    <path d="M72.69 179.85c-.03.46-.06.86-.09 1.23h6.11c-2.55 0-4.23-1.55-5.95-2.9-.02.61-.04 1.17-.07 1.67zM171.37 144.07c-.4.52-.73.94-1 1.27.64-.43 1.27-.85 1.9-1.27-.04-.32-.1-.64-.18-.95-.25.34-.5.66-.72.95z" class="st6"/>
    <path d="M185.62 88.03c-.43-7.4-1.63-15.27-3.31-23.48-.44-2.05-.89-4.12-1.34-6.22-.48-2.06-1.05-4.14-1.66-6.24-1.23-4.19-2.65-8.43-4.29-12.66-1.64-4.23-3.49-8.46-5.7-12.53-.74-1.36-1.53-2.7-2.36-4 .01-.05.02-.11.02-.16-.27-.05-.15-1.63-1.06-4.16-.46-1.27-1.19-2.77-2.24-4.4-1.06-1.64-2.38-3.39-4.18-4.95-.89-.78-1.9-1.51-3.01-2.14-1.11-.63-2.35-1.14-3.67-1.54-2.65-.8-5.68-1.07-8.9-.95-1.61.06-3.27.2-4.98.4-1.7.2-3.48.42-5.19.73-1.72.3-3.37.73-4.95 1.41a19.408 19.408 0 0 0-8.1 6.46c-1.02 1.41-1.81 2.86-1.97 4.21-.18 1.36.19 2.99.71 4.49.53 1.51 1.26 2.95 2.07 4.33.72 1.21 1.52 2.4 2.31 3.51.96-.12 2.31-.23 3.78-.48 2.82-.44 5.06-1.22 5.28-.79.1.2-.35.68-1.24 1.19-.89.51-2.22 1.02-3.77 1.28-1.12.18-2.19.2-3.07.12.69.86 1.4 1.62 2.18 2.27.11.09.22.18.33.26 10.89.65 22.61-3.45 32.7-7.57.72 2.4 1.05 4.9.97 7.38-.38.39-.77.73-1.18 1.04 9.63 20.86 13.9 44.58 9.25 67.41-3.09 14.69-10.17 27.4-19.61 38.44-.42-3.01.57-5.85 1.92-8.55-.1-.07.34-.95 1.19-2.62.25-.49.55-1.06.87-1.68-7.96-4.27-15.83-8.11-23.5-11.53-9.24-4.11-17.9-8.21-26.46-10.35-4.26-1.11-8.47-1.63-12.47-1.48-3.9.14-7.5 1.73-10.9 3.35-6.87 3.32-13.01 6.45-18.27 9.43-5.26 2.97-9.68 5.76-13.25 8.09a329 329 0 0 0-6.71 4.51c-.14.05-.28.11-.42.16-.39.21-.96.5-1.7.87-1.54.77-3.82 1.87-6.65 3.46-2.82 1.6-6.24 3.65-9.81 6.51-.89.72-1.79 1.48-2.67 2.31-.89.82-1.78 1.75-2.71 2.65-.92.93-1.81 1.92-2.75 2.92-.44.52-.89 1.05-1.35 1.58-.23.27-.46.54-.68.81-.21.28-.43.56-.64.85a35.073 35.073 0 0 0-3.74 5.75c-1.26 13.79 2.53 28.44 15.28 34.82 11.01 5.66 23.17 7.04 35.28 5.62 1.66-.4 3.32-.83 4.96-1.27-2.33.07-4.65.12-6.93.14-6.54.03-12.94-.2-19.01-1.49-3.02-.67-5.98-1.58-8.65-3.09-2.64-1.51-5.04-3.65-6.38-6.36-.31-.68-.66-1.34-.84-2.05-.11-.35-.21-.7-.32-1.05-.08-.35-.13-.71-.19-1.06-.06-.35-.13-.7-.17-1.05-.03-.34-.07-.67-.09-1.01-.05-.67-.07-1.35-.07-2.02.01-1.34.13-2.66.36-3.93.11-.63.25-1.25.4-1.86l.24-.9c.07-.23.13-.45.2-.68-.05-.03-.01-.02-.02-.04l.02-.06.02-.05c.23-6.07 3.18-11.87 7.22-16.32.59-.55 1.18-1.08 1.79-1.6.21-.18.43-.36.64-.53.39-.33.79-.65 1.19-.96.27-.21.54-.42.81-.62l1.04-.77.33-.24c.2-.14.4-.28.61-.42.28-.19.57-.38.85-.57 1.49-.99 3.01-1.93 4.57-2.81.03-.02.06-.04.09-.05.2-.11.4-.23.6-.35 0 0 .01 0 .01.01.4-.22.79-.44 1.19-.66 1.1 1.2 2.31 2.27 3.63 3.17 1.11-.35 1.72-.47 1.78-.4h.01c.03.08-.34.29-1.05.66 1.97 1.06 3.92 2.16 5.85 3.3-1.25.29-1.95 1.01-2 2.82.24.01.4 1.13.82 3.13.2 1.01.47 2.24.64 3.77.08.78.12 1.54.18 2.38.05.83.11 1.7.17 2.62.11 1.84.21 3.85.31 6.01.12 2.16.26 4.47.4 6.9l.12 2.31c3.61 1.07 7.89.26 12.14-.71.14-.95.27-1.88.39-2.8.59-4.77.88-9.12 1.11-12.79.23-3.64.42-6.6.56-8.67.1-2.01-.03-3.14.2-3.2.21-.07.8 1.01 1.12 3.13.16 1.05.25 2.34.33 3.8.03.48.05.98.07 1.51 2.73 1.65 5.48 3.24 8.28 4.72 10.92-5.81 22.93-9.13 35.49-4.27 5.46 2.07 10.68 4.67 15.86 7.36 1.02-.41 2.03-.85 3.04-1.3.01-.67.03-1.33.04-1.97.03-.92.05-1.8.07-2.64.03-.82.06-1.59.08-2.32.02-1.41-.05-2.67-.05-3.72-.03-2.1.26-3.28.49-3.26.24.01.4 1.13.82 3.13.2 1.01.47 2.24.64 3.77.08.78.12 1.54.18 2.38.05.83.11 1.7.17 2.62.11 1.84.21 3.85.31 6.01.12 2.16.26 4.47.4 6.9.06 1.21.13 2.46.19 3.73l.03.67c3.64.79 7.63.48 11.59-.07.34-1.89.6-3.74.83-5.53.59-4.77.88-9.12 1.11-12.79.23-3.64.42-6.6.56-8.67.1-2.01-.03-3.14.2-3.2.21-.07.8 1.01 1.12 3.13.07.43.12.91.17 1.41 2.39-1.51 4.76-3.06 7.12-4.62.54.44 1.11.8 1.99.75 3.04-.18 3.64-1.25 5.72-3.88.93-1.18 1.81-2.35 2.67-3.52-.04.03-.07.04-.09.03-.1-.07.36-.95 1.32-2.57.48-.81 1.08-1.8 1.8-2.96.66-1.2 1.43-2.57 2.29-4.12 1.71-3.11 3.57-7.02 5.43-11.67 1.72-4.7 3.39-10.17 4.4-16.38.93-6.19 1.24-13.11.8-20.51zm-62.27-66.82c-.89.37-1.76.31-1.94-.12-.18-.43.4-1.08 1.3-1.45.89-.37 1.76-.31 1.94.12.18.43-.4 1.08-1.3 1.45zm27.54-1.94c-.52.05-1.3 0-2.32 1.59-.64 1.01-1.24 1.73-1.58 2.12-.09.13-.17.22-.23.27-1.42 1.99-3.47 4.02-6.03 4.27-5.23.51-8-5.86-8-5.86s-.19-3 1.12-5.46c-.34.38-.63.75-.63.75s.53-1.94 1.74-2.84c-.62.32-.86.54-2.08 1.38 4.07-5.02 8.88-5.1 8.88-5.1s-1.98.39-2.57 1.03c6.59-.51 9.85 5.78 11.13 6.95 1.29 1.18 4.5.73 4.5.73-.97.53-3.42.12-3.93.17zm7.12-6.34c-.15.18-.68.01-1.51-.42-.83-.41-1.95-1.1-3.35-1.75-1.39-.67-3.05-1.2-5.04-1.43-1.98-.25-4.26-.19-6.72-.06-2.5.14-4.85.2-6.83.5-1.99.28-3.69.85-5.09 1.48-2.8 1.28-4.35 2.63-4.72 2.29-.17-.15-.01-.7.55-1.5s1.53-1.86 2.98-2.87c1.44-1.01 3.41-1.96 5.71-2.47 2.29-.52 4.74-.67 7.24-.81 2.54-.13 5.08-.11 7.4.37 2.31.45 4.35 1.41 5.76 2.45 1.43 1.04 2.37 2.05 2.96 2.8.58.74.81 1.24.66 1.42zM39.38 135.67a92.68 92.68 0 0 1-4.45 2.56c-.87.45-1.7.94-2.58 1.42-.44.24-.89.48-1.34.73-.42.26-.85.54-1.28.84-1.72 1.22-3.41 2.53-4.92 3.66-1.51 1.14-2.88 2.18-4.04 3.06-1.15.87-2.18 1.54-2.75 1.94-.58.41-.85.76-1.09.72-.11-.03-.2-.17-.22-.44-.02-.27.06-.66.27-1.09.2-.43.53-.9.89-1.36.36-.47.79-.99 1.28-1.55.98-1.11 2.21-2.38 3.66-3.7.72-.66 1.5-1.33 2.33-2.01.82-.67 1.69-1.36 2.65-2.03.48-.34.97-.66 1.48-.95.5-.27 1-.51 1.49-.76.98-.48 1.94-.95 2.81-1.32 1.77-.76 3.39-1.41 4.77-1.9 2.76-.99 4.57-1.39 4.77-.97.2.44-1.24 1.61-3.73 3.15zm31.46-5.57c-.38.99-1.15 1.77-1.9 2.53l-.72.72c-.64.64-1.27 1.28-1.91 1.92-.81.81-1.65 1.64-2.71 2.05-1.04.4-2.2.36-3.32.32-.79-.03-1.59-.06-2.38-.1h-.01c-.39-.02-.78-.03-1.17-.05-.56-.02-1.15-.05-1.64-.33-.92-.51-1.23-1.74-.97-2.76.26-1.02.96-1.86 1.67-2.63 1.49-1.61 3.14-3.03 4.87-4.39.17-.13.34-.27.51-.42 1.22-1.06 2.52-2.47 3.93-3.1 3.4-1.49 7 3 5.75 6.24zm21.41 9.01-.42 7.3c-.02.33-.05.68-.28.92-.21.21-.54.26-.84.29-2.72.29-5.51.4-8.15-.33-2.64-.73-5.13-2.39-6.3-4.87-1.02-2.15-.92-4.8.26-6.87 2.9-5.1 7.41-2.78 11.87-1.65 1.23.31 2.55.69 3.28 1.72.69.99.65 2.3.58 3.49zm3.28-16.03c-.2.18-.47.26-.72.32l-5.24 1.38c-1.06.28-2.16.56-3.25.45-1.08-.11-2.08-.6-3.05-1.07-.23-.11-.47-.23-.62-.44-.13-.18-.19-.4-.24-.61-.21-.9-.42-1.81-.44-2.73-.03-1.93.84-3.85 2.31-5.1 2.52-2.14 5.06-1.49 7.79-.35 2.96 1.24 3.54 3.78 3.78 6.76.03.49.04 1.06-.32 1.39zm4.61-14.14c-1.29-.05-2.73-.1-4.18-.13-2.91-.04-6.09 0-9.11.85-1.52.43-2.86 1.01-4.13 1.83-.65.4-1.29.85-1.96 1.29-.67.44-1.37.87-2.05 1.24-2.72 1.51-5.24 2.51-7.31 3.39-2.07.86-3.71 1.58-4.86 2.08-1.15.5-1.83.75-1.97.55-.13-.18.28-.8 1.26-1.67.97-.87 2.52-1.95 4.5-3.11 1.96-1.17 4.36-2.39 6.78-3.93.61-.39 1.2-.79 1.82-1.23.62-.44 1.27-.93 1.99-1.41.71-.49 1.53-.94 2.37-1.34.85-.38 1.73-.72 2.64-.96 1.82-.52 3.62-.73 5.33-.81 1.71-.08 3.33-.01 4.86.11 1.53.12 2.93.28 4.28.45 1.36.18 2.7.45 3.88.93 1.19.49 2.07 1.08 2.82 1.54.75.47 1.36.84 1.89 1.09 1.04.51 1.73.59 1.76.85.04.21-.71.61-2.12.43-.7-.09-1.5-.33-2.37-.66-.86-.32-1.79-.72-2.74-.96-.97-.26-2.1-.37-3.38-.42zm20.06 30.3c-.36 1.03-.95 1.96-1.53 2.88-.93 1.47-1.85 2.94-2.78 4.42-.13.21-.28.44-.5.56-.29.16-.65.1-.97.04-3.15-.62-6.24-1.62-9.16-2.96-.78-.35-1.61-.81-1.9-1.61-.25-.68-.04-1.45.19-2.14 1.42-4.23 4-10.41 9.2-10.83 4.93-.4 9.08 5.01 7.45 9.64zm2.25-18.17c-.12.66-.32 1.36-.86 1.75-.35.25-.81.33-1.24.37-2.65.24-5.31-.59-7.96-.34-1.67.16-3.34.75-5 .45-.29-.05-.6-.15-.78-.38-.21-.26-.2-.63-.19-.97.12-2.39-.57-6.62 1.81-8.14 2.54-1.62 7.4-.68 10.1-.11 1.08.23 2.17.53 3.1 1.14.47.31.91.71 1.12 1.23.17.41.2.87.2 1.32.03 1.23-.08 2.47-.3 3.68zm1.59-4.09c.33-.87 5.74.39 12 3.02 6.26 2.62 10.95 5.6 10.56 6.45-.39.86-5.67-.72-11.87-3.32-6.21-2.61-11.03-5.27-10.69-6.15zm9.25 27.08c-1.35-.63-2.01-2.17-2.3-3.63-.47-2.35-.64-6.82 1.55-8.5 1.99-1.52 6.63-.67 8.94-.58 1.52.06 3.22.34 4.14 1.56.57.75.73 1.74.68 2.68-.16 2.91-2.14 5.35-4.03 7.56-.37.43-.75.88-1.28 1.09-.41.16-.86.17-1.3.17-1.3.01-2.61.01-3.91.02-.85-.02-1.73-.02-2.49-.37z" class="st6"/>
    <path d="M146.82 23.16c.05-.05.1-.11.16-.18.06-.09.12-.2.18-.33-.11.17-.22.34-.34.51z" class="st6"/>
    <path d="M152.65 37.71c.2-.04.39-.09.59-.13 2.42-.53 4.63-1.29 6.51-2.75.41-.32.81-.66 1.18-1.04.08-2.48-.25-4.98-.97-7.38-10.09 4.11-21.81 8.21-32.7 7.57 1.99 1.61 4.27 2.64 6.44 3.29 2.3.68 4.5.96 6.45 1.06 1.95.1 3.66.04 5.05-.02 2.78-.14 4.36-.25 4.41-.01.1-.02.2-.04.29-.05.93-.18 1.84-.36 2.75-.54z" class="st1"/>
    <path d="M146.82 23.16c.12-.17.23-.34.34-.51.25-.54.46-1.48.3-3.05-.18-1.86-1.87-3.51-3.85-4.7-1.31-.79-2.61-1.57-4.18-1.42-3.94.38-5.87 4.61-5.87 4.61s-.05-1.17 1.11-2.65c-.23.11-.56.44-.85.76-1.31 2.46-1.12 5.46-1.12 5.46s2.77 6.37 8 5.86c2.57-.25 4.61-2.27 6.03-4.27-.06.05-.09.07-.09.07s.08-.05.18-.16zm-1.87-1.05c-.15.52-.31.77-.38.75-.01.01-.07-.03-.17-.11s-.26-.2-.47-.33a3.14 3.14 0 0 0-.8-.37c-.16-.04-.34-.07-.53-.07a2 2 0 0 0-.58.12c-.02.01-.05.02-.07.03-.02.01-.04.02-.07.04l-.03.02-.03.02c-.02.01-.04.03-.06.04-.03.02-.05.05-.07.08-.07.23-.16.46-.29.69 0 .04-.01.07-.01.11.01.48.25 1 .64 1.39.2.19.43.36.7.47.07.03.13.05.2.08.02.01.03.01.05.02l.08.02c.07.02.16.03.23.05.07.02.15.03.22.05l.06.01.03.01h.01l-.01.01-.08.09c-.05.06-.11.11-.16.17-.05.06-.1.11-.16.17l-.1.1-.1.09c-.06.06-.13.11-.19.17-.06.06-.13.11-.2.16l-.21.15c-.29.19-.61.35-.94.48-.34.12-.68.2-1.03.24-.35.04-.69.03-1.03-.02-.67-.09-1.28-.34-1.81-.66-.52-.32-.96-.72-1.31-1.13-.18-.2-.33-.42-.47-.62-.14-.21-.26-.42-.36-.62-.21-.41-.36-.8-.46-1.14-.1-.35-.17-.65-.21-.9-.02-.13-.03-.24-.04-.33 0-.05-.01-.09-.01-.13v-.11c0-.13 0-.2.01-.2-.04 0-.08-.06-.13-.2-.01-.03-.02-.07-.04-.11-.01-.04-.02-.09-.03-.14l-.03-.16c-.01-.06-.02-.12-.02-.19-.03-.27-.05-.6-.03-.98.02-.38.08-.82.21-1.29.03-.12.07-.24.11-.36.04-.12.08-.25.14-.37.1-.25.22-.5.36-.76.14-.26.31-.51.51-.76.19-.25.42-.49.67-.71a4.89 4.89 0 0 1 1.86-1.03c.72-.21 1.53-.24 2.3-.06.78.18 1.48.54 2.05 1 .58.45 1.03.99 1.39 1.55.36.56.61 1.13.78 1.68.17.55.27 1.08.31 1.57.07.93-.05 1.71-.2 2.23z" class="st7"/>
    <path d="M137.74 20.18c.03-.25.07-.47.12-.64.08-.28.17-.42.21-.41.04.01.02.17 0 .45-.01.14-.02.31-.01.51 1.21-.29 2.3-.37 3.26-.33-.03-.15-.06-.29-.08-.4-.06-.27-.11-.43-.07-.44.03-.02.14.11.27.37a4 4 0 0 1 .19.48c1.17.08 2.11.33 2.81.59-.02-.14-.04-.27-.07-.41-.08-.43-.21-.9-.4-1.37-.19-.47-.44-.96-.76-1.42-.33-.46-.72-.9-1.21-1.26-.48-.36-1.03-.64-1.64-.78-.6-.14-1.21-.12-1.77.03s-1.07.42-1.5.77c-.21.17-.41.36-.58.56-.08.09-.14.19-.22.28a1.093 1.093 0 0 1 1.41.95c.06.61-.38 1.14-.99 1.2a1.09 1.09 0 0 1-1.18-.89c0 .01-.01.01-.01.02-.04.11-.09.21-.13.31-.16.41-.26.79-.34 1.14-.08.35-.12.65-.16.9-.07.5-.1.79-.18.8.01 0 .03.05.05.14 1.06-.54 2.05-.91 2.98-1.15z" style="fill:#d13d7f"/>
    <path d="M139.99 23.46c.29-.01.56-.19.77-.43.01-.01.02-.03.03-.05-.5.02-1.03.07-1.58.17.22.19.5.33.78.31z" class="st9"/>
    <path d="M140.69 23.8c-.1.06-.2.11-.32.14-.11.04-.23.06-.35.07-.12.01-.24 0-.36-.03-.12-.02-.23-.06-.33-.11-.21-.09-.38-.22-.53-.36-.08-.08-.16-.16-.23-.25-.85.19-1.76.48-2.72.91.06.1.11.19.18.29.14.19.29.39.47.58.34.38.76.75 1.26 1.04.49.29 1.06.51 1.68.59.31.04.62.04.94.01.32-.04.64-.11.94-.22.31-.11.6-.26.87-.44.07-.04.13-.09.2-.14.06-.05.13-.09.19-.15l.18-.15.09-.08.07-.07s.01-.01 0-.01l-.04-.01c-.02 0-.04-.01-.06-.02a2.651 2.651 0 0 1-1.03-.64c-.37-.38-.6-.85-.67-1.34-.13.16-.26.29-.43.39z" class="st9"/>
    <path d="M138.26 21.52c.08.27.18.56.33.84.15.28.33.55.57.76.01.01.02.02.04.03.56-.1 1.09-.15 1.58-.17.18-.24.32-.51.41-.79.19-.6.22-1.19.2-1.67a5.12 5.12 0 0 0-.09-.76c-.96-.04-2.05.04-3.26.33 0 .19.01.41.05.65.05.25.09.51.17.78zM138.14 22.59c-.15-.32-.26-.65-.32-.95-.07-.31-.1-.6-.1-.86-.01-.22 0-.42.02-.6-.93.25-1.92.61-2.97 1.14 0 .02.01.03.01.06.01.03.01.07.02.11.01.04.02.08.03.13.02.09.04.2.07.32.06.24.14.53.26.87.12.33.28.7.5 1.08.05.1.12.2.19.3.96-.43 1.87-.72 2.72-.91-.18-.23-.32-.46-.43-.69zM141.63 19.77c.06.2.12.44.16.7.06.42.07.92-.02 1.46.02-.01.04-.02.07-.03l.09-.03c.23-.08.46-.12.67-.11.22.01.41.05.59.1.35.12.62.29.83.45.2.16.35.29.44.39.04.04.06.07.08.1-.03-.12-.01-.37 0-.75.01-.42 0-1-.09-1.68a9.86 9.86 0 0 0-2.82-.6z" class="st10"/>
    <path d="M136.72 18.9a1.099 1.099 0 1 0-.42-2.15c-.09.11-.18.22-.26.33-.14.21-.26.42-.37.63-.05.1-.09.2-.14.3.11.55.62.94 1.19.89z" class="st7"/>
    <path d="M36.37 148.87c-.2.14-.41.28-.61.42.21-.14.4-.29.61-.42z" class="st11"/>
    <path d="M188.43 87.89c-.32-7.59-1.44-15.62-3.06-23.95-.43-2.08-.86-4.18-1.3-6.31-.48-2.15-1.05-4.29-1.66-6.43a162.17 162.17 0 0 0-4.3-12.95c-1.66-4.33-3.54-8.69-5.84-12.95-1.15-2.13-2.41-4.24-3.86-6.27-.5-.7-1.03-1.4-1.58-2.08-.34-1.14-.85-2.4-1.54-3.72-.95-1.82-2.27-3.88-4.18-5.76-.95-.94-2.05-1.84-3.3-2.63-1.25-.8-2.66-1.45-4.15-1.97-3.01-1.05-6.38-1.44-9.83-1.4-1.73.01-3.48.13-5.25.3-1.77.18-3.54.37-5.42.67-1.86.3-3.82.78-5.7 1.57-1.87.79-3.67 1.84-5.29 3.14a22.371 22.371 0 0 0-4.24 4.46c-.58.83-1.13 1.68-1.59 2.64-.46.95-.82 2.02-.94 3.15-.13 1.12-.03 2.2.16 3.19.19.99.47 1.9.79 2.8.66 1.78 1.53 3.39 2.45 4.86a49.95 49.95 0 0 0 2.91 4.11c1.02 1.3 2.16 2.54 3.44 3.53 2.55 2 5.37 3.09 7.94 3.69 2.59.6 4.99.72 7.05.64 2.06-.08 3.81-.34 5.22-.6 2.81-.55 4.3-1.1 4.26-1.32-.05-.24-1.63-.13-4.41.01-1.4.06-3.1.12-5.05.02-1.95-.1-4.14-.38-6.45-1.06-2.17-.65-4.45-1.67-6.44-3.29-.11-.09-.22-.17-.33-.26-.78-.65-1.49-1.42-2.18-2.27.88.08 1.94.07 3.07-.12 1.54-.25 2.88-.77 3.77-1.28.89-.51 1.34-.99 1.24-1.19-.23-.43-2.47.35-5.28.79-1.47.25-2.81.36-3.78.48-.79-1.11-1.59-2.3-2.31-3.51-.81-1.37-1.54-2.81-2.07-4.33-.51-1.51-.89-3.14-.71-4.49.16-1.35.95-2.81 1.97-4.21a19.408 19.408 0 0 1 8.1-6.46c1.58-.68 3.23-1.11 4.95-1.41 1.71-.3 3.49-.52 5.19-.73 1.71-.2 3.37-.34 4.98-.4 3.22-.12 6.25.15 8.9.95 1.32.4 2.56.91 3.67 1.54 1.11.63 2.12 1.36 3.01 2.14 1.8 1.56 3.12 3.31 4.18 4.95 1.05 1.63 1.79 3.13 2.24 4.4.91 2.53.8 4.11 1.06 4.16-.01.05-.01.11-.02.16.84 1.3 1.62 2.64 2.36 4 2.21 4.08 4.06 8.31 5.7 12.53 1.64 4.23 3.06 8.47 4.29 12.66.61 2.09 1.18 4.18 1.66 6.24.45 2.1.9 4.17 1.34 6.22 1.68 8.21 2.88 16.08 3.31 23.48.44 7.4.14 14.31-.89 20.52-1.01 6.21-2.67 11.67-4.4 16.38-1.85 4.65-3.72 8.57-5.43 11.67-.86 1.55-1.63 2.93-2.29 4.12-.72 1.16-1.32 2.15-1.8 2.96-.96 1.61-1.42 2.5-1.32 2.57.01.01.05-.01.09-.03.13-.09.4-.39.8-.87.27-.34.61-.76 1-1.27.22-.29.46-.61.72-.95.08.31.14.63.18.95.12.93.11 1.88-.08 2.83-.45 2.43-1.81 4.77-3.63 6.72-1.83 1.98-4.1 3.62-6.44 5.24a302.14 302.14 0 0 1-7.1 4.74c-.86.56-1.72 1.09-2.58 1.63 0-.12 0-.24-.01-.36-.04-1.85-.11-3.53-.19-5-.05-.86-.1-1.66-.17-2.39-.05-.5-.1-.98-.17-1.41-.32-2.12-.91-3.2-1.12-3.13-.24.07-.11 1.19-.2 3.2-.13 2.07-.32 5.03-.56 8.67-.23 3.67-.52 8.02-1.11 12.79-.22 1.79-.49 3.64-.83 5.53-.11.63-.23 1.26-.36 1.89-.12.56-.32 1.56-.27 1.29h-.01c-.04 0 .14-.01-.34.01-1.33.06-2.67.07-4.04.03-1.36-.04-2.71-.13-4.03-.26-.33-.04-.66-.07-.99-.11-.33-.04-.67-.08-.89-.12-.23-.04-.38-.1-.41-.12-.02-.01 0 .01-.03-.02-.08-.11-.16-.61-.18-1.27l-.06-1.25-.03-.67c-.07-1.27-.13-2.52-.19-3.73-.14-2.43-.27-4.74-.4-6.9-.1-2.16-.2-4.18-.31-6.01-.06-.92-.11-1.79-.17-2.62-.06-.83-.11-1.59-.18-2.38-.17-1.52-.44-2.76-.64-3.77-.43-2-.58-3.11-.82-3.13-.23-.02-.52 1.16-.49 3.26 0 1.04.08 2.31.05 3.72-.03.72-.05 1.5-.08 2.32-.02.83-.05 1.71-.07 2.64-.02.63-.03 1.29-.04 1.97-.02.92-.03 1.87-.04 2.86-.01.4-.01.8-.01 1.22 0 1.12.01 2.28.03 3.47-2.35.97-4.72 1.85-7.1 2.59-2.47.77-4.95 1.42-7.43 1.93-2.48.5-4.96.86-7.41 1.09-2.46.21-4.89.27-7.29.2-2.4-.08-4.75-.34-7.04-.71-2.29-.39-4.51-.96-6.66-1.63-2.14-.7-4.21-1.55-6.21-2.47-4-1.85-7.77-3.98-11.4-6.01-.21-.12-.41-.23-.61-.35-.45-.26-.9-.51-1.34-.76.02-1.58.01-3.07-.02-4.45-.03-1.25-.07-2.41-.11-3.49-.02-.52-.05-1.03-.07-1.51-.08-1.46-.17-2.75-.33-3.8-.32-2.12-.91-3.2-1.12-3.13-.24.07-.11 1.19-.2 3.2-.13 2.07-.32 5.03-.56 8.67-.23 3.67-.52 8.02-1.11 12.79-.12.92-.25 1.85-.39 2.8-.23 1.51-.48 3.06-.8 4.63-.12.56-.32 1.56-.27 1.29h-.01c-.04 0 .14-.01-.34.01-1.33.06-2.67.07-4.04.03-1.36-.04-2.71-.13-4.03-.26-.33-.04-.66-.07-.99-.11-.33-.04-.67-.08-.89-.12-.23-.04-.38-.1-.41-.12-.02-.01 0 .01-.03-.02-.08-.11-.16-.61-.18-1.27l-.09-1.93c-.02-.48-.05-.95-.07-1.42l-.12-2.31c-.14-2.43-.27-4.74-.4-6.9-.1-2.16-.2-4.18-.31-6.01-.06-.92-.11-1.79-.17-2.62-.06-.83-.11-1.59-.18-2.38-.17-1.52-.44-2.76-.64-3.77-.43-2-.58-3.11-.82-3.13-.23-.02-.52 1.16-.49 3.26 0 .15 0 .32.01.49l-6.71-4.2c-1.19-.75-2.34-1.46-3.44-2.16 2.32-1.31 4.23-2.24 5.56-2.9.49-.24.89-.44 1.23-.61.71-.36 1.08-.58 1.05-.66h-.01c-.06-.08-.67.05-1.78.4-.23.07-.48.15-.75.25a55.54 55.54 0 0 0-6.89 2.93c-1.45.74-3.06 1.61-4.73 2.72-.84.55-1.69 1.18-2.54 1.89-.84.71-1.66 1.51-2.47 2.37-1.6 1.74-3.13 3.78-4.43 6.13a30.93 30.93 0 0 0-1.79 3.75c-.27.66-.51 1.35-.72 2.02-.03.09-.05.16-.08.22l-.09.24-.07.2-.02.05-.02.06c.01.01-.04.01.02.04-.07.23-.13.45-.2.68l-.24.9c-.15.6-.29 1.22-.4 1.86-.23 1.27-.35 2.59-.36 3.93 0 .67.02 1.34.07 2.02.02.34.06.67.09 1.01.04.34.11.7.17 1.05.06.35.12.71.19 1.06.11.35.21.7.32 1.05.18.71.53 1.37.84 2.05 1.34 2.71 3.74 4.85 6.38 6.36 2.67 1.51 5.63 2.42 8.65 3.09 6.07 1.29 12.46 1.52 19.01 1.49 2.29-.01 4.6-.07 6.93-.14-1.65.44-3.3.87-4.96 1.27-.78.19-1.56.37-2.34.55-8.57 1.93-17.18 2.9-25.16 1.35-1.98-.38-3.9-.91-5.71-1.62-.44-.19-.89-.37-1.32-.58-.43-.21-.85-.41-1.3-.66-.89-.47-1.76-.95-2.6-1.45-1.69-.99-3.25-2.08-4.63-3.31-1.39-1.22-2.56-2.63-3.6-4.13a36.291 36.291 0 0 1-2.73-4.77c-.39-.83-.8-1.65-1.16-2.47-.33-.84-.66-1.67-.98-2.49-1.19-3.32-1.89-6.68-1.86-9.92.01-3.24.76-6.33 1.98-9.12.27-.61.56-1.21.86-1.8 1.08-2.08 2.36-4 3.74-5.75.22-.28.43-.57.64-.85.23-.27.46-.54.68-.81.45-.53.9-1.06 1.35-1.58.94-1 1.83-1.99 2.75-2.92.93-.91 1.82-1.84 2.71-2.65.88-.83 1.79-1.59 2.67-2.31 3.57-2.86 6.98-4.91 9.81-6.51 2.84-1.59 5.12-2.69 6.65-3.46.74-.37 1.31-.66 1.7-.87.14-.05.28-.11.42-.16a329 329 0 0 1 6.71-4.51c3.57-2.33 7.98-5.11 13.25-8.09 5.26-2.98 11.4-6.11 18.27-9.43 3.4-1.62 7-3.21 10.9-3.35 4-.15 8.22.37 12.47 1.48 8.56 2.14 17.22 6.24 26.46 10.35 7.67 3.42 15.54 7.26 23.5 11.53-.32.62-.62 1.19-.87 1.68-.85 1.67-1.29 2.56-1.19 2.62.22.13 2.49-3.14 6.12-9.27.23-.38.46-.78.7-1.19.06-.08.16-.29.19-.38l.15-.32c.1-.22.21-.44.31-.66.43-.89.88-1.83 1.35-2.8.94-1.96 1.95-4.15 2.72-6.65.39-1.25.69-2.58.96-3.91.27-1.34.52-2.73.73-4.17.43-2.88.71-5.96.77-9.2.08-3.24-.09-6.62-.29-10.1-.21-3.49-.5-7.13-.93-10.89-.44-3.76-1.03-7.64-1.87-11.6-.88-3.96-1.88-8.01-3.51-12.07-1.55-3.86-3.5-7.58-5.47-11.33-.2.04-.39.09-.59.13-.91.18-1.82.36-2.74.53.07.13.14.27.22.4 2.09 3.88 4.11 7.66 5.68 11.45 1.56 3.75 2.59 7.71 3.49 11.53.87 3.84 1.51 7.63 2 11.31.49 3.68.84 7.27 1.11 10.72.27 3.47.51 6.76.51 9.9.01 3.14-.18 6.13-.51 8.94-.17 1.41-.36 2.77-.59 4.09-.23 1.33-.45 2.57-.78 3.75-.64 2.37-1.53 4.52-2.38 6.51-.42 1-.83 1.96-1.22 2.87-.09.23-.19.46-.28.68l-.14.34c-.06.14-.05.14-.12.26-.22.42-.43.82-.63 1.22-.5.96-.96 1.85-1.39 2.68-8.04-4.26-16-8.08-23.76-11.46-9.24-4.01-18.09-8.1-27.05-10.22-4.45-1.1-8.95-1.6-13.29-1.36-2.22.11-4.37.66-6.32 1.37-1.96.71-3.77 1.58-5.49 2.45-6.83 3.47-12.94 6.78-18.16 9.94-5.22 3.16-9.56 6.12-13.04 8.64-3.2 2.32-5.65 4.25-7.37 5.67-.29.09-.61.2-.98.32-1.64.57-4.02 1.49-7 2.92-2.96 1.44-6.54 3.37-10.36 6.18-.95.71-1.92 1.46-2.87 2.3-.97.83-1.88 1.72-2.87 2.63-.97.92-1.92 1.91-2.92 2.91-.48.53-.96 1.06-1.44 1.6-.24.27-.49.54-.73.82-.23.29-.47.58-.7.87-1.92 2.29-3.71 4.94-5.12 7.97-1.41 3.02-2.33 6.5-2.4 10.15-.09 3.65.64 7.37 1.86 10.96.34.89.67 1.78 1.01 2.68.38.88.79 1.75 1.19 2.63.81 1.76 1.76 3.5 2.89 5.2 1.14 1.69 2.47 3.33 4.05 4.74 1.57 1.42 3.31 2.65 5.1 3.73.9.54 1.8 1.06 2.72 1.55.44.25.94.5 1.44.74.49.25 1 .45 1.51.67 2.04.82 4.15 1.41 6.3 1.84 4.3.83 8.76 1.06 13.22.73 4.45-.29 8.91-1.04 13.32-2.04 7-1.58 13.64-3.67 20.15-5.31l10.96-2.76-11.27-.54c-3.59-.17-7.01-.02-10.37.09-3.36.12-6.65.25-9.87.3-6.44.09-12.66-.08-18.35-1.22-2.83-.58-5.54-1.39-7.87-2.66-2.3-1.28-4.25-2.97-5.36-5.11-.25-.55-.56-1.06-.71-1.64-.09-.28-.19-.57-.28-.85-.07-.29-.12-.59-.18-.88-.05-.29-.12-.58-.17-.88-.03-.31-.08-.61-.1-.92-.06-.61-.09-1.21-.1-1.81-.02-1.19.06-2.36.24-3.51.08-.57.2-1.14.32-1.7.07-.28.13-.56.2-.84l.11-.42c.03-.14.07-.25.12-.54-.28.96.35-1.33.75-2.36.45-1.24.98-2.42 1.56-3.54 1.15-2.24 2.52-4.2 3.95-5.9 2.62-3.11 5.64-5.08 8.23-6.65 1.3.91 2.69 1.81 4.09 2.77 2.43 1.63 5.03 3.36 7.79 5.17v.67c-.03.72-.05 1.5-.08 2.32-.02.83-.05 1.71-.07 2.64-.04 1.85-.08 3.87-.1 6.05-.01 2.17.04 4.5.08 6.94.03 1.22.05 2.47.08 3.75.02.64.03 1.29.05 1.94.04.63-.02 1.48.47 2.59.27.56.74 1.1 1.3 1.43.54.32 1.05.46 1.48.54.44.09.78.12 1.12.17l1.05.12a54.497 54.497 0 0 0 8.59.24c.2-.02 1.09-.01 1.67-.24.61-.21 1.13-.66 1.42-1.23.3-.53.4-1.4.45-1.59.06-.34.13-.67.19-1 .49-2.66.81-5.25 1.03-7.71.17-1.97.28-3.86.35-5.66.04.02.07.04.11.06.09 1.31.2 2.52.3 3.62.15 1.54.29 2.87.43 3.95.28 2.17.55 3.36.78 3.34.18-.01.34-.77.45-2.16.03-.37.06-.78.09-1.23.03-.5.05-1.06.08-1.66.03-.7.05-1.47.07-2.29.01-.7.03-1.45.04-2.24 3.12 1.81 6.36 3.66 9.88 5.34.29.14.59.27.88.41l-.06.62a84.9 84.9 0 0 1-.42 3.22c-.04.26-.08.51-.12.76l-.06.37-.01.11c0 .07-.01.14-.05.2s-.11.08-.18.1l-.1.02-.05.01-.17.02-.68.06c-.45.03-.89.06-1.32.08-.85.04-1.66.06-2.42.07-1.51.01-2.84-.03-3.88-.08-.51-.03-.78-.07-1.04-.25-.25-.18-.37-.41-.48-.65-.2-.49-.3-.81-.42-.8-.11.01-.24.3-.25.93.01.31.08.8.42 1.23.32.44 1.01.73 1.57.85 1.1.26 2.42.5 3.99.67.78.09 1.63.15 2.52.19.45.02.91.03 1.38.04h.72l.49-.01c.2-.01.41-.02.61-.06.39-.07.77-.22 1.08-.5.3-.28.49-.64.61-1.06.14-.59.28-1.2.42-1.81.22-1.01.42-2.06.61-3.15.95.39 1.92.76 2.92 1.1 2.28.74 4.63 1.38 7.05 1.82 2.43.42 4.91.72 7.44.83 2.53.1 5.09.06 7.67-.14 2.51-.21 5.03-.56 7.56-1.04.04.07.09.12.13.12.05 0 .09-.07.14-.17a80.03 80.03 0 0 0 7.72-1.95c1.19-.37 2.38-.76 3.57-1.19 0 .02 0 .05-.01.07a84.9 84.9 0 0 1-.42 3.22c-.04.26-.08.51-.12.76l-.06.37-.01.11c0 .07-.01.14-.05.2s-.11.08-.18.1l-.1.02-.05.01-.17.02-.68.06c-.45.03-.89.06-1.32.08-.85.04-1.66.06-2.42.07-1.51.01-2.84-.03-3.88-.08-.51-.03-.78-.07-1.04-.25-.25-.18-.37-.41-.48-.65-.2-.49-.3-.81-.42-.8-.11.01-.24.3-.25.93.01.31.08.8.42 1.23.32.44 1.01.73 1.57.85 1.1.26 2.42.5 3.99.67.78.09 1.63.15 2.52.19.45.02.91.03 1.38.04h.72l.49-.01c.2-.01.41-.02.61-.06.39-.07.77-.22 1.08-.5.3-.28.49-.64.61-1.06.14-.59.28-1.2.42-1.81.19-.86.36-1.76.52-2.68l.03 1.63c.02.64.03 1.29.05 1.94.04.63-.02 1.48.47 2.59.27.56.74 1.1 1.3 1.43.54.32 1.05.46 1.48.54.44.09.78.12 1.12.17l1.05.12a54.497 54.497 0 0 0 8.59.24c.2-.02 1.09-.01 1.67-.24.61-.21 1.13-.66 1.42-1.23.3-.53.4-1.4.45-1.59.06-.34.13-.67.19-1 .49-2.66.81-5.25 1.03-7.71.28-3.14.39-6.08.42-8.76 1.47-.89 2.94-1.8 4.4-2.74 2.41-1.55 4.79-3.15 7.19-4.78 2.39-1.65 4.87-3.41 7.01-5.72 2.14-2.3 3.86-5.15 4.47-8.41.54-2.62.07-5.42-1.06-7.78.49-.77 1.01-1.59 1.58-2.47 1.91-3.04 3.98-6.94 6.04-11.63 1.93-4.74 3.81-10.31 5-16.68 1.22-6.44 1.68-13.57 1.35-21.15z" class="st11"/>
    <path d="M146.98 22.98c.35-.39.94-1.11 1.58-2.12 1.02-1.6 1.8-1.54 2.32-1.59.52-.05 2.97.36 3.93-.16 0 0-3.21.44-4.5-.73-1.29-1.18-4.54-7.47-11.13-6.95.59-.64 2.57-1.03 2.57-1.03s-4.81.08-8.88 5.1c1.22-.84 1.46-1.05 2.08-1.38-1.21.9-1.74 2.84-1.74 2.84s.29-.37.63-.75c.29-.32.62-.65.85-.76-1.16 1.48-1.11 2.65-1.11 2.65s1.93-4.23 5.87-4.61c1.57-.15 2.87.63 4.18 1.42 1.98 1.19 3.66 2.84 3.85 4.7.15 1.58-.06 2.51-.3 3.05-.08.13-.14.24-.2.32zM146.66 23.33s.04-.02.09-.07c.06-.05.14-.14.23-.27-.06.07-.12.13-.16.18l-.16.16z" class="st11"/>
    <path d="M141.68 22.34a.27.27 0 0 1 .07-.08c.02-.02.04-.03.06-.04l.03-.02.03-.02c.02-.01.04-.02.07-.04.02-.01.05-.02.07-.03.19-.08.39-.12.58-.12.19 0 .37.03.53.07.33.09.6.24.8.37.21.13.36.25.47.33.1.08.16.12.17.11.07.02.23-.24.38-.75.14-.51.27-1.3.19-2.27-.04-.48-.14-1.01-.31-1.57-.17-.55-.43-1.13-.78-1.68-.36-.55-.81-1.1-1.39-1.55a5.24 5.24 0 0 0-2.05-1 4.58 4.58 0 0 0-2.3.06c-.72.21-1.36.59-1.86 1.03-.25.22-.48.46-.67.71a5.937 5.937 0 0 0-.87 1.52c-.05.12-.09.25-.14.37-.04.12-.08.24-.11.36-.12.47-.18.91-.21 1.29-.02.38-.01.71.03.98.01.07.02.13.02.19.01.06.02.11.03.16.01.05.02.1.03.14.01.04.02.08.04.11.05.14.09.2.13.2.08-.01.11-.3.18-.8.03-.25.08-.56.16-.9.08-.34.18-.73.34-1.14.04-.1.08-.2.13-.31 0-.01.01-.01.01-.02.05-.1.09-.2.14-.3.1-.21.23-.42.37-.63.07-.11.17-.22.26-.33.07-.09.14-.19.22-.28.17-.2.37-.39.58-.56.43-.34.93-.62 1.5-.77a3.65 3.65 0 0 1 1.77-.03c.6.14 1.16.42 1.64.78.48.36.88.8 1.21 1.26.33.46.57.95.76 1.42.19.48.32.94.4 1.37.03.14.05.28.07.41.1.68.1 1.26.09 1.68-.01.38-.02.63 0 .75-.02-.03-.04-.06-.08-.1-.09-.1-.23-.24-.44-.39-.2-.16-.47-.33-.83-.45-.18-.06-.38-.1-.59-.1a2 2 0 0 0-.67.11l-.09.03c-.02.01-.04.02-.07.03a4.8 4.8 0 0 0 .02-1.46c-.04-.27-.1-.5-.16-.7-.06-.19-.13-.36-.19-.48-.13-.26-.24-.39-.27-.37-.04.02.01.17.07.44.03.11.06.25.08.4.04.22.07.47.09.76.02.49-.01 1.08-.2 1.67-.09.28-.23.56-.41.79-.01.01-.02.03-.03.05-.2.24-.47.42-.77.43-.28.02-.56-.12-.79-.31a.138.138 0 0 0-.04-.03c-.24-.21-.43-.49-.57-.76-.15-.28-.25-.56-.33-.84-.08-.27-.13-.54-.16-.78s-.04-.46-.05-.65c0-.2 0-.37.01-.51.02-.28.03-.44 0-.45-.03-.01-.12.13-.21.41-.05.16-.09.38-.12.64-.02.18-.03.38-.02.6.01.26.04.55.1.86.07.31.17.63.32.95.11.23.25.47.43.69.07.08.15.17.23.25.15.14.33.27.53.36.1.05.21.08.33.11.11.02.24.03.36.03.12-.01.24-.03.35-.07.11-.04.22-.08.32-.14.17-.1.3-.23.42-.37a2.48 2.48 0 0 0 1.47 1.89c.08.04.15.06.23.09.02.01.04.01.06.02l.04.01c.01 0 0 .01 0 .01l-.07.07-.09.08-.18.15c-.06.05-.13.1-.19.15-.06.05-.13.09-.2.14-.27.17-.56.32-.87.44-.31.11-.63.18-.94.22-.32.03-.63.03-.94-.01-.61-.08-1.19-.3-1.68-.59-.49-.3-.91-.66-1.26-1.04-.18-.19-.32-.39-.47-.58-.07-.1-.12-.19-.18-.29-.06-.1-.13-.2-.19-.3-.22-.38-.38-.75-.5-1.08-.12-.33-.2-.62-.26-.87-.03-.12-.05-.23-.07-.32-.01-.05-.02-.09-.03-.13-.01-.04-.02-.08-.02-.11-.01-.02-.01-.04-.01-.06-.02-.09-.04-.14-.05-.14-.01 0-.02.07-.01.2v.11c0 .04.01.09.01.13.01.1.02.21.04.33.04.25.1.56.21.9.1.35.25.73.46 1.14.1.2.23.41.36.62.14.21.29.42.47.62.35.41.79.81 1.31 1.13.52.32 1.14.56 1.81.66.33.05.68.05 1.03.02.35-.04.69-.12 1.03-.24.34-.12.65-.29.94-.48l.21-.15c.07-.05.14-.1.2-.16.07-.05.13-.11.19-.17l.09-.09.1-.1c.06-.06.11-.11.16-.17.05-.06.11-.12.16-.17l.08-.09.01-.01h-.01l-.03-.01-.06-.01c-.07-.02-.15-.03-.22-.05-.07-.02-.16-.03-.23-.05l-.08-.02c-.02 0-.03-.01-.05-.02-.07-.02-.14-.05-.2-.08-.27-.11-.5-.28-.7-.47-.39-.39-.62-.91-.64-1.39 0-.04.01-.08.01-.11.15-.19.25-.42.31-.65zM122.71 19.63c-.89.37-1.47 1.02-1.3 1.45.18.43 1.05.49 1.94.12.89-.37 1.47-1.02 1.3-1.45-.18-.43-1.05-.48-1.94-.12z" class="st11"/>
    <path d="M55.79 131.78c-.71.77-1.41 1.61-1.67 2.63-.26 1.02.05 2.25.97 2.76.49.27 1.08.3 1.64.33.39.02.78.03 1.17.05h.01c.79.03 1.59.06 2.38.1 1.12.05 2.27.09 3.32-.32 1.07-.41 1.91-1.24 2.71-2.05.64-.64 1.27-1.28 1.91-1.92l.72-.72c.75-.75 1.52-1.54 1.9-2.53 1.25-3.24-2.35-7.73-5.75-6.22-1.41.63-2.71 2.03-3.93 3.1-.17.15-.34.29-.51.42-1.73 1.34-3.38 2.76-4.87 4.37z" class="st3"/>
    <path d="M106.26 110.3c.86.33 1.67.57 2.37.66 1.41.19 2.16-.22 2.12-.43-.03-.25-.72-.33-1.76-.85-.53-.25-1.14-.62-1.89-1.09-.75-.46-1.63-1.05-2.82-1.54-1.18-.47-2.52-.75-3.88-.93-1.36-.17-2.75-.33-4.28-.45-1.52-.12-3.15-.18-4.86-.11-1.71.08-3.51.29-5.33.81-.91.24-1.79.59-2.64.96-.84.4-1.66.85-2.37 1.34-.72.48-1.37.96-1.99 1.41-.62.44-1.21.84-1.82 1.23-2.42 1.54-4.81 2.76-6.78 3.93-1.97 1.16-3.52 2.24-4.5 3.11-.98.87-1.4 1.49-1.26 1.67.15.2.82-.06 1.97-.55 1.15-.5 2.79-1.22 4.86-2.08 2.07-.88 4.58-1.88 7.31-3.39.68-.37 1.38-.8 2.05-1.24.67-.44 1.32-.88 1.96-1.29 1.27-.81 2.61-1.4 4.13-1.83 3.02-.85 6.2-.89 9.11-.85 1.45.03 2.89.08 4.18.13 1.28.05 2.41.16 3.38.4.95.25 1.87.66 2.74.98zM32.35 139.65c.88-.48 1.71-.96 2.58-1.42 1.7-.92 3.21-1.78 4.45-2.56 2.49-1.55 3.93-2.71 3.73-3.14-.2-.42-2.01-.02-4.77.97-1.38.5-3 1.14-4.77 1.9-.88.36-1.83.83-2.81 1.32-.49.25-.99.49-1.49.76-.51.3-1 .62-1.48.95-.96.67-1.83 1.36-2.65 2.03a72.3 72.3 0 0 0-2.33 2.01 46.481 46.481 0 0 0-3.66 3.7c-.49.56-.92 1.07-1.28 1.55-.36.46-.69.93-.89 1.36-.21.43-.28.82-.27 1.09.02.27.11.41.22.44.24.04.51-.3 1.09-.72.57-.4 1.6-1.07 2.75-1.94 1.16-.88 2.53-1.91 4.04-3.06 1.51-1.13 3.2-2.44 4.92-3.66.43-.3.86-.58 1.28-.84.45-.26.9-.5 1.34-.74zM141.39 9.27c2.46-.13 4.73-.18 6.72.06 1.99.23 3.65.76 5.04 1.43 1.4.65 2.52 1.34 3.35 1.75.83.42 1.35.6 1.51.42.15-.18-.08-.68-.67-1.44-.59-.75-1.53-1.76-2.96-2.8-1.41-1.05-3.45-2.01-5.76-2.45-2.31-.47-4.85-.5-7.4-.37-2.51.15-4.95.29-7.24.81-2.29.5-4.27 1.46-5.71 2.47-1.45 1.01-2.42 2.07-2.98 2.87-.56.81-.72 1.35-.55 1.5.37.34 1.92-1.01 4.72-2.29 1.41-.63 3.1-1.2 5.09-1.48 1.99-.28 4.34-.34 6.84-.48zM136.04 119.99c-6.25-2.63-11.66-3.89-12-3.02-.34.88 4.48 3.54 10.68 6.15 6.2 2.6 11.48 4.17 11.87 3.32.39-.85-4.3-3.82-10.55-6.45z" class="st7"/>
</svg>