<svg xmlns="http://www.w3.org/2000/svg" xml:space="preserve" id="Layer_1" x="0" y="0" style="enable-background:new 0 0 200 142" version="1.1" viewBox="0 0 200 142">
<style>.st0{fill:#c82127}.st1{fill:#ef8623}</style>
<path d="M149.21 79.11c3.21-4.39 2.11-12.41-1.54-14.47-6.28-3.54-19.81 8.69-20.43 7.83-.58-.79 12.38-9.32 20.75-24.64 5.62-10.28 4.19-14.5 3.05-16.34-.22-.35-1.75-2.83-4.4-3.35-8.43-1.65-15.82 18.94-22.21 17.58-6.21-1.32-5.37-22.11-9.94-22.54-4.66-.44-8.93 18.46-14.06 17.88-2-.23-2.63-3.25-5.71-11.02C86.66 9.74 81.66 6.91 79.76 6.02c-.88-.41-5.37-2.5-9.94-.67-2.9 1.16-5.91 3.93-6.62 7.28-1.43 6.77 7.78 10.18 14.37 22.5 5.57 10.41 6.65 22.25 3.76 23.77-2.97 1.55-8.09-8.87-18.48-9.11-.99-.02-6.58-.15-9.88 3.6-4.01 4.56-2.05 11.92-1.59 13.65 4.69 17.64 46.77 21.71 49.56 21.51 1.7-.12 4.76-.7 6.43-1.08 3.54-.88 7.4-3.15 14.65-4.11 16.19-2.14 23.69.53 27.19-4.25z" class="st0"/>
<path d="M77.29 51.27c-1.56-1.88-4-4.35-7.54-6.29-5.43-2.98-9.36-2.48-10.97-5.74-.97-1.96-.82-4.72.6-6.38 1.57-1.83 4.23-1.79 4.61-1.79.97.01 1.9.35 2.8.93 4.48 2.88 8.01 11.79 9.6 16.46.5 1.46.81 2.5.9 2.81zM104.37 22.03v.03c-.37 6.28-3.16 13.9-3.91 15.85-.11-1.64-.39-3.65-1.07-5.84v-.02c-.3-1.08-.68-2.21-1.18-3.36-1.55-3.58-3.48-5.7-4.51-7.67-.61-1.16-.91-2.27-.64-3.59.44-2.14 2.24-4.23 4.39-4.67 2.36-.48 4.44 1.18 4.74 1.42 1.88 1.5 2.38 4.48 2.18 7.85zM156.21 54.93c-1.45 2.17-4.19 1.45-8.32 3.07-2.69 1.06-4.66 2.59-5.94 3.78.14-.32.81-1.82 1.82-3.7 1.85-3.45 4.87-8.18 7.92-9.24.52-.18 1.05-.25 1.57-.19.27.03 2.17.25 3.11 1.7.86 1.3.72 3.27-.16 4.58zM119.27 16.68c-.17.47-.42.85-.73 1.16-1.3 1.34-3.72 1.69-6.68 3.72-2.33 1.6-3.87 3.48-4.86 4.92-.03.03-.05.07-.07.1.2-1.07 2.82-14.76 8.03-15.36.27-.03 2.17-.25 3.42.94 1.13 1.1 1.44 3.06.89 4.52zM143.79 20.43c-1.06 4.36-5.92 4.83-11.65 9.9a31.963 31.963 0 0 0-5.96 7.11s0 .01-.01.01c-.55.89-1.02 1.73-1.4 2.5v-.05c.44-4.74 1.97-17.77 5.8-23.94.13-.2.25-.39.38-.58 1.2-1.73 2.63-2.95 4.34-3.36.46-.11 3.65-.88 6.04.9 2.17 1.61 3.09 4.89 2.46 7.51z" class="st0"/>
<path d="M146.61 77.25c3.02-4.14 1.99-11.7-1.46-13.64-5.92-3.34-18.67 8.19-19.27 7.38-.54-.74 11.67-8.79 19.57-23.23 5.3-9.69 3.95-13.67 2.88-15.41-.21-.33-1.65-2.66-4.15-3.15-7.95-1.56-14.91 17.86-20.94 16.57-5.86-1.25-5.07-20.84-9.37-21.25-4.4-.42-8.42 17.41-13.26 16.85-1.88-.21-2.47-3.06-5.38-10.39-7.59-19.13-12.31-21.8-14.1-22.64-.83-.39-5.06-2.36-9.38-.63-2.73 1.09-5.57 3.7-6.24 6.86-1.35 6.38 7.33 9.59 13.55 21.22 5.25 9.81 6.27 20.98 3.55 22.41-2.8 1.47-7.62-8.36-17.43-8.59-.94-.02-6.2-.15-9.31 3.39-3.78 4.3-1.94 11.23-1.5 12.87 4.42 16.63 44.1 20.47 46.73 20.28 1.61-.12 4.49-.66 6.06-1.02 3.34-.83 6.98-2.97 13.82-3.87 15.26-2.02 22.33.49 25.63-4.01z" class="st1"/>
<path d="M76.39 48.45a23.91 23.91 0 0 0-4.7-3.38c-5.12-2.81-8.82-2.34-10.34-5.42-.91-1.85-.77-4.45.57-6.01 1.48-1.72 3.98-1.69 4.35-1.68.18 0 .35.02.52.04 4.49 2.88 8.01 11.79 9.6 16.45zM104.37 22.03v.03c-.37 6.28-3.16 13.9-3.91 15.85-.11-1.64-.39-3.65-1.07-5.84v-.02c-.3-1.08-.68-2.21-1.18-3.36-1.55-3.58-3.48-5.7-4.51-7.67-.14-.6-.17-1.23-.03-1.92.41-2.02 2.11-3.99 4.14-4.4 2.22-.46 4.18 1.11 4.47 1.33 1.51 1.21 2.07 3.41 2.09 6zM153.21 54.45c-1.36 2.05-3.95 1.37-7.85 2.9-.57.22-1.1.47-1.59.73 1.85-3.45 4.87-8.18 7.92-9.24.58.22 1.24.62 1.67 1.29.81 1.23.67 3.09-.15 4.32z" class="st1"/>
<path d="M168.95 101.76c-2.52.66-4.1-1.69-8.27-3.22-2.72-1-5.2-1.15-6.95-1.12.31-.14 1.81-.82 3.82-1.57 3.68-1.35 9.07-2.89 12.05-1.66.51.21.96.51 1.31.9.18.21 1.46 1.63 1.2 3.33-.22 1.56-1.64 2.94-3.16 3.34z" class="st0"/>
<path d="M167.02 99.41c-2.38.63-3.86-1.6-7.8-3.04-.57-.21-1.13-.38-1.68-.51 3.68-1.35 9.07-2.89 12.05-1.66.28.55.52 1.28.4 2.07-.2 1.46-1.54 2.76-2.97 3.14z" class="st1"/><path d="M188.84 137.07c-1.82.19-2.66-1.61-5.37-3.12-1.77-.98-3.48-1.36-4.69-1.52.23-.07 1.34-.38 2.81-.67 2.69-.54 6.58-1.03 8.52.15.33.2.61.45.81.76.1.16.83 1.28.48 2.44-.33 1.05-1.46 1.85-2.56 1.96z" class="st0"/>
<path d="M187.76 135.24c-1.71.18-2.5-1.52-5.07-2.94-.37-.21-.74-.38-1.1-.53 2.69-.54 6.58-1.03 8.52.15.14.41.22.94.05 1.48-.3.97-1.37 1.73-2.4 1.84z" class="st1"/><path d="M35.75 103.09c2.21.23 3.23-1.96 6.54-3.79 2.16-1.19 4.23-1.65 5.71-1.85-.28-.08-1.63-.46-3.42-.82-3.27-.66-8.01-1.25-10.37.18-.4.25-.74.55-.98.93-.13.2-1.02 1.56-.58 2.96.4 1.28 1.77 2.25 3.1 2.39z" class="st0"/>
<path d="M37.07 100.86c2.08.22 3.05-1.85 6.17-3.58.46-.25.9-.47 1.34-.65-3.27-.66-8.01-1.25-10.37.18-.17.5-.27 1.15-.07 1.8.38 1.2 1.68 2.12 2.93 2.25z" class="st1"/><path d="M10.54 139.64c2.64-.56 3-3.48 6.14-6.83 2.05-2.19 4.27-3.49 5.91-4.27-.36.01-2.06.08-4.26.33-4.03.46-9.73 1.55-11.92 4.08-.38.43-.65.92-.79 1.44-.07.28-.59 2.18.44 3.64.93 1.34 2.89 1.95 4.48 1.61z" class="st0"/>
<path d="M11.22 136.57c2.49-.53 2.83-3.28 5.79-6.44.43-.46.87-.88 1.31-1.26-4.03.46-9.73 1.55-11.92 4.08-.01.64.12 1.43.6 2.1.88 1.26 2.73 1.84 4.22 1.52zM118.53 17.85c-1.3 1.34-3.72 1.69-6.68 3.72-2.33 1.6-3.87 3.48-4.86 4.92.77-3.49 3.17-12.76 7.32-13.23.26-.03 2.04-.23 3.22.89.94.88 1.28 2.41 1 3.7zM141.5 21.93c-.99 4.11-5.58 4.55-10.98 9.33-1.71 1.51-3.17 4.06-4.34 6.18 0 0 0 .01-.01.01-.53.96-1 1.84-1.4 2.5v-.05c.44-4.74 1.97-17.77 5.8-23.94.13-.2.25-.39.38-.58.77-.68 1.6-1.16 2.53-1.38.44-.11 3.44-.82 5.69.85 2.05 1.51 2.93 4.6 2.33 7.08z" class="st1"/></svg>