<?xml version="1.0" encoding="utf-8"?>
<!-- Generator: Adobe Illustrator 22.0.1, SVG Export Plug-In . SVG Version: 6.00 Build 0)  -->
<svg version="1.1" id="Layer_1" xmlns="http://www.w3.org/2000/svg" xmlns:xlink="http://www.w3.org/1999/xlink" x="0px" y="0px"
	 viewBox="0 0 168 207" style="enable-background:new 0 0 168 207;" xml:space="preserve">
<style type="text/css">
	.st0{fill:none;}
	.st1{fill:#57923F;}
	.st2{fill:#8EBA3F;}
	.st3{fill:#FFB621;}
	.st4{fill:#FFFFFF;}
	.st5{fill:#D13D7F;}
	.st6{fill:#FFA87F;}
	.st7{fill:#FF3D7F;}
	.st8{fill:#603813;}
	.st9{fill:#91D6E2;}
	.st10{fill:#63A6E2;}
	.st11{fill:#656AE2;}
	.st12{fill:#6595E2;}
	.st13{fill:#D5FFF1;}
</style>
<g>
	<path class="st0" d="M84.4,73.1L84.4,73.1c0,1.1,0.1,2,0.2,2.6c0.1,0.4,0.1,0.7,0.1,1c0-0.2-0.1-0.5-0.1-1
		C84.5,75.1,84.4,74.2,84.4,73.1z"/>
	<path class="st0" d="M94.3,67.6c0-0.4,0.1-0.7,0.3-1C94.4,66.9,94.3,67.3,94.3,67.6c0,1,0.8,1.7,1.8,1.7c0.5,0,0.9-0.2,1.2-0.5
		c-0.3,0.3-0.7,0.5-1.1,0.5C95.1,69.3,94.3,68.6,94.3,67.6z"/>
	<path class="st0" d="M88.6,74.9c-0.4-0.1-0.7-0.1-1.1,0c-0.3,0-0.6,0.2-0.9,0.3c-0.5,0.3-0.9,0.6-1.2,0.9c-0.3,0.3-0.5,0.5-0.6,0.7
		c0,0.1-0.1,0.1-0.1,0.2l0,0l0,0c0,0,0-0.1,0.1-0.2c0.1-0.2,0.3-0.4,0.6-0.7c0.3-0.3,0.7-0.6,1.2-0.9c0.3-0.1,0.6-0.2,0.9-0.3
		S88.2,74.9,88.6,74.9L88.6,74.9l0.2,0.1l0,0L88.6,74.9L88.6,74.9z"/>
	<path class="st0" d="M98.5,78.3c0.1-0.1,0.1-0.2,0.2-0.3c0,0,0-0.1,0.1-0.1c0,0,0,0.1-0.1,0.1C98.6,78.1,98.6,78.2,98.5,78.3z"/>
	<path class="st0" d="M96,65.8L96,65.8C95.9,65.9,95.9,65.8,96,65.8L96,65.8z"/>
	<path class="st0" d="M99.6,72.4L99.6,72.4c0,0,0,0.1,0.1,0.3c0,0.1,0,0.1,0,0.2s0,0.1,0,0.2c0,0.2,0,0.3,0,0.5
		c0,1.1-0.2,2.2-0.6,3.3c0,0,0,0.1-0.1,0.1c0-0.1,0-0.1,0.1-0.2c0.4-1.1,0.6-2.2,0.6-3.3c0-0.2,0-0.4,0-0.5s0-0.2,0-0.2
		c0-0.1,0-0.1,0-0.2C99.7,72.5,99.7,72.4,99.6,72.4C99.7,72.4,99.7,72.4,99.6,72.4L99.6,72.4z"/>
	<path class="st0" d="M88.8,70.8c-0.1,0.2-0.1,0.5-0.2,0.8l0,0c0,0.1,0,0.1,0,0.2v-0.1C88.7,71.3,88.8,71.1,88.8,70.8
		c0.1-0.4,0.3-0.6,0.3-0.6s0,0,0,0.1v-0.1C89.1,70.2,89,70.4,88.8,70.8z"/>
	<path class="st0" d="M96.9,64.3L96.9,64.3c-0.4-0.3-0.8-0.7-1.2-1c-0.2-0.1-0.5-0.3-0.7-0.4c0.2,0.1,0.5,0.3,0.7,0.4
		C96.2,63.7,96.6,64,96.9,64.3z"/>
	<path class="st0" d="M99.8,71.9L99.8,71.9L99.8,71.9z"/>
	<path class="st0" d="M93.9,75c-0.2,0.4-0.4,0.9-0.7,1.3l0,0c-0.3,0.4-0.7,0.6-1.2,0.6s-0.9-0.2-1.3-0.5c0,0,0,0-0.1-0.1
		c-0.3-0.3-0.6-0.7-0.8-1.1c-0.4-0.9-0.6-1.8-0.7-2.5l0,0v0.1c0.1,0.8,0.2,1.7,0.7,2.6c0.2,0.4,0.5,0.8,0.8,1.1l0.1,0.1
		c0.4,0.3,0.8,0.6,1.3,0.5c0.4,0,0.8-0.3,1.2-0.6v-0.1C93.5,76,93.7,75.5,93.9,75c0.2-0.4,0.3-0.9,0.3-1.3c0.1-0.4,0.1-0.9,0.1-1.2
		l0,0c0,0.4,0,0.8-0.1,1.2C94.2,74.1,94,74.5,93.9,75z"/>
	<path class="st0" d="M78,75.1c1.2,1.4,2.3,2.4,2.9,3c0.2,0.2,0.3,0.3,0.4,0.4c2.6,2.8,6.2,5.5,10.3,5.4
		c8.2-0.3,11.2-10.8,11.2-10.8s0-0.1,0-0.3c-0.2,0.8-3.3,10.4-11.2,10.6c-4,0.1-7.6-2.6-10.3-5.4c0.1,0.1,0.2,0.1,0.2,0.1l0,0
		c0,0-0.1,0-0.1-0.1c-0.1-0.1-0.3-0.2-0.4-0.4c-0.6-0.5-1.7-1.5-2.9-3c-1.9-2.3-3.1-2-3.9-2c-0.3,0-1.2,0.2-2.1,0.4
		c-0.1,0-0.2,0.1-0.4,0.1c0,0.1-0.1,0.2-0.1,0.4c1.2-0.2,2.2-0.5,2.6-0.5C74.9,73.1,76.1,72.8,78,75.1z"/>
	<path class="st0" d="M71.3,73.6c0-0.1-0.1-0.2-0.1-0.3c-1.7,0.3-3.2,0.3-3.2,0.3C68.8,74,70.1,73.8,71.3,73.6z"/>
	<path class="st0" d="M63.6,65.7c-3.7,3.9-6.3,6-6.8,5.6c-0.1-0.1-0.1-0.1-0.1-0.3c0,0.2,0,0.3,0.1,0.4
		C57.3,71.9,59.9,69.7,63.6,65.7c0.9-0.9,1.9-2,3-3.1l0.1-0.1l0,0l-0.1,0.1C65.5,63.7,64.5,64.8,63.6,65.7z"/>
	<path class="st0" d="M81.2,77.9c-0.1-0.1-0.2-0.1-0.3-0.2l0,0C81.1,77.8,81.1,77.8,81.2,77.9L81.2,77.9z"/>
	<path class="st0" d="M94.8,71.5L94.8,71.5c-0.1-0.4-0.2-0.7-0.3-1c-0.2-0.4-0.4-0.6-0.4-0.6s0,0,0,0.1l0,0c0.1,0,0.2,0.2,0.4,0.6
		C94.6,70.8,94.7,71.2,94.8,71.5c0.1,0.3,0.1,0.6,0.1,0.9c0,0.2,0,0.5,0,0.8c0-0.3,0-0.5,0-0.8C94.9,72,94.8,71.7,94.8,71.5z"/>
	<path class="st0" d="M88.3,80.4L88.3,80.4L88.3,80.4L88.3,80.4z"/>
	<path class="st0" d="M84.6,77c-0.1-0.1-0.4-0.5-0.6-1c-0.3-0.8-0.7-2-0.8-3.5c0-0.8,0-1.6,0.2-2.5s0.4-1.8,0.9-2.8
		c0.4-0.9,1-1.9,1.8-2.7c0.8-0.8,1.8-1.5,3-2c1.1-0.4,2.4-0.6,3.6-0.4c0.8,0.1,1.5,0.3,2.2,0.7c-0.7-0.3-1.4-0.6-2.2-0.7
		c-1.2-0.2-2.4-0.1-3.6,0.4c-1.2,0.4-2.2,1.1-3,2s-1.4,1.8-1.8,2.7s-0.7,1.9-0.9,2.8c-0.2,0.9-0.2,1.7-0.2,2.5
		c0.1,1.5,0.4,2.7,0.8,3.5C84.2,76.5,84.4,76.8,84.6,77z"/>
	<path class="st0" d="M122.6,75.1c-0.9,2.5-2,5-3.2,7.3c-0.3,0.7-0.7,1.3-1,2c-1.5,0-3.6,0.1-5.9,0c-4.5-0.1-8.1-0.9-8.4-0.1
		c0,0.1,0,0.1,0,0.2l0,0c0.3-0.7,3.9,0,8.4,0.1c2.3,0.1,4.4,0,5.9,0c0.3-0.6,0.7-1.3,1-1.9c1.2-2.4,2.3-4.8,3.2-7.3
		c0.9-2.5,1.5-5.1,1.5-7.7c0-0.7,0-1.3-0.1-1.9c0,0.5,0.1,1.1,0.1,1.6C124.1,70,123.5,72.6,122.6,75.1z"/>
	<path class="st0" d="M142,46.5c0.4,0.3,0.8,0.5,1.2,0.8c-0.1-0.1-0.2-0.1-0.3-0.2C142.6,46.8,142.3,46.7,142,46.5z"/>
	<path class="st0" d="M136.9,44.9c-1.3,4.4-2.5,8.6-3.6,12.5c-0.8,2.8-1.5,5.4-2.2,7.8l0,0c0.7-2.4,1.4-5,2.2-7.8
		C134.4,53.5,135.6,49.3,136.9,44.9c0.1-0.5,0.3-0.9,0.4-1.3l0,0l0,0L136.9,44.9z"/>
	<path class="st0" d="M79.5,7.2c1.2-0.1,2.4-0.1,3.7-0.2C88.1,6.9,93,7.3,98,8.2c3.6,0.7,7.1,1.6,10.5,2.9c3.4,1.2,6.6,2.7,9.8,4.4
		c3.1,1.6,6.1,3.6,9,5.7c1.4,1,2.8,2.2,4.1,3.3c1.3,1.2,2.6,2.3,3.9,3.5c1.3,1.2,2.4,2.5,3.6,3.7c1.1,1.3,2.3,2.6,3.3,3.9
		c1.1,1.3,2.1,2.7,3.1,4c1,1.4,1.9,2.8,2.8,4.2c2.5,3.9,4.7,8,6.5,12.1l0,0c-1.8-4.1-4-8.2-6.5-12.1c-0.9-1.4-1.9-2.8-2.8-4.2
		c-1-1.4-2-2.7-3.1-4c-1.1-1.4-2.2-2.6-3.3-3.9c-1.2-1.3-2.4-2.5-3.6-3.7c-1.2-1.2-2.6-2.4-3.9-3.5c-1.3-1.1-2.7-2.2-4.1-3.3
		c-2.8-2.1-5.8-4-9-5.7c-3.1-1.7-6.4-3.1-9.8-4.4c-3.4-1.2-6.9-2.2-10.5-2.9C93,7.3,88.1,6.9,83.2,7C82,7,80.7,7.1,79.5,7.2
		l-1.8,0.2l-0.8,0.1l0.8-0.1L79.5,7.2z"/>
	<path class="st0" d="M52.8,24.4c-1.4,0.9-2.8,1.8-4.1,2.8c-1.3,0.9-2.5,2-3.7,2.9c-0.6,0.5-1.1,1-1.7,1.5c-0.3,0.2-0.5,0.5-0.8,0.7
		c-0.3,0.3-0.5,0.5-0.8,0.7c-4,3.9-6.9,7.6-8.8,10.2c-1,1.3-1.7,2.3-2.3,3c-0.4,0.5-0.7,0.8-0.9,0.9c0.2-0.1,0.5-0.4,1-0.9
		c0.6-0.7,1.3-1.7,2.3-3c1.9-2.6,4.8-6.3,8.8-10.2c0.3-0.2,0.5-0.5,0.8-0.7c0.3-0.3,0.5-0.5,0.8-0.7c0.5-0.5,1.1-1,1.7-1.5
		c1.2-0.9,2.4-2,3.7-2.9C50,26.1,51.4,25.3,52.8,24.4c0.8-0.4,1.5-0.9,2.3-1.3c0.1-0.1,0.3-0.1,0.4-0.2c-0.1,0.1-0.3,0.1-0.4,0.2
		C54.3,23.5,53.6,23.9,52.8,24.4z"/>
	<path class="st0" d="M119.6,46.6c0.1-0.1,0.2-0.2,0.2-0.1v0.1c0,0.4-0.4,1.7-1.2,3.8c0.2,0.1,0.4,0.3,0.6,0.4
		c2.7,2,5.1,4.4,7.1,7.1c0.3,0.4,0.5,0.7,0.7,1.1c-0.1-0.2-0.2-0.4-0.3-0.6c-1.3-2.7-2.5-4.9-3.6-6.6c-1.8-3-3.1-4.7-3.3-5.1
		c0-0.1,0-0.1,0-0.1l0,0C119.8,46.4,119.8,46.5,119.6,46.6z"/>
	<path class="st0" d="M98.1,79L98.1,79c0.1-0.1,0.1-0.2,0.2-0.3C98.2,78.8,98.1,78.9,98.1,79L98.1,79z"/>
	<path class="st0" d="M67.9,61L67.9,61L67.9,61L67.9,61L67.9,61z"/>
	<path class="st0" d="M87.8,54.8L87.8,54.8L87.8,54.8L87.8,54.8L87.8,54.8z"/>
	<path class="st0" d="M101.2,65.9c0,0-0.1-0.3-0.3-0.6c-0.1-0.1-0.3-0.3-0.5-0.4c-0.1-0.1-0.2-0.1-0.3-0.2c0.1,0.2,0.3,0.4,0.4,0.6
		C100.9,65.6,101.2,65.9,101.2,65.9z"/>
	<path class="st0" d="M57.3,21.9C57.3,21.9,57.4,21.9,57.3,21.9C57.4,21.9,57.4,21.9,57.3,21.9C57.4,21.9,57.3,21.9,57.3,21.9z"/>
	<path class="st0" d="M117.3,70.1c-1.2-0.3-2.2-1-2.3-1.6l0,0c-0.2,0.7,0.9,1.6,2.3,2c1.5,0.4,2.8,0.1,3-0.6c0-0.1,0-0.2,0-0.3
		C120.1,70.2,118.8,70.5,117.3,70.1z"/>
	<path class="st0" d="M86.8,80.5L86.8,80.5l0.4-0.1c0.1,0,0.3-0.1,0.4-0.1h0.1h0.1c0.1,0,0.2-0.1,0.3-0.2c0.4-0.2,0.7-0.5,1-0.9
		c0.5-0.7,0.8-1.5,0.7-2.3c0-0.1,0-0.1,0-0.2c-0.3-0.3-0.4-0.7-0.6-1l0,0c0.1,0.3,0.3,0.7,0.6,1c0,0.1,0,0.1,0,0.2
		c0.1,0.8-0.2,1.6-0.7,2.3c-0.3,0.3-0.6,0.6-1,0.9c-0.1,0.1-0.2,0.1-0.3,0.2h-0.1h-0.1c-0.1,0-0.2,0.1-0.4,0.1L86.8,80.5L86.8,80.5
		L86.8,80.5C86.7,80.5,86.7,80.5,86.8,80.5L86.8,80.5C86.7,80.5,86.7,80.5,86.8,80.5L86.8,80.5z"/>
	<path class="st0" d="M100.8,67.4c0,0-0.3-0.5-0.9-1.2C100.5,66.9,100.8,67.4,100.8,67.4L100.8,67.4z"/>
	<path class="st0" d="M79,10.1c4.3-0.2,8.4,0,12.4,0.3c2,0.2,3.9,0.4,5.8,0.6c1.9,0.2,3.8,0.5,5.6,0.8s3.7,0.9,5.4,1.6
		c1.7,0.7,3.3,1.5,4.7,2.4s2.8,1.6,4.1,2.4c1.3,0.8,2.5,1.6,3.7,2.3c4.7,3,8.4,6.1,10.5,8.5c2.2,2.4,3.1,4.1,2.8,4.4l0,0
		c0.3-0.3-0.6-2-2.8-4.4s-5.8-5.5-10.5-8.5c-1.2-0.8-2.4-1.5-3.7-2.3c-1.3-0.8-2.6-1.6-4.1-2.4c-1.4-0.8-3-1.7-4.7-2.4
		s-3.6-1.3-5.4-1.6c-1.9-0.4-3.8-0.6-5.6-0.8c-1.9-0.2-3.8-0.4-5.8-0.5C87.4,10,83.3,9.8,79,10.1c-4.2,0.2-8.5,0.8-12.5,1.9
		c-1,0.3-2,0.6-3,0.9c1-0.3,1.9-0.6,2.9-0.9C70.5,10.9,74.7,10.3,79,10.1z"/>
	<path class="st0" d="M113.5,91.3c-1.9,0.6-3.8,1-5.8,1.3c1.9-0.2,3.8-0.5,5.6-0.9c0.1-0.1,0.1-0.1,0.2-0.2c0.8-0.8,1.5-1.6,2.1-2.4
		c0.5-0.7,1-1.4,1.5-2.2c0,0-0.1,0-0.2,0c-0.4,0.7-0.9,1.4-1.4,2C115,89.8,114.3,90.6,113.5,91.3z"/>
	<path class="st0" d="M39.3,62.8c0.5,2.2,1.1,4.9,1.8,7.9c0.3,1.5,0.6,3.1,1,4.7c0.1,0.4,0.2,0.8,0.3,1.3c0,0.2,0.1,0.4,0.1,0.6v0.1
		l0,0l0,0l0,0l0,0l0,0c0.4-0.6,0.9-1.2,1.4-1.8c2.3-3,4.4-5.8,6.5-8.4l0,0c-2,2.6-4.2,5.4-6.5,8.4c-0.5,0.6-0.9,1.2-1.4,1.8l0,0l0,0
		l0,0l0,0l0,0v-0.1c0-0.2-0.1-0.4-0.1-0.6c-0.1-0.4-0.2-0.8-0.3-1.3c-0.3-1.7-0.7-3.2-1-4.7C40.4,67.7,39.8,65,39.3,62.8
		c-1.1-4.4-1.9-7-2.2-7c0-0.1-1,0.5-2.6,1.8c-1.7,1.3-4,3.2-7.1,5.8c-3.1,2.5-6.8,5.7-11.3,8.9c-0.6,0.4-1.1,0.8-1.7,1.2l-0.2,0.1
		l-0.1,0.1l-0.2,0.1l-0.2,0.1L13.4,74l0,0l0,0c0-0.1-0.1-0.3-0.2-0.5c0-0.1,0-0.1-0.1-0.2L13,72.8l-0.2-0.6l0.2,0.6l0.1,0.5
		c0,0.1,0,0.2,0.1,0.2c0.1,0.2,0.1,0.3,0.2,0.5l0,0l0,0l0.1-0.1l0.2-0.1l0.2-0.1l0.1-0.1l0.2-0.2c0.6-0.4,1.2-0.8,1.7-1.2
		c4.5-3.2,8.3-6.3,11.3-8.9c3.1-2.5,5.5-4.5,7.1-5.8c1.7-1.3,2.6-1.9,2.6-1.8C37.4,55.8,38.2,58.4,39.3,62.8z"/>
	<path class="st0" d="M98.3,77.7c-0.2,0.3-0.4,0.7-0.6,1c-0.5,0.7-1.1,1.3-1.7,1.9c-0.7,0.5-1.5,1-2.5,1.3C93,82,92.5,82,92,82.1
		c-1.1,0-2.3-0.3-3.3-0.8c-0.1-0.1-0.2-0.1-0.3-0.2c-0.1-0.1-0.2-0.1-0.3-0.2l-0.2-0.1l-0.1-0.1l0,0l0,0l0,0l0.1,0.1l0.2,0.1
		c0.1,0.1,0.2,0.1,0.3,0.2c0.1,0.1,0.2,0.1,0.3,0.2c0.1,0.1,0.2,0.1,0.3,0.2c0.9,0.4,1.9,0.7,3,0.6c0.5,0,1-0.1,1.5-0.2
		c0.9-0.2,1.8-0.7,2.5-1.3c0.7-0.5,1.3-1.2,1.7-1.9C97.9,78.4,98.1,78.1,98.3,77.7c0.1-0.1,0.2-0.3,0.2-0.5l0,0l0,0
		C98.4,77.4,98.4,77.6,98.3,77.7z"/>
	<path class="st0" d="M81.1,176.9L81.1,176.9L81.1,176.9c3.5,0.1,7.1-0.1,10.6-0.6v0.1c0-0.1,0-0.1,0-0.2
		C88.2,176.7,84.6,176.9,81.1,176.9c-0.2-6.2-5.7-10.8-12.5-10.5c-1.9,0.1-3.6,0.7-5,1.8c1.4-1,3.1-1.7,5-1.7
		C75.4,166,80.9,170.7,81.1,176.9z"/>
	<path class="st0" d="M118,167c1.8-1.1,3.5-2.2,5.2-3.4C121.5,164.8,119.7,166,118,167z"/>
	<path class="st0" d="M108.9,163.7c1.6,1.5,2,3.8,2,6C110.9,167.6,110.5,165.2,108.9,163.7z"/>
	<path class="st0" d="M8.1,100.6c0.1-0.7,0.3-1.4,0.4-2.1c0.3-1.4,0.6-2.7,1-3.9c0.4-1.2,0.9-2.3,1.5-3.2c0.3-0.4,0.7-0.8,1.1-0.9
		c0.2-0.1,0.4-0.1,0.6-0.1c0.1,0,0.2,0,0.3,0s0.2,0,0.3,0.1c0.2,0.1,0.4,0.3,0.6,0.4c-0.1,14.9,4.2,29.4,11.3,42.8
		c1.8,3.2,5,5.9,7.8,9.6c1.6,2.6,3.3,5.2,5,7.7l0,0c3.5,5.1,7.2,10,11.6,14c-4.4-4-8.1-8.8-11.6-14l0,0c-1.7-2.5-3.4-5.1-5-7.7
		c-2.7-3.7-5.9-6.4-7.8-9.6c-7.1-13.5-11.5-27.9-11.3-42.8c0.2,0.1,0.3,0.3,0.5,0.4l0,0c-0.2-0.2-0.3-0.3-0.5-0.5s-0.4-0.3-0.6-0.4
		c-0.1,0-0.2-0.1-0.3-0.1s-0.2,0-0.3,0c-0.2,0-0.4,0-0.6,0.1c-0.4,0.2-0.8,0.5-1.1,0.9c-0.7,0.9-1.1,2-1.5,3.2s-0.7,2.5-1,3.9
		C8.4,99.2,8.2,99.9,8.1,100.6c-0.1,0.7-0.3,1.4-0.4,2.1c-0.5,3-0.8,6.2-0.8,9.6c0-3.4,0.3-6.6,0.8-9.6C7.8,102.1,8,101.4,8.1,100.6
		z"/>
	<path class="st0" d="M157.7,95.1L157.7,95.1c-0.9,20.4-8.5,41.1-21.7,56.5C149.2,136.2,156.8,115.5,157.7,95.1z"/>
	<path class="st0" d="M51.6,166.5C51.6,166.5,51.5,166.6,51.6,166.5c-1.2,1.5-2.6,2.7-4.4,2.7c-0.7,0-1.4-0.2-2.1-0.5
		c-0.1,0-0.2-0.1-0.3-0.1c-4.2-1.9-7.5-5.6-9-10c-0.5-1.3-0.7-2.6-0.6-3.8c-0.1,1.2,0.1,2.5,0.6,3.9c1.5,4.4,4.8,8.1,9,10
		c0.1,0,0.2,0.1,0.3,0.1c0.7,0.3,1.3,0.5,2.1,0.5c1.7,0,3.2-1.2,4.3-2.6c2.4,2,5,3.7,8,5c0.3,0.2,0.6,0.3,1,0.5
		c-1.1,2.4-1.2,5.3-0.1,8c1.9,4.3,6.5,6.7,11,6.8c2.7,0.1,5.5-0.6,7.2-2.6l0,0c-1.8,2-4.6,2.7-7.2,2.6c-4.6-0.1-9.2-2.5-11-6.8
		c-1.1-2.6-1.1-5.5,0.1-8c0.3-0.6,0.6-1.1,1-1.7c-0.4,0.5-0.7,1.1-1,1.7c-0.3-0.2-0.7-0.3-1-0.5c-2.9-1.3-5.5-3-8-5
		C51.6,166.6,51.6,166.5,51.6,166.5c3.2-4,4.6-9.3,1.7-12.8C56.2,157.2,54.7,162.5,51.6,166.5z"/>
	<path class="st0" d="M111,170.7c-0.1,0-0.1,0.1-0.2,0.1l0,0C110.9,170.7,111,170.7,111,170.7z"/>
	<path class="st0" d="M80.1,181.9c-0.3,0.8-0.7,1.5-1.2,2.1C79.4,183.4,79.8,182.6,80.1,181.9z"/>
	<path class="st0" d="M108.4,180.3c-0.7,1.3-1.5,2.5-2.6,3.5c-2.3,1.9-5.8,2.1-8.5,0.8s-4.6-4-5.3-6.9c0-0.1,0-0.1,0-0.2
		c0,0.1,0,0.1,0,0.2c0.7,2.9,2.7,5.6,5.3,6.9s6.2,1.1,8.5-0.8C106.9,182.9,107.7,181.6,108.4,180.3c1.5-2.9,2.4-6.2,2.5-9.5l0,0l0,0
		C110.7,174.1,109.9,177.4,108.4,180.3z"/>
	<path class="st0" d="M129.9,165.2c-0.3,0-0.6,0-0.9-0.1c-2-0.2-3.9-0.8-5.8-1.5c4.7-3.5,9-7.5,12.9-12l0,0
		c-3.8,4.5-8.1,8.5-12.9,12l0,0c1.8,0.8,3.8,1.3,5.8,1.5C129.2,165.2,129.5,165.2,129.9,165.2z"/>
	<path class="st0" d="M109.9,150.6c-0.1,1.4,0.1,2.7,0.5,3.8C110,153.3,109.9,152,109.9,150.6z"/>
	<path class="st0" d="M121.6,95.6L121.6,95.6L121.6,95.6L121.6,95.6z"/>
	<path class="st0" d="M81.2,55.5L81.2,55.5c-0.8,0.1-1.7,0.2-2.5,0.3c-0.2,0-0.4,0.1-0.5,0.1l0,0c0.2,0,0.4-0.1,0.5-0.1
		C79.5,55.7,80.4,55.6,81.2,55.5z"/>
	<path class="st0" d="M121.6,95.6L121.6,95.6L121.6,95.6L121.6,95.6L121.6,95.6L121.6,95.6L121.6,95.6z"/>
	<path class="st0" d="M111.7,113.6c0.5-1.1,1.2-2.5,2.1-4.2C112.9,111.1,112.2,112.5,111.7,113.6z"/>
	<path class="st0" d="M82.1,108.3c0-0.1,0-0.2-0.1-0.3c0-0.7,0.2-2.3,0.8-4.5c-0.8-0.1-1.6-0.1-2.3-0.2c-1.8-0.2-3.2-0.3-4.3-0.5
		c0.1,0.2,0.3,0.3,0.4,0.5c2,2,3.5,3.6,4.5,4.6C81.7,108.2,82.1,108.3,82.1,108.3z"/>
	<path class="st0" d="M131.2,110c0.6-0.7,1.5-1.9,2.7-3.6C132.7,108.1,131.8,109.3,131.2,110z"/>
	<path class="st0" d="M143.1,94.5c0.4-0.5,0.8-0.9,1.1-1.3l0.1-0.1l0,0V93l0.1-0.1l0,0l-0.1,0.1v0.1l0,0l-0.1,0.1
		C143.9,93.6,143.5,94.1,143.1,94.5c-0.8,0.9-1.6,1.9-2.4,2.8c-0.7,0.9-1.4,1.7-2,2.5c0.6-0.8,1.3-1.7,2-2.5
		C141.5,96.4,142.3,95.4,143.1,94.5z"/>
	<path class="st0" d="M19.8,98.6c0.3,0.5,0.6,0.8,0.8,1.1C20.4,99.4,20.1,99,19.8,98.6z"/>
	<path class="st0" d="M91.8,151c-0.5,2.2-1.1,4.4-2.5,6.1c-2.2,2.6-5.9,3.3-9.2,3.2c-4.5-0.1-9.2-1.2-12.8-3.9
		c-0.7-0.5-1.3-1.1-1.9-1.7c0.6,0.6,1.3,1.2,1.9,1.7c3.7,2.7,8.3,3.8,12.8,3.9c3.4,0,7-0.6,9.2-3.2C90.8,155.4,91.3,153.2,91.8,151
		c0.7-3,1.4-6,1.3-9s-1-6.2-3.1-8.4c2.1,2.2,3,5.3,3.1,8.4C93.2,145,92.5,148,91.8,151z"/>
	<path class="st1" d="M66.8,92c0.1,0.2,0.3,0.3,0.4,0.5c2.8,3.5,5.5,6.6,7.9,9.1c1.2-0.1,3.1-0.2,5.5-0.4c0.9,0,1.9-0.1,3-0.1
		c0.3-0.8,0.6-1.7,0.9-2.6c0.2-0.6,0.4-1.1,0.7-1.8l0.1-0.2l0.2-0.4c0.1-0.3,0.3-0.6,0.4-0.9c0.3-0.6,0.5-1.2,0.8-1.8l0.1-0.2
		l0.1-0.1V93l0,0l0.3,0.3l0.7,0.7l1.4,1.4c0.3,0.3,0.7,0.7,1.1,1c0.2,0.2,0.3,0.4,0.5,0.5c0.5,0.5,1.1,1,1.6,1.6
		c0.5,0.5,1.1,1,1.6,1.6c1.8-0.2,3.5-0.5,5.5-1.1c3.8-1.1,7.8-2.8,11.3-5.4c0.9-0.7,1.7-1.4,2.5-2.2c-1.8,0.4-3.7,0.7-5.6,0.9
		C94.7,94.7,80.4,92,66.8,92z"/>
	<path class="st2" d="M108.9,66.5c-0.2,0-0.7-0.2-1.1-0.5c-1.1-0.7-2.2-1.5-3.4-2.3c-4.8-3-10.2-6-16-8.7c-0.2-0.1-0.3-0.1-0.5-0.2
		c0,0,0,0-0.1,0c0.2,0.1,0.3,0.1,0.5,0.2c5.9,2.7,11.3,5.7,16,8.7c1.2,0.8,2.4,1.5,3.4,2.3C108.2,66.3,108.7,66.5,108.9,66.5
		c0.1,0,0.1,0,0.2,0c0,0,0.1-0.1,0.2-0.2c-0.1,0.1-0.1,0.1-0.1,0.1C109,66.5,109,66.5,108.9,66.5z"/>
	<path class="st2" d="M64.6,54.5L64.6,54.5c0.3,0.5,0.6,1.2,1,1.9l0,0C65.2,55.7,64.9,55.1,64.6,54.5z"/>
	<path class="st2" d="M77.4,50.6C77.3,50.6,77.3,50.6,77.4,50.6C77.3,50.6,77.3,50.6,77.4,50.6L77.4,50.6L77.4,50.6L77.4,50.6z"/>
	<path class="st2" d="M70.8,66.9L70.8,66.9l-0.1-0.3c-0.1-0.1-0.2-0.3-0.2-0.5c-0.6-1.2-1.1-2.4-1.7-3.5c-0.3-0.6-0.6-1.1-0.8-1.7
		l0,0c0.3,0.5,0.5,1.1,0.8,1.7c0.5,1.1,1.1,2.2,1.7,3.5c0.1,0.1,0.2,0.3,0.2,0.5L70.8,66.9L70.8,66.9l0.1,0.2
		c0.1,0.1,0.2,0.3,0.2,0.3l0,0c-0.1-0.1-0.1-0.2-0.2-0.3L70.8,66.9z"/>
	<path class="st2" d="M88.3,58.6c-0.4-0.2-0.7-0.3-1.1-0.5c-1.5-0.7-3-1.3-4.5-1.9c-0.5-0.2-1-0.4-1.5-0.6c-0.8,0.1-1.7,0.2-2.5,0.3
		c-0.2,0-0.4,0.1-0.5,0.1l0,0c-0.1,0.3-0.3,0.7-0.4,1s-0.2,0.5-0.3,0.8c-0.5,1.3-1,2.6-1.5,3.9c-0.6,1.6-1.2,3.1-1.8,4.7l-0.3,0.8
		c-0.1,0.3-0.3,0.7-0.4,1c-0.6,1.6-1.1,3.2-1.6,4.7c1.2-0.3,2.4-0.8,3.1-1.6C76.4,69.3,79.8,60.4,88.3,58.6z"/>
	<path class="st2" d="M71.6,73.2L71.6,73.2c0.1,0,0.2,0,0.4-0.1C71.9,73.2,71.8,73.2,71.6,73.2z"/>
	<path class="st2" d="M40.5,99.8c-0.2-0.1-0.3-0.3-0.5-0.4c-0.6-0.5-1.2-1.1-1.8-1.7l0,0c0.6,0.6,1.3,1.2,1.8,1.7
		C40.2,99.6,40.3,99.7,40.5,99.8z"/>
	<path class="st2" d="M49.2,96.7c1.8-2.4,3.7-4.7,5.7-6.9c1.1-1.3,2.4-2.5,3.7-3.8c0.6-0.6,1.3-1.2,1.9-1.9l0.3-0.2l0.1-0.1v0.1
		L61,84l0.3,0.5c0.2,0.3,0.5,0.7,0.7,1s0.5,0.7,0.7,1l0.5,0.7l0.8,1.2c0.4,0.6,0.9,1.2,1.3,1.8c0.4,0.5,0.8,1,1.1,1.5
		c0.1,0.2,0.2,0.3,0.4,0.5c13.6,0,27.9,2.7,40.9,0.6c2-0.3,3.9-0.7,5.8-1.3c0.8-0.8,1.5-1.6,2.1-2.5c0.5-0.6,0.9-1.3,1.4-2
		c-1.3,0.3-2.8,0.4-4.5,0.4c-2.5-0.1-4.6-0.6-6.1-1.2s-2.3-1.2-2.2-1.6c0-0.1,0-0.1,0-0.2c0.3-0.7,3.9,0,8.4,0.1
		c2.3,0.1,4.4,0,5.9,0c0.3-0.6,0.7-1.3,1-2c1.2-2.4,2.3-4.8,3.2-7.3c0.9-2.5,1.5-5.2,1.5-7.7c0-0.6,0-1.1-0.1-1.6
		c-0.1-0.6-0.2-1.1-0.3-1.6c-0.3-1.1-0.9-2.2-1.7-3.2c-1.5-2-3.4-3.9-5.4-5.5c-0.3,0.7-0.6,1.4-0.9,2.1c-0.4,0.9-0.8,1.9-1.3,2.9
		s-0.9,2.2-1.4,3.3c-0.3,0.6-0.5,1.2-0.8,1.8c-0.1,0.3-0.3,0.6-0.4,0.9s-0.3,0.6-0.5,1c-0.2,0.3-0.4,0.7-0.8,1l-0.1,0.1
		c-0.4,0.4-1,0.6-1.6,0.6c-1.1,0-1.8-0.4-2.4-0.8c-1.2-0.7-2.3-1.4-3.5-2.1c-0.5-0.3-0.9-0.5-1.4-0.8c-0.2-0.1-0.4-0.2-0.6-0.4
		c0.1,0.2,0.2,0.4,0.2,0.4s-0.1-0.1-0.3-0.3c0.2,0.4,0.3,0.6,0.3,0.6s-0.3-0.3-0.6-0.6c2.1,3.4,2.4,7.4,2.4,7.4s0,0,0,0.1
		c0,0.2,0,0.3,0,0.3s-3,10.5-11.2,10.8c-4,0.1-7.6-2.6-10.3-5.4c-0.1-0.1-0.3-0.2-0.4-0.4c-0.6-0.5-1.7-1.5-2.9-3
		c-1.9-2.3-3.1-2-3.9-2c-0.4,0-1.4,0.3-2.6,0.5c0,0.1-0.1,0.1-0.1,0.2c0-0.1-0.1-0.1-0.1-0.2c-1.2,0.2-2.6,0.3-3.4,0
		c0,0,1.6,0,3.2-0.3l0,0c-1.2,0.2-2.5,0.3-3.2,0c0,0,1.5,0,3.1-0.3c-0.4-0.9-0.8-1.9-1.2-2.8v-0.1c-0.2-0.5-0.4-1-0.6-1.5
		c0-0.1-0.1-0.2-0.1-0.2c-0.1-0.3-0.3-0.6-0.4-1c0-0.1,0-0.1-0.1-0.2c-0.5-1.3-1-2.5-1.5-3.6c-0.2-0.4-0.3-0.8-0.5-1.2l-0.1,0.1
		c-1,1.2-2,2.3-3,3.2c-3.7,3.9-6.3,6-6.8,5.6c-0.1-0.1-0.1-0.2-0.1-0.4c-0.1-0.9,1.4-3.7,4-7.6c0.7-1.1,1.5-2.3,2.5-3.6
		c0.5-0.7,1-1.5,1.6-2.3c-0.4-1-0.7-1.8-0.9-2.5c-1.3,0.9-2.4,1.8-3.5,2.8c-1.8,2.7-4.2,6.2-7.1,10.2c-1.3,2.6-2.1,5-2.6,7.1
		c-1,4.2-0.4,6.7-0.8,6.9l0,0c-0.2,0-0.5-0.5-0.8-1.7c-0.1-0.2-0.1-0.5-0.2-0.8c-0.4,0.6-0.9,1.2-1.3,1.8c-2,2.8-3.9,5.5-5.5,8.5
		c-1.1,1.9-2,3.8-2.9,5.8c3.1,3.7,5.5,6.2,5.8,7c0,0.1,0,0.2,0,0.2l0,0c0.1,0,0.2,0,0.5-0.2C46,101.3,47.3,99.2,49.2,96.7z
		 M115,68.1c0.2-0.7,1.5-1,3-0.6s2.5,1.3,2.3,2l0,0c0,0.1,0,0.2,0,0.3c-0.2,0.7-1.5,1-3,0.6s-2.5-1.3-2.3-2l0,0
		C115,68.4,115,68.2,115,68.1z"/>
	<path class="st2" d="M43.4,102.1c0.8,0.5,1.2,0.7,1.4,0.7C44.6,102.8,44.1,102.6,43.4,102.1z"/>
	<path class="st3" d="M80.6,77.2c0.1,0.2,0.2,0.3,0.3,0.5c0.1,0.1,0.2,0.2,0.3,0.2C81,77.7,80.8,77.5,80.6,77.2z"/>
	<path class="st4" d="M81.2,77.9L81.2,77.9c0.2,0.2,0.3,0.3,0.3,0.3l0,0l0,0c0,0-0.1,0-0.2-0.1c2.6,2.8,6.2,5.5,10.3,5.4
		c7.9-0.3,11-9.8,11.2-10.6v-0.1c0,0-0.3-4-2.4-7.4c-0.1-0.2-0.3-0.4-0.4-0.6c-0.3-0.2-0.7-0.4-1-0.6c1.6,1.8,1.7,3.3,1.7,3.3l0,0
		l0,0c0,0-0.3-0.5-0.9-1.2c-1.5-1.8-4.7-4.9-9.2-4.7c-2.5,0.1-4.3,1.6-6.2,3c-2.8,2.3-5.1,5.1-5,8.1c0.1,2.5,0.6,3.9,1.1,4.7l0,0
		l0,0C80.8,77.5,81,77.7,81.2,77.9L81.2,77.9z M83.3,70c0.2-0.9,0.4-1.8,0.9-2.8s1-1.9,1.8-2.7s1.8-1.5,3-2c1.2-0.4,2.4-0.5,3.6-0.4
		c0.8,0.1,1.5,0.4,2.2,0.7c0.1,0,0.2,0.1,0.2,0.1c0.2,0.1,0.5,0.3,0.7,0.4c0.4,0.3,0.8,0.6,1.2,1l0,0l0,0l0,0c0.3,0.3,0.6,0.7,0.9,1
		l0,0c0.3,0.4,0.5,0.7,0.7,1.1c0.1,0.2,0.2,0.4,0.3,0.5c0.1,0.2,0.2,0.4,0.2,0.5c0.3,0.7,0.5,1.4,0.6,2s0.2,1.1,0.2,1.5v0.3
		c0,0.1,0,0.2,0,0.3l0,0c0,0.1,0,0.2,0,0.2l0,0v0.2c0,0.2-0.1,0.3-0.2,0.3c0,0,0,0.1,0.1,0.3c0,0,0,0.1,0,0.2s0,0.1,0,0.2
		s0,0.3,0,0.5c0,1.1-0.2,2.2-0.6,3.3c0,0.1,0,0.1-0.1,0.2c-0.1,0.2-0.2,0.5-0.3,0.7c0,0,0,0.1-0.1,0.1c-0.1,0.1-0.1,0.2-0.2,0.3
		c-0.1,0.1-0.2,0.3-0.3,0.4c-0.1,0.1-0.1,0.2-0.2,0.3l0,0c-0.5,0.7-1,1.4-1.8,2c-0.3,0.2-0.6,0.4-0.9,0.6s-0.7,0.4-1,0.5
		c-0.2,0.1-0.5,0.2-0.8,0.3c-0.5,0.1-1,0.2-1.6,0.2c-1.1,0-2.2-0.2-3.2-0.7c-0.1-0.1-0.2-0.1-0.4-0.2s-0.2-0.1-0.4-0.2
		c-0.1-0.1-0.2-0.1-0.3-0.2l-0.2-0.1l-0.2-0.1c-0.1-0.1-0.2-0.1-0.3-0.2c-0.1-0.1-0.2-0.2-0.3-0.2l-0.1-0.1l0,0l0,0l0,0l0,0l0,0h0.1
		l0.3-0.1c0.1,0,0.3-0.1,0.4-0.1h0.1h0.1c0.1-0.1,0.2-0.1,0.3-0.2c0.4-0.2,0.7-0.5,1-0.9c0.5-0.7,0.8-1.5,0.7-2.3c0-0.1,0-0.1,0-0.2
		c-0.2-0.3-0.4-0.7-0.6-1l-0.1-0.1c0,0-0.1,0-0.1-0.1l0,0h-0.1h-0.1h-0.1c-0.3-0.1-0.6-0.1-0.9-0.1c-0.1,0-0.1,0-0.2,0
		c-0.2,0-0.3,0.1-0.5,0.1c-0.1,0-0.1,0-0.2,0.1c-0.5,0.2-0.9,0.5-1.2,0.7c-0.3,0.3-0.5,0.5-0.7,0.6c0.2,0.3,0.1,0.3,0.1,0.3
		s-0.1,0-0.1-0.1c-0.1-0.1-0.4-0.5-0.6-1c-0.3-0.8-0.7-2-0.8-3.5C83.1,71.7,83.2,70.8,83.3,70z"/>
	<path class="st5" d="M99.6,72.3c-0.1-0.2-0.2-0.5-0.3-1.1c-0.1-0.4-0.2-0.8-0.4-1.4c-0.2-0.5-0.4-1.1-0.8-1.7
		c-0.1-0.1-0.2-0.3-0.3-0.5l0,0c0,0.4-0.2,0.8-0.5,1.1c-0.3,0.3-0.7,0.5-1.2,0.5c-1,0-1.8-0.7-1.8-1.7c0-0.4,0.1-0.7,0.3-1
		c0.3-0.4,0.7-0.7,1.3-0.8H96l0,0l0,0c0.1,0,0.2,0,0.3,0c-0.1-0.1-0.2-0.3-0.4-0.4c-0.3-0.3-0.7-0.5-1-0.7c-0.7-0.4-1.6-0.8-2.5-0.9
		c-0.9-0.1-1.9,0-2.8,0.3s-1.7,0.9-2.4,1.5c-0.7,0.7-1.2,1.4-1.6,2.2c-0.4,0.8-0.7,1.6-0.9,2.3c-0.2,0.8-0.3,1.5-0.3,2.2
		c0,0.2,0,0.4,0,0.6c1-0.5,2.4-1.1,4.2-1.5l0,0l0,0c0.1-0.3,0.1-0.6,0.2-0.8c0.1-0.4,0.3-0.6,0.3-0.6s0,0,0,0.1v0.1l0,0
		c0,0.1,0,0.3,0,0.5s0,0.4,0,0.6c1.5-0.2,3.2-0.3,5.1-0.1c0-0.3-0.1-0.5-0.1-0.8C94,70.3,94,70.1,94,70v-0.1c0,0,0.2,0.2,0.4,0.6
		c0.1,0.2,0.2,0.6,0.3,1l0,0l0,0c1.5,0.2,3.1,0.5,4.8,1.1C99.6,72.5,99.6,72.4,99.6,72.3C99.6,72.4,99.6,72.4,99.6,72.3L99.6,72.3z"
		/>
	<path class="st5" d="M99.6,72.4L99.6,72.4L99.6,72.4z"/>
	<path class="st6" d="M88.1,80.8c0.1,0.1,0.2,0.1,0.3,0.2c0.1,0.1,0.2,0.1,0.3,0.2c1,0.6,2.1,0.8,3.3,0.8c0.5,0,1-0.1,1.5-0.2
		c0.9-0.3,1.8-0.7,2.5-1.3c0.7-0.5,1.3-1.2,1.7-1.9c0.2-0.3,0.4-0.7,0.6-1c0.1-0.2,0.1-0.3,0.2-0.5c-1.6-0.5-3-0.7-4.4-0.8l0,0
		c-0.1,0.2-0.2,0.3-0.3,0.4c-0.2,0.2-0.5,0.5-0.8,0.7c-0.1,0.1-0.3,0.2-0.5,0.2c-0.2,0.1-0.4,0.1-0.5,0.1c-0.2,0-0.4,0-0.6,0
		s-0.4-0.1-0.5-0.2c-0.3-0.1-0.5-0.3-0.7-0.5c0,0.8-0.3,1.5-0.8,2.2c-0.3,0.4-0.7,0.7-1.1,1l0,0l0,0c-0.1,0.1-0.2,0.1-0.3,0.2h-0.1
		l0,0l0.1,0.1L88.1,80.8z"/>
	<path class="st6" d="M91.9,77c0.4,0,0.8-0.3,1.2-0.6c-0.4,0-0.9,0-1.3,0s-0.8,0-1.2,0.1c0,0,0,0,0.1,0.1C91,76.8,91.5,77,91.9,77z"
		/>
	<path class="st7" d="M88.6,71.6c-1.8,0.4-3.2,0.9-4.2,1.5l0,0l0,0c0,1.1,0.1,2,0.2,2.6c0.1,0.4,0.1,0.8,0.1,1c0,0.1,0,0.1,0,0.2
		l0,0c0,0,0.1-0.1,0.1-0.2c0.1-0.2,0.3-0.4,0.6-0.7c0.3-0.3,0.7-0.6,1.2-0.9c0.3-0.1,0.6-0.2,0.9-0.3c0.3-0.1,0.7,0,1.1,0h0.1h0.1
		c-0.1-0.3-0.1-0.6-0.2-0.8l0,0c-0.1-0.5-0.1-1-0.1-1.4c0-0.1,0-0.1,0-0.2s0-0.2,0-0.2C88.5,72,88.5,71.8,88.6,71.6
		C88.6,71.8,88.6,71.7,88.6,71.6L88.6,71.6z"/>
	<path class="st7" d="M89.1,71.5L89.1,71.5c0,0.1,0,0.2,0,0.3l0,0c0,0.3,0,0.5,0,0.8l0,0c0.1,0.8,0.2,1.7,0.7,2.5
		c0.2,0.4,0.5,0.8,0.8,1.1c0.4,0,0.8-0.1,1.2-0.1c0.4,0,0.8,0,1.3,0l0,0c0.3-0.4,0.6-0.8,0.7-1.3c0.2-0.5,0.3-0.9,0.3-1.4
		c0.1-0.4,0.1-0.8,0.1-1.2v-0.1c0-0.2,0-0.4,0-0.5s0-0.2,0-0.3l0,0l0,0C92.3,71.2,90.6,71.3,89.1,71.5z"/>
	<path class="st7" d="M94.8,71.5c0.1,0.3,0.1,0.6,0.2,0.9c0,0.2,0,0.5,0,0.8c0,0.2,0,0.4,0,0.6c0,0.5-0.1,1-0.3,1.5
		c-0.1,0.4-0.3,0.7-0.5,1.1l0,0c1.3,0.1,2.8,0.4,4.4,0.8l0,0c0.1-0.2,0.2-0.3,0.2-0.5c0.3-0.6,0.4-1.2,0.5-1.8
		c0.1-0.5,0.2-1,0.2-1.4c0-0.2,0-0.4,0-0.5s0-0.1,0-0.2s0-0.1,0-0.2v-0.1l0,0l0,0C97.9,72,96.3,71.6,94.8,71.5L94.8,71.5z"/>
	<path class="st0" d="M91.8,76.3c0.4,0,0.8,0,1.3,0"/>
	<path class="st4" d="M96,65.8L96,65.8c-0.6,0.1-1.1,0.4-1.4,0.8c-0.2,0.3-0.3,0.6-0.3,1c0,1,0.8,1.7,1.8,1.7c0.4,0,0.8-0.2,1.1-0.5
		c0.3-0.3,0.5-0.7,0.5-1.1l0,0l0,0c-0.1-0.1-0.2-0.3-0.3-0.4c-0.2-0.3-0.4-0.6-0.7-0.9c-0.1-0.2-0.3-0.3-0.5-0.5l0,0l0,0
		C96.2,65.8,96.1,65.8,96,65.8L96,65.8z"/>
	<path class="st8" d="M81.4,78.1C81.5,78.1,81.5,78.2,81.4,78.1L81.4,78.1c0.1,0.1,0,0-0.2-0.1l0,0c-0.1-0.1-0.2-0.1-0.3-0.2
		C81.1,77.9,81.3,78,81.4,78.1z"/>
	<path class="st8" d="M117.3,70.1c1.5,0.4,2.8,0.1,3-0.6l0,0c0.2-0.7-0.8-1.6-2.3-2s-2.8-0.1-3,0.6c0,0.1,0,0.2,0,0.3
		C115.2,69.1,116.1,69.8,117.3,70.1z"/>
	<path class="st8" d="M89,62.6c-1.2,0.4-2.2,1.1-3,2c-0.8,0.8-1.4,1.8-1.8,2.7c-0.4,0.9-0.7,1.9-0.9,2.8c-0.1,0.9-0.2,1.7-0.2,2.5
		c0.1,1.5,0.4,2.7,0.8,3.5c0.3,0.6,0.5,0.9,0.6,1c0.1,0,0.1,0.1,0.1,0.1s0.1-0.1,0.2-0.2c0.2-0.2,0.4-0.4,0.7-0.6
		c0.3-0.3,0.7-0.5,1.2-0.7c0.1,0,0.1,0,0.2-0.1c0.2-0.1,0.3-0.1,0.5-0.1c0.1,0,0.1,0,0.2,0c0.3,0,0.6,0,0.9,0.1h0.1h0.1h0.1l0,0
		c0,0,0.1,0,0.1,0.1l0.1,0.1l0,0c0.1,0.3,0.3,0.7,0.6,1c0,0.1,0,0.1,0,0.2c0.1,0.8-0.2,1.6-0.7,2.3c-0.3,0.3-0.6,0.6-1,0.9
		c-0.1,0.1-0.2,0.1-0.3,0.2c0,0,0,0-0.1,0h-0.1c-0.1,0-0.2,0.1-0.4,0.1l-0.3,0.1h-0.1l0,0l0,0l0,0l0,0l0.1,0.1
		c0.1,0.1,0.2,0.2,0.3,0.2c0.1,0.1,0.2,0.2,0.3,0.2l0.2,0.1l0.2,0.1c0.1,0.1,0.2,0.2,0.3,0.2c0.1,0.1,0.2,0.1,0.4,0.2
		s0.2,0.1,0.4,0.2c1,0.5,2.1,0.7,3.2,0.7c0.5,0,1.1-0.1,1.6-0.2c0.3-0.1,0.5-0.2,0.8-0.3c0.4-0.1,0.7-0.3,1-0.5s0.6-0.4,0.9-0.6
		c0.7-0.6,1.3-1.3,1.8-2l0,0c0.1-0.1,0.1-0.2,0.2-0.3c0.1-0.1,0.2-0.3,0.3-0.4c0.1-0.1,0.1-0.2,0.2-0.3c0,0,0-0.1,0.1-0.1
		c0.1-0.3,0.2-0.5,0.3-0.7c0,0,0-0.1,0.1-0.1c0.4-1.1,0.6-2.2,0.6-3.3c0-0.2,0-0.4,0-0.5s0-0.1,0-0.2s0-0.1,0-0.2
		c0-0.2,0-0.3-0.1-0.3l0,0l0,0l0,0l0,0c0.1,0,0.1-0.1,0.2-0.3v-0.2l0,0l0,0c0-0.1,0-0.1,0-0.2l0,0c0-0.1,0-0.2,0-0.3v-0.3
		c0-0.4,0-0.9-0.2-1.5c-0.1-0.6-0.3-1.3-0.6-2c-0.1-0.2-0.2-0.3-0.2-0.5c-0.1-0.2-0.2-0.4-0.3-0.5c-0.2-0.4-0.4-0.7-0.7-1.1l0,0
		c-0.3-0.4-0.6-0.7-0.9-1l0,0l0,0c-0.4-0.4-0.8-0.7-1.2-1c-0.2-0.2-0.5-0.3-0.7-0.4c-0.1,0-0.2-0.1-0.2-0.1
		c-0.7-0.3-1.4-0.6-2.2-0.7C91.4,62,90.2,62.1,89,62.6z M99.6,72.6L99.6,72.6L99.6,72.6L99.6,72.6c0,0.2,0,0.2,0,0.3s0,0.1,0,0.2
		c0,0.2,0,0.3,0,0.5c0,0.4-0.1,0.9-0.2,1.4s-0.3,1.1-0.5,1.8c-0.1,0.2-0.1,0.3-0.2,0.5l0,0c-0.1,0.2-0.1,0.3-0.2,0.5
		c-0.2,0.3-0.4,0.7-0.6,1c-0.5,0.7-1.1,1.3-1.7,1.9c-0.7,0.5-1.5,1-2.5,1.3c-0.5,0.1-1,0.2-1.5,0.2c-1,0-2-0.2-3-0.6
		c-0.1-0.1-0.2-0.1-0.3-0.2c-0.1-0.1-0.2-0.1-0.3-0.2c-0.1-0.1-0.2-0.1-0.3-0.2l-0.2-0.1L88,80.8l0,0l0,0l0,0l0,0h0.1
		c0.1-0.1,0.2-0.1,0.3-0.2c0,0,0,0,0.1,0c0.4-0.3,0.8-0.6,1.1-1c0.5-0.7,0.8-1.4,0.8-2.2c0.2,0.2,0.5,0.4,0.7,0.5s0.3,0.1,0.5,0.2
		c0.2,0,0.4,0,0.6,0s0.4-0.1,0.5-0.1c0.2-0.1,0.3-0.1,0.5-0.2c0.3-0.2,0.5-0.4,0.8-0.7c0.1-0.1,0.2-0.3,0.3-0.4l0,0l0,0
		c0.2-0.4,0.4-0.7,0.5-1.1c0.2-0.5,0.3-1,0.3-1.5c0-0.2,0-0.4,0-0.6c0-0.3,0-0.5,0-0.8s-0.1-0.6-0.2-0.9s-0.2-0.7-0.3-1
		c-0.2-0.4-0.4-0.6-0.4-0.6l0,0c0,0.1,0,0.3,0.1,0.6c0,0.2,0.1,0.5,0.1,0.8l0,0l0,0c0,0.1,0,0.2,0,0.3c0,0.2,0,0.3,0,0.5v0.1l0,0
		c0,0.4,0,0.8-0.1,1.2c-0.1,0.4-0.2,0.9-0.3,1.4c-0.2,0.5-0.4,0.9-0.7,1.3v0.1c-0.3,0.3-0.7,0.6-1.2,0.6s-0.9-0.2-1.3-0.5l-0.1-0.1
		c-0.3-0.3-0.6-0.7-0.8-1.1c-0.4-0.9-0.6-1.8-0.7-2.6v-0.1c0-0.3,0-0.5,0-0.8l0,0c0-0.1,0-0.2,0-0.3l0,0c0-0.2,0-0.4,0-0.6
		s0-0.4,0-0.5l0,0v-0.1v-0.1c-0.1,0-0.2,0.2-0.4,0.6c-0.1,0.2-0.1,0.5-0.2,0.8v0.1c0,0.2,0,0.3-0.1,0.5c0,0.1,0,0.2,0,0.2
		c0,0.1,0,0.1,0,0.2c0,0.4,0,0.9,0.1,1.4l0,0c0,0.3,0.1,0.5,0.2,0.8l0,0h-0.1h-0.1c-0.4-0.1-0.7-0.1-1.1,0s-0.6,0.2-0.9,0.3
		c-0.5,0.3-0.9,0.6-1.2,0.9c-0.3,0.3-0.5,0.5-0.6,0.7c0,0.1-0.1,0.1-0.1,0.2l0,0c0,0,0-0.1,0-0.2c0-0.2-0.1-0.5-0.1-1
		c-0.1-0.6-0.2-1.5-0.2-2.6l0,0l0,0l0,0c0-0.2,0-0.4,0-0.6c0-0.7,0.2-1.4,0.3-2.2c0.2-0.8,0.5-1.6,0.9-2.3c0.4-0.8,0.9-1.5,1.6-2.2
		s1.5-1.2,2.4-1.5s1.9-0.4,2.8-0.3s1.8,0.4,2.5,0.9c0.4,0.2,0.7,0.5,1,0.7c0.1,0.1,0.2,0.2,0.4,0.4l0,0l0,0c0.2,0.1,0.3,0.3,0.5,0.5
		c0.3,0.3,0.5,0.6,0.7,0.9c0.1,0.1,0.2,0.3,0.3,0.4l0,0l0,0l0,0c0.1,0.2,0.2,0.3,0.3,0.5c0.3,0.6,0.6,1.2,0.8,1.7
		c0.2,0.5,0.3,1,0.4,1.4C99.5,72.1,99.6,72.4,99.6,72.6L99.6,72.6c0,0,0,0.1,0.1,0.1C99.6,72.4,99.6,72.5,99.6,72.6z"/>
	<path class="st0" d="M94.8,62.9c0.1,0,0.2,0.1,0.2,0.1"/>
	<path class="st0" d="M98.7,77.8c0.1-0.3,0.2-0.5,0.3-0.7"/>
	<path class="st0" d="M98.5,78.3c-0.1,0.1-0.2,0.3-0.3,0.4"/>
	<path class="st0" d="M89.2,70.4C89.2,70.4,89.2,70.3,89.2,70.4"/>
	<path class="st0" d="M84.7,76.7c0,0.1,0,0.1,0,0.2"/>
	<path class="st0" d="M89.1,72.7c0-0.3,0-0.5,0-0.8"/>
	<path class="st0" d="M88.6,71.8c0,0.2,0,0.3-0.1,0.5"/>
	<path class="st1" d="M81.1,55.5c-0.3-0.1-0.7-0.3-1-0.4c0,0,0,0-0.1,0c-0.5-0.2-0.9-0.4-1.3-0.5l0,0l0,0L78.5,55
		c-0.1,0.3-0.2,0.6-0.4,0.9c0.2,0,0.4-0.1,0.5-0.1C79.5,55.7,80.3,55.6,81.1,55.5z"/>
	<path class="st1" d="M66,57.1c-0.1-0.3-0.3-0.5-0.4-0.8l0,0l0,0l0,0C65.7,56.7,65.8,56.9,66,57.1c0.5,1.1,1.2,2.4,1.9,3.9l0,0
		C67.2,59.5,66.6,58.3,66,57.1z"/>
	<path class="st1" d="M81.1,52c-0.3-0.1-0.6-0.2-0.9-0.3c-0.4-0.2-0.8-0.3-1.2-0.4c-0.5-0.2-1.1-0.4-1.6-0.6l0,0c0,0,0,0-0.1,0l0,0
		c0.5,0.2,1.1,0.4,1.6,0.6c0.4,0.1,0.8,0.3,1.2,0.4C80.5,51.8,80.8,51.9,81.1,52c2.2,0.9,4.4,1.8,6.6,2.8c0,0,0,0,0.1,0
		C85.6,53.8,83.3,52.8,81.1,52z"/>
	<path class="st1" d="M60.6,63.4c-2.6,3.9-4.1,6.7-4,7.6c0,0.1,0,0.2,0.1,0.3c0.6,0.5,3.2-1.7,6.8-5.6c0.9-1,1.9-2,3-3.2l0.1-0.1
		c-0.7-1.7-1.3-3.3-1.8-4.6c0-0.1-0.1-0.2-0.1-0.3l0,0c-0.6,0.8-1.1,1.5-1.6,2.3C62.2,61.1,61.4,62.3,60.6,63.4z"/>
	<path class="st9" d="M20.6,99.7c-0.2-0.3-0.5-0.7-0.8-1.1c-0.1-0.2-0.3-0.4-0.5-0.7c-0.7-0.9-1.4-2.1-2.4-3.4
		c-0.5-0.7-1-1.4-1.6-2.1c-0.3-0.4-0.6-0.7-1-1c-0.2-0.2-0.3-0.3-0.5-0.4c-0.1,14.9,4.2,29.4,11.3,42.8c1.8,3.2,5,5.9,7.8,9.6
		c1.7,2.6,3.3,5.2,5,7.7c3.6-2,9.1-1.1,12.5,0.6c1.2,0.6,2.1,1.3,2.8,2.1c2.9,3.5,1.5,8.8-1.7,12.8c0,0,0,0.1-0.1,0.1
		c2.4,2,5.1,3.7,8,5c0.3,0.2,0.7,0.3,1,0.5c0.3-0.6,0.6-1.1,1-1.7c0.6-0.9,1.3-1.7,2.2-2.3c1.4-1,3.1-1.7,5-1.8
		c6.8-0.3,12.3,4.4,12.5,10.5c3.5,0.1,7.1-0.1,10.6-0.7l0,0l0,0c-0.1-0.8-0.1-1.7-0.1-2.6c0,0,0,0,0-0.1c0-0.6,0.1-1.1,0.2-1.7
		c0.1-0.4,0.1-0.8,0.2-1.2c0.2-1.2,0.6-2.3,1.1-3.4c0.7-1.7,1.8-3.2,3-4.3c1.9-1.6,5.3-1.9,8.3-1.3c0.6,0.1,1.2,0.3,1.7,0.5
		s1.1,0.4,1.5,0.7c0.5,0.3,0.9,0.6,1.2,0.9c1.6,1.5,2,3.9,2,6c0,0.3,0,0.7,0,1c0.1,0,0.1-0.1,0.2-0.1c1.9-0.8,3.7-1.8,5.5-2.8
		c0.2-0.1,0.5-0.3,0.7-0.4c0.3-0.1,0.5-0.3,0.7-0.5c1.8-1.1,3.5-2.2,5.2-3.4l0,0c-1.3-0.5-2.5-1.1-3.8-1.8c-0.6-0.3-1.2-0.7-1.8-1
		s-1.2-0.7-1.8-1.1c-0.3-0.2-0.5-0.3-0.8-0.5c-0.8-0.5-1.6-1.1-2.3-1.7c-1-0.8-1.8-1.8-2.2-3c-0.4-1.1-0.6-2.4-0.5-3.8
		c0.1-2.3,0.7-4.7,1.6-6.5c0.7-1.4,1.7-2.5,2.9-3.1c0.5-0.3,1-0.5,1.5-0.6c0.8-0.2,1.7-0.4,2.6-0.4c0.3,0,0.6,0,0.9,0
		c6.4,0.4,14.3,5.4,16.1,9.9c0.2,0.5,0.4,1.1,0.5,1.6c13.2-15.4,20.8-36.1,21.7-56.5l-0.4-1.1c-0.2-0.5-0.5-1-0.7-1.6
		c-0.2-0.5-0.5-1-0.7-1.5c-0.4-0.7-0.7-1.3-1.1-1.9c-0.1,0.3-0.3,0.5-0.4,0.8c-0.1,0.1-0.1,0.3-0.2,0.4c-0.1,0.1-0.1,0.3-0.2,0.5
		c-0.2,0.5-0.4,1-0.6,1.5c-0.1,0.3-0.2,0.6-0.3,0.8c-0.2,0.5-0.4,1-0.6,1.5c-0.1,0.3-0.2,0.5-0.3,0.7s-0.2,0.5-0.2,0.7
		c-0.2,0.6-0.4,1.1-0.5,1.4s-0.2,0.5-0.2,0.5l0,0c-0.2,0.2-1-0.3-2.4-1.4c-0.7-0.5-1.5-1.2-2.3-1.9c-0.4-0.4-0.9-0.8-1.4-1.2
		c-0.1-0.1-0.3-0.2-0.4-0.3l-0.1-0.1l-0.1-0.1l0,0h-0.1l-0.1,0.1v0.1l0,0l-0.1,0.1c-0.4,0.4-0.8,0.9-1.1,1.3
		c-0.8,0.9-1.6,1.9-2.4,2.8c-0.7,0.9-1.4,1.7-2,2.5c0,0,0,0.1-0.1,0.1c-0.1,0.1-0.2,0.2-0.3,0.3c-1.8,2.3-3.3,4.4-4.5,6.1
		s-2.1,2.9-2.7,3.6c-0.3,0.4-0.6,0.5-0.7,0.5l0,0c-0.3,0.2-1.9-1.8-4-5.4c-1.1-1.8-2.2-4-3.4-6.5c-0.3-0.6-0.6-1.3-0.9-1.9
		c-0.2-0.3-0.3-0.7-0.4-1l0,0l0,0l0,0l0,0l0,0l0,0l0,0l0,0l0,0c0,0.1-0.1,0.2-0.4,0.6c-3.2,4.9-5.7,9.6-7.5,13.2
		c-0.8,1.7-1.5,3.1-2.1,4.2c-0.8,1.6-1.3,2.5-1.5,2.4l0,0c-0.4,0.5-7.9-4.5-16.3-12.3c-0.5-0.5-1-1-1.6-1.5c-0.3-0.3-0.6-0.6-1-0.9
		c-0.2-0.2-0.4-0.4-0.6-0.6c-0.6-0.6-1.1-1.1-1.7-1.7l-1.4-1.5l-0.1-0.1l0,0l0,0l0,0c0,0.1,0-0.1-0.2,0.3c-0.3,0.6-0.5,1.1-0.8,1.7
		s-0.5,1.1-0.7,1.6c-0.1,0.2-0.2,0.4-0.3,0.6c-0.1,0.2-0.2,0.5-0.3,0.7c-0.2,0.4-0.4,0.8-0.5,1.2c-1.3,3-2.1,4.8-2.4,4.7l0,0
		c-0.1,0.1-0.5-0.1-1.1-0.4c-1.2-0.7-3.2-2.1-5.7-4.3c-0.4-0.3-0.8-0.7-1.1-1c-0.1-0.1-0.1-0.1-0.2-0.1c-0.2-0.1-0.3-0.3-0.5-0.5
		c-2.8-2.6-6-5.9-9.2-9.9c-0.1-0.2-0.2-0.3-0.4-0.5c-0.7-0.9-1.4-1.8-2.1-2.8c-0.3-0.4-0.6-0.8-0.8-1.2l-0.4-0.5L60.6,87l-0.2-0.3
		l0,0l0,0c-1.3,1.3-2.5,2.5-3.7,3.7c-2.3,2.4-4.4,4.6-6,6.4c-2.6,2.9-4.4,5-5.3,5.7c-0.2,0.2-0.4,0.3-0.5,0.2h-0.1
		c-0.2,0-0.7-0.2-1.4-0.7c-0.8-0.5-1.8-1.3-2.9-2.3c-0.2-0.1-0.3-0.3-0.5-0.4c-0.6-0.5-1.2-1.1-1.8-1.7l0,0
		c-0.1-0.1-0.2-0.2-0.3-0.3c-1.1-1.1-2.3-2.3-3.4-3.7c-1.3-1.5-2.6-3.1-3.8-4.9c-0.2-0.3-0.4-0.6-0.6-0.9l0,0l0,0l0,0L29.9,88
		l-0.2,0.2c-0.1,0.1-0.2,0.2-0.3,0.3c-0.2,0.2-0.4,0.4-0.6,0.7c-0.2,0.2-0.4,0.4-0.6,0.7c-0.2,0.2-0.4,0.5-0.5,0.7
		c-1.3,1.6-2.4,3.3-3.4,5c-0.8,1.5-1.4,2.8-1.8,3.7c-0.4,0.9-0.7,1.4-0.9,1.4c0,0-0.2-0.1-0.4-0.3c-0.1-0.1-0.2-0.2-0.3-0.3
		C20.8,99.9,20.7,99.8,20.6,99.7z M90.1,133.6c2.1,2.2,3,5.3,3.1,8.4s-0.6,6.1-1.3,9c-0.5,2.2-1.1,4.4-2.5,6.1
		c-2.2,2.6-5.9,3.2-9.2,3.2c-4.5-0.1-9.2-1.2-12.8-3.9c-0.7-0.5-1.3-1.1-1.9-1.7c-2.6-2.6-4.3-6.2-4.3-9.9
		c0.1-10.3,12.2-16.5,21.2-15C85.1,130.4,88,131.5,90.1,133.6z"/>
	<path class="st10" d="M136,151.6L136,151.6c0.6,2.5,0.4,5.1-0.1,7.6c-0.5,2.2-1.3,4.5-3.3,5.5c-0.8,0.4-1.8,0.5-2.7,0.5
		c-0.3,0-0.6,0-0.9-0.1c-2-0.2-3.9-0.8-5.8-1.5c-1.7,1.2-3.4,2.4-5.2,3.4c-0.3,0.2-0.5,0.3-0.7,0.5c-0.2,0.1-0.5,0.3-0.7,0.4
		c-1.8,1-3.6,2-5.5,2.8c-0.1,0-0.1,0.1-0.2,0.1l0,0c-0.1,3.3-1,6.6-2.5,9.5c-0.7,1.3-1.5,2.5-2.6,3.5c-2.3,1.9-5.8,2.1-8.5,0.8
		s-4.6-4-5.3-6.9c0-0.1,0-0.1,0-0.2c-0.1-0.4-0.2-0.8-0.2-1.2v-0.1c-3.6,0.5-7.1,0.7-10.6,0.7c0,1.3-0.2,2.7-0.6,4.1
		c-0.1,0.3-0.2,0.6-0.3,0.9c-0.3,0.8-0.7,1.5-1.2,2.1c-0.1,0.1-0.2,0.2-0.2,0.3l0,0l0,0c-1.7,2-4.6,2.7-7.2,2.6
		c-4.6-0.2-9.2-2.5-11-6.8c-1.2-2.7-1-5.6,0.1-8c-0.3-0.2-0.7-0.3-1-0.5c-2.9-1.3-5.5-3-8-5c-1.1,1.4-2.6,2.6-4.3,2.6
		c-0.7,0-1.4-0.2-2.1-0.5c-0.1,0-0.2-0.1-0.3-0.1c-4.2-1.9-7.5-5.6-9-10c-0.5-1.3-0.7-2.7-0.6-3.9c0.1-1.2,0.7-2.3,2-3.2
		c0.3-0.2,0.5-0.3,0.8-0.5c-1.7-2.5-3.4-5.1-5-7.7c-2.7-3.6-5.9-6.4-7.8-9.6c-7.1-13.5-11.5-27.9-11.3-42.8
		c-0.2-0.2-0.4-0.3-0.6-0.4c-0.1-0.1-0.2-0.1-0.3-0.1s-0.2,0-0.3,0c-0.2,0-0.4,0-0.6,0.1c-0.4,0.2-0.8,0.5-1.1,0.9
		c-0.7,0.9-1.1,2-1.5,3.2s-0.7,2.5-1,3.9c-0.1,0.7-0.3,1.4-0.4,2.1c-0.1,0.7-0.3,1.4-0.4,2.2c-0.5,3-0.8,6.2-0.8,9.6s0.2,7,0.8,10.7
		c0.6,3.8,1.5,7.6,2.7,11.6s2.7,8,4.5,12.1s3.9,8.3,6.1,12.5c1.1,2.1,2.3,4.2,3.5,6.4c1.2,2.1,2.5,4.3,3.8,6.4
		c1.4,2.1,2.8,4.1,4.5,6s3.5,3.6,5.6,5.1c4.1,3.1,8.9,5.6,13.8,7.9c5,2.3,10.3,4.2,15.6,5.5c5.4,1.4,11.1,2.3,16.9,2.6s11.5,0,17-1
		s10.8-2.6,15.8-4.7c5-2.1,9.6-4.8,13.8-7.9l0.8-0.6l0.8-0.6l1.5-1.2c1-0.8,1.9-1.7,2.9-2.5c0.5-0.4,0.9-0.9,1.3-1.3
		c0.4-0.5,0.9-0.9,1.3-1.4c0.4-0.5,0.8-0.9,1.3-1.4l0.6-0.7l0.6-0.7c0.2-0.3,0.5-0.6,0.7-0.9c0.3-0.4,0.6-0.8,0.9-1.2
		c0.5-0.6,0.9-1.3,1.4-1.9c0.2-0.3,0.4-0.6,0.6-0.8c0.3-0.4,0.5-0.7,0.7-1.1c1.3-2.1,2.5-4.1,3.5-6.3c0.6-1,1-2.1,1.5-3.2
		c0.5-1.1,0.9-2.1,1.4-3.2c0.2-0.5,0.4-1.1,0.6-1.6c0.2-0.5,0.4-1.1,0.6-1.6c0.4-1.1,0.7-2.1,1.1-3.2c1.4-4.3,2.4-8.5,3.2-12.5
		c0.8-4.1,1.5-8,1.9-11.8s0.6-7.4,0.6-10.8s-0.3-6.6-0.8-9.6s-1.1-5.7-2-8.1c-0.2-0.8-0.6-1.6-0.9-2.4
		C156.8,115.5,149.2,136.2,136,151.6L136,151.6z"/>
	<path class="st0" d="M118,167c-0.3,0.2-0.5,0.3-0.7,0.5"/>
	<path class="st8" d="M162,105.4L162,105.4c-0.6-3-1.3-5.8-2.2-8.3c-0.4-1.3-1-2.4-1.4-3.5c-0.2-0.6-0.5-1.1-0.8-1.6s-0.5-1-0.8-1.5
		c-0.7-1.2-1.4-2.3-2.1-3.2c-0.3,0.6-0.5,1.1-0.8,1.7c-0.8,1.8-1.5,3.6-2,5.5c-0.4,1.6-0.6,2.6-0.7,3.1c0,0.1,0,0.1,0,0.2
		c0,0,0-0.1,0-0.2c-0.1-0.4-0.6-1.1-1.4-2.1c-0.5-0.7-1.2-1.4-2-2.3c-0.4-0.4-0.8-0.9-1.2-1.4l-0.3-0.4l-0.2-0.2l-0.3-0.3
		c-0.5-0.5-0.9-0.9-1.4-1.4c-0.6,0.7-1.3,1.4-2,2.1c-0.4,0.4-0.8,0.8-1.2,1.3c-0.8,0.9-1.6,1.9-2.5,2.9c-3,3.6-5.2,7.3-6.6,10
		c-1,1.9-1.5,3.3-1.7,4.1c-0.3-0.9-1.2-2.9-2.4-5.7c-0.8-1.9-1.8-4.1-2.9-6.6c-0.3-0.6-0.5-1.3-0.8-1.9c-0.4-1-0.8-2-1.2-3
		c-0.3-0.7-0.5-1.4-0.8-2.1l-0.1-0.3v-0.1v-0.1l0,0l-0.3,0.5c-0.2,0.3-0.4,0.6-0.7,0.9c-0.4,0.6-0.9,1.3-1.3,1.9
		c-0.3,0.4-0.6,0.9-0.9,1.3c-3.5,5.4-5.9,10.6-7.3,14.6c-1.1,3.2-1.7,5.4-1.7,6.3c0.1,0.1,0.1,0.2,0.1,0.2c0-0.1,0-0.1-0.1-0.2
		c-0.8-1.3-6.2-6-12.8-12.2c1-0.1,2.1-0.3,3.1-0.6c4.2-0.9,8.7-2.6,13-5.5c2.1-1.5,4.2-3.3,5.9-5.5c1.8-2.2,3.2-4.6,4.5-7
		s2.6-5,3.6-7.8s1.8-5.9,2-9.2c0.1-1.3,0-2.6-0.3-4l0.1,0.3c0.2,0.6,0.4,1.2,0.6,1.8c0.2,0.7,0.4,1.4,0.7,2.1
		c0.2,0.7,0.4,1.5,0.7,2.2c0.3-0.9,0.6-1.8,0.8-2.7c1.9-6,4-12.9,6.3-20.5l0.1-0.2c0,0,0.1,0.1,0.2,0.1c0.2,0.1,0.4,0.3,0.6,0.4
		c0.8,0.5,1.7,1.1,2.5,1.7c1.7,1.2,3.4,2.4,5.1,3.7c3.4,2.6,6.9,5.6,10.3,8.9l3.9,3.8l-2-5.4c-2.3-6.1-5.2-12.2-8.9-18
		c-0.9-1.5-1.9-2.9-2.9-4.4c-1-1.4-2-2.8-3.2-4.2c-1.1-1.4-2.3-2.7-3.4-4.1c-1.2-1.3-2.4-2.6-3.7-3.9s-2.6-2.5-4-3.7
		s-2.8-2.3-4.3-3.4c-2.9-2.2-6-4.2-9.3-5.9c-3.3-1.8-6.7-3.3-10.1-4.5c-3.5-1.3-7.2-2.3-10.9-3c-5.1-1-10.2-1.4-15.4-1.3
		c-1.3,0.1-2.5,0.1-3.8,0.2c-0.6,0.1-1.3,0.1-1.9,0.2l-0.9,0.1l-0.9,0.1c-1.2,0.2-2.5,0.4-3.7,0.6S69.2,5.3,68,5.6
		c-4.8,1.2-9.5,2.8-13.9,4.6s-8.8,3.8-12.8,6.4c-2,1.3-3.9,2.7-5.7,4.3c-0.9,0.8-1.7,1.6-2.6,2.5c-0.8,0.9-1.6,1.7-2.3,2.6
		c-3,3.6-5.5,7.5-7.7,11.3c-2.2,3.9-4,7.7-5.8,11.4c-0.8,1.9-1.7,3.7-2.5,5.5s-1.6,3.5-2.4,5.3c-0.7,1.8-1.4,3.6-1.8,5.5
		c-0.4,1.9-0.5,3.8-0.2,5.6c0,0.5,0.1,0.9,0.2,1.3l0.1,0.7l0.2,0.6l0.2,0.6c0.1,0.3,0.2,0.6,0.3,0.9c0.2,0.6,0.5,1.2,0.7,1.8l0,0
		l0,0l0.1-0.1l0.2-0.1l0.4-0.2l0.7-0.5l0.7-0.5l0.3-0.2l0.2-0.2c0.6-0.4,1.2-0.8,1.7-1.3c4.5-3.4,8.2-6.7,11.1-9.4l6.8-6.3
		c1.2-1.1,1.9-1.8,2.2-2.1c0.1-0.1,0.1-0.2,0.1-0.2c0-0.1-1,0.5-2.6,1.8c-1.7,1.3-4,3.2-7.1,5.8c-3.1,2.5-6.8,5.7-11.3,8.9
		c-0.6,0.4-1.1,0.8-1.7,1.2l-0.2,0.2l-0.1,0.1l-0.2,0.1l0.2,0.5h-0.1l0,0l0,0c-0.1-0.2-0.1-0.3-0.2-0.5c0-0.1,0-0.1-0.1-0.2L13,72.8
		l-0.2-0.6l-0.1-0.6c-0.1-0.4-0.2-0.8-0.2-1.2c-0.2-1.6-0.1-3.2,0.3-4.8c0.4-1.6,1-3.3,1.7-5s1.6-3.4,2.4-5.2
		c0.8-1.8,1.7-3.6,2.6-5.4c1.8-3.7,3.6-7.4,5.8-11.2c2.2-3.7,4.6-7.4,7.5-10.8c0.7-0.9,1.5-1.6,2.2-2.5c0.8-0.8,1.6-1.6,2.4-2.3
		c1.7-1.5,3.5-2.8,5.4-4c3.8-2.4,8-4.3,12.4-6.1s8.9-3.3,13.6-4.4c1.2-0.3,2.3-0.5,3.5-0.8c1.2-0.2,2.4-0.4,3.6-0.6l0.9-0.1h0.1
		l0.8-0.1l1.8-0.2C80.7,7.1,82,7,83.2,7C88.1,6.9,93,7.3,98,8.2c3.6,0.7,7.1,1.6,10.5,2.9c3.4,1.2,6.7,2.7,9.8,4.4
		c3.1,1.7,6.1,3.6,9,5.7c1.4,1,2.8,2.2,4.1,3.3c1.3,1.2,2.6,2.3,3.9,3.5c1.3,1.2,2.4,2.5,3.6,3.7c1.1,1.3,2.3,2.6,3.3,3.9
		c1.1,1.3,2.1,2.7,3.1,4c1,1.4,1.9,2.8,2.8,4.2c2.5,3.9,4.7,8,6.5,12.1l0,0c-2.1-1.8-4.3-3.5-6.5-5.2c-0.6-0.4-1.1-0.8-1.7-1.2
		c-0.4-0.3-0.9-0.6-1.3-0.9c-0.7-0.5-1.3-0.9-2-1.4c-0.4-0.3-0.8-0.5-1.2-0.8c-0.6-0.4-1.1-0.8-1.7-1.1c-0.7-0.4-1.3-0.8-1.9-1.2
		l-0.5-0.3l-0.3-0.2l-0.1-0.1c0,0-0.1-0.1-0.1,0l0,0c-0.1,0.5-0.3,0.9-0.4,1.3c-1.3,4.4-2.5,8.6-3.6,12.5c-0.8,2.8-1.5,5.4-2.2,7.8
		l0,0c-0.1-0.4-0.3-0.8-0.4-1.2c-0.1-0.3-0.2-0.5-0.3-0.7c-0.1-0.4-0.3-0.8-0.5-1.1c-0.6-1.5-1.3-3-2.1-4.4
		c-1.2-2.3-2.5-4.4-3.9-6.5c-0.3-0.4-0.6-0.8-0.8-1.1l0,0c-0.5-0.7-1-1.2-1.4-1.7l-0.1-0.1c-0.2-0.2-0.4-0.4-0.5-0.6
		c-0.7-0.8-1.1-1.1-1.2-1.1l0,0v0.1c0.2,0.5,1.5,2.2,3.3,5.1c1.1,1.7,2.3,3.9,3.6,6.6c0.1,0.2,0.2,0.4,0.3,0.6
		c-0.2-0.4-0.5-0.7-0.7-1.1c-2-2.7-4.4-5-7.1-7.1c-0.2-0.1-0.4-0.3-0.6-0.4c0.8-2,1.2-3.3,1.2-3.8c0-0.1-0.1-0.1,0-0.1
		c0,0-0.1,0-0.2,0.1c-0.3,0.4-1,1.4-1.9,3.1c-0.7,1.2-1.5,2.7-2.4,4.5c0,0.1-0.1,0.2-0.1,0.3c-0.8,1.5-1.6,3.2-2.6,5
		c-0.5,1-1,2.1-1.6,3.2c-0.3,0.6-0.6,1.1-0.9,1.7c-0.1,0.3-0.3,0.6-0.4,0.9s-0.3,0.6-0.4,0.8c-0.1,0.1-0.1,0.2-0.2,0.2
		c-0.1,0.1-0.1,0.1-0.2,0.2c-0.1,0-0.1,0-0.2,0c-0.2,0-0.7-0.2-1.1-0.5c-1.1-0.7-2.2-1.5-3.4-2.3c-4.8-3-10.2-6-16-8.7
		c-0.2-0.1-0.3-0.1-0.5-0.2l0,0c-2.2-1-4.4-1.9-6.6-2.8c-0.3-0.1-0.6-0.2-0.9-0.3c-0.4-0.1-0.8-0.3-1.2-0.4
		c-0.5-0.2-1.1-0.4-1.6-0.6l0,0c0,0,0,0-0.1,0l0,0c0,0,0,0,0,0.1l0,0v0.1L77.1,51l-0.2,0.5l-0.4,0.9c-0.2,0.4-0.4,0.9-0.5,1.4
		c-0.1,0.3-0.3,0.6-0.4,0.9c-0.2,0.6-0.4,1.2-0.7,1.7l0,0v0.1c-0.9,2.5-1.8,4.8-2.6,7.1c-0.2,0.6-0.4,1.1-0.6,1.7
		c-0.1,0.3-0.2,0.6-0.3,0.8c-0.1,0.3-0.2,0.6-0.2,0.6c-0.1,0.2-0.1,0.4-0.2,0.6l0,0c-0.1-0.1-0.1-0.2-0.2-0.3l-0.1-0.2v-0.1
		l-0.1-0.2c-0.1-0.1-0.2-0.3-0.2-0.5c-0.6-1.2-1.1-2.4-1.7-3.5c-0.3-0.6-0.6-1.1-0.8-1.7l0,0c-0.7-1.4-1.4-2.7-1.9-3.8
		c-0.1-0.3-0.3-0.5-0.4-0.8l0,0c-0.4-0.7-0.7-1.3-1-1.8l0,0c-0.1-0.1-0.1-0.2-0.2-0.3c-0.7-1.1-1.1-1.7-1.2-1.7
		C62.7,52,57.4,58.1,50.4,67l0,0c-2,2.6-4.2,5.4-6.5,8.4c-0.5,0.6-0.9,1.2-1.4,1.8l0,0l0,0l0,0l0,0l0,0v-0.1c0-0.2-0.1-0.4-0.1-0.6
		c-0.1-0.4-0.2-0.8-0.3-1.3c-0.3-1.6-0.7-3.2-1-4.7c-0.6-3-1.3-5.7-1.8-7.9c-1.1-4.4-1.9-7-2.2-6.9c0,0,0,0.1-0.1,0.2
		c-0.2,0.7,0,3.3,0.5,7.2c0.3,2.3,0.7,5,1.2,8c0.3,1.5,0.5,3.1,0.8,4.8l0.2,1.3c0.1,0.6,0.2,1.2,0.3,1.8c0.2,1,0.4,2,0.6,3.1
		c-1.1,1.7-2.1,3.4-3.1,5.1c-0.7,1.3-1.3,2.5-1.9,3.8c-0.9-1.2-1.9-2.5-2.9-3.9c-0.2-0.3-0.4-0.5-0.6-0.8c-0.4-0.6-0.8-1.1-1.1-1.6
		c-0.2-0.3-0.4-0.5-0.5-0.8c0-0.1-0.1,0-0.1,0L30.3,84l-0.2,0.2l-0.4,0.3c-0.5,0.5-1,0.9-1.4,1.3l-0.4,0.4c-0.1,0.1-0.2,0.2-0.3,0.4
		c-0.2,0.3-0.4,0.5-0.7,0.7c-0.2,0.3-0.4,0.5-0.6,0.8s-0.4,0.5-0.6,0.8c-1.5,2-2.5,4-3.1,5.7c-0.7,1.7-1,3.2-1.2,4.2
		c-0.1,0.6-0.1,1.1-0.1,1.4c0.1,0.2,0.2,0.3,0.1,0.3c0.2,0,0.5-0.5,0.9-1.4s1-2.2,1.8-3.7s1.9-3.3,3.4-5c0.2-0.2,0.4-0.4,0.5-0.7
		c0.2-0.2,0.4-0.4,0.6-0.7c0.2-0.2,0.4-0.4,0.6-0.7c0.1-0.1,0.2-0.2,0.3-0.3l0.2-0.2l0.1-0.1l0,0l0,0l0,0l0,0
		c0.2,0.3,0.4,0.6,0.6,0.9c1.3,1.8,2.5,3.4,3.8,4.9c1.2,1.4,2.3,2.6,3.4,3.7c0.1,0.1,0.2,0.2,0.3,0.3l0,0l0,0
		c0.6,0.6,1.2,1.2,1.8,1.7c0.2,0.1,0.3,0.3,0.5,0.4c1.2,1,2.2,1.8,2.9,2.3s1.2,0.7,1.4,0.7h0.1l0,0c0,0,0-0.1,0-0.2
		c-0.3-0.8-2.7-3.3-5.8-7c0.9-2,1.8-3.9,2.9-5.8c1.6-2.9,3.5-5.7,5.5-8.5c0.5-0.6,0.9-1.2,1.3-1.8c0.1,0.3,0.1,0.5,0.2,0.8
		c0.3,1.2,0.7,1.8,0.8,1.7l0,0c0.4-0.1-0.1-2.6,0.8-6.9c0.5-2,1.3-4.4,2.6-7.1c2.9-4,5.4-7.5,7.1-10.2c1-1,2.2-2,3.5-2.8
		c0.2,0.7,0.5,1.5,0.9,2.5l0,0c0,0.1,0.1,0.2,0.1,0.3c0.5,1.3,1.1,2.9,1.8,4.6l0,0c0.2,0.4,0.3,0.8,0.5,1.2c0.5,1.1,1,2.3,1.5,3.6
		c0,0.1,0.1,0.1,0.1,0.2c0.1,0.3,0.3,0.6,0.4,1c0,0.1,0.1,0.1,0.1,0.2c0.2,0.5,0.4,1,0.6,1.5c0,0,0,0,0,0.1c0.4,0.9,0.8,1.8,1.2,2.8
		c-1.6,0.3-3.1,0.3-3.1,0.3c0.8,0.3,2,0.2,3.2,0l0,0c0,0.1,0.1,0.2,0.1,0.3c0,0.1,0.1,0.1,0.1,0.2c0-0.1,0.1-0.1,0.1-0.2
		s0.1-0.2,0.1-0.4l0,0c0.1,0,0.2,0,0.4-0.1c1-0.2,1.8-0.4,2.1-0.4c0.8,0,2-0.3,3.9,2c1.2,1.4,2.3,2.4,2.9,3l0,0
		c-0.1-0.1-0.2-0.3-0.3-0.5l0,0l0,0c-0.5-0.8-1-2.2-1.1-4.7c-0.1-2.9,2.2-5.8,5-8.1c1.9-1.5,3.7-3,6.2-3c4.5-0.2,7.7,3,9.2,4.7
		c0.5,0.7,0.9,1.1,0.9,1.2l0,0c0,0-0.1-1.5-1.7-3.3c0.3,0.2,0.7,0.4,1,0.6c0.1,0.1,0.2,0.1,0.3,0.2c0.2,0.2,0.3,0.3,0.5,0.4
		c0.2,0.2,0.3,0.3,0.3,0.3s-0.1-0.1-0.2-0.4c0.2,0.1,0.4,0.2,0.6,0.4c0.5,0.3,0.9,0.6,1.4,0.8c1.2,0.7,2.3,1.4,3.5,2.1
		c0.6,0.4,1.4,0.8,2.4,0.8c0.5,0,1.1-0.2,1.6-0.6l0.1-0.1c0.4-0.3,0.6-0.7,0.8-1c0.2-0.4,0.3-0.7,0.5-1c0.1-0.3,0.3-0.6,0.4-0.9
		c0.3-0.6,0.5-1.2,0.8-1.8c0.5-1.2,1-2.3,1.4-3.3s0.8-2,1.3-2.9c0.3-0.7,0.6-1.5,0.9-2.1c2.1,1.6,4,3.5,5.4,5.5
		c0.8,1.1,1.4,2.2,1.7,3.2c0.2,0.5,0.3,1,0.3,1.6c0.1,0.6,0.1,1.3,0.1,1.9c-0.1,2.6-0.7,5.2-1.5,7.7c-0.9,2.5-2,4.9-3.2,7.3
		c-0.3,0.7-0.7,1.3-1,1.9c-1.5,0-3.6,0.1-5.9,0c-4.5-0.1-8.1-0.8-8.4-0.1l0,0c-0.1,0.3,0.7,1,2.2,1.6s3.7,1.1,6.1,1.2
		c1.7,0,3.2-0.1,4.5-0.4c0.1,0,0.1,0,0.2,0c-0.5,0.8-1,1.5-1.5,2.2c-0.7,0.9-1.4,1.7-2.1,2.4c-0.1,0.1-0.1,0.1-0.2,0.2
		c-0.8,0.8-1.6,1.5-2.5,2.2c-3.6,2.7-7.6,4.4-11.3,5.4c-1.9,0.5-3.7,0.9-5.5,1.1c-0.6-0.5-1.1-1-1.6-1.6c-0.5-0.5-1.1-1.1-1.6-1.6
		c-0.2-0.2-0.4-0.4-0.5-0.5c-0.4-0.3-0.7-0.7-1.1-1l-1.4-1.4l-0.7-0.7l-0.3-0.3l0,0v0.1l-0.1,0.1l-0.1,0.2c-0.3,0.6-0.5,1.2-0.8,1.8
		c-0.1,0.3-0.3,0.6-0.4,0.9l-0.2,0.4l-0.1,0.2c-0.3,0.6-0.5,1.2-0.7,1.8c-0.3,0.9-0.6,1.8-0.9,2.6c-1.1,0-2.1,0.1-3,0.1
		c-2.5,0.1-4.3,0.2-5.5,0.4c-2.4-2.5-5.1-5.6-7.9-9.1c-0.1-0.2-0.3-0.3-0.4-0.5c-0.1-0.1-0.2-0.3-0.4-0.5c-0.4-0.5-0.8-1-1.1-1.5
		c-0.4-0.6-0.9-1.2-1.3-1.8l-0.8-1.2l-0.5-0.7c-0.2-0.3-0.5-0.7-0.7-1s-0.5-0.7-0.7-1l0-0.4l-0.1-0.1v-0.1l-0.1,0.1l-0.3,0.2
		c-0.7,0.6-1.3,1.3-1.9,1.9c-1.3,1.3-2.5,2.6-3.7,3.8c-2,2.2-3.9,4.5-5.7,6.9c-1.9,2.6-3.2,4.6-3.9,5.8c0.8-0.7,2.6-2.8,5.3-5.7
		c1.7-1.9,3.7-4.1,6-6.4c1.2-1.2,2.4-2.4,3.7-3.7c0.1,0,0,0,0,0l0,0l0.2,0.3l0.1,0.1l0.4,0.5c0.3,0.4,0.6,0.8,0.8,1.2
		c0.7,1,1.4,1.9,2.1,2.8c0.1,0.2,0.2,0.3,0.4,0.5c3.1,3.9,6.3,7.3,9.2,9.9c0.2,0.2,0.3,0.3,0.5,0.5c0.1,0.1,0.1,0.1,0.2,0.1
		c0.4,0.4,0.8,0.7,1.1,1c2.5,2.2,4.6,3.6,5.7,4.3c-1-1-2.5-2.6-4.5-4.6c-0.1-0.1-0.3-0.3-0.4-0.5c1.1,0.2,2.6,0.3,4.3,0.5
		c0.7,0.1,1.5,0.1,2.3,0.2c-0.6,2.2-0.9,3.8-0.8,4.5c0.1,0.1,0.1,0.2,0.1,0.3l0,0c0.3,0.1,1.1-1.7,2.4-4.7c0.2-0.4,0.3-0.8,0.5-1.2
		c0.1-0.2,0.2-0.5,0.3-0.7c0.1-0.2,0.2-0.4,0.3-0.6c0.2-0.5,0.5-1.1,0.7-1.6c0.3-0.5,0.5-1.1,0.8-1.7c0.2-0.4,0.1-0.3,0.2-0.3l0,0
		l0,0l0,0l0.1,0.1L89,99c0.5,0.6,1.1,1.1,1.7,1.7c0.2,0.2,0.4,0.4,0.6,0.6c0.3,0.3,0.6,0.6,1,0.9c0.5,0.5,1,1,1.6,1.5
		c8.4,7.8,15.9,12.8,16.3,12.3l0,0c0.2,0.1,0.7-0.8,1.5-2.4c0.5-1.1,1.2-2.5,2.1-4.2c1.8-3.6,4.3-8.3,7.5-13.2
		c0.3-0.4,0.4-0.6,0.4-0.6l0,0l0,0l0,0l0,0l0,0l0,0l0,0l0,0l0,0l0,0l0,0l0,0l0,0l0,0c0.2,0.3,0.3,0.7,0.4,1c0.3,0.7,0.6,1.3,0.9,1.9
		c1.2,2.5,2.3,4.7,3.4,6.5c2.1,3.6,3.8,5.6,4,5.4l0,0c0.1,0.1,0.4-0.1,0.7-0.5c0.6-0.7,1.5-1.9,2.7-3.6s2.7-3.8,4.5-6.1
		c0.1-0.1,0.2-0.2,0.3-0.3c0,0,0,0,0.1-0.1c0.6-0.8,1.3-1.7,2-2.5c0.8-1,1.6-1.9,2.4-2.8c0.4-0.5,0.8-0.9,1.1-1.3l0.1-0.1l0,0V93
		l0.1-0.1l0,0c0,0,0,0,0.1,0l0,0c0,0,0,0,0.1,0.1l0.1,0.1c0.1,0.1,0.3,0.2,0.4,0.3c0.5,0.4,0.9,0.8,1.4,1.2c0.9,0.8,1.7,1.4,2.3,1.9
		c1.3,1,2.2,1.6,2.4,1.4l0,0c0,0,0.1-0.2,0.2-0.5c0.1-0.3,0.3-0.8,0.5-1.4c0.1-0.2,0.1-0.4,0.2-0.7c0.1-0.2,0.2-0.5,0.3-0.7
		c0.2-0.5,0.4-1,0.6-1.5c0.1-0.3,0.2-0.5,0.3-0.8c0.2-0.5,0.4-1,0.6-1.5c0.1-0.2,0.1-0.3,0.2-0.5c0.1-0.1,0.1-0.3,0.2-0.4
		c0.1-0.3,0.3-0.5,0.4-0.8c0.3,0.6,0.7,1.2,1.1,1.9c0.2,0.5,0.5,1,0.7,1.5s0.5,1,0.7,1.6l0.4,1.1l0,0c0.3,0.8,0.6,1.5,0.9,2.4
		c0.9,2.4,1.5,5.2,2,8.1c0.5,3,0.7,6.2,0.8,9.6c0,3.4-0.1,7-0.6,10.8c-0.4,3.8-1.1,7.7-1.9,11.8c-0.8,4.1-1.9,8.3-3.2,12.5
		c-0.3,1.1-0.7,2.1-1.1,3.2c-0.2,0.5-0.4,1.1-0.6,1.6c-0.2,0.5-0.4,1.1-0.6,1.6c-0.4,1.1-0.9,2.1-1.4,3.2c-0.5,1-1,2.1-1.5,3.2
		c-1,2.1-2.3,4.2-3.5,6.3c-0.2,0.4-0.5,0.8-0.7,1.1s-0.4,0.6-0.6,0.8c-0.4,0.6-0.9,1.3-1.4,1.9c-0.3,0.4-0.6,0.8-0.9,1.2
		c-0.2,0.3-0.5,0.6-0.7,0.9l-0.6,0.7l-0.6,0.7c-0.4,0.5-0.8,0.9-1.3,1.4c-0.4,0.5-0.9,0.9-1.3,1.4c-0.5,0.5-0.9,0.9-1.3,1.3
		c-1,0.9-1.9,1.7-2.9,2.5l-1.5,1.2l-0.8,0.6l-0.8,0.6c-4.2,3.1-8.9,5.8-13.8,7.9c-5,2.1-10.3,3.7-15.8,4.7c-5.5,0.9-11.2,1.3-17,1
		s-11.4-1.2-16.9-2.6c-5.4-1.4-10.6-3.3-15.6-5.5c-4.9-2.3-9.7-4.8-13.8-7.9c-2.1-1.5-4-3.3-5.6-5.1c-1.7-1.9-3.1-3.9-4.5-6
		s-2.6-4.2-3.8-6.4c-1.2-2.1-2.4-4.3-3.5-6.4c-2.3-4.2-4.3-8.4-6.1-12.5s-3.3-8.1-4.5-12.1s-2.1-7.8-2.7-11.6
		c-0.6-3.7-0.8-7.3-0.8-10.7c0-3.4,0.3-6.6,0.8-9.6c0.1-0.7,0.3-1.5,0.4-2.2c0.1-0.7,0.3-1.4,0.4-2.1c0.3-1.4,0.6-2.7,1-3.9
		c0.4-1.2,0.9-2.3,1.5-3.2c0.3-0.4,0.7-0.8,1.1-0.9c0.2-0.1,0.4-0.1,0.6-0.1c0.1,0,0.2,0,0.3,0s0.2,0.1,0.3,0.1
		c0.2,0.1,0.4,0.3,0.6,0.4c0.2,0.1,0.3,0.3,0.5,0.5l0,0c0.3,0.3,0.7,0.7,1,1c0.6,0.7,1.1,1.4,1.6,2.1c1,1.3,1.7,2.5,2.4,3.4
		c0.2,0.2,0.3,0.5,0.5,0.7c0.3,0.5,0.6,0.8,0.8,1.1c0.1,0.1,0.1,0.2,0.2,0.3c0.1,0.1,0.2,0.2,0.3,0.3c0.2,0.2,0.4,0.3,0.4,0.3
		s0-0.1-0.1-0.3c-0.1-0.1-0.2-0.3-0.3-0.5c-0.3-0.5-0.7-1.2-1.3-2.2c-0.6-1-1.3-2.2-2.2-3.6c-0.5-0.7-1-1.4-1.5-2.2
		c-0.3-0.4-0.6-0.8-1-1.2c-0.4-0.4-0.8-0.8-1.3-1.1c-0.1-0.1-0.3-0.1-0.5-0.2c-0.2,0-0.4-0.1-0.5-0.1c-0.3,0-0.7,0.1-1,0.2
		c-0.7,0.3-1.2,0.7-1.6,1.2c-0.8,1-1.3,2.2-1.8,3.5s-0.8,2.6-1.1,4c-0.1,0.7-0.3,1.4-0.5,2.1s-0.3,1.5-0.5,2.2
		c-1.2,6-1.5,13.2-0.4,20.9c0.5,3.8,1.4,7.8,2.6,11.9c1.2,4.1,2.7,8.2,4.5,12.4s3.8,8.4,6.1,12.7c1.1,2.1,2.3,4.3,3.5,6.4
		c1.2,2.2,2.5,4.4,3.9,6.5s2.9,4.3,4.7,6.3c1.8,2,3.8,3.9,6,5.5c4.4,3.3,9.2,5.9,14.3,8.3c5.2,2.4,10.5,4.3,16.1,5.7
		c5.6,1.5,11.4,2.4,17.4,2.7c5.9,0.3,11.8,0,17.6-1c5.6-1,11.1-2.6,16.4-4.9c5.2-2.2,10-5,14.3-8.2l0.8-0.6l0.8-0.6
		c0.5-0.4,1-0.8,1.6-1.3c1-0.9,2-1.8,3-2.7c0.5-0.5,0.9-0.9,1.4-1.4s0.9-0.9,1.4-1.4c0.4-0.5,0.9-1,1.3-1.5l0.6-0.7l0.6-0.8
		c1.6-2,3.1-4.1,4.5-6.2c1.3-2.1,2.6-4.3,3.6-6.5c0.6-1.1,1-2.2,1.5-3.3s1-2.2,1.4-3.3l0.6-1.7c0.2-0.5,0.4-1.1,0.6-1.6
		c0.4-1.1,0.7-2.2,1.1-3.3c1.3-4.4,2.3-8.6,3.1-12.8c0.8-4.1,1.4-8.2,1.8-12C163.3,118.5,163.1,111.5,162,105.4z M71.8,72.9
		c0.5-1.5,1.1-3.1,1.6-4.7c0.1-0.3,0.3-0.7,0.4-1l0.3-0.8c0.6-1.6,1.2-3.1,1.8-4.7c0.5-1.3,1-2.6,1.5-3.9c0.1-0.3,0.2-0.5,0.3-0.8
		c0.1-0.3,0.3-0.7,0.4-1l0,0l0,0c0.1-0.3,0.2-0.6,0.4-0.9l0.2-0.5l0,0l0,0c0.4,0.2,0.9,0.4,1.3,0.5h0.1c0.3,0.1,0.7,0.3,1,0.4l0,0
		c0.5,0.2,1,0.4,1.5,0.6c1.5,0.6,3,1.3,4.5,1.9c0.4,0.2,0.7,0.3,1.1,0.5c-8.5,1.9-11.8,10.8-13.4,12.7C74.1,72.1,73,72.6,71.8,72.9z
		 M130.5,110.5L130.5,110.5L130.5,110.5z"/>
	<path class="st0" d="M151.9,96c0.1-0.2,0.1-0.4,0.2-0.7"/>
	<path class="st0" d="M151.5,97.4c0.1-0.3,0.3-0.8,0.5-1.4"/>
	<path class="st0" d="M153.3,92.2c0.2-0.5,0.4-1,0.6-1.5"/>
	<path class="st0" d="M145.6,171.4c-0.4,0.6-0.9,1.3-1.4,1.9"/>
	<path class="st0" d="M138.7,99.9L138.7,99.9"/>
	<line class="st0" x1="121.6" y1="95.6" x2="121.6" y2="95.6"/>
	<line class="st0" x1="130.5" y1="110.5" x2="130.5" y2="110.5"/>
	<path class="st11" d="M35.9,158.5c1.5,4.4,4.8,8.1,9,10c0.1,0,0.2,0.1,0.3,0.1c0.7,0.3,1.3,0.5,2.1,0.5c1.7,0,3.2-1.2,4.3-2.6
		c-0.7-0.5-1.3-1.1-1.9-1.6c-4.4-4-8.1-8.8-11.6-14l0,0c-0.3,0.1-0.5,0.3-0.8,0.5c-1.2,0.9-1.8,2-2,3.2
		C35.1,155.9,35.4,157.2,35.9,158.5z"/>
	<path class="st12" d="M49.6,165c0.6,0.6,1.3,1.1,1.9,1.6c0,0,0-0.1,0.1-0.1c3.1-4,4.6-9.3,1.7-12.8c-0.7-0.8-1.6-1.5-2.8-2.1
		c-3.4-1.7-8.9-2.5-12.5-0.6l0,0C41.5,156.1,45.2,161,49.6,165z"/>
	<path class="st12" d="M61,144.9c0,3.7,1.7,7.2,4.3,9.9c0.6,0.6,1.2,1.2,1.9,1.7c3.7,2.7,8.3,3.8,12.8,3.9c3.4,0,7-0.6,9.2-3.2
		c1.5-1.7,2-4,2.5-6.1c0.7-3,1.4-6,1.3-9s-1-6.2-3.1-8.4c-2-2.1-5-3.2-7.9-3.7C73.3,128.4,61.1,134.6,61,144.9z"/>
	<path class="st11" d="M81.1,176.9c-7-0.2-14-1.6-20.6-4.8l0,0c-1.1,2.5-1.2,5.4-0.1,8c1.9,4.4,6.5,6.7,11,6.8
		c2.6,0.1,5.5-0.6,7.2-2.6l0,0c0.1-0.1,0.2-0.2,0.2-0.3c0.5-0.6,0.9-1.4,1.2-2.1c0.1-0.3,0.2-0.6,0.3-0.9
		C80.9,179.6,81.1,178.2,81.1,176.9L81.1,176.9L81.1,176.9z"/>
	<path class="st12" d="M60.5,172.1c6.6,3.1,13.6,4.6,20.6,4.8c-0.2-6.2-5.7-10.8-12.5-10.5c-1.9,0.1-3.6,0.7-5,1.7
		c-0.9,0.6-1.6,1.4-2.2,2.3C61.1,170.9,60.7,171.5,60.5,172.1L60.5,172.1z"/>
	<path class="st11" d="M92,177.5c0,0.1,0,0.1,0,0.2c0.8,2.9,2.7,5.6,5.3,6.9s6.2,1.1,8.5-0.8c1.1-0.9,1.9-2.2,2.6-3.5
		c1.5-2.9,2.4-6.2,2.5-9.5c-4.4,2-9,3.5-13.9,4.5c-1.7,0.4-3.5,0.7-5.2,0.9l0,0l0,0l0,0l0,0c0,0.1,0,0.1,0,0.2
		C91.8,176.8,91.9,177.1,92,177.5z"/>
	<path class="st0" d="M91.7,176.3c0.1,0.4,0.1,0.8,0.2,1.2"/>
	<path class="st12" d="M136,151.6c-0.1-0.6-0.3-1.1-0.5-1.6c-1.8-4.5-9.7-9.6-16.1-9.9c-0.3,0-0.6,0-0.9,0c-0.9,0-1.8,0.1-2.6,0.4
		c-0.5,0.2-1,0.4-1.5,0.6c-1.2,0.7-2.2,1.7-2.9,3.1c-0.9,1.8-1.5,4.2-1.6,6.5c-0.1,1.4,0.1,2.7,0.5,3.8c0.5,1.2,1.3,2.2,2.2,3
		c0.7,0.6,1.5,1.2,2.3,1.7c0.3,0.2,0.5,0.3,0.8,0.5c0.6,0.4,1.2,0.7,1.8,1.1s1.2,0.7,1.8,1c1.2,0.7,2.5,1.3,3.8,1.8
		C127.9,160.2,132.2,156.1,136,151.6z"/>
	<path class="st0" d="M112.6,157.5c0.7,0.6,1.5,1.2,2.3,1.7"/>
	<path class="st0" d="M114.4,141.1c0.5-0.3,1-0.5,1.5-0.6"/>
	<path class="st0" d="M118.5,140.1c-0.9,0-1.8,0.1-2.6,0.4"/>
	<path class="st0" d="M110.9,169.8c0,0.3,0,0.7,0,1"/>
	<path class="st0" d="M91.6,173.5c0-0.6,0.1-1.1,0.2-1.7"/>
	<path class="st0" d="M123.2,163.6c-1.3-0.5-2.5-1.1-3.8-1.8"/>
	<path class="st12" d="M91.7,176.2c1.7-0.3,3.5-0.6,5.2-0.9c4.9-1,9.6-2.5,13.9-4.5l0,0l0,0c0-0.3,0-0.7,0-1c0-2.2-0.4-4.5-2-6
		c-0.3-0.3-0.7-0.6-1.2-0.9c-0.5-0.3-1-0.5-1.5-0.7s-1.1-0.4-1.7-0.5c-3-0.6-6.5-0.3-8.3,1.3c-1.3,1.1-2.3,2.6-3,4.3
		c-0.5,1.1-0.8,2.2-1.1,3.4c-0.1,0.4-0.2,0.8-0.2,1.2c-0.1,0.6-0.1,1.1-0.2,1.7c0,0,0,0,0,0.1C91.6,174.5,91.6,175.3,91.7,176.2
		L91.7,176.2L91.7,176.2z"/>
	<path class="st11" d="M123.2,163.6c1.9,0.8,3.8,1.3,5.8,1.5c0.3,0,0.6,0.1,0.9,0.1c0.9,0,1.9-0.1,2.7-0.5c2-1,2.9-3.3,3.3-5.5
		c0.5-2.5,0.7-5.2,0.1-7.6l0,0C132.2,156.1,127.9,160.2,123.2,163.6z"/>
	<path class="st9" d="M13.1,73.3c0,0.1,0,0.2,0.1,0.2c0,0.1,0.1,0.3,0.2,0.5l0,0l0,0l0.1-0.1l0.2-0.1l0.2-0.1l0.1-0.1l0.2-0.1
		c0.6-0.4,1.2-0.8,1.7-1.2c4.5-3.2,8.3-6.3,11.3-8.9c3.1-2.5,5.5-4.5,7.1-5.8c1.7-1.3,2.6-1.9,2.6-1.8c0.3-0.1,1.2,2.5,2.2,6.9
		c0.5,2.2,1.1,4.9,1.8,7.9c0.3,1.5,0.6,3.1,1,4.7c0.1,0.4,0.2,0.8,0.3,1.3c0,0.2,0.1,0.4,0.1,0.6v0.1l0,0l0,0l0,0l0,0l0,0
		c0.5-0.6,0.9-1.2,1.4-1.8c2.3-3,4.4-5.8,6.5-8.4c7.1-8.9,12.4-15,12.8-14.6c0.1-0.1,0.5,0.5,1.2,1.7c0.1,0.1,0.1,0.2,0.2,0.3
		c0.3,0.5,0.6,1.1,1,1.8l0,0c0.1,0.2,0.3,0.5,0.4,0.8c0.6,1.1,1.2,2.4,1.9,3.8l0,0c0.3,0.5,0.5,1.1,0.8,1.7c0.5,1.1,1.1,2.2,1.7,3.5
		c0.1,0.1,0.2,0.3,0.2,0.5l0.1,0.2v0.1l0.1,0.2c0.1,0.1,0.1,0.2,0.2,0.3c0-0.2,0.1-0.4,0.2-0.6c0,0,0.1-0.3,0.2-0.6
		c0.1-0.3,0.2-0.6,0.3-0.8c0.2-0.6,0.4-1.1,0.6-1.7c0.8-2.3,1.6-4.7,2.6-7.1v-0.1l0,0c0.2-0.6,0.4-1.1,0.7-1.7
		c0.1-0.3,0.3-0.6,0.4-0.9c0.2-0.5,0.4-0.9,0.5-1.4l0.4-0.9l0.2-0.5l0.1-0.2v-0.1l0,0v-0.1c0,0,0,0,0.1,0h0.1l0,0
		c0.5,0.2,1.1,0.4,1.6,0.6c0.4,0.1,0.8,0.3,1.2,0.4c0.3,0.1,0.6,0.2,0.9,0.3c2.2,0.8,4.4,1.8,6.7,2.8l0,0c0.2,0.1,0.3,0.1,0.5,0.2
		c5.9,2.7,11.3,5.7,16,8.7c1.2,0.8,2.3,1.5,3.4,2.3c0.5,0.3,0.9,0.5,1.1,0.5c0.1,0,0.1,0,0.2,0l0.1-0.1c0-0.1,0.1-0.1,0.2-0.2
		c0.1-0.2,0.3-0.5,0.4-0.8c0.2-0.3,0.3-0.6,0.4-0.9c0.3-0.6,0.6-1.2,0.9-1.7c0.6-1.1,1.1-2.2,1.6-3.2c0.9-1.9,1.8-3.5,2.6-5
		c0-0.1,0.1-0.2,0.1-0.3c0.9-1.8,1.7-3.3,2.4-4.5c0.9-1.7,1.6-2.7,1.9-3.1c0.1-0.1,0.2-0.2,0.2-0.2l0,0l0,0c0,0,0.5,0.3,1.2,1.1
		c0.2,0.2,0.4,0.4,0.5,0.6l0.1,0.1c0.4,0.5,0.9,1,1.4,1.7l0,0c0.3,0.4,0.6,0.8,0.8,1.1c1.5,2.1,2.8,4.3,3.9,6.5
		c0.7,1.5,1.4,2.9,2.1,4.4c0.1,0.4,0.3,0.7,0.5,1.1c0.1,0.3,0.2,0.5,0.3,0.7c0.2,0.4,0.3,0.8,0.4,1.2c0.7-2.4,1.4-5,2.2-7.8
		c1.1-3.9,2.3-8.1,3.6-12.5l0.4-1.3l0,0h0.1l0.1,0.1l0.3,0.2L138,44c0.6,0.4,1.3,0.8,1.9,1.2c0.6,0.4,1.1,0.8,1.7,1.1
		c0.3,0.2,0.6,0.4,0.9,0.6c0.1,0.1,0.2,0.1,0.3,0.2c0.7,0.4,1.3,0.9,2,1.4c0.4,0.3,0.9,0.6,1.3,0.9c0.6,0.4,1.1,0.8,1.7,1.2
		c2.2,1.7,4.4,3.4,6.5,5.2c-1.8-4.1-4-8.2-6.5-12.1c-0.9-1.4-1.9-2.8-2.8-4.2c-1-1.4-2-2.7-3.1-4c-1.1-1.4-2.2-2.6-3.3-3.9
		c-1.2-1.3-2.4-2.5-3.6-3.7c-1.2-1.2-2.6-2.4-3.9-3.5c-1.3-1.1-2.7-2.2-4.1-3.3c-2.8-2.1-5.8-4-9-5.7s-6.4-3.1-9.8-4.4
		C105,9.9,101.5,8.9,98,8.2C93,7.3,88.1,6.9,83.2,7c-1.2,0.1-2.5,0.1-3.7,0.2l-1.8,0.2l-0.8,0.1h-0.1l-0.9,0.1
		c-1.2,0.2-2.4,0.3-3.6,0.6c-1.2,0.2-2.4,0.5-3.5,0.8c-4.7,1.1-9.2,2.7-13.6,4.4s-8.6,3.7-12.4,6.1c-1.9,1.2-3.7,2.5-5.4,4
		c-0.9,0.7-1.6,1.5-2.4,2.3c-0.8,0.8-1.5,1.6-2.2,2.5c-2.9,3.4-5.3,7.1-7.5,10.8s-4,7.5-5.8,11.2c-0.9,1.8-1.7,3.6-2.6,5.4
		c-0.8,1.8-1.7,3.5-2.4,5.2s-1.4,3.3-1.7,5c-0.4,1.6-0.5,3.3-0.3,4.8c0,0.4,0.1,0.8,0.2,1.2l0.1,0.6l0.2,0.6L13.1,73.3z M29.7,45.5
		c0.3-0.9,0.7-2.2,1.5-3.7c1.5-3.1,4-7.5,8-12.1c0.3-0.3,0.5-0.6,0.8-0.9s0.5-0.6,0.8-0.9c0.5-0.6,1.1-1.1,1.7-1.8
		c1.2-1.1,2.4-2.3,3.8-3.4c1.3-1.2,2.8-2.2,4.3-3.3c0.8-0.5,1.6-1,2.4-1.5c0.8-0.5,1.7-1,2.5-1.4c2.6-1.4,5.3-2.6,8.2-3.6
		c1-0.3,2-0.7,3-0.9c4-1.1,8.2-1.7,12.5-2c4.3-0.2,8.4,0,12.4,0.3c2,0.2,3.9,0.3,5.8,0.5s3.8,0.5,5.6,0.8c1.9,0.4,3.7,0.9,5.4,1.6
		c1.7,0.7,3.3,1.6,4.7,2.4c1.4,0.8,2.8,1.6,4.1,2.4c1.3,0.8,2.5,1.6,3.7,2.3c4.7,3,8.3,6.1,10.5,8.5c2.2,2.5,3.1,4.2,2.8,4.4l0,0
		l0,0l0,0c-0.3,0.3-1.7-0.7-4.2-2.5s-6.2-4.1-11-6.5c-1.2-0.6-2.5-1.3-3.8-1.9c-1.3-0.7-2.7-1.4-4.2-2.1c-1.4-0.7-2.9-1.4-4.3-1.9
		c-1.5-0.5-3-0.9-4.7-1.2c-1.7-0.3-3.4-0.4-5.3-0.6c-1.9-0.1-3.7-0.3-5.7-0.4c-3.8-0.2-7.8-0.3-11.8-0.1c-4,0.2-7.9,0.7-11.5,1.7
		c-3.6,0.9-7.1,2.2-10.2,3.8h-0.1c-0.6,0.3-1.2,0.6-1.8,1c-0.1,0.1-0.3,0.1-0.4,0.2c-0.8,0.4-1.5,0.9-2.2,1.3
		c-1.4,0.9-2.8,1.8-4.1,2.8c-1.3,0.9-2.5,2-3.7,2.9c-0.6,0.5-1.1,1-1.7,1.5c-0.3,0.2-0.5,0.5-0.8,0.7c-0.3,0.3-0.5,0.5-0.8,0.7
		c-4,3.9-6.9,7.6-8.8,10.2c-1,1.3-1.7,2.3-2.3,3c-0.4,0.5-0.8,0.8-1,0.9c-0.1,0-0.1,0-0.2,0C29.4,46.9,29.5,46.4,29.7,45.5z"/>
	<path class="st0" d="M145.1,48.6c-0.7-0.5-1.3-0.9-2-1.4"/>
	<path class="st0" d="M55.5,22.9c0.6-0.3,1.2-0.6,1.8-1"/>
	<path class="st13" d="M29.8,47c0.2-0.1,0.5-0.4,0.9-0.9c0.6-0.7,1.3-1.7,2.3-3c1.9-2.6,4.8-6.3,8.8-10.2c0.3-0.3,0.5-0.5,0.8-0.7
		c0.3-0.3,0.5-0.5,0.8-0.7c0.5-0.5,1.1-1,1.7-1.5c1.2-0.9,2.4-2,3.7-2.9c1.3-1,2.7-1.8,4.1-2.8c0.7-0.4,1.5-0.8,2.2-1.3
		c0.1-0.1,0.3-0.1,0.4-0.2c0.6-0.3,1.2-0.6,1.8-1c0,0,0,0,0.1,0l0,0c3.2-1.5,6.6-2.9,10.2-3.8c3.6-1,7.5-1.5,11.5-1.7
		s7.9-0.1,11.8,0.1c1.9,0.1,3.8,0.3,5.7,0.4c1.8,0.1,3.6,0.3,5.3,0.6c1.7,0.3,3.2,0.6,4.7,1.2c1.5,0.5,2.9,1.2,4.3,1.9
		c1.4,0.7,2.8,1.4,4.2,2.1c1.3,0.7,2.6,1.3,3.8,1.9c4.8,2.5,8.5,4.8,11,6.5c2.5,1.7,3.9,2.8,4.2,2.5l0,0l0,0c0.2-0.3-0.6-2-2.8-4.4
		c-2.2-2.5-5.8-5.5-10.5-8.5c-1.2-0.8-2.4-1.6-3.7-2.3c-1.3-0.8-2.6-1.6-4.1-2.4s-3-1.7-4.7-2.4s-3.6-1.3-5.4-1.6s-3.8-0.6-5.6-0.8
		c-1.9-0.2-3.8-0.4-5.8-0.6C87.4,10,83.3,9.9,79,10.1c-4.3,0.2-8.5,0.8-12.5,2c-1,0.3-2,0.6-2.9,0.9c-2.9,1-5.6,2.2-8.2,3.6
		c-0.8,0.5-1.7,0.9-2.5,1.4s-1.6,1-2.4,1.5c-1.5,1.1-3,2.1-4.3,3.3c-1.4,1.1-2.6,2.3-3.8,3.4c-0.6,0.6-1.1,1.2-1.7,1.8
		c-0.3,0.3-0.5,0.6-0.8,0.9s-0.5,0.6-0.8,0.9c-4,4.6-6.5,9-8,12.1c-0.8,1.5-1.2,2.8-1.5,3.7s-0.3,1.4-0.1,1.5
		C29.6,47.1,29.7,47.1,29.8,47z"/>
</g>
</svg>
