<svg xmlns="http://www.w3.org/2000/svg" xml:space="preserve" style="enable-background:new 0 0 200 200" viewBox="0 0 200 200">
    <path d="M154.17 55.69c18.11 21.09 27.06 19.56 31.86 33.78 8.77 26.01-12.32 57.35-15.7 56.4-1.36-.38.8-5.81-.92-18.1-.94-6.77-2.71-18.38-11.25-28.22-2.38-2.74-4.09-6.01-5.95-5.61-1.52.32-2.34 2.77-2.57 4.32-.6 3.9 1.67 7.16 2.97 9.17 3.12 4.84 4.73 10.5 7.4 15.6 4.36 8.32 6.7 21.55 3.24 31.54-6.75 19.51-35.53 26.51-36.7 24.61-.44-.72 3.35-2.25 6.72-7.53 4.4-6.89 3.84-15.26 2.54-31.71-.87-11.02-2.17-16.66-6.41-21.03-.83-.86-3.56-3.66-5.49-2.92-2.45.93-2.21 7.02-1.94 12.79.88 18.64 1.48 23.2 1.61 28.5.28 11.42.6 24.89-7.56 31.47-2.94 2.37-8.14 2.95-18.4 4.01-12.16 1.26-22.83 1.2-30.84.91-17.86-.64-18.31-2.25-25.87-.78-8.7 1.69-16.55 5.46-17.64 3.61-.54-.93 1.21-2.21 2.17-5.08 1.63-4.88-.6-9.62-1.92-12.67 0 0-6.53-15.16-8.27-31.78-.74-7.05-1.11-10.58.36-13.9 5.38-12.15 25.57-15.04 28.86-15.51 10.07-1.44 16.05.47 23.02-4.54 1.65-1.19 5.26-3.86 5.56-7.88.34-4.56-3.78-8.14-4.9-9.11-9.01-7.82-24.45-4.77-35.57-2.42-18.4 3.88-23.89 9.42-26.81 6.58-4.61-4.48 2.64-24.44 17.55-32.92 5.34-3.04 10.24-3.8 13.38-4.25 12-1.74 22.28 1.65 36.85 6.63 7.38 2.52 17.67 6.52 25.58 3.88 1.06-.36 3.66-1.26 4.15-3.21.15-.59.52-2.9-4.84-7.19-6.99-5.59-17.43-9.5-35.85-12.06-11.16-1.55-16.86-2.29-22.78-.49-8.71 2.66-13.66 8.15-14.84 7-1.37-1.35 4.41-9.73 9.94-16.11 7.47-8.61 15.81-18.22 26.47-18.14 2.98.02 6.54 1.81 13.66 5.38 12.08 6.07 23.88 14.19 34.39 14.8 1.2.07 2.88.07 3.45-.87 1.21-2.02-2.82-8.02-8.05-11.34-9.67-6.12-19.13-.3-29.55-7.62-2.09-1.47-2.34-2.15-2.39-2.63C72.24 14.95 99.05.12 118 6.61c16.11 5.52 12.63 21.67 36.17 49.08z" style="fill:#31ab4e"/>
    <path d="M35.9 172.56c7.58-5.9 14.98-12.02 22.31-18.24a907.95 907.95 0 0 0 21.66-19c7.12-6.44 14.15-12.99 21.06-19.65 6.91-6.67 13.7-13.46 20.38-20.35 6.68-6.9 13.2-13.95 19.6-21.09 6.39-7.16 12.59-14.49 18.64-21.93a514.75 514.75 0 0 0 17.41-22.9c5.53-7.83 10.8-15.84 15.75-24.04l1.6.96c-5.05 8.21-10.42 16.21-16.03 24.03a527.604 527.604 0 0 1-17.65 22.83c-6.13 7.41-12.4 14.71-18.86 21.83-6.47 7.11-13.06 14.12-19.8 20.97a870.62 870.62 0 0 1-20.57 20.2 931.678 931.678 0 0 1-43.05 38.33c-7.37 6.14-14.83 12.2-22.45 18.05z" style="fill:#25803b"/>
</svg>